<?xml version="1.0" encoding="UTF-8"?>
<!-- Generator: visioncortex VTracer 0.6.4 -->
<svg version="1.1" xmlns="http://www.w3.org/2000/svg" width="1024" height="1024">
<path d="M0 0 C337.92 0 675.84 0 1024 0 C1024 337.92 1024 675.84 1024 1024 C686.08 1024 348.16 1024 0 1024 C0 686.08 0 348.16 0 0 Z M287 294 C260.26 323.73 255.67 358.13 255.76 396.59 C255.76 399.35 255.75 402.11 255.75 404.87 C255.75 411.54 255.75 418.22 255.76 424.89 C255.77 432.69 255.77 440.48 255.77 448.27 C255.77 462.18 255.78 476.09 255.79 490 C255.81 503.46 255.82 516.93 255.81 530.39 C255.81 531.22 255.81 532.05 255.81 532.91 C255.81 533.74 255.81 534.57 255.81 535.42 C255.81 550.8 255.82 566.18 255.83 581.56 C255.83 586.98 255.83 592.4 255.83 597.81 C255.83 604.42 255.84 611.03 255.85 617.64 C255.85 621.01 255.85 624.37 255.85 627.74 C255.63 651.94 255.63 651.94 259.12 675.81 C259.34 676.75 259.56 677.69 259.79 678.65 C264.74 698.82 274.33 716.28 289 731 C289.83 731.84 290.66 732.67 291.51 733.53 C299.38 741.34 307.31 747.57 317 753 C318.1 753.62 319.21 754.24 320.34 754.88 C346.13 768.57 374.68 768.15 403.14 768.15 C405.77 768.15 408.39 768.15 411.02 768.16 C417.38 768.16 423.75 768.17 430.11 768.17 C435.29 768.17 440.47 768.17 445.66 768.17 C460.4 768.18 475.14 768.19 489.88 768.19 C490.67 768.19 491.46 768.19 492.28 768.19 C493.07 768.19 493.87 768.19 494.68 768.19 C507.52 768.18 520.36 768.19 533.2 768.21 C546.44 768.22 559.67 768.23 572.9 768.23 C580.31 768.23 587.72 768.23 595.13 768.24 C601.44 768.25 607.75 768.25 614.06 768.25 C617.27 768.24 620.48 768.24 623.69 768.25 C661.66 768.34 697.33 765.02 727 739 C727.81 738.35 728.61 737.7 729.45 737.03 C742.29 726.31 751.41 712.22 758 697 C758.28 696.39 758.56 695.78 758.85 695.15 C768.54 673.77 768.59 649.9 768.5 626.86 C768.5 624.03 768.51 621.2 768.52 618.37 C768.53 611.56 768.52 604.74 768.51 597.92 C768.49 589.95 768.5 581.98 768.5 574.01 C768.51 559.78 768.49 545.54 768.47 531.31 C768.44 517.55 768.44 503.8 768.45 490.04 C768.46 474.99 768.46 459.94 768.44 444.88 C768.44 443.28 768.44 441.67 768.44 440.06 C768.44 439.27 768.44 438.47 768.44 437.66 C768.43 432.12 768.44 426.59 768.44 421.06 C768.44 414.3 768.44 407.55 768.42 400.79 C768.41 397.36 768.4 393.92 768.41 390.49 C768.48 350.19 760.17 317.34 731 288 C709.46 266.42 678.28 255.97 648.24 255.86 C647.16 255.86 646.08 255.86 644.97 255.86 C643.79 255.86 642.62 255.85 641.41 255.85 C638.18 255.84 634.95 255.84 631.71 255.84 C628.22 255.84 624.72 255.83 621.22 255.82 C613.59 255.81 605.95 255.8 598.32 255.8 C593.54 255.8 588.77 255.79 583.99 255.79 C570.73 255.78 557.48 255.77 544.22 255.76 C543.38 255.76 542.53 255.76 541.66 255.76 C540.81 255.76 539.96 255.76 539.08 255.76 C537.36 255.76 535.64 255.76 533.93 255.76 C533.07 255.76 532.22 255.76 531.34 255.76 C517.54 255.76 503.74 255.74 489.94 255.71 C475.73 255.69 461.53 255.68 447.32 255.68 C439.36 255.68 431.4 255.67 423.44 255.65 C416.65 255.64 409.87 255.63 403.09 255.64 C399.63 255.64 396.18 255.64 392.73 255.63 C351.86 255.49 315.99 263.46 287 294 Z " fill="#F5F5F0" transform="translate(0,0)"/>
<path d="M0 0 C3.51 0 7.01 -0 10.52 -0.01 C17.36 -0.02 24.2 -0.01 31.05 -0.01 C36.61 -0 42.18 -0 47.75 -0.01 C48.54 -0.01 49.34 -0.01 50.16 -0.01 C51.78 -0.01 53.39 -0.01 55.01 -0.01 C70.13 -0.01 85.25 -0.01 100.37 0 C113.31 0.01 126.26 0.01 139.2 0 C154.28 -0.01 169.35 -0.01 184.42 -0.01 C186.03 -0.01 187.64 -0.01 189.25 -0.01 C190.04 -0.01 190.84 -0.01 191.65 -0.01 C197.21 -0 202.76 -0.01 208.32 -0.01 C215.09 -0.02 221.87 -0.02 228.64 -0 C232.1 0 235.55 0 239 -0 C265.52 -0.04 265.52 -0.04 276.8 2.26 C277.93 2.48 277.93 2.48 279.09 2.7 C311.86 9.43 337.51 28.54 356.51 55.71 C372.18 80.16 374.11 107.98 374.09 136.15 C374.09 139.65 374.1 143.15 374.11 146.64 C374.13 153.48 374.13 160.31 374.13 167.15 C374.13 172.71 374.14 178.28 374.14 183.84 C374.16 199.68 374.17 215.51 374.17 231.34 C374.17 232.62 374.17 232.62 374.17 233.92 C374.17 234.77 374.17 235.63 374.17 236.5 C374.17 250.29 374.19 264.08 374.22 277.87 C374.24 292.08 374.26 306.29 374.26 320.5 C374.26 328.46 374.26 336.41 374.28 344.37 C374.3 351.15 374.31 357.93 374.29 364.71 C374.29 368.15 374.29 371.6 374.3 375.04 C374.45 410.87 369.06 443.6 344.8 471.26 C344.15 472.07 343.5 472.88 342.83 473.71 C325.39 494.6 297.6 508.11 270.71 510.97 C268.77 511.12 268.77 511.12 266.8 511.26 C265.55 511.38 265.55 511.38 264.27 511.5 C251.79 512.58 239.3 512.41 226.79 512.41 C224.16 512.41 221.54 512.41 218.92 512.42 C212.55 512.43 206.19 512.43 199.82 512.43 C194.64 512.43 189.46 512.43 184.28 512.43 C169.54 512.44 154.79 512.45 140.05 512.45 C138.86 512.45 138.86 512.45 137.65 512.45 C136.86 512.45 136.06 512.45 135.25 512.45 C122.41 512.45 109.57 512.46 96.73 512.47 C83.5 512.48 70.26 512.49 57.03 512.49 C49.62 512.49 42.21 512.49 34.81 512.5 C28.49 512.51 22.18 512.51 15.87 512.51 C12.66 512.5 9.45 512.51 6.24 512.51 C-35.78 512.61 -72.66 507.63 -104.2 477.26 C-134.17 446.8 -138.35 408.84 -138.35 368.06 C-138.35 365.3 -138.35 362.55 -138.36 359.8 C-138.36 353.12 -138.37 346.45 -138.37 339.77 C-138.37 334.34 -138.37 328.91 -138.37 323.48 C-138.38 308.04 -138.39 292.61 -138.39 277.17 C-138.39 276.34 -138.39 275.51 -138.39 274.66 C-138.39 273.82 -138.39 272.99 -138.39 272.14 C-138.39 258.67 -138.4 245.21 -138.41 231.75 C-138.42 217.88 -138.43 204.02 -138.43 190.16 C-138.43 182.39 -138.43 174.62 -138.44 166.86 C-138.45 160.24 -138.45 153.63 -138.45 147.02 C-138.44 143.65 -138.45 140.29 -138.45 136.92 C-138.52 103.04 -138.52 103.04 -134.14 86.89 C-133.93 86.11 -133.72 85.33 -133.5 84.53 C-125.2 55.69 -105.1 30.93 -79.2 15.95 C-53.42 1.9 -28.74 -0.06 0 0 Z M50.8 80.26 C49.24 80.39 47.67 80.48 46.1 80.54 C45.22 80.58 44.34 80.62 43.44 80.66 C41.59 80.73 39.74 80.8 37.89 80.87 C37.01 80.9 36.13 80.94 35.23 80.98 C34.03 81.03 34.03 81.03 32.8 81.07 C30.73 81.15 30.73 81.15 28.8 82.26 C27.81 84.02 26.82 85.78 25.9 87.57 C24.8 89.26 24.8 89.26 21.8 91.26 C21.8 91.92 21.8 92.58 21.8 93.26 C19.82 94.25 19.82 94.25 17.8 95.26 C17.8 95.92 17.8 96.58 17.8 97.26 C17.14 97.26 16.48 97.26 15.8 97.26 C15.8 98.25 15.8 99.24 15.8 100.26 C15.2 100.36 14.6 100.47 13.99 100.57 C11.46 101.37 10.4 102.18 8.8 104.26 C8.8 105.25 8.8 106.24 8.8 107.26 C8.07 107.48 7.34 107.69 6.59 107.91 C3.06 109.62 1.49 111.73 -0.89 114.82 C-5.03 120.18 -5.03 120.18 -7.2 121.26 C-7.2 121.92 -7.2 122.58 -7.2 123.26 C-7.8 123.53 -8.4 123.8 -9.01 124.07 C-12.51 125.97 -13.93 127.46 -15.2 131.26 C-15.29 132.88 -15.33 134.51 -15.33 136.14 C-15.34 137.15 -15.34 138.16 -15.34 139.2 C-15.34 140.31 -15.34 141.43 -15.34 142.57 C-15.34 143.75 -15.35 144.93 -15.35 146.15 C-15.36 149.43 -15.36 152.72 -15.36 156 C-15.36 159.54 -15.37 163.07 -15.38 166.61 C-15.39 174.35 -15.4 182.09 -15.4 189.82 C-15.4 194.65 -15.41 199.48 -15.41 204.31 C-15.42 217.67 -15.43 231.03 -15.44 244.4 C-15.44 245.25 -15.44 246.11 -15.44 246.99 C-15.44 247.84 -15.44 248.7 -15.44 249.58 C-15.44 251.32 -15.44 253.06 -15.44 254.8 C-15.44 255.66 -15.44 256.52 -15.44 257.41 C-15.45 271.38 -15.46 285.36 -15.49 299.33 C-15.51 313.67 -15.52 328.01 -15.52 342.35 C-15.52 350.41 -15.53 358.46 -15.55 366.51 C-15.56 373.37 -15.57 380.23 -15.56 387.08 C-15.56 390.58 -15.56 394.08 -15.57 397.58 C-15.58 401.37 -15.58 405.16 -15.57 408.95 C-15.58 410.06 -15.58 411.18 -15.59 412.32 C-15.59 413.33 -15.58 414.35 -15.57 415.39 C-15.57 416.26 -15.57 417.14 -15.57 418.04 C-15.11 420.78 -14.45 421.66 -12.2 423.26 C-9.23 423.6 -6.46 423.75 -3.48 423.77 C-2.09 423.8 -2.09 423.8 -0.67 423.83 C2.51 423.88 5.68 423.92 8.86 423.95 C11.16 423.98 13.45 424.01 15.74 424.05 C38.44 424.35 61.15 424.36 83.85 424.38 C86.75 424.39 89.66 424.39 92.56 424.39 C111.49 424.42 130.42 424.37 149.34 423.93 C150.96 423.9 152.58 423.86 154.21 423.83 C156.42 423.79 158.64 423.73 160.86 423.67 C162.11 423.64 163.36 423.61 164.65 423.58 C167.63 423.28 169.25 422.74 171.8 421.26 C174.13 420.91 176.43 420.76 178.78 420.61 C181.02 420.42 181.02 420.42 182.8 418.26 C184.74 417.41 184.74 417.41 186.92 416.64 C187.65 416.38 188.37 416.12 189.12 415.85 C189.95 415.56 189.95 415.56 190.8 415.26 C190.8 414.27 190.8 413.28 190.8 412.26 C191.48 412.49 192.16 412.72 192.86 412.95 C199.87 413.69 206.41 408.25 211.8 404.26 C213.15 402.95 214.49 401.62 215.8 400.26 C216.89 399.58 217.99 398.9 219.11 398.2 C223.43 395.24 225.69 391.13 228.32 386.69 C229.8 384.26 229.8 384.26 231.8 382.26 C231.8 380.94 231.8 379.62 231.8 378.26 C232.46 378.26 233.12 378.26 233.8 378.26 C233.8 377.6 233.8 376.94 233.8 376.26 C234.7 375.92 234.7 375.92 235.61 375.57 C239.81 373.05 240.95 369.09 242.12 364.54 C242.54 362.76 242.95 360.98 243.36 359.2 C243.78 357.42 244.19 355.63 244.62 353.85 C244.8 353.07 244.98 352.28 245.16 351.47 C245.81 349.23 246.75 347.34 247.8 345.26 C248.18 342.61 248.18 342.61 248.3 339.82 C248.46 336.86 248.62 334.66 249.85 331.94 C251.17 328.21 250.8 324.75 250.49 320.89 C250.44 320.16 250.39 319.43 250.34 318.68 C249.85 311.66 248.89 305 246.8 298.26 C246.62 297.64 246.44 297.02 246.25 296.38 C244.6 291.05 242.51 285.9 240.36 280.76 C240.07 280.04 239.78 279.32 239.49 278.58 C238.55 276.29 238.55 276.29 236.8 273.26 C235.47 272.9 234.14 272.56 232.8 272.26 C232.1 270.61 231.44 268.94 230.8 267.26 C228.72 264.72 226.59 262.29 224.34 259.9 C221.01 256.13 219.94 253.27 219.8 248.26 C221.55 244.9 223.42 242.61 226.19 240.04 C229.15 236.89 230.97 233.77 232.92 229.95 C233.27 229.28 233.62 228.61 233.98 227.93 C236.27 223.45 238.23 219.04 239.8 214.26 C240.03 213.65 240.26 213.04 240.49 212.42 C250.01 186.39 249.27 157.9 238.8 132.26 C237.5 129.85 236.34 127.8 234.4 125.87 C232.45 123.91 230.95 121.7 229.39 119.43 C219.25 104.71 205.14 91.42 187.11 87.45 C186.35 87.39 185.59 87.33 184.8 87.26 C184.8 86.27 184.8 85.28 184.8 84.26 C183.84 84.06 183.84 84.06 182.87 83.86 C181.63 83.59 181.63 83.59 180.36 83.32 C179.54 83.15 178.71 82.98 177.87 82.8 C175.8 82.26 175.8 82.26 174.8 81.26 C173.07 81.1 171.33 81.01 169.59 80.95 C168.46 80.9 167.34 80.86 166.18 80.82 C164.32 80.76 164.32 80.76 162.42 80.7 C160.5 80.63 160.5 80.63 158.54 80.57 C147.53 80.22 136.53 80.22 125.52 80.27 C117.1 80.31 108.71 80.27 100.3 79.76 C90.61 79.18 80.94 79.15 71.24 79.14 C70.45 79.13 69.66 79.13 68.85 79.13 C66.61 79.12 64.36 79.12 62.11 79.13 C60.14 79.13 60.14 79.13 58.13 79.13 C55.42 79.24 53.37 79.55 50.8 80.26 Z " fill="#08192C" transform="translate(394.20081293582916,255.73855066299438)"/>
<path d="M0 0 C0.72 0.01 1.43 0.02 2.17 0.03 C14.75 0.24 14.75 0.24 18.59 2.66 C21.55 4.36 23.82 4.8 27.19 5.25 C31.39 5.88 35.32 6.49 39.25 8.19 C39.58 8.85 39.91 9.51 40.25 10.19 C41.36 10.5 42.48 10.81 43.62 11.12 C47.17 12.16 47.96 12.58 50.25 15.19 C51.1 15.66 51.94 16.14 52.81 16.62 C55.47 18.33 55.96 19.41 57.25 22.19 C58.24 22.52 59.23 22.85 60.25 23.19 C63.92 26.74 66.67 30.8 69.25 35.19 C69.91 35.52 70.57 35.85 71.25 36.19 C71.25 36.85 71.25 37.51 71.25 38.19 C71.91 38.19 72.57 38.19 73.25 38.19 C77.25 44.69 77.25 44.69 77.25 49.19 C77.91 49.19 78.57 49.19 79.25 49.19 C79.5 50.38 79.76 51.58 80.02 52.81 C80.37 54.41 80.71 56.02 81.06 57.62 C81.31 58.8 81.31 58.8 81.56 60 C82.42 63.92 83.38 67.59 84.86 71.33 C86.89 77.22 86.7 83.23 86.64 89.4 C86.63 91.42 86.64 93.44 86.66 95.46 C86.63 107.05 85.32 117.61 79.38 127.69 C75.59 134.32 72.78 140.97 70.25 148.19 C69.59 148.19 68.93 148.19 68.25 148.19 C68.25 149.18 68.25 150.17 68.25 151.19 C66.29 152.9 64.29 154.57 62.25 156.19 C61.92 156.85 61.59 157.51 61.25 158.19 C60.59 158.19 59.93 158.19 59.25 158.19 C58.53 161.56 58.03 164.74 58.25 168.19 C60.64 170.83 60.64 170.83 62.64 172.05 C65.23 173.88 66.56 176.54 68.25 179.19 C69.26 180.3 70.28 181.4 71.31 182.5 C74.26 185.82 75.33 188.98 76.54 193.2 C77.16 195.38 77.16 195.38 79.25 197.19 C82.37 200.3 83.1 204.01 84.25 208.19 C84.65 209.62 84.65 209.62 85.07 211.09 C87.65 220.78 88.34 229.95 88.44 239.94 C88.45 240.75 88.46 241.57 88.48 242.41 C88.48 247.12 87.92 250.73 86.25 255.19 C85.95 257.42 85.95 257.42 85.88 259.62 C85.48 264.18 84.57 268.52 83.44 272.94 C82.96 274.79 82.96 274.79 82.48 276.67 C81.2 280.34 79.48 283.02 77.25 286.19 C76.78 287.38 76.3 288.58 75.81 289.81 C74.11 293.48 72.5 294.88 69.25 297.19 C68.92 297.85 68.59 298.51 68.25 299.19 C67.59 299.19 66.93 299.19 66.25 299.19 C65.59 300.51 64.93 301.83 64.25 303.19 C63.59 303.19 62.93 303.19 62.25 303.19 C61.92 304.84 61.59 306.49 61.25 308.19 C60.59 308.19 59.93 308.19 59.25 308.19 C58.92 309.18 58.59 310.17 58.25 311.19 C54.43 315.67 50.23 318.09 45.06 320.69 C44.31 321.08 43.56 321.46 42.78 321.87 C37.93 324.37 33.05 326.83 28.13 329.21 C26.01 330.27 26.01 330.27 23.25 332.19 C20.61 332.65 18.03 333.02 15.38 333.31 C14.67 333.4 13.96 333.49 13.23 333.57 C10.24 333.92 7.32 334.19 4.3 334.18 C2.26 333.95 2.26 333.95 1.25 335.19 C-0.94 335.28 -3.13 335.31 -5.32 335.31 C-6.02 335.31 -6.71 335.31 -7.43 335.31 C-9.78 335.31 -12.12 335.31 -14.47 335.3 C-16.14 335.3 -17.82 335.3 -19.49 335.3 C-24.06 335.3 -28.62 335.3 -33.18 335.29 C-37.94 335.28 -42.7 335.28 -47.47 335.28 C-56.49 335.28 -65.51 335.27 -74.54 335.26 C-84.81 335.25 -95.08 335.24 -105.35 335.24 C-126.48 335.23 -147.62 335.21 -168.75 335.19 C-168.77 305.73 -168.79 276.28 -168.8 246.83 C-168.8 243.35 -168.8 239.87 -168.8 236.4 C-168.81 235.7 -168.81 235.01 -168.81 234.3 C-168.81 223.09 -168.82 211.88 -168.83 200.67 C-168.84 189.17 -168.84 177.67 -168.84 166.17 C-168.85 159.71 -168.85 153.25 -168.86 146.79 C-168.86 140.71 -168.86 134.63 -168.86 128.55 C-168.86 126.32 -168.87 124.09 -168.87 121.85 C-168.87 118.81 -168.87 115.76 -168.87 112.72 C-168.87 111.83 -168.88 110.95 -168.88 110.03 C-168.87 105.63 -168.58 101.53 -167.75 97.19 C-167.74 95.34 -167.78 93.5 -167.87 91.65 C-167.92 90.61 -167.97 89.56 -168.02 88.48 C-168.08 87.37 -168.13 86.27 -168.19 85.12 C-168.28 82.79 -168.37 80.46 -168.46 78.12 C-168.63 73.79 -168.86 69.46 -169.14 65.12 C-169.81 51.99 -169.81 51.99 -166.81 46.89 C-164.57 44.57 -162.55 42.78 -159.75 41.19 C-159.09 41.19 -158.43 41.19 -157.75 41.19 C-157.5 40.63 -157.25 40.07 -157 39.5 C-155.52 36.76 -153.82 34.51 -151.75 32.19 C-151.09 32.19 -150.43 32.19 -149.75 32.19 C-149.54 31.47 -149.32 30.76 -149.11 30.03 C-147.41 26.47 -144.98 24.29 -142.06 21.75 C-141.52 21.27 -140.98 20.78 -140.42 20.28 C-137.64 17.8 -134.81 15.38 -131.94 13 C-128.11 9.78 -124.97 6 -121.75 2.19 C-120.21 0.65 -118.81 1.06 -116.67 1.06 C-115.79 1.06 -114.91 1.05 -114.01 1.05 C-113.03 1.05 -112.06 1.06 -111.06 1.06 C-110.04 1.06 -109.03 1.05 -107.98 1.05 C-104.59 1.05 -101.21 1.05 -97.82 1.05 C-95.48 1.05 -93.14 1.05 -90.79 1.05 C-85.87 1.05 -80.95 1.05 -76.03 1.06 C-69.72 1.06 -63.41 1.06 -57.1 1.05 C-52.25 1.05 -47.41 1.05 -42.57 1.05 C-40.24 1.05 -37.92 1.05 -35.59 1.05 C-32.33 1.05 -29.08 1.05 -25.83 1.06 C-24.86 1.06 -23.9 1.05 -22.9 1.05 C-22.01 1.05 -21.12 1.06 -20.21 1.06 C-19.06 1.06 -19.06 1.06 -17.88 1.06 C-15.75 1.19 -15.75 1.19 -13.58 1.75 C-11.7 2.41 -11.7 2.41 -9.98 1.26 C-6.73 -0.3 -3.53 -0.07 0 0 Z M-11.39 43.66 C-16.64 44.22 -21.82 44.35 -27.09 44.38 C-28.07 44.39 -29.05 44.39 -30.06 44.4 C-32.17 44.42 -34.28 44.43 -36.39 44.45 C-39.73 44.47 -43.06 44.5 -46.4 44.52 C-54.68 44.59 -62.96 44.65 -71.24 44.71 C-78.26 44.76 -85.27 44.82 -92.29 44.88 C-95.58 44.91 -98.87 44.93 -102.15 44.95 C-104.16 44.96 -106.17 44.98 -108.18 45 C-109.1 45 -110.01 45.01 -110.95 45.01 C-112.22 45.02 -112.22 45.02 -113.5 45.04 C-114.59 45.04 -114.59 45.04 -115.71 45.05 C-117.83 45.19 -119.71 45.61 -121.75 46.19 C-121.75 46.85 -121.75 47.51 -121.75 48.19 C-119.62 49.64 -119.62 49.64 -116.81 51.12 C-111.65 54.05 -106.65 57.13 -101.69 60.38 C-94.56 65.03 -87.38 69.6 -80.17 74.13 C-78.03 75.48 -75.89 76.83 -73.75 78.19 C-73.15 78.57 -72.56 78.94 -71.94 79.33 C-68.46 81.58 -66.32 83.96 -63.75 87.19 C-61.34 88.85 -61.34 88.85 -58.75 90.19 C-57.86 90.74 -56.98 91.3 -56.06 91.88 C-53.9 93.35 -53.9 93.35 -51.75 93.19 C-51.75 93.85 -51.75 94.51 -51.75 95.19 C-50.76 95.19 -49.77 95.19 -48.75 95.19 C-48.75 95.85 -48.75 96.51 -48.75 97.19 C-43.88 100.73 -38.59 103.65 -32.75 105.19 C-32.75 105.85 -32.75 106.51 -32.75 107.19 C-31.17 107.68 -31.17 107.68 -29.56 108.19 C-25.38 109.76 -21.57 111.89 -17.75 114.19 C-17.16 114.53 -16.57 114.88 -15.97 115.23 C-14.31 116.25 -14.31 116.25 -11.75 118.19 C-11.75 119.18 -11.75 120.17 -11.75 121.19 C-7.95 123.39 -7.95 123.39 -3.75 124.19 C-3.75 124.85 -3.75 125.51 -3.75 126.19 C-2.46 126.86 -1.17 127.52 0.12 128.19 C1.2 128.74 1.2 128.74 2.3 129.31 C4.2 130.32 4.2 130.32 6.25 130.19 C6.25 130.85 6.25 131.51 6.25 132.19 C7.57 132.52 8.89 132.85 10.25 133.19 C10.58 134.84 10.91 136.49 11.25 138.19 C10.61 138.31 9.97 138.44 9.31 138.56 C8.63 138.77 7.95 138.98 7.25 139.19 C6.92 139.85 6.59 140.51 6.25 141.19 C4.18 142.26 4.18 142.26 1.69 143.31 C0.86 143.67 0.03 144.02 -0.82 144.38 C-1.45 144.65 -2.09 144.91 -2.75 145.19 C-2.75 146.18 -2.75 147.17 -2.75 148.19 C-3.32 148.29 -3.89 148.4 -4.47 148.51 C-7.12 149.3 -8.92 150.49 -11.19 152.06 C-13.7 153.8 -16.16 155.42 -18.81 156.94 C-19.45 157.35 -20.09 157.76 -20.75 158.19 C-20.75 158.85 -20.75 159.51 -20.75 160.19 C-29.88 160.93 -35.3 155.83 -42.38 150.8 C-47.18 147.42 -47.18 147.42 -52.75 146.19 C-53.08 144.87 -53.41 143.55 -53.75 142.19 C-55.73 141.86 -57.71 141.53 -59.75 141.19 C-59.75 140.53 -59.75 139.87 -59.75 139.19 C-60.74 139.19 -61.73 139.19 -62.75 139.19 C-62.75 138.53 -62.75 137.87 -62.75 137.19 C-64.4 136.53 -66.05 135.87 -67.75 135.19 C-67.75 134.53 -67.75 133.87 -67.75 133.19 C-70.4 131.73 -71.64 131.19 -74.75 131.19 C-74.75 130.53 -74.75 129.87 -74.75 129.19 C-77.72 128.69 -77.72 128.69 -80.75 128.19 C-81.08 127.2 -81.41 126.21 -81.75 125.19 C-84.97 122.86 -84.97 122.86 -88.75 122.19 C-88.75 121.53 -88.75 120.87 -88.75 120.19 C-91.72 119.69 -91.72 119.69 -94.75 119.19 C-94.75 118.53 -94.75 117.87 -94.75 117.19 C-96.96 115.53 -96.96 115.53 -99.75 113.88 C-100.75 113.26 -101.75 112.64 -102.78 112 C-103.76 111.4 -104.74 110.8 -105.75 110.19 C-107.27 109.25 -108.79 108.32 -110.31 107.38 C-110.93 107 -111.55 106.62 -112.19 106.23 C-113.75 105.19 -113.75 105.19 -115.75 103.19 C-118.44 102.92 -121.04 103.1 -123.75 103.19 C-123.76 103.89 -123.77 104.59 -123.78 105.32 C-123.88 111.95 -123.98 118.59 -124.09 125.22 C-124.14 128.64 -124.2 132.05 -124.25 135.46 C-124.3 139.38 -124.37 143.31 -124.43 147.23 C-124.45 148.45 -124.47 149.67 -124.48 150.93 C-124.5 152.07 -124.52 153.21 -124.54 154.39 C-124.56 155.39 -124.58 156.39 -124.59 157.42 C-124.75 160.19 -124.75 160.19 -125.33 162.8 C-125.78 165.37 -125.46 166.71 -124.75 169.19 C-124.67 170.69 -124.64 172.2 -124.65 173.7 C-124.66 174.59 -124.66 175.48 -124.66 176.4 C-124.67 177.35 -124.68 178.31 -124.69 179.3 C-124.69 180.3 -124.7 181.3 -124.7 182.33 C-124.72 186.59 -124.74 190.86 -124.77 195.12 C-124.84 207.52 -124.77 219.82 -123.75 232.19 C-118.21 232.35 -115.7 232.05 -111.31 228.56 C-109.89 227.46 -109.89 227.46 -108.44 226.34 C-107.55 225.63 -106.66 224.92 -105.75 224.19 C-104.44 223.18 -103.13 222.18 -101.81 221.19 C-101.19 220.72 -100.57 220.25 -99.93 219.76 C-96.19 217.06 -92.33 214.55 -88.48 212.02 C-86.81 210.89 -85.15 209.74 -83.53 208.52 C-81.69 207.14 -79.84 206.16 -77.75 205.19 C-77.75 204.53 -77.75 203.87 -77.75 203.19 C-76.17 202.82 -76.17 202.82 -74.56 202.44 C-70.92 201.41 -68.59 199.72 -65.75 197.19 C-64.76 196.53 -63.77 195.87 -62.75 195.19 C-62.75 194.53 -62.75 193.87 -62.75 193.19 C-62.23 193.11 -61.72 193.02 -61.19 192.94 C-55.6 191.22 -51.23 187.82 -46.75 184.19 C-45.44 183.48 -44.11 182.79 -42.75 182.19 C-42.75 181.53 -42.75 180.87 -42.75 180.19 C-42.09 180.19 -41.43 180.19 -40.75 180.19 C-40.42 179.2 -40.09 178.21 -39.75 177.19 C-38.22 176 -38.22 176 -36.24 174.84 C-35.51 174.4 -34.78 173.97 -34.03 173.52 C-33.23 173.06 -32.44 172.6 -31.62 172.12 C-29.96 171.14 -28.31 170.14 -26.65 169.15 C-25.82 168.65 -24.99 168.15 -24.13 167.64 C-20.78 165.6 -17.51 163.44 -14.25 161.25 C-13.66 160.85 -13.06 160.45 -12.45 160.04 C-9.79 158.25 -7.13 156.45 -4.48 154.63 C-2.1 153 0.3 151.37 2.69 149.75 C3.42 149.24 4.15 148.73 4.91 148.21 C8.39 145.85 11.63 143.93 15.6 142.53 C19.01 141.27 19.95 140.71 22.25 138.19 C23.54 137.08 24.83 135.97 26.12 134.88 C33.03 129.16 33.03 129.16 36.25 121.19 C36.21 119.99 36.17 118.8 36.12 117.56 C36.07 114.3 36.6 111.98 37.75 108.94 C42.16 95.22 39.9 77.96 34.27 64.91 C32.69 62.24 30.49 60.32 28.25 58.19 C27.67 57.51 27.1 56.83 26.5 56.12 C23.02 53.13 17.95 50.19 13.25 50.19 C13.25 49.53 13.25 48.87 13.25 48.19 C12.47 48.07 11.69 47.95 10.88 47.82 C9.87 47.65 8.86 47.49 7.81 47.31 C6.3 47.07 6.3 47.07 4.75 46.82 C3.51 46.51 3.51 46.51 2.25 46.19 C1.75 45.2 1.75 45.2 1.25 44.19 C-3.15 43.31 -6.94 43.12 -11.39 43.66 Z M8.46 199.54 C5.37 201.84 2.04 203.38 -1.43 205.03 C-4.38 206.5 -7.03 208.33 -9.75 210.19 C-10.76 210.66 -11.77 211.14 -12.81 211.62 C-16.12 213.39 -18.29 215.37 -20.75 218.19 C-20.75 218.85 -20.75 219.51 -20.75 220.19 C-21.68 220.31 -22.61 220.43 -23.56 220.56 C-26.89 221 -26.89 221 -29.75 223.19 C-29.75 224.18 -29.75 225.17 -29.75 226.19 C-30.8 226.31 -30.8 226.31 -31.88 226.44 C-35.44 227.37 -37.84 228.95 -40.75 231.19 C-40.75 231.85 -40.75 232.51 -40.75 233.19 C-41.8 233.34 -41.8 233.34 -42.88 233.5 C-49.23 235.02 -53.74 238.6 -58.7 242.66 C-60.75 244.19 -60.75 244.19 -63.75 245.19 C-63.75 245.85 -63.75 246.51 -63.75 247.19 C-64.55 247.46 -65.36 247.72 -66.19 248 C-67.46 248.59 -67.46 248.59 -68.75 249.19 C-69.08 250.18 -69.41 251.17 -69.75 252.19 C-73.22 252.68 -73.22 252.68 -76.75 253.19 C-77.08 254.18 -77.41 255.17 -77.75 256.19 C-79.44 257.19 -79.44 257.19 -81.75 258.19 C-82.82 258.72 -83.89 259.26 -85 259.81 C-86.36 260.49 -86.36 260.49 -87.75 261.19 C-87.75 261.85 -87.75 262.51 -87.75 263.19 C-88.41 263.19 -89.07 263.19 -89.75 263.19 C-89.75 263.85 -89.75 264.51 -89.75 265.19 C-90.31 265.27 -90.86 265.35 -91.44 265.44 C-93.9 266.08 -93.9 266.08 -96 268.06 C-99.45 270.73 -102.64 271.79 -106.75 273.19 C-106.75 273.85 -106.75 274.51 -106.75 275.19 C-109.72 276.18 -109.72 276.18 -112.75 277.19 C-112.75 277.85 -112.75 278.51 -112.75 279.19 C-113.64 279.34 -113.64 279.34 -114.55 279.5 C-117.07 280.29 -118.17 281.24 -120 283.12 C-120.52 283.65 -121.04 284.17 -121.58 284.71 C-122.96 286.13 -122.96 286.13 -122.75 288.19 C-120.43 289.35 -119.06 289.32 -116.47 289.34 C-115.58 289.35 -114.68 289.36 -113.76 289.36 C-112.27 289.37 -112.27 289.37 -110.76 289.38 C-109.73 289.39 -108.69 289.39 -107.62 289.4 C-105.36 289.42 -103.1 289.43 -100.84 289.45 C-97.27 289.47 -93.7 289.5 -90.13 289.52 C-82.54 289.58 -74.96 289.64 -67.38 289.69 C-58.59 289.75 -49.82 289.81 -41.04 289.88 C-37.51 289.91 -33.99 289.93 -30.47 289.95 C-28.31 289.96 -26.15 289.98 -23.99 290 C-23.01 290 -22.03 290.01 -21.02 290.01 C-20.11 290.02 -19.21 290.03 -18.28 290.04 C-17.5 290.04 -16.71 290.05 -15.91 290.05 C-13.74 290.19 -11.85 290.65 -9.75 291.19 C-6.97 291.28 -4.22 291.33 -1.44 291.31 C-0.7 291.32 0.03 291.32 0.79 291.32 C8.86 291.31 15.01 290.22 22.06 286.25 C23.06 285.71 23.06 285.71 24.08 285.16 C26.77 283.69 29.08 282.36 31.25 280.19 C32.92 279.52 34.58 278.85 36.25 278.19 C36.91 277.53 37.57 276.87 38.25 276.19 C36.94 286.13 34.71 296.1 27.25 303.19 C24.31 307.36 24.31 307.36 23.25 312.19 C22.59 312.19 21.93 312.19 21.25 312.19 C21.06 313.83 21.06 313.83 20.88 315.5 C20.25 319.19 20.25 319.19 18.25 322.19 C18.79 321.92 19.32 321.65 19.88 321.38 C22.25 320.19 22.25 320.19 25 319.12 C32.66 314.56 36.84 308.19 39.36 299.77 C40.25 297.19 40.25 297.19 41.84 294.54 C43.46 291.84 43.51 290.27 43.25 287.19 C43.91 287.19 44.57 287.19 45.25 287.19 C45.7 286.18 46.16 285.17 46.62 284.12 C46.88 283.56 47.14 282.99 47.4 282.4 C49.49 276.96 50.5 272.05 50.52 266.22 C50.52 264.93 50.52 263.63 50.52 262.3 C50.52 261.63 50.52 260.97 50.51 260.28 C50.5 258.26 50.51 256.24 50.52 254.21 C50.51 247.51 50.27 241.59 48.25 235.19 C47.94 233.83 47.62 232.48 47.31 231.12 C46.36 227.26 44.91 223.8 43.25 220.19 C42.26 220.19 41.27 220.19 40.25 220.19 C40.08 219.61 39.91 219.03 39.73 218.43 C38.18 213.42 36.6 209.27 33.25 205.19 C32.26 205.19 31.27 205.19 30.25 205.19 C30.25 204.53 30.25 203.87 30.25 203.19 C29.59 203.19 28.93 203.19 28.25 203.19 C27.92 201.87 27.59 200.55 27.25 199.19 C26.26 199.19 25.27 199.19 24.25 199.19 C24.25 198.53 24.25 197.87 24.25 197.19 C17.8 193.22 13.83 195.16 8.46 199.54 Z " fill="#1846BA" transform="translate(550.75,339.8125)"/>
<path d="M0 0 C0.72 0.25 1.44 0.5 2.19 0.75 C2.19 1.41 2.19 2.07 2.19 2.75 C4.17 3.74 4.17 3.74 6.19 4.75 C6.19 5.41 6.19 6.07 6.19 6.75 C7.05 6.89 7.92 7.04 8.81 7.19 C13.76 9.48 15.54 13.12 18.19 17.75 C18.58 18.38 18.98 19.01 19.38 19.66 C22.36 24.84 23.06 30.11 23.79 35.99 C24.03 38.7 24.03 38.7 25.19 40.75 C25.62 48.36 25.52 55.47 23.19 62.75 C22.53 62.75 21.87 62.75 21.19 62.75 C21 63.41 20.82 64.07 20.62 64.75 C15.58 75.27 5.72 81.74 -4.89 85.7 C-12.33 87.95 -20.26 87.38 -27.95 87.27 C-29.76 87.27 -31.58 87.26 -33.39 87.26 C-38.13 87.25 -42.87 87.2 -47.6 87.15 C-51.48 87.12 -55.37 87.1 -59.25 87.09 C-63.88 87.08 -68.51 87.05 -73.14 87.02 C-74.02 87.02 -74.9 87.01 -75.81 87.01 C-78.3 86.99 -80.78 86.97 -83.26 86.94 C-84 86.94 -84.74 86.93 -85.5 86.93 C-90.58 86.87 -90.58 86.87 -92.81 85.75 C-93.62 85.94 -94.42 86.12 -95.25 86.31 C-97.81 86.75 -97.81 86.75 -100.81 84.75 C-102.4 85.24 -104 85.74 -105.58 86.26 C-110.38 87.32 -115.38 86.66 -120.25 86.38 C-121.36 86.32 -122.48 86.26 -123.62 86.2 C-126.35 86.06 -129.08 85.91 -131.81 85.75 C-131.48 84.76 -131.15 83.77 -130.81 82.75 C-130.15 82.75 -129.49 82.75 -128.81 82.75 C-128.81 82.09 -128.81 81.43 -128.81 80.75 C-127.66 80.17 -126.5 79.6 -125.31 79 C-124.59 78.63 -123.86 78.27 -123.12 77.89 C-121.61 77.15 -120.1 76.43 -118.57 75.73 C-117.51 75.25 -117.51 75.25 -116.44 74.75 C-115.79 74.46 -115.14 74.17 -114.48 73.88 C-112.39 72.46 -111.88 71 -110.81 68.75 C-109.15 67.74 -107.49 66.74 -105.81 65.75 C-105.32 64.26 -105.32 64.26 -104.81 62.75 C-102.81 61.72 -102.81 61.72 -100.25 60.81 C-90.88 57.3 -83.23 52.78 -75.5 46.38 C-63.72 36.66 -63.72 36.66 -57.81 34.81 C-53.86 33.41 -51.15 31.04 -47.92 28.42 C-45.66 26.63 -43.3 25.2 -40.81 23.75 C-40.09 23.15 -39.37 22.55 -38.62 21.94 C-33.6 18.03 -28.08 14.86 -22.38 12.06 C-19.84 10.94 -19.84 10.94 -18.43 9.29 C-16.54 7.49 -14.85 6.77 -12.44 5.81 C-9.43 4.56 -7.6 3.57 -5.06 1.44 C-2.81 -0.25 -2.81 -0.25 0 0 Z " fill="#06182D" transform="translate(570.8125,539.25)"/>
<path d="M0 0 C13.42 -0.02 26.84 -0.04 40.27 -0.05 C46.5 -0.06 52.73 -0.06 58.96 -0.08 C64.98 -0.09 71 -0.09 77.01 -0.09 C79.31 -0.1 81.6 -0.1 83.89 -0.11 C87.11 -0.11 90.33 -0.11 93.54 -0.11 C94.49 -0.12 95.43 -0.12 96.4 -0.12 C103.05 -0.11 109.57 0.18 116 2 C117 2.25 117.99 2.5 119.02 2.75 C120.08 3.02 121.15 3.29 122.25 3.56 C123.33 3.83 124.41 4.1 125.52 4.38 C126.34 4.58 127.16 4.79 128 5 C128 5.66 128 6.32 128 7 C128.56 7.12 129.11 7.25 129.69 7.38 C136.9 9.32 141 12.68 145 19 C147.23 24.49 148.63 30.25 150 36 C150.33 36 150.66 36 151 36 C151.44 46.88 151.24 55.8 147 66 C146.6 67.17 146.21 68.34 145.8 69.55 C145.39 70.73 144.98 71.91 144.56 73.12 C144.19 74.2 143.82 75.28 143.44 76.38 C141.68 79.59 140.36 79.85 137 81 C136.67 81.99 136.34 82.98 136 84 C134.19 86.58 133.21 86.96 130.06 87.56 C127 87 127 87 125.12 84.31 C124.42 83.22 123.72 82.13 123 81 C119.58 78.36 116.1 76.37 112 75 C111.34 74.01 110.68 73.02 110 72 C106.8 69.84 103.58 68.4 100 67 C97.99 66.02 95.99 65.02 94 64 C94 63.01 94 62.02 94 61 C92.92 60.57 92.92 60.57 91.81 60.12 C89.21 59.08 86.6 58.04 84 57 C84 56.34 84 55.68 84 55 C83.04 54.81 83.04 54.81 82.06 54.62 C81.38 54.42 80.7 54.21 80 54 C79.67 53.34 79.34 52.68 79 52 C77.85 51.67 76.69 51.34 75.5 51 C74.35 50.67 73.19 50.34 72 50 C71.67 49.34 71.34 48.68 71 48 C69.35 47.55 67.69 47.11 66.04 46.67 C62.26 45.42 59.03 43.24 55.69 41.12 C54.91 40.64 54.12 40.15 53.32 39.65 C47.08 35.75 40.95 31.68 34.84 27.57 C28.52 23.31 22.1 19.22 15.63 15.18 C14.16 14.26 12.7 13.34 11.23 12.41 C9.65 11.41 8.05 10.44 6.44 9.49 C5.2 8.73 5.2 8.73 3.94 7.96 C3.19 7.51 2.43 7.06 1.65 6.6 C0 5 0 5 -0.1 2.4 C-0.07 1.61 -0.04 0.82 0 0 Z " fill="#06182D" transform="translate(438,388)"/>
<path d="M0 0 C4.01 0.71 6.73 1.82 10.19 4 C13.53 6.11 13.53 6.11 17 8 C17 8.99 17 9.98 17 11 C17.78 11.29 18.57 11.58 19.38 11.88 C22 13 22 13 24 15 C26.32 15.4 28.66 15.74 31 16 C31.5 17.49 31.5 17.49 32 19 C33.97 20.06 35.98 21.04 38 22 C39.8 23 41.59 24.02 43.38 25.06 C44.25 25.57 45.12 26.08 46.02 26.6 C46.68 27.06 47.33 27.52 48 28 C48 28.66 48 29.32 48 30 C48.99 30 49.98 30 51 30 C51 30.66 51 31.32 51 32 C53.31 32.66 55.62 33.32 58 34 C58 34.66 58 35.32 58 36 C58.93 36.29 59.86 36.58 60.81 36.88 C64 38 64 38 67 40 C67 40.66 67 41.32 67 42 C68.98 42.66 70.96 43.32 73 44 C73 44.66 73 45.32 73 46 C73.76 46.16 74.52 46.32 75.3 46.48 C83.55 48.42 83.55 48.42 85.94 51.5 C86.29 52.32 86.64 53.15 87 54 C89.07 55.78 89.07 55.78 91 57 C90.67 58.32 90.34 59.64 90 61 C87.36 61.66 84.72 62.32 82 63 C82 63.66 82 64.32 82 65 C80.02 66.36 78.02 67.69 76 69 C75.56 69.48 75.12 69.96 74.66 70.46 C72.43 72.53 70.02 73.5 67.25 74.75 C62.35 77.11 58.97 79.51 55.5 83.68 C54 85 54 85 50 85 C49.5 86.49 49.5 86.49 49 88 C47.34 88.67 45.67 89.34 44 90 C43.3 90.7 42.6 91.4 41.88 92.12 C41.26 92.74 40.64 93.36 40 94 C39.01 94 38.02 94 37 94 C37 94.66 37 95.32 37 96 C35.93 96.41 34.86 96.83 33.75 97.25 C30.43 98.66 28.51 100.41 26 103 C24.35 103.7 22.68 104.36 21 105 C18.97 106.29 16.97 107.63 15 109 C13.93 109.68 12.86 110.36 11.75 111.06 C8.82 112.88 8.82 112.88 7 116 C3.37 116.69 3.37 116.69 0 117 C-0.13 109.64 -0.26 102.27 -0.39 94.91 C-0.45 91.48 -0.51 88.06 -0.57 84.64 C-0.97 62.5 -1.12 40.44 -0.5 18.31 C-0.45 16.52 -0.4 14.73 -0.36 12.94 C-0.24 8.62 -0.12 4.31 0 0 Z " fill="#07182D" transform="translate(431,448)"/>
<path d="M0 0 C0.66 0.33 1.32 0.66 2 1 C1.3 1.7 0.6 2.4 -0.12 3.12 C-0.58 3.59 -1.03 4.05 -1.5 4.53 C-3 6 -3 6 -4.58 7.27 C-6.97 9.3 -8.73 10.91 -9.5 14.02 C-9.63 16.43 -9.57 18.77 -9.44 21.19 C-9.41 22.08 -9.39 22.98 -9.37 23.9 C-9.28 26.93 -9.14 29.97 -9 33 C-8.86 36.59 -8.72 40.19 -8.58 43.78 C-8.49 46.14 -8.38 48.49 -8.27 50.85 C-8.22 51.94 -8.17 53.03 -8.12 54.15 C-8.07 55.11 -8.03 56.07 -7.98 57.06 C-8 60 -8 60 -8.49 63.09 C-9.08 67.61 -9.15 72.01 -9.16 76.57 C-9.16 77.52 -9.17 78.46 -9.17 79.44 C-9.19 82.59 -9.2 85.75 -9.21 88.91 C-9.21 91.17 -9.22 93.44 -9.24 95.71 C-9.26 101.86 -9.28 108.01 -9.3 114.15 C-9.33 120.58 -9.35 127.01 -9.38 133.44 C-9.42 144.22 -9.46 155.01 -9.5 165.79 C-9.54 176.9 -9.58 188.01 -9.63 199.12 C-9.63 199.8 -9.63 200.49 -9.64 201.19 C-9.65 204.63 -9.66 208.07 -9.68 211.51 C-9.79 240 -9.9 268.5 -10 297 C-9.46 296.99 -8.91 296.99 -8.35 296.98 C5.08 296.86 18.52 296.73 31.95 296.61 C38.45 296.55 44.94 296.49 51.44 296.43 C120.38 295.77 120.38 295.77 153.78 296.09 C158.02 296.23 158.02 296.23 162 295 C163.11 295.02 164.23 295.04 165.38 295.06 C174.6 295.11 181.88 293.58 189.6 288.46 C193.18 286.28 196.97 285.11 201 284 C199.71 285.38 198.37 286.71 197 288 C196.34 288 195.68 288 195 288 C195 288.66 195 289.32 195 290 C192.82 290.96 190.63 291.89 188.44 292.81 C187.55 293.2 187.55 293.2 186.65 293.6 C173.85 298.92 160.68 299.43 147.05 299.34 C145.3 299.34 143.56 299.34 141.81 299.34 C137.12 299.34 132.43 299.33 127.74 299.3 C122.82 299.29 117.9 299.28 112.98 299.28 C103.68 299.27 94.38 299.25 85.09 299.22 C74.49 299.18 63.9 299.17 53.31 299.15 C31.54 299.12 9.77 299.07 -12 299 C-12.18 262.29 -12.32 225.57 -12.41 188.86 C-12.42 184.52 -12.43 180.19 -12.44 175.86 C-12.44 174.99 -12.44 174.13 -12.45 173.24 C-12.48 159.27 -12.54 145.29 -12.62 131.32 C-12.69 116.99 -12.74 102.65 -12.75 88.32 C-12.76 79.47 -12.8 70.62 -12.86 61.77 C-12.91 55.71 -12.92 49.64 -12.91 43.58 C-12.9 40.08 -12.91 36.58 -12.95 33.08 C-12.99 29.28 -12.98 25.49 -12.96 21.69 C-12.99 20.59 -13.01 19.48 -13.03 18.34 C-12.92 11.03 -12.92 11.03 -10.24 8.03 C-8.23 6.52 -6.18 5.26 -4 4 C-2.63 2.7 -1.28 1.39 0 0 Z " fill="#1F4398" transform="translate(392,378)"/>
<path d="M0 0 C0 0.99 0 1.98 0 3 C-0.66 3.66 -1.32 4.32 -2 5 C-2.99 5 -3.98 5 -5 5 C-5.04 5.58 -5.08 6.15 -5.12 6.75 C-7.18 12.02 -14.19 14.12 -19.05 16.27 C-21 17 -21 17 -23 17 C-23 17.66 -23 18.32 -23 19 C-24.5 20.62 -24.5 20.62 -26 22 C-22.17 22.06 -18.33 22.09 -14.5 22.12 C-13.42 22.14 -12.34 22.16 -11.23 22.18 C-6.41 22.21 -2.01 22.18 2.66 20.87 C3.76 20.58 4.86 20.29 6 20 C6.66 20.66 7.32 21.32 8 22 C10.01 21.71 12.01 21.38 14 21 C14.33 21.33 14.66 21.66 15 22 C17.59 22.1 20.15 22.13 22.73 22.11 C23.54 22.11 24.35 22.11 25.19 22.11 C27.88 22.11 30.56 22.11 33.25 22.1 C35.11 22.1 36.97 22.09 38.83 22.09 C43.74 22.09 48.64 22.08 53.54 22.07 C58.54 22.06 63.54 22.05 68.54 22.05 C78.36 22.04 88.18 22.02 98 22 C98 22.66 98 23.32 98 24 C94.8 24.95 91.92 25.12 88.58 25.12 C87.48 25.12 86.39 25.12 85.25 25.12 C84.05 25.12 82.85 25.12 81.61 25.11 C80.34 25.11 79.08 25.11 77.77 25.11 C74.29 25.11 70.82 25.11 67.34 25.1 C63.71 25.1 60.08 25.09 56.45 25.09 C49.57 25.09 42.69 25.08 35.81 25.07 C27.98 25.06 20.15 25.06 12.32 25.05 C-3.79 25.04 -19.89 25.02 -36 25 C-33.13 22.07 -30.35 19.76 -26.89 17.54 C-25.91 16.9 -24.93 16.27 -23.91 15.61 C-22.89 14.95 -21.87 14.3 -20.81 13.62 C-18.8 12.33 -16.78 11.03 -14.77 9.73 C-13.8 9.1 -12.83 8.48 -11.83 7.84 C-7.86 5.26 -3.93 2.64 0 0 Z " fill="#041C50" transform="translate(465,603)"/>
<path d="M0 0 C1.89 -0.01 1.89 -0.01 3.81 -0.02 C7.26 -0.04 10.71 -0.02 14.15 0 C17.78 0.03 21.41 0.02 25.03 0.02 C31.14 0.01 37.24 0.04 43.35 0.07 C50.36 0.11 57.37 0.12 64.38 0.11 C71.16 0.1 77.94 0.11 84.72 0.13 C87.59 0.14 90.45 0.14 93.31 0.14 C109.88 0.12 125.76 0.46 141.62 5.74 C141.95 6.73 142.28 7.72 142.62 8.74 C136.42 8.43 131.9 8.17 126.62 4.74 C119.71 3.54 112.83 3.58 105.84 3.57 C104.58 3.56 103.31 3.55 102.01 3.55 C97.85 3.53 93.7 3.52 89.54 3.51 C88.1 3.5 86.67 3.5 85.23 3.49 C78.49 3.47 71.75 3.46 65.01 3.45 C57.24 3.44 49.47 3.42 41.7 3.38 C35.68 3.35 29.66 3.33 23.64 3.33 C20.05 3.33 16.46 3.32 12.87 3.29 C8.87 3.26 4.88 3.27 0.88 3.27 C-0.31 3.26 -1.5 3.25 -2.72 3.24 C-3.81 3.24 -4.9 3.25 -6.02 3.26 C-6.97 3.25 -7.91 3.25 -8.88 3.25 C-12.1 3.89 -13.31 5.29 -15.38 7.74 C-16.04 7.41 -16.7 7.08 -17.38 6.74 C-13.05 -0.67 -8.08 -0.1 0 0 Z " fill="#1E4399" transform="translate(440.38330078125,337.25537109375)"/>
<path d="M0 0 C57.09 0 114.18 0 173 0 C173 0.66 173 1.32 173 2 C148.58 2.86 124.19 3.17 99.76 3.13 C97.02 3.12 94.29 3.12 91.55 3.12 C68.66 3.1 45.77 3.01 22.88 2.62 C21.79 2.61 20.7 2.59 19.57 2.58 C16.59 2.53 13.6 2.48 10.62 2.41 C9.76 2.4 8.9 2.39 8.01 2.38 C2.23 2.23 2.23 2.23 0 0 Z " fill="#021845" transform="translate(380,677)"/>
<path d="M0 0 C0.66 0 1.32 0 2 0 C2.33 41.91 2.66 83.82 3 127 C9.27 122.71 15.54 118.42 22 114 C22.33 114.99 22.66 115.98 23 117 C20.82 118.71 18.64 120.42 16.44 122.11 C14.97 123.25 13.52 124.4 12.09 125.58 C7.87 128.92 5.26 129.21 0 129 C-0.94 112.35 -1.08 95.76 -0.96 79.09 C-0.96 78.27 -0.95 77.44 -0.95 76.58 C-0.94 75.02 -0.93 73.46 -0.91 71.9 C-0.9 68.92 -0.97 66.16 -1.57 63.24 C-2 61 -2 61 -1.54 59.22 C-0.89 56.53 -0.84 54.07 -0.79 51.31 C-0.76 49.6 -0.76 49.6 -0.73 47.86 C-0.72 46.63 -0.7 45.4 -0.68 44.14 C-0.66 42.88 -0.64 41.62 -0.62 40.32 C-0.57 36.98 -0.52 33.64 -0.47 30.3 C-0.42 26.89 -0.36 23.48 -0.31 20.07 C-0.2 13.38 -0.1 6.69 0 0 Z " fill="#1F4196" transform="translate(427,443)"/>
<path d="M0 0 C0 0.66 0 1.32 0 2 C5.44 2.99 5.44 2.99 11 4 C11 4.66 11 5.32 11 6 C11.8 6.29 12.61 6.58 13.44 6.88 C16 8 16 8 17 10 C16.29 9.71 15.58 9.43 14.84 9.13 C5.4 5.38 -2.54 3.41 -12.75 3.55 C-13.96 3.55 -15.17 3.54 -16.42 3.54 C-19.7 3.55 -22.98 3.57 -26.26 3.59 C-29.7 3.62 -33.14 3.62 -36.59 3.63 C-43.09 3.64 -49.59 3.67 -56.09 3.71 C-63.5 3.76 -70.91 3.78 -78.32 3.8 C-93.55 3.84 -108.77 3.91 -124 4 C-124 3.34 -124 2.68 -124 2 C-121.19 1.2 -118.67 0.87 -115.75 0.85 C-114.91 0.84 -114.07 0.83 -113.2 0.82 C-111.83 0.82 -111.83 0.82 -110.43 0.81 C-109.46 0.8 -108.49 0.79 -107.49 0.79 C-105.39 0.77 -103.28 0.75 -101.18 0.74 C-97.84 0.72 -94.5 0.69 -91.16 0.66 C-84.07 0.6 -76.97 0.55 -69.88 0.5 C-61.67 0.44 -53.47 0.38 -45.26 0.31 C-41.99 0.28 -38.71 0.26 -35.43 0.24 C-33.4 0.22 -31.37 0.21 -29.34 0.19 C-27.99 0.18 -27.99 0.18 -26.61 0.18 C-21.4 0.13 -16.29 -0.2 -11.11 -0.8 C-7.29 -1.16 -3.78 -0.55 0 0 Z " fill="#1F4195" transform="translate(553,384)"/>
<path d="M0 0 C0.33 0 0.66 0 1 0 C1 95.37 1 190.74 1 289 C0.67 289 0.34 289 0 289 C0 193.63 0 98.26 0 0 Z " fill="#011643" transform="translate(379,387)"/>
<path d="M0 0 C6.41 3.56 12.63 7.16 18.81 11.06 C19.64 11.58 20.48 12.1 21.33 12.63 C25.29 15.12 28.89 17.45 32 21 C26.86 21.63 24.34 20.28 20.32 17.39 C19 16 19 16 19 13 C18.32 12.75 17.64 12.5 16.94 12.25 C14.07 11.03 11.51 9.61 8.84 8 C6.65 6.81 4.31 5.93 2 5 C2 24.14 2 43.28 2 63 C1.01 63.5 1.01 63.5 0 64 C0 42.88 0 21.76 0 0 Z " fill="#021745" transform="translate(429,443)"/>
<path d="M0 0 C0.66 0 1.32 0 2 0 C2.17 6.33 2.33 12.66 2.48 18.99 C2.54 21.14 2.59 23.29 2.65 25.44 C3.26 48.36 3.26 48.36 2 58 C6.91 56.89 9.21 56.18 12 52 C14.19 50.56 14.19 50.56 17 49 C18.44 48.11 19.88 47.21 21.31 46.31 C22.01 45.88 22.71 45.44 23.43 44.99 C23.95 44.66 24.46 44.34 25 44 C25 45.32 25 46.64 25 48 C22.81 49.92 22.81 49.92 19.79 51.89 C18.71 52.6 17.63 53.31 16.52 54.04 C15.37 54.78 14.21 55.51 13.06 56.25 C11.91 57 10.77 57.75 9.62 58.51 C1.19 64 1.19 64 0 64 C0 42.88 0 21.76 0 0 Z " fill="#021644" transform="translate(429,507)"/>
<path d="M0 0 C15.8 -0.12 31.59 -0.21 47.39 -0.26 C54.72 -0.28 62.06 -0.32 69.39 -0.38 C75.79 -0.43 82.19 -0.46 88.59 -0.47 C91.97 -0.48 95.36 -0.49 98.74 -0.53 C130.78 -0.84 130.78 -0.84 139.85 7.67 C140.56 8.44 141.27 9.21 142 10 C140.02 9.34 138.04 8.68 136 8 C136 7.34 136 6.68 136 6 C132.21 5.45 128.43 4.93 124.62 4.5 C121 4 121 4 120 3 C113.84 2.01 107.78 1.83 101.54 1.79 C100.53 1.78 99.51 1.77 98.47 1.76 C95.13 1.73 91.8 1.71 88.47 1.68 C86.15 1.66 83.83 1.64 81.51 1.62 C75.42 1.57 69.33 1.52 63.24 1.47 C57.02 1.42 50.8 1.36 44.58 1.31 C32.39 1.2 20.19 1.1 8 1 C8 2.32 8 3.64 8 5 C4.57 3.8 2.47 2.64 0 0 Z " fill="#001649" transform="translate(430,387)"/>
<path d="M0 0 C0.99 0.33 1.98 0.66 3 1 C1.99 2.21 0.96 3.42 -0.06 4.62 C-0.63 5.3 -1.2 5.97 -1.79 6.66 C-7.36 12.54 -13.68 16.93 -20.5 21.25 C-22.27 22.38 -24.03 23.52 -25.8 24.65 C-26.67 25.21 -27.54 25.77 -28.44 26.35 C-32.24 28.8 -36 31.3 -39.75 33.81 C-40.39 34.24 -41.02 34.67 -41.68 35.1 C-43.12 36.07 -44.56 37.03 -46 38 C-46.33 37.34 -46.66 36.68 -47 36 C-47.66 35.67 -48.32 35.34 -49 35 C-43.49 31.29 -37.97 27.59 -32.45 23.89 C-30.57 22.63 -28.69 21.37 -26.81 20.11 C-24.12 18.3 -21.42 16.49 -18.73 14.69 C-17.88 14.12 -17.04 13.55 -16.17 12.96 C-15.39 12.44 -14.61 11.92 -13.81 11.39 C-13.12 10.92 -12.43 10.46 -11.72 9.99 C-10 9 -10 9 -8 9 C-8 8.34 -8 7.68 -8 7 C-6.68 7 -5.36 7 -4 7 C-3.67 6.01 -3.34 5.02 -3 4 C-2.34 4 -1.68 4 -1 4 C-0.67 2.68 -0.34 1.36 0 0 Z " fill="#011757" transform="translate(575,468)"/>
<path d="M0 0 C2.38 1 2.38 1 4 2 C4 2.66 4 3.32 4 4 C5.32 4.33 6.64 4.66 8 5 C8 5.99 8 6.98 8 8 C8.66 8 9.32 8 10 8 C11.29 9.53 11.29 9.53 12.62 11.5 C13.29 12.47 13.29 12.47 13.98 13.47 C14.48 14.23 14.48 14.23 15 15 C14.67 15.66 14.34 16.32 14 17 C13.42 16.34 12.84 15.67 12.24 14.99 C8.07 10.27 4 5.85 -1 2 C-5.38 3.55 -9.16 5.83 -13.06 8.31 C-13.74 8.74 -14.43 9.17 -15.13 9.62 C-22.66 14.38 -30.13 19.25 -37.6 24.12 C-38.74 24.86 -38.74 24.86 -39.9 25.61 C-41.77 26.85 -43.61 28.11 -45.46 29.38 C-48 31 -48 31 -50 31 C-50 30.01 -50 29.02 -50 28 C-46.67 25.5 -45.27 25 -41 25 C-40.69 24.16 -40.69 24.16 -40.38 23.31 C-37.28 18.1 -32.39 15.54 -27.08 13.04 C-24.2 11.6 -21.52 9.89 -18.81 8.16 C-17.35 7.22 -15.86 6.32 -14.38 5.44 C-11.85 3.96 -11.85 3.96 -9.06 1.81 C-5.61 -0.23 -3.94 -0.51 0 0 Z " fill="#21459E" transform="translate(571,535)"/>
<path d="M0 0 C2.48 0.5 2.48 0.5 5 1 C5 1.66 5 2.32 5 3 C6.11 3.1 7.23 3.21 8.38 3.31 C10.17 3.65 10.17 3.65 12 4 C12.99 5.49 12.99 5.49 14 7 C15.78 8.11 15.78 8.11 17.81 9 C18.52 9.34 19.23 9.68 19.96 10.03 C20.63 10.35 21.31 10.67 22 11 C25 12.56 25 12.56 27 14 C27 14.99 27 15.98 27 17 C27.78 17.12 28.57 17.25 29.38 17.38 C32 18 32 18 34 20 C35.11 20.43 35.11 20.43 36.25 20.88 C39.51 22.21 42.18 23.9 45 26 C45 26.66 45 27.32 45 28 C45.7 28.08 46.4 28.17 47.12 28.25 C51.78 29.46 55.94 32.26 59 36 C59 36.66 59 37.32 59 38 C55.31 36.64 52.16 34.96 48.85 32.83 C47.86 32.19 46.86 31.55 45.84 30.9 C44.78 30.21 43.72 29.52 42.62 28.81 C41.53 28.11 40.43 27.4 39.3 26.67 C35.86 24.45 32.43 22.23 29 20 C27.36 18.93 27.36 18.93 25.68 17.84 C19.86 14.06 14.05 10.28 8.25 6.47 C6.85 5.55 5.44 4.64 4.03 3.73 C2.67 2.84 1.33 1.93 0 1 C0 0.67 0 0.34 0 0 Z " fill="#031A4B" transform="translate(505,435)"/>
<path d="M0 0 C11.76 4.84 20.91 21.61 25.61 32.84 C26.82 35.87 27.94 38.91 29 42 C29.27 42.73 29.54 43.46 29.82 44.22 C32.23 51.24 32.35 57.75 32.19 65.12 C32.17 66.85 32.17 66.85 32.15 68.6 C32.11 71.4 32.06 74.2 32 77 C31.67 77 31.34 77 31 77 C30.93 76.05 30.93 76.05 30.86 75.08 C29.75 58.32 29.75 58.32 26 42 C25.76 41.15 25.53 40.3 25.28 39.43 C23.97 34.81 23.97 34.81 21.02 31.09 C18.67 28.66 18.03 26.78 17.06 23.56 C15.48 18.88 13.83 16.24 10 13 C7 9.38 7 9.38 7 7 C5.68 6.34 4.36 5.68 3 5 C3 4.34 3 3.68 3 3 C2.01 2.67 1.02 2.34 0 2 C0 1.34 0 0.68 0 0 Z " fill="#1F4296" transform="translate(608,506)"/>
<path d="M0 0 C0.33 0 0.66 0 1 0 C0.81 11.17 -0.94 22.88 -6 33 C-6.66 33 -7.32 33 -8 33 C-7.8 32.16 -7.8 32.16 -7.6 31.31 C-6.42 26.21 -5.57 21.2 -5 16 C-5.39 16.45 -5.78 16.91 -6.19 17.38 C-8.33 19.3 -10.32 19.98 -13 21 C-15.61 22.5 -18.12 24.08 -20.62 25.75 C-21.41 26.16 -22.19 26.58 -23 27 C-23.99 26.67 -24.98 26.34 -26 26 C-25.49 25.69 -24.98 25.37 -24.46 25.05 C-23.02 24.15 -21.59 23.25 -20.15 22.35 C-18.42 21.26 -16.68 20.19 -14.94 19.12 C-7.64 13.85 -3.6 8.24 0 0 Z " fill="#234498" transform="translate(594,600)"/>
<path d="M0 0 C5.94 2.19 11 5.61 16.31 9 C17.85 9.96 17.85 9.96 19.42 10.95 C20.39 11.56 21.36 12.18 22.36 12.81 C23.25 13.38 24.14 13.94 25.06 14.52 C25.7 15.01 26.34 15.5 27 16 C27 16.66 27 17.32 27 18 C25.63 19.15 25.63 19.15 23.7 20.43 C22.97 20.91 22.25 21.39 21.51 21.89 C20.72 22.4 19.94 22.92 19.12 23.45 C18.33 23.98 17.53 24.51 16.7 25.05 C14.14 26.75 11.57 28.44 9 30.12 C7.27 31.27 5.53 32.42 3.8 33.57 C-0.46 36.38 -4.73 39.19 -9 42 C-9.66 41.67 -10.32 41.34 -11 41 C-8.89 37.52 -6.4 35.91 -2.84 34.02 C-0.71 32.88 -0.71 32.88 2.25 30.75 C5 29 5 29 8 29 C8.09 28.37 8.17 27.74 8.26 27.1 C9 25 9 25 10.74 24.06 C11.45 23.85 12.15 23.65 12.88 23.44 C16.11 22.48 17.67 21.41 20 19 C20.66 19 21.32 19 22 19 C21.67 17.35 21.34 15.7 21 14 C19.68 13.67 18.36 13.34 17 13 C17 12.34 17 11.68 17 11 C15.64 10.57 15.64 10.57 14.25 10.12 C11.68 9.23 9.39 8.29 7 7 C7 6.34 7 5.68 7 5 C6.05 4.71 5.1 4.42 4.12 4.12 C1 3 1 3 -1 1 C-0.67 0.67 -0.34 0.34 0 0 Z " fill="#22459D" transform="translate(540,459)"/>
<path d="M0 0 C-17.59 11.78 -35.27 23.42 -53 35 C-53.33 34.34 -53.66 33.68 -54 33 C-53.34 33 -52.68 33 -52 33 C-51.34 31.68 -50.68 30.36 -50 29 C-49.34 29 -48.68 29 -48 29 C-47.67 28.01 -47.34 27.02 -47 26 C-43.54 25.5 -43.54 25.5 -40 25 C-39.67 24.01 -39.34 23.02 -39 22 C-36.44 20.81 -36.44 20.81 -34 20 C-34 19.34 -34 18.68 -34 18 C-32.97 17.44 -31.94 16.89 -30.88 16.31 C-28.27 14.84 -26.31 13.41 -24 11.44 C-20.02 8.21 -16.26 6 -11 6 C-11 5.34 -11 4.68 -11 4 C-9.61 2.68 -9.61 2.68 -7.75 1.31 C-7.15 0.85 -6.54 0.4 -5.92 -0.07 C-3.5 -1.24 -2.51 -0.74 0 0 Z " fill="#22459E" transform="translate(521,567)"/>
<path d="M0 0 C1.11 -0 2.23 -0 3.37 -0 C7.05 0 10.72 0.04 14.39 0.08 C16.94 0.09 19.49 0.1 22.04 0.1 C28.06 0.12 34.08 0.16 40.1 0.21 C46.96 0.26 53.81 0.29 60.67 0.32 C74.77 0.37 88.87 0.46 102.97 0.57 C101.22 2.13 101.22 2.13 98.97 3.57 C96.99 3.27 96.99 3.27 94.97 2.57 C93.49 2.47 92.01 2.42 90.53 2.41 C89.65 2.4 88.77 2.39 87.86 2.38 C86.9 2.37 85.94 2.36 84.95 2.36 C83.43 2.34 83.43 2.34 81.87 2.33 C78.51 2.3 75.15 2.28 71.78 2.26 C70.64 2.25 69.49 2.25 68.3 2.24 C62.23 2.21 56.15 2.18 50.08 2.16 C45.05 2.14 40.02 2.11 34.99 2.06 C28.91 2 22.84 1.97 16.77 1.96 C14.45 1.95 12.13 1.93 9.82 1.9 C6.58 1.86 3.35 1.86 0.11 1.87 C-0.85 1.85 -1.8 1.83 -2.79 1.81 C-7.63 1.78 -7.63 1.78 -11.77 3.95 C-13.35 5.75 -13.35 5.75 -15.03 8.57 C-15.36 7.58 -15.69 6.59 -16.03 5.57 C-11.57 -0.5 -7.17 -0.12 0 0 Z " fill="#1C45AD" transform="translate(440.032470703125,339.432373046875)"/>
<path d="M0 0 C8.12 12.19 6.84 33.49 4.1 47.24 C3.24 50.88 2.2 54.45 1 58 C0.34 58 -0.32 58 -1 58 C-0.94 57.37 -0.88 56.74 -0.82 56.09 C-0.2 49.48 0.3 42.88 0.72 36.26 C1 33 1 33 1.52 30.01 C2.88 21.51 2.39 13.22 0 5 C-0.12 2 -0.12 2 0 0 Z " fill="#03184F" transform="translate(593,567)"/>
<path d="M0 0 C0 0.66 0 1.32 0 2 C-0.66 2 -1.32 2 -2 2 C-2.33 2.99 -2.66 3.98 -3 5 C-4.99 6.02 -6.99 7.02 -9 8 C-10.07 8.82 -11.11 9.68 -12.12 10.56 C-15.57 13.48 -17.48 15 -22 15 C-22.33 15.99 -22.66 16.98 -23 18 C-32.41 25 -32.41 25 -37 25 C-37.33 25.99 -37.66 26.98 -38 28 C-39.98 29.04 -41.98 30.04 -44 31 C-46.83 32.98 -49.57 35.07 -52.32 37.16 C-54.84 38.89 -57.13 40 -60 41 C-58.51 36.34 -54.59 34.52 -50.65 32.11 C-49.1 31.13 -47.55 30.15 -46 29.17 C-44.77 28.4 -44.77 28.4 -43.52 27.61 C-39.26 24.89 -35.07 22.06 -30.88 19.24 C-29.17 18.09 -27.45 16.94 -25.74 15.79 C-23.12 14.03 -20.5 12.27 -17.88 10.5 C-15.3 8.77 -12.71 7.03 -10.13 5.3 C-9.34 4.77 -8.55 4.23 -7.74 3.68 C-7.01 3.2 -6.29 2.71 -5.54 2.21 C-4.9 1.78 -4.26 1.35 -3.61 0.91 C-2 0 -2 0 0 0 Z " fill="#1F4299" transform="translate(510,518)"/>
<path d="M0 0 C1 2 1 2 0.1 4.91 C-5.8 19.74 -12.56 32.72 -24 44 C-24.66 44.66 -25.32 45.32 -26 46 C-25.12 40.25 -25.12 40.25 -24 38 C-23.34 38 -22.68 38 -22 38 C-21.73 37.4 -21.46 36.8 -21.19 36.19 C-20 34 -18.9 32.59 -17 31 C-16.34 31 -15.68 31 -15 31 C-15 30.01 -15 29.02 -15 28 C-14.34 28 -13.68 28 -13 28 C-12.92 27.36 -12.84 26.72 -12.75 26.06 C-10.7 17.68 -6.06 6.06 0 0 Z " fill="#1F4398" transform="translate(634,460)"/>
<path d="M0 0 C0.99 0 1.98 0 3 0 C3 0.66 3 1.32 3 2 C3.9 2.22 3.9 2.22 4.81 2.44 C6.56 2.89 8.29 3.43 10 4 C10 4.66 10 5.32 10 6 C12.48 6.99 12.48 6.99 15 8 C15 8.66 15 9.32 15 10 C15.99 10 16.98 10 18 10 C18 10.66 18 11.32 18 12 C20.97 12.5 20.97 12.5 24 13 C24.04 13.62 24.08 14.24 24.12 14.88 C24.41 15.58 24.7 16.28 25 17 C27 17.68 29 18.34 31 19 C32.89 20.06 34.75 21.19 36.56 22.38 C37.47 22.96 38.38 23.55 39.32 24.15 C42 26 42 26 44.54 28.18 C47.19 30.14 48.57 30.56 51.81 30.75 C52.6 30.81 53.39 30.86 54.21 30.92 C55.09 30.96 55.09 30.96 56 31 C55.67 31.99 55.34 32.98 55 34 C53.23 34.85 53.23 34.85 51 35 C48.8 34 48.8 34 46.39 32.42 C45.5 31.84 44.61 31.26 43.69 30.67 C42.74 30.04 41.79 29.4 40.81 28.75 C39.83 28.11 38.85 27.47 37.84 26.81 C35.84 25.51 33.84 24.19 31.85 22.88 C28.58 20.72 25.28 18.6 21.99 16.48 C19.28 14.74 16.58 12.98 13.88 11.22 C12.02 10.01 10.15 8.81 8.29 7.61 C7.18 6.9 6.08 6.18 4.94 5.44 C3.98 4.82 3.02 4.2 2.03 3.56 C1.02 2.79 1.02 2.79 0 2 C0 1.34 0 0.68 0 0 Z " fill="#22459D" transform="translate(473,469)"/>
<path d="M0 0 C0.74 -0 1.48 -0 2.24 -0 C4.64 -0.01 7.04 0 9.44 0.01 C10.65 0.01 10.65 0.01 11.89 0.01 C24.1 0.03 36.26 0.28 48.44 1.13 C48.93 2.12 48.93 2.12 49.44 3.13 C28.65 3.13 7.86 3.13 -13.56 3.13 C-9.76 -0.67 -5.11 -0.01 0 0 Z " fill="#011643" transform="translate(456.5625,334.8671875)"/>
<path d="M0 0 C0.7 1.73 0.7 1.73 1 4 C-0.29 6.15 -0.29 6.15 -2.19 8.38 C-4.35 10.97 -6.2 13.33 -7.94 16.25 C-10.32 19.42 -12.66 20.83 -16.05 22.78 C-18.76 24.48 -20.78 26.72 -23 29 C-27.76 32.79 -32.13 34.01 -38 35 C-35.61 32.38 -33.03 30.7 -30 28.88 C-17.79 21.2 -8.1 11.9 0 0 Z " fill="#021844" transform="translate(625,634)"/>
<path d="M0 0 C2.66 0.36 3.8 0.79 5.68 2.76 C15.3 16.67 23.24 33.7 22 51 C16.92 41.76 14.24 30.47 14 20 C13.34 20 12.68 20 12 20 C8.71 12.57 8.71 12.57 8 9 C7.34 9 6.68 9 6 9 C6 8.34 6 7.68 6 7 C5.38 6.77 4.76 6.55 4.12 6.31 C1.39 4.62 0.95 3.01 0 0 Z " fill="#1F4398" transform="translate(616,369)"/>
<path d="M0 0 C16.38 -0.1 32.75 -0.12 49.12 0.38 C50.32 0.41 51.51 0.44 52.74 0.47 C58.51 0.67 63.55 1.07 69 3 C69.99 3.33 70.98 3.66 72 4 C72 4.66 72 5.32 72 6 C67.61 5.5 63.34 4.88 59.01 3.99 C52.7 2.83 46.52 2.65 40.11 2.59 C38.93 2.57 37.75 2.55 36.53 2.53 C32.79 2.47 29.05 2.42 25.31 2.38 C22.76 2.34 20.21 2.3 17.66 2.26 C11.44 2.16 5.22 2.08 -1 2 C-0.67 1.34 -0.34 0.68 0 0 Z " fill="#011643" transform="translate(507,336)"/>
<path d="M0 0 C2.92 1.05 3.89 1.81 5.48 4.53 C5.9 5.51 6.32 6.49 6.75 7.5 C7.39 8.97 7.39 8.97 8.05 10.47 C9 13 9 13 9 15 C9.99 15 10.98 15 12 15 C15.14 21.03 16.67 26.67 17.61 33.4 C17.94 36.11 17.94 36.11 19 39 C19.08 40.77 19.11 42.55 19.1 44.32 C19.09 45.35 19.09 46.38 19.09 47.44 C19.08 48.51 19.07 49.58 19.06 50.69 C19.06 51.77 19.05 52.85 19.05 53.97 C19.04 56.65 19.02 59.32 19 62 C16.59 59.59 16.7 58.86 16.51 55.55 C16.45 54.65 16.38 53.75 16.32 52.82 C16.22 51.36 16.22 51.36 16.12 49.88 C14.66 31.88 10.13 15.19 0 0 Z " fill="#2147A4" transform="translate(582,545)"/>
<path d="M0 0 C0.5 1.49 0.5 1.49 1 3 C-2.1 8.11 -7.01 11.9 -11.62 15.56 C-16.05 19.08 -18.93 22.3 -22 27 C-25.35 30.7 -28.86 33.24 -33 36 C-34.7 37.63 -36.38 39.29 -38 41 C-38.66 40.67 -39.32 40.34 -40 40 C-38.62 38 -38.62 38 -37 36 C-36.34 36 -35.68 36 -35 36 C-34.73 35.41 -34.47 34.82 -34.2 34.21 C-32.97 31.94 -31.72 30.48 -29.88 28.69 C-29.07 27.89 -29.07 27.89 -28.24 27.07 C-26.31 25.29 -24.35 23.57 -22.35 21.86 C-17.51 17.64 -13.01 13.12 -8.5 8.56 C-7.68 7.74 -6.86 6.91 -6.01 6.06 C-4 4.04 -2 2.02 0 0 Z " fill="#204295" transform="translate(423,345)"/>
<path d="M0 0 C0 4.02 -1.94 6.02 -4.31 9.06 C-4.99 9.93 -4.99 9.93 -5.68 10.81 C-13.82 20.97 -25.35 31.78 -38 36 C-38 35.34 -38 34.68 -38 34 C-36.34 32.99 -34.67 31.99 -33 31 C-32.4 30.36 -31.8 29.72 -31.19 29.06 C-29.1 27.09 -27.7 26.33 -25.12 25.19 C-21.11 23.32 -18.87 20.9 -16.23 17.39 C-15.82 16.93 -15.42 16.47 -15 16 C-14.34 16 -13.68 16 -13 16 C-12.92 15.26 -12.84 14.51 -12.75 13.75 C-11.85 10.46 -10.62 9.14 -8 7 C-7.34 7 -6.68 7 -6 7 C-5.75 6.4 -5.5 5.8 -5.25 5.19 C-3.84 2.71 -2.35 1.57 0 0 Z " fill="#1F4295" transform="translate(625,632)"/>
<path d="M0 0 C0.5 1.49 0.5 1.49 1 3 C-1.97 5.35 -5.02 7.17 -8.38 8.94 C-15.38 12.56 -15.38 12.56 -21.44 17.5 C-23.44 19.42 -25.75 20.57 -28.17 21.89 C-29.99 23 -31.48 24.21 -33.06 25.62 C-36.08 28.06 -38.28 29.03 -42 30 C-42.78 30.21 -43.57 30.41 -44.38 30.62 C-44.91 30.75 -45.45 30.87 -46 31 C-42.6 27.24 -38.75 24.74 -34.5 22.06 C-32.98 21.1 -31.47 20.13 -29.95 19.16 C-29.15 18.65 -28.35 18.14 -27.53 17.62 C-22.23 14.23 -16.96 10.77 -11.69 7.33 C-7.83 4.82 -3.97 2.33 0 0 Z " fill="#03194A" transform="translate(551,547)"/>
<path d="M0 0 C3 1 3 1 4.03 2.57 C12.29 21.77 16.32 45.24 12 66 C11.34 66 10.68 66 10 66 C10.02 65.22 10.03 64.44 10.05 63.64 C10.41 43.16 10.45 24.02 2 5 C1.33 3.34 0.66 1.67 0 0 Z " fill="#031A49" transform="translate(628,383)"/>
<path d="M0 0 C6.84 3.5 13.3 7.43 19.65 11.75 C26.6 16.46 33.72 20.91 40.85 25.35 C41.76 25.93 42.68 26.5 43.62 27.09 C44.44 27.61 45.26 28.12 46.1 28.65 C48 30 48 30 49 32 C46.69 31.34 44.38 30.68 42 30 C42 29.34 42 28.68 42 28 C41.07 27.78 41.07 27.78 40.12 27.56 C38 27 38 27 36 26 C36 25.34 36 24.68 36 24 C34.89 23.57 34.89 23.57 33.75 23.12 C31.43 22.18 29.22 21.15 27 20 C27 19.34 27 18.68 27 18 C26.22 17.86 25.43 17.71 24.62 17.56 C22 17 22 17 20 16 C20 15.34 20 14.68 20 14 C19.01 14 18.02 14 17 14 C17 13.34 17 12.68 17 12 C16.36 11.77 15.72 11.55 15.06 11.31 C9.77 9.04 4.79 6.19 0 3 C0 2.01 0 1.02 0 0 Z " fill="#02194C" transform="translate(462,464)"/>
<path d="M0 0 C0.99 0.33 1.98 0.66 3 1 C2.34 1 1.68 1 1 1 C0.77 1.59 0.54 2.18 0.3 2.79 C-1.34 5.58 -3.08 6.66 -5.8 8.39 C-6.78 9.01 -7.75 9.64 -8.75 10.28 C-9.78 10.93 -10.81 11.58 -11.88 12.25 C-13.97 13.59 -16.07 14.93 -18.16 16.27 C-19.17 16.92 -20.18 17.56 -21.22 18.22 C-25.52 20.97 -29.75 23.82 -33.99 26.68 C-36 28 -36 28 -38 29 C-36.44 25.18 -34.08 22.71 -31 20 C-30.01 20 -29.02 20 -28 20 C-28 19.34 -28 18.68 -28 18 C-26.02 17.34 -24.04 16.68 -22 16 C-22 15.34 -22 14.68 -22 14 C-21.41 13.76 -20.82 13.52 -20.21 13.27 C-15.55 11.29 -11.93 9.23 -8 6 C-7.01 6 -6.02 6 -5 6 C-5 5.34 -5 4.68 -5 4 C-4.34 4 -3.68 4 -3 4 C-3 3.34 -3 2.68 -3 2 C-2.01 1.34 -1.02 0.68 0 0 Z " fill="#2146A3" transform="translate(466,599)"/>
<path d="M0 0 C35.31 0 70.62 0 107 0 C107 0.33 107 0.66 107 1 C71.69 1 36.38 1 0 1 C0 0.67 0 0.34 0 0 Z " fill="#2146A2" transform="translate(430,628)"/>
<path d="M0 0 C2.11 0.43 2.11 0.43 4 1 C3.34 1.66 2.68 2.31 2 2.99 C-0.45 5.42 -2.9 7.85 -5.34 10.29 C-6.4 11.34 -7.46 12.4 -8.53 13.45 C-10.05 14.96 -11.57 16.48 -13.09 17.99 C-14.01 18.9 -14.92 19.81 -15.87 20.75 C-18.03 22.81 -18.03 22.81 -19 25 C-19.66 25 -20.32 25 -21 25 C-21.25 25.6 -21.5 26.2 -21.75 26.81 C-23.16 29.29 -24.65 30.43 -27 32 C-26.52 27.71 -25.34 25.73 -22 23 C-21.34 23 -20.68 23 -20 23 C-20 22.34 -20 21.68 -20 21 C-18.87 19.84 -17.74 18.68 -16.56 17.57 C-14.1 15.1 -11.95 12.37 -9.75 9.67 C-7.82 7.83 -6.6 7.39 -4 7 C-3.9 6.4 -3.79 5.8 -3.69 5.19 C-2.89 2.64 -2.18 1.53 0 0 Z " fill="#011644" transform="translate(407,356)"/>
<path d="M0 0 C2.25 -0.25 2.25 -0.25 5 0 C6.38 1.29 7.71 2.63 9 4 C10.99 5.02 12.99 6.01 15 7 C16.97 8.16 18.93 9.35 20.88 10.56 C21.84 11.16 22.81 11.76 23.8 12.38 C24.53 12.91 25.25 13.45 26 14 C26 14.66 26 15.32 26 16 C27.98 16.33 29.96 16.66 32 17 C32 17.66 32 18.32 32 19 C32.58 19.29 33.15 19.58 33.75 19.88 C35.83 20.92 37.92 21.96 40 23 C40 23.66 40 24.32 40 25 C40.99 25.33 41.98 25.66 43 26 C42.01 26.5 42.01 26.5 41 27 C39.25 26.15 39.25 26.15 37.14 24.79 C36.36 24.29 35.58 23.79 34.78 23.28 C33.94 22.73 33.11 22.19 32.25 21.62 C31.4 21.08 30.54 20.53 29.66 19.96 C27.11 18.32 24.55 16.66 22 15 C20.02 13.73 18.04 12.46 16.06 11.19 C14.37 10.1 12.67 9 10.98 7.91 C8.38 6.24 5.76 4.61 3.12 3 C2.09 2.34 1.06 1.68 0 1 C0 0.67 0 0.34 0 0 Z " fill="#22459D" transform="translate(430,443)"/>
<path d="M0 0 C0.33 0.99 0.66 1.98 1 3 C1.66 3.33 2.32 3.66 3 4 C-1.49 15.85 -7.3 25.77 -16 35 C-16 30.76 -13.66 28.22 -11.38 24.81 C-6.24 16.93 -2.91 8.91 0 0 Z " fill="#021A69" transform="translate(591,622)"/>
<path d="M0 0 C14.09 1.69 26.77 12.77 36 23 C36 23.66 36 24.32 36 25 C35.01 25 34.02 25 33 25 C31.74 23.58 30.49 22.14 29.32 20.65 C25.77 16.2 21.8 13.02 17 10 C16.01 9.34 15.02 8.68 14 8 C12.82 7.67 11.65 7.34 10.44 7 C7 6 7 6 5 4 C4.13 3.48 3.27 2.97 2.38 2.44 C1.59 1.96 0.81 1.49 0 1 C0 0.67 0 0.34 0 0 Z " fill="#1F4296" transform="translate(582,344)"/>
<path d="M0 0 C0.33 0 0.66 0 1 0 C1.38 4.45 0.21 7.1 -1.88 11 C-4.11 15.2 -4.11 15.2 -5.96 19.58 C-7.19 22.43 -8.75 24.37 -10.81 26.69 C-11.48 27.45 -12.15 28.22 -12.83 29.01 C-15.15 31.14 -17.04 32 -20 33 C-21.34 33.65 -22.68 34.31 -24 35 C-20.49 29.23 -20.49 29.23 -18.09 28.09 C-9.11 23.4 -4.13 8.75 0 0 Z " fill="#1D409D" transform="translate(593,627)"/>
<path d="M0 0 C0.99 0.33 1.98 0.66 3 1 C3.37 4.21 3.72 7.42 4.06 10.62 C4.17 11.53 4.27 12.43 4.38 13.36 C5.01 19.36 4.93 24.22 3 30 C2.77 32.77 2.62 35.53 2.48 38.31 C1.95 41.31 1 42.74 -1 45 C-0.86 43.29 -0.71 41.58 -0.56 39.88 C-0.48 38.92 -0.4 37.97 -0.32 36.99 C0 34 0 34 0.53 31.21 C1.14 27.02 1.15 22.92 1.12 18.69 C1.13 17.88 1.13 17.08 1.14 16.25 C1.13 10.76 0.69 5.45 0 0 Z " fill="#021945" transform="translate(640,560)"/>
<path d="M0 0 C0.33 0 0.66 0 1 0 C2.36 5.3 2.36 5.3 0.8 8.38 C-1.12 11.17 -3.18 13.67 -5.44 16.19 C-6.2 17.05 -6.96 17.91 -7.75 18.79 C-9.82 20.82 -11.39 21.85 -14 23 C-14.5 23.52 -14.99 24.03 -15.5 24.56 C-17.27 26.26 -18.61 26.59 -21 27 C-19.98 25.98 -19.98 25.98 -18.94 24.94 C-18.48 24.47 -18.02 24.01 -17.55 23.53 C-16.52 22.51 -15.47 21.53 -14.39 20.57 C-8.18 14.85 -3.76 7.52 0 0 Z " fill="#1F45A0" transform="translate(585,456)"/>
<path d="M0 0 C0.66 0.33 1.32 0.66 2 1 C-14.96 14.69 -14.96 14.69 -23 19 C-23.71 19.39 -24.42 19.77 -25.14 20.17 C-25.86 20.55 -26.58 20.92 -27.31 21.31 C-27.97 21.66 -28.62 22.01 -29.3 22.36 C-30.14 22.68 -30.14 22.68 -31 23 C-31.66 22.67 -32.32 22.34 -33 22 C-22 14.67 -11 7.33 0 0 Z " fill="#02184A" transform="translate(503,578)"/>
<path d="M0 0 C0.81 0 1.61 0.01 2.44 0.01 C3.7 0.02 3.7 0.02 4.99 0.04 C6.27 0.04 6.27 0.04 7.57 0.05 C9.67 0.06 11.77 0.08 13.87 0.1 C13.87 0.43 13.87 0.76 13.87 1.1 C8.92 1.1 3.97 1.1 -1.13 1.1 C-1.79 2.42 -2.45 3.74 -3.13 5.1 C-4.61 6.84 -4.61 6.84 -6.32 8.55 C-6.94 9.17 -7.55 9.79 -8.19 10.43 C-9.15 11.38 -9.15 11.38 -10.13 12.35 C-10.77 13 -11.42 13.65 -12.08 14.32 C-13 15.24 -13 15.24 -13.95 16.18 C-14.51 16.74 -15.07 17.3 -15.65 17.88 C-17.13 19.1 -17.13 19.1 -19.13 19.1 C-19.13 18.11 -19.13 17.12 -19.13 16.1 C-18.47 16.1 -17.81 16.1 -17.13 16.1 C-16.47 14.78 -15.81 13.46 -15.13 12.1 C-14.47 12.1 -13.81 12.1 -13.13 12.1 C-12.8 11.11 -12.47 10.12 -12.13 9.1 C-10.47 7.43 -8.8 5.76 -7.13 4.1 C-6.8 3.11 -6.47 2.12 -6.13 1.1 C-3.84 -0.05 -2.55 -0.02 0 0 Z " fill="#011541" transform="translate(429.1328125,336.90234375)"/>
<path d="M0 0 C3.58 1.33 6.67 2.92 9.88 4.98 C10.8 5.56 11.71 6.15 12.66 6.75 C13.61 7.37 14.57 7.99 15.56 8.62 C16.54 9.25 17.52 9.88 18.53 10.53 C25.41 14.94 32.24 19.41 39 24 C38.01 24.33 37.02 24.66 36 25 C35.34 24.67 34.68 24.34 34 24 C34 23.34 34 22.68 34 22 C33.22 21.79 32.43 21.59 31.62 21.38 C26.75 19.53 22.22 17.07 18 14 C18 13.34 18 12.68 18 12 C17.01 12 16.02 12 15 12 C15 11.34 15 10.68 15 10 C14.07 9.73 13.14 9.46 12.19 9.19 C9.08 8.03 8.15 7.33 6 5 C5.13 4.48 4.27 3.97 3.38 3.44 C1 2 1 2 0 0 Z " fill="#22469D" transform="translate(484,423)"/>
<path d="M0 0 C0.33 0 0.66 0 1 0 C1.84 15.67 -2.9 28.38 -10 42 C-10.99 42 -11.98 42 -13 42 C-12.67 41.37 -12.35 40.74 -12.01 40.09 C-6.37 29.05 -1.89 17.62 -2 5 C-1 2.19 -1 2.19 0 0 Z " fill="#1F4398" transform="translate(638,589)"/>
<path d="M0 0 C2.87 1.73 4.95 3.69 7.27 6.11 C8.45 7.33 8.45 7.33 9.66 8.58 C10.26 9.21 10.85 9.84 11.46 10.48 C7.15 10.48 5.56 8.31 2.46 5.48 C2.13 4.82 1.8 4.16 1.46 3.48 C-1.69 3.84 -3.29 4.27 -5.73 6.36 C-9.65 9.31 -13.84 10.27 -18.54 11.48 C-15.41 7.91 -11.97 5.22 -8.04 2.54 C-7.13 1.92 -6.21 1.29 -5.26 0.64 C-2.54 -0.52 -2.54 -0.52 0 0 Z " fill="#03194A" transform="translate(570.54296875,536.51953125)"/>
<path d="M0 0 C0.33 0 0.66 0 1 0 C4.55 14.52 1.36 29.78 -2 44 C-2.33 44 -2.66 44 -3 44 C-3.12 37.38 -3.12 37.38 -2 34 C-1.78 31.42 -1.6 28.85 -1.46 26.27 C-1.42 25.52 -1.38 24.77 -1.33 24 C-1.2 21.6 -1.07 19.21 -0.94 16.81 C-0.85 15.19 -0.75 13.56 -0.66 11.94 C-0.44 7.96 -0.22 3.98 0 0 Z " fill="#20418F" transform="translate(640,564)"/>
<path d="M0 0 C0.66 0.33 1.32 0.66 2 1 C-2.7 6.27 -8.47 9.91 -14.31 13.81 C-15.85 14.85 -15.85 14.85 -17.42 15.91 C-19.95 17.61 -22.47 19.31 -25 21 C-25.66 20.67 -26.32 20.34 -27 20 C-21.11 13.32 -15.5 8.89 -7 6 C-6.34 6 -5.68 6 -5 6 C-4.73 5.38 -4.46 4.76 -4.19 4.12 C-3 2 -3 2 0 0 Z " fill="#021644" transform="translate(511,513)"/>
<path d="M0 0 C0 0.66 0 1.32 0 2 C-8.87 5.9 -19.46 5.48 -29 5 C-29.66 4.67 -30.32 4.34 -31 4 C-31 3.34 -31 2.68 -31 2 C-30.03 1.96 -30.03 1.96 -29.04 1.92 C-26.11 1.81 -23.18 1.69 -20.25 1.56 C-19.23 1.52 -18.22 1.48 -17.17 1.44 C-16.19 1.4 -15.21 1.36 -14.2 1.32 C-12.85 1.26 -12.85 1.26 -11.47 1.21 C-7.51 0.88 -4.04 -0.11 0 0 Z " fill="#2146A2" transform="translate(568,626)"/>
<path d="M0 0 C1 3 1 3 -0.41 6.07 C-1.09 7.29 -1.79 8.49 -2.5 9.69 C-2.86 10.31 -3.22 10.93 -3.6 11.58 C-6.55 16.53 -9.92 20.9 -14 25 C-15 22 -15 22 -14 19 C-13.34 19 -12.68 19 -12 19 C-11.71 18.28 -11.42 17.56 -11.12 16.81 C-10.75 15.88 -10.38 14.96 -10 14 C-9.73 13.17 -9.46 12.35 -9.19 11.5 C-7.67 8.31 -5.55 6.42 -3 4 C-1.97 2.69 -0.96 1.36 0 0 Z " fill="#2146A2" transform="translate(586,633)"/>
<path d="M0 0 C0.33 0 0.66 0 1 0 C1.06 0.85 1.12 1.69 1.18 2.56 C1.27 3.7 1.35 4.83 1.44 6 C1.53 7.19 1.61 8.38 1.7 9.6 C1.93 12.23 2.26 14.77 2.69 17.38 C3.25 23.85 0.6 29.22 -2 35 C-2.99 34.67 -3.98 34.34 -5 34 C-4.72 32.97 -4.45 31.94 -4.16 30.88 C-1.49 20.54 -0.27 10.67 0 0 Z " fill="#2046A2" transform="translate(598,592)"/>
<path d="M0 0 C3.4 1.7 3.97 4.85 5.16 8.32 C8.15 21.43 6.67 34.85 1 47 C-0.67 49.41 -0.67 49.41 -2 51 C-1.48 46.05 0.14 41.91 2.06 37.37 C3.47 33.81 4.13 30.72 4.1 26.89 C4.09 26.14 4.09 25.38 4.09 24.61 C4.08 23.83 4.07 23.05 4.06 22.25 C4.06 21.06 4.06 21.06 4.05 19.85 C4.04 17.9 4.02 15.95 4 14 C3.67 14 3.34 14 3 14 C2.49 12.42 1.99 10.83 1.5 9.25 C1.22 8.37 0.94 7.49 0.66 6.58 C0 4 0 4 0 0 Z " fill="#021A4F" transform="translate(584,411)"/>
<path d="M0 0 C0.33 0 0.66 0 1 0 C-0.69 20.25 -0.69 20.25 -8 27 C-8.66 27 -9.32 27 -10 27 C-10 27.66 -10 28.32 -10 29 C-10.66 29 -11.32 29 -12 29 C-10.65 25.48 -9.11 22.08 -7.49 18.68 C-4.55 12.55 -1.95 6.53 0 0 Z " fill="#041A4A" transform="translate(638,605)"/>
<path d="M0 0 C0.66 0 1.32 0 2 0 C2.38 13.7 1.79 26.56 -1 40 C-1.66 40 -2.32 40 -3 40 C-2.86 39.23 -2.73 38.46 -2.58 37.66 C-1.19 29.32 -0.6 21.14 -0.38 12.69 C-0.34 11.46 -0.3 10.23 -0.26 8.96 C-0.16 5.98 -0.08 2.99 0 0 Z " fill="#1F4398" transform="translate(637,420)"/>
<path d="M0 0 C4.04 1.59 8.02 3.28 12 5 C10.52 9.39 7.19 11.05 3.38 13.25 C2.46 13.8 2.46 13.8 1.52 14.35 C0.02 15.24 -1.49 16.12 -3 17 C-3.33 16.34 -3.66 15.68 -4 15 C-3 12 -3 12 -1.19 10.81 C1 10 1 10 5 10 C4.65 6.78 4.5 5.41 1.94 3.31 C1.3 2.88 0.66 2.45 0 2 C0 1.34 0 0.68 0 0 Z " fill="#021747" transform="translate(516,499)"/>
<path d="M0 0 C1 2 1 2 0.43 3.77 C-2.05 8.86 -4.57 11.53 -9 15 C-11.32 18.26 -11.18 21.07 -11 25 C-12.65 23.68 -14.3 22.36 -16 21 C-14.36 17.16 -11.81 14.2 -9.12 11.06 C-6.03 7.41 -2.97 3.75 0 0 Z " fill="#031A49" transform="translate(625,485)"/>
<path d="M0 0 C-1 3 -1 3 -2.81 3.91 C-3.9 4.27 -3.9 4.27 -5 4.62 C-7.74 5.41 -7.74 5.41 -10 7 C-11.91 7.37 -13.83 7.7 -15.75 8 C-20.25 8.71 -20.25 8.71 -24.71 9.59 C-27.4 10.07 -29.38 9.67 -32 9 C-29.33 7.56 -26.92 6.64 -23.95 6.04 C-23.19 5.87 -22.43 5.71 -21.64 5.55 C-20.06 5.23 -18.48 4.91 -16.91 4.59 C-11.54 3.46 -5.29 0 0 0 Z " fill="#021845" transform="translate(585,669)"/>
<path d="M0 0 C4.88 0.42 6.78 2.45 10 6 C10.7 6.6 11.4 7.2 12.12 7.81 C14.7 10.82 16.19 14.12 17 18 C16.57 20.25 16.57 20.25 16 22 C15.58 21.16 15.58 21.16 15.15 20.31 C11.75 13.83 7.79 7.74 1.79 3.4 C1.2 2.94 0.61 2.48 0 2 C0 1.34 0 0.68 0 0 Z " fill="#1F4195" transform="translate(570,393)"/>
<path d="M0 0 C0.66 0.33 1.32 0.66 2 1 C-4.6 11.81 -11.83 19.57 -24 24 C-26.86 24.16 -26.86 24.16 -29 24 C-26.59 21.59 -24.56 20.99 -21.38 19.81 C-14.4 16.99 -9.19 13.29 -5 7 C-4.34 7 -3.68 7 -3 7 C-2.69 6.22 -2.38 5.43 -2.06 4.62 C-1 2 -1 2 0 0 Z " fill="#031949" transform="translate(592,602)"/>
<path d="M0 0 C1.66 4.1 0.32 7.85 -0.75 11.94 C-1.01 12.99 -1.01 12.99 -1.27 14.07 C-2.31 18.18 -3.65 21.42 -6 25 C-7.02 27.32 -8.02 29.66 -9 32 C-9.65 33.34 -10.31 34.68 -11 36 C-11.66 36 -12.32 36 -13 36 C-11.61 31.61 -9.93 27.45 -8.06 23.25 C-5.59 17.6 -3.64 11.94 -2 6 C-1.34 4 -0.68 1.99 0 0 Z " fill="#031A49" transform="translate(638,449)"/>
<path d="M0 0 C0.99 0 1.98 0 3 0 C1.67 4 -0.87 5.09 -4.31 7.19 C-5.58 7.98 -6.85 8.78 -8.12 9.57 C-8.77 9.97 -9.41 10.37 -10.07 10.79 C-13.04 12.66 -15.96 14.61 -18.88 16.56 C-20.36 17.55 -20.36 17.55 -21.87 18.57 C-22.57 19.04 -23.27 19.51 -24 20 C-24.66 19.67 -25.32 19.34 -26 19 C-24.62 17.5 -24.62 17.5 -23 16 C-22.34 16 -21.68 16 -21 16 C-20.67 15.01 -20.34 14.02 -20 13 C-16.44 11.81 -16.44 11.81 -13 11 C-13 10.34 -13 9.68 -13 9 C-11.55 8.6 -11.55 8.6 -10.06 8.19 C-9.05 7.8 -8.04 7.4 -7 7 C-6.67 6.01 -6.34 5.02 -6 4 C-4.35 3.3 -2.68 2.63 -1 2 C-0.67 1.34 -0.34 0.68 0 0 Z " fill="#021644" transform="translate(481,533)"/>
<path d="M0 0 C3 1 3 1 4.06 2.57 C6.29 7.3 8.27 12.06 10 17 C10.28 17.76 10.56 18.51 10.85 19.29 C12.42 23.68 13.36 27.27 13 32 C10.77 29.77 10.34 28.44 9.41 25.46 C9.12 24.55 8.83 23.64 8.53 22.7 C7.93 20.8 7.34 18.89 6.74 16.98 C4.99 11.53 2.95 6.9 0 2 C0 1.34 0 0.68 0 0 Z " fill="#011743" transform="translate(628,528)"/>
</svg>
