<?xml version="1.0" encoding="UTF-8"?>
<!-- Generator: visioncortex VTracer 0.6.4 -->
<svg version="1.1" xmlns="http://www.w3.org/2000/svg" width="1024" height="1024">
<path d="M0 0 C337.92 0 675.84 0 1024 0 C1024 337.92 1024 675.84 1024 1024 C686.08 1024 348.16 1024 0 1024 C0 686.08 0 348.16 0 0 Z M294.75 297.31 C282.59 311.78 273.68 328.68 269 347 C268.73 348.04 268.47 349.08 268.19 350.15 C265.37 362.98 265.56 375.77 265.59 388.85 C265.6 392.33 265.59 395.8 265.58 399.28 C265.56 406.06 265.56 412.85 265.56 419.63 C265.57 425.16 265.56 430.69 265.56 436.21 C265.56 437 265.56 437.79 265.56 438.61 C265.56 440.21 265.55 441.82 265.55 443.42 C265.54 458.45 265.54 473.47 265.56 488.5 C265.57 502.19 265.55 515.88 265.53 529.57 C265.5 543.69 265.5 557.8 265.5 571.91 C265.51 579.81 265.5 587.71 265.49 595.62 C265.47 602.35 265.47 609.08 265.49 615.81 C265.5 619.23 265.5 622.65 265.48 626.07 C265.34 664.7 273.08 697.91 300.84 725.9 C322.44 746.95 350.65 758.24 380.74 758.11 C381.67 758.11 382.6 758.11 383.55 758.11 C386.59 758.11 389.62 758.11 392.66 758.1 C394.78 758.1 396.89 758.09 399.01 758.09 C404.56 758.09 410.11 758.08 415.66 758.07 C421.33 758.06 427 758.05 432.67 758.05 C443.78 758.04 454.89 758.02 466 758 C466 758.66 466 759.32 466 760 C470.28 760.17 474.56 760.33 478.85 760.48 C480.3 760.53 481.75 760.59 483.2 760.65 C493.16 761.05 503.07 761.18 513 760 C513.33 759.67 513.66 759.34 514 759 C515.75 758.9 517.51 758.87 519.27 758.86 C520.41 758.86 521.56 758.85 522.73 758.85 C524 758.84 525.27 758.84 526.57 758.84 C527.91 758.84 529.25 758.83 530.59 758.83 C533.48 758.82 536.37 758.81 539.27 758.8 C543.86 758.79 548.45 758.77 553.04 758.75 C566.11 758.69 579.17 758.63 592.23 758.6 C599.44 758.58 606.65 758.55 613.86 758.51 C617.66 758.49 621.47 758.47 625.28 758.47 C663.84 758.44 696.73 751.97 725.19 724.25 C752.82 696.3 758.49 662.22 758.41 624.32 C758.4 620.82 758.41 617.31 758.42 613.81 C758.44 606.97 758.44 600.14 758.44 593.3 C758.43 587.74 758.44 582.18 758.44 576.61 C758.44 575.82 758.44 575.02 758.44 574.2 C758.44 572.58 758.45 570.96 758.45 569.34 C758.46 554.22 758.46 539.1 758.44 523.98 C758.43 510.19 758.45 496.4 758.47 482.61 C758.5 468.39 758.51 454.17 758.5 439.95 C758.49 431.99 758.5 424.03 758.51 416.07 C758.53 409.3 758.53 402.53 758.51 395.76 C758.5 392.31 758.5 388.87 758.52 385.42 C758.58 366.78 757.72 349.13 750.31 331.75 C749.97 330.92 749.63 330.1 749.27 329.25 C737.73 302.3 716.35 279.99 689.3 268.3 C671.96 261.45 654.56 257.84 635.88 257.86 C634.24 257.86 634.24 257.86 632.55 257.85 C628.88 257.84 625.21 257.84 621.53 257.84 C618.89 257.83 616.25 257.83 613.62 257.82 C606.45 257.81 599.29 257.8 592.12 257.8 C587.64 257.8 583.16 257.79 578.68 257.79 C566.24 257.78 553.81 257.77 541.38 257.76 C540.18 257.76 540.18 257.76 538.97 257.76 C538.17 257.76 537.37 257.76 536.55 257.76 C534.94 257.76 533.33 257.76 531.71 257.76 C530.91 257.76 530.11 257.76 529.29 257.76 C516.34 257.76 503.39 257.74 490.44 257.71 C477.12 257.69 463.79 257.68 450.46 257.68 C443 257.68 435.53 257.67 428.06 257.65 C421.69 257.64 415.33 257.63 408.96 257.64 C405.72 257.64 402.48 257.64 399.25 257.63 C358.78 257.48 323.24 266.87 294.75 297.31 Z " fill="#F5F5F1" transform="translate(0,0)"/>
<path d="M0 0 C1.09 -0 2.19 -0 3.32 -0.01 C6.98 -0.01 10.64 -0.01 14.31 -0.01 C16.93 -0.01 19.56 -0.02 22.19 -0.02 C28.59 -0.03 34.99 -0.03 41.39 -0.03 C46.6 -0.03 51.81 -0.04 57.02 -0.04 C71.82 -0.05 86.61 -0.05 101.41 -0.05 C102.21 -0.05 103.01 -0.05 103.83 -0.05 C104.63 -0.05 105.42 -0.05 106.25 -0.05 C119.15 -0.05 132.06 -0.06 144.97 -0.07 C158.25 -0.09 171.53 -0.1 184.81 -0.1 C192.25 -0.09 199.69 -0.1 207.14 -0.11 C213.48 -0.12 219.83 -0.12 226.17 -0.11 C229.4 -0.11 232.63 -0.11 235.86 -0.12 C282.96 -0.22 282.96 -0.22 292.39 5.58 C296.56 8.02 301.11 8.88 305.77 10.07 C308.86 11.08 310.55 12.12 313.04 14.13 C315.36 14.86 317.69 15.54 320.04 16.13 C323.04 17.13 324.07 17.79 326.04 20.13 C326.04 20.79 326.04 21.45 326.04 22.13 C326.91 22.36 327.78 22.59 328.67 22.82 C332.83 24.44 334.95 25.89 338.04 29.13 C338.42 32.45 338.42 32.45 338.04 35.13 C338.66 35.38 339.28 35.63 339.92 35.88 C342.04 37.13 342.04 37.13 343.04 39.2 C343.87 41.35 343.87 41.35 346.17 41.88 C346.79 41.97 347.41 42.05 348.04 42.13 C348.04 43.45 348.04 44.77 348.04 46.13 C349.03 46.46 350.02 46.79 351.04 47.13 C352.65 49.42 352.65 49.42 354.23 52.2 C354.76 53.12 355.29 54.03 355.84 54.98 C356.23 55.69 356.63 56.4 357.04 57.13 C356.71 56.14 356.38 55.15 356.04 54.13 C356.37 53.47 356.7 52.81 357.04 52.13 C358.03 52.13 359.02 52.13 360.04 52.13 C360.38 52.76 360.72 53.39 361.07 54.03 C361.51 54.85 361.96 55.67 362.42 56.51 C362.86 57.32 363.3 58.13 363.75 58.97 C364.99 61.24 364.99 61.24 367.04 63.13 C367.21 64.31 367.37 65.48 367.54 66.7 C367.71 67.83 367.87 68.96 368.04 70.13 C368.7 70.46 369.36 70.79 370.04 71.13 C372.26 78.58 373.23 86.38 373.62 94.12 C373.66 94.88 373.7 95.65 373.75 96.43 C374.26 107.28 374.18 118.14 374.17 128.99 C374.17 131.45 374.18 133.9 374.18 136.35 C374.18 142.28 374.18 148.21 374.18 154.13 C374.18 158.96 374.18 163.79 374.18 168.61 C374.18 169.3 374.18 169.99 374.18 170.71 C374.18 172.11 374.18 173.52 374.18 174.92 C374.18 188.05 374.18 201.17 374.17 214.3 C374.17 225.51 374.17 236.73 374.17 247.95 C374.18 261.03 374.18 274.11 374.18 287.19 C374.18 288.59 374.18 289.99 374.18 291.39 C374.18 292.08 374.18 292.76 374.18 293.47 C374.18 298.28 374.18 303.09 374.18 307.9 C374.18 314.4 374.18 320.89 374.17 327.39 C374.17 329.76 374.17 332.12 374.18 334.49 C374.18 345.53 374.12 356.55 373.6 367.58 C373.56 368.42 373.52 369.26 373.48 370.13 C373.17 375.88 373.17 375.88 372.04 378.13 C372.37 378.13 372.7 378.13 373.04 378.13 C374.42 384.52 374.42 384.52 372.67 387.38 C370.47 391.11 370.59 394.44 370.45 398.71 C370.31 399.51 370.18 400.31 370.04 401.13 C369.05 401.79 368.06 402.45 367.04 403.13 C364.76 407.89 363.2 412.77 362.61 418.01 C361.87 422.1 360.11 423.43 357.04 426.13 C355.02 428.58 354.06 430.09 353.04 433.13 C352.38 433.13 351.72 433.13 351.04 433.13 C350.78 433.86 350.51 434.58 350.24 435.33 C346.75 443.52 340.93 449.68 334.04 455.13 C333.09 455.94 332.15 456.74 331.17 457.57 C329.04 459.13 329.04 459.13 327.04 459.13 C326.7 460.25 326.7 460.25 326.36 461.38 C324.44 465.41 321.77 467.47 317.62 469.06 C315.03 470.14 313.3 471.4 311.11 473.13 C306.13 476.57 301.4 477.15 295.47 477.71 C292.04 478.04 292.04 478.04 288.81 479.09 C272.7 483.56 255.26 482.34 238.73 482.2 C234.99 482.17 231.25 482.14 227.51 482.13 C225.2 482.11 222.9 482.1 220.59 482.07 C215.29 482.04 210.07 482.17 204.78 482.63 C196.97 483.29 189.18 483.28 181.35 483.27 C179.78 483.27 178.22 483.27 176.65 483.27 C173.4 483.27 170.14 483.27 166.89 483.26 C162.72 483.26 158.56 483.26 154.39 483.27 C151.17 483.27 147.95 483.27 144.73 483.27 C143.19 483.27 141.65 483.27 140.11 483.27 C137.97 483.27 135.83 483.27 133.69 483.26 C132.48 483.26 131.26 483.26 130.01 483.26 C127.04 483.13 127.04 483.13 124.04 482.13 C122.25 482.05 120.45 482.02 118.66 482.02 C117.54 482.02 116.42 482.02 115.27 482.02 C114.05 482.03 112.82 482.03 111.56 482.04 C109.57 482.04 107.59 482.04 105.61 482.04 C103.48 482.05 101.35 482.05 99.22 482.06 C94.78 482.07 90.33 482.08 85.89 482.08 C75.66 482.09 65.43 482.12 55.2 482.14 C45.83 482.16 36.45 482.18 27.08 482.19 C22.66 482.19 18.25 482.2 13.83 482.22 C11.75 482.22 9.66 482.22 7.58 482.23 C5.03 482.23 2.49 482.24 -0.05 482.25 C-1.17 482.25 -2.29 482.25 -3.45 482.25 C-4.42 482.25 -5.39 482.25 -6.4 482.25 C-8.75 482.14 -10.69 481.73 -12.96 481.13 C-15.06 481.19 -17.17 481.28 -19.27 481.38 C-30.21 481.45 -40.28 478.12 -49.03 471.47 C-51.23 469.94 -53.47 469.11 -55.96 468.13 C-58.27 466.13 -58.27 466.13 -59.96 464.13 C-59.96 463.47 -59.96 462.81 -59.96 462.13 C-60.95 462.13 -61.94 462.13 -62.96 462.13 C-62.96 461.47 -62.96 460.81 -62.96 460.13 C-63.89 459.84 -64.81 459.56 -65.77 459.26 C-68.96 458.13 -68.96 458.13 -71.96 456.13 C-71.96 455.47 -71.96 454.81 -71.96 454.13 C-72.55 453.89 -73.14 453.64 -73.75 453.38 C-76.29 451.94 -77.5 450.48 -79.21 448.13 C-79.73 447.43 -80.25 446.73 -80.79 446.01 C-81.96 444.13 -81.96 444.13 -81.96 442.13 C-83.28 442.13 -84.6 442.13 -85.96 442.13 C-91.82 437.13 -94.21 432.78 -94.96 425.13 C-95.62 425.13 -96.28 425.13 -96.96 425.13 C-97.34 423.96 -97.73 422.8 -98.13 421.59 C-98.65 420.04 -99.18 418.49 -99.71 416.95 C-99.96 416.18 -100.21 415.41 -100.47 414.62 C-102.04 410.06 -103.72 406.79 -106.96 403.13 C-109.15 398.55 -108.97 395.07 -108.25 390.18 C-107.89 387.98 -107.89 387.98 -107.96 385.13 C-108.62 384.8 -109.28 384.47 -109.96 384.13 C-111.98 380.09 -112.08 375.91 -112.09 371.46 C-112.09 370.34 -112.09 369.23 -112.1 368.08 C-112.09 366.89 -112.09 365.69 -112.09 364.47 C-112.09 363.23 -112.09 362 -112.09 360.73 C-112.09 358.14 -112.09 355.54 -112.09 352.94 C-112.08 350.27 -112.08 347.6 -112.09 344.94 C-112.09 341.09 -112.09 337.25 -112.09 333.4 C-112.09 332.2 -112.09 331.01 -112.1 329.77 C-112.09 328.67 -112.09 327.56 -112.09 326.42 C-112.09 325.45 -112.09 324.47 -112.08 323.47 C-111.96 321.13 -111.96 321.13 -110.96 319.13 C-111.62 318.8 -112.28 318.47 -112.96 318.13 C-112.79 316.96 -112.62 315.79 -112.45 314.58 C-111.62 307.05 -111.93 299.47 -112.05 291.91 C-112.08 289.93 -112.1 287.95 -112.12 285.97 C-112.13 284.8 -112.15 283.63 -112.17 282.43 C-111.95 279 -111.11 276.35 -109.96 273.13 C-109.75 269.54 -109.75 269.54 -109.89 265.88 C-110.05 259.33 -110.05 259.33 -108.96 257.13 C-109.95 256.8 -110.94 256.47 -111.96 256.13 C-112.02 252.03 -112.05 247.93 -112.08 243.82 C-112.1 242.65 -112.12 241.49 -112.13 240.28 C-112.14 239.17 -112.15 238.05 -112.15 236.9 C-112.16 235.86 -112.17 234.83 -112.18 233.77 C-111.96 231.13 -111.96 231.13 -109.96 228.13 C-110.62 227.47 -111.28 226.81 -111.96 226.13 C-112.15 223.64 -112.15 223.64 -112.08 220.7 C-112.06 219.73 -112.05 218.76 -112.03 217.76 C-111.99 216.46 -111.99 216.46 -111.96 215.13 C-111.96 214.14 -111.96 213.15 -111.96 212.13 C-111.94 211.29 -111.92 210.44 -111.89 209.57 C-111.79 207.12 -111.79 207.12 -112.96 205.13 C-112.87 202.33 -112.72 199.55 -112.52 196.75 C-111.96 187.44 -111.84 178.17 -111.88 168.84 C-111.9 166.11 -111.9 163.38 -111.91 160.65 C-111.92 153.88 -111.94 147.11 -111.97 140.33 C-111.99 134.58 -112 128.83 -112.01 123.07 C-112.02 120.43 -112.03 117.78 -112.05 115.14 C-112.08 103.11 -111.63 91.14 -110.96 79.13 C-110.3 79.13 -109.64 79.13 -108.96 79.13 C-108.37 78.14 -108.37 78.14 -107.77 77.13 C-106.17 74.49 -104.59 72.53 -102.52 70.26 C-100.3 67.78 -98.42 65.44 -96.83 62.51 C-95.4 59.92 -94.25 58.21 -92.33 56.07 C-89.93 53.1 -88.92 50.8 -87.96 47.13 C-87.3 47.13 -86.64 47.13 -85.96 47.13 C-85.62 46.05 -85.62 46.05 -85.27 44.95 C-83.68 41.53 -81.67 39.77 -78.96 37.13 C-77.82 35.98 -76.68 34.82 -75.55 33.65 C-74.33 32.42 -73.11 31.18 -71.89 29.95 C-71.28 29.32 -70.67 28.69 -70.04 28.04 C-69.45 27.44 -68.85 26.84 -68.23 26.22 C-67.7 25.67 -67.17 25.13 -66.62 24.57 C-64.96 23.13 -64.96 23.13 -62.88 22.13 C-60.62 21.16 -60.62 21.16 -58.96 18.13 C-58.3 18.13 -57.64 18.13 -56.96 18.13 C-56.96 17.47 -56.96 16.81 -56.96 16.13 C-56.4 15.93 -55.84 15.72 -55.26 15.5 C-50.07 13.51 -45.19 11.23 -40.27 8.63 C-27.62 2.07 -14.15 -0.02 0 0 Z M50.04 82.13 C44.9 86.93 44.9 86.93 41.98 87.63 C38.76 88.46 37.15 90.68 35.04 93.13 C35.04 94.12 35.04 95.11 35.04 96.13 C34.05 96.13 33.06 96.13 32.04 96.13 C32.04 96.79 32.04 97.45 32.04 98.13 C31.05 98.46 30.06 98.79 29.04 99.13 C26.89 102.36 26.84 103.42 27.04 107.13 C26.28 107.03 25.52 106.93 24.73 106.82 C23.84 106.92 22.96 107.03 22.04 107.13 C21 108.78 20.01 110.45 19.04 112.13 C17.38 112.81 15.71 113.47 14.04 114.13 C13.9 114.75 13.76 115.37 13.61 116 C12.88 118.73 11.72 119.44 9.53 121.18 C6.49 124.13 5.51 126.03 5.18 130.26 C5.15 132.29 5.16 134.31 5.2 136.34 C5.19 137.46 5.19 138.58 5.18 139.74 C5.17 143.49 5.21 147.24 5.25 150.99 C5.25 153.68 5.25 156.37 5.24 159.06 C5.24 164.85 5.26 170.64 5.3 176.43 C5.36 184.8 5.38 193.18 5.39 201.55 C5.4 215.13 5.45 228.72 5.51 242.3 C5.58 255.49 5.63 268.69 5.66 281.88 C5.66 282.69 5.66 283.51 5.66 284.35 C5.67 288.43 5.68 292.51 5.69 296.59 C5.76 330.44 5.89 364.29 6.04 398.13 C7.3 398.14 8.55 398.15 9.84 398.16 C21.93 398.26 34.01 398.37 46.09 398.47 C52.29 398.53 58.5 398.58 64.7 398.63 C71.91 398.69 79.11 398.75 86.32 398.82 C87.51 398.83 88.7 398.84 89.93 398.85 C103.07 398.97 116.21 399.14 129.34 399.43 C131.06 399.46 131.06 399.46 132.82 399.5 C138.23 399.62 143.64 399.75 149.05 399.89 C170.26 400.42 194.11 400.83 211.04 386.13 C212.73 384.49 214.4 382.82 216.04 381.13 C219.04 379.13 219.04 379.13 221.61 378.7 C224.4 378.35 224.4 378.35 226.04 375.13 C227.78 374.32 227.78 374.32 229.79 373.57 C235.32 370.98 237.32 366.35 240.04 361.13 C240.61 360.25 241.18 359.36 241.77 358.44 C242.4 357.3 242.4 357.3 243.04 356.13 C242.71 355.47 242.38 354.81 242.04 354.13 C242.7 354.13 243.36 354.13 244.04 354.13 C244.72 352.7 245.38 351.26 246.04 349.82 C246.41 349.02 246.79 348.22 247.17 347.4 C248.22 345.07 248.22 345.07 248.04 342.13 C248.7 342.13 249.36 342.13 250.04 342.13 C250.25 341.51 250.45 340.88 250.66 340.24 C251.07 339.01 251.07 339.01 251.48 337.76 C251.75 336.95 252.01 336.13 252.29 335.3 C253.04 333.13 253.04 333.13 254.04 331.13 C254.11 329.26 254.13 327.38 254.11 325.51 C254.1 324.51 254.09 323.5 254.08 322.47 C254.07 321.7 254.05 320.93 254.04 320.13 C254.37 320.13 254.7 320.13 255.04 320.13 C256.3 313.45 256.23 306.91 256.23 300.13 C256.24 298.88 256.25 297.62 256.27 296.32 C256.27 295.1 256.27 293.89 256.27 292.63 C256.28 291.53 256.28 290.43 256.29 289.29 C256.03 285.95 255.23 283.25 254.04 280.13 C253.38 280.13 252.72 280.13 252.04 280.13 C251.71 277.49 251.38 274.85 251.04 272.13 C250.05 271.8 249.06 271.47 248.04 271.13 C246.61 268.57 245.33 266.04 244.11 263.38 C241.81 258.46 239.54 254.34 236.04 250.13 C234.79 246.82 234.79 246.82 234.04 244.13 C233.38 244.13 232.72 244.13 232.04 244.13 C231.61 243.02 231.61 243.02 231.17 241.88 C230.16 239.2 230.16 239.2 228.84 237.2 C228.04 235.13 228.04 235.13 228.77 233.27 C229.21 232.65 229.65 232.03 230.11 231.38 C230.58 230.69 231.05 229.99 231.53 229.27 C232.03 228.57 232.53 227.86 233.04 227.13 C236.18 222.55 238.32 218.82 239.46 213.29 C240.14 210.76 241.2 208.61 242.36 206.26 C246.01 198.57 247.92 190.34 250.04 182.13 C250.7 182.13 251.36 182.13 252.04 182.13 C253.76 176.21 254.33 170.97 254.23 164.82 C254.23 164.02 254.23 163.23 254.23 162.41 C254.2 159.07 254.1 156.31 253.04 153.13 C252.71 150.68 252.39 148.22 252.11 145.76 C251.57 141.21 250.97 137.31 249.04 133.13 C248.38 133.13 247.72 133.13 247.04 133.13 C246.92 132.45 246.8 131.77 246.67 131.07 C245.95 127.69 245.12 124.42 244.04 121.13 C243.38 120.8 242.72 120.47 242.04 120.13 C240.97 117.85 240.97 117.85 239.92 115.07 C239.56 114.15 239.21 113.23 238.85 112.29 C238.58 111.58 238.32 110.87 238.04 110.13 C237.38 110.13 236.72 110.13 236.04 110.13 C235.61 108.96 235.61 108.96 235.17 107.76 C234.19 105.04 234.19 105.04 232.04 103.13 C231.05 103.13 230.06 103.13 229.04 103.13 C228.98 102.56 228.92 101.98 228.86 101.38 C227.69 98.17 225.84 97.04 223.04 95.13 C222.25 94.82 221.47 94.51 220.66 94.19 C218.05 93.14 215.86 91.88 213.48 90.38 C204.66 85 195.3 79.33 184.79 78.57 C180.24 78.23 180.24 78.23 178.04 77.13 C176.42 77.03 174.79 76.99 173.17 76.98 C172.14 76.97 171.11 76.96 170.04 76.95 C168.91 76.95 167.77 76.95 166.6 76.94 C164.82 76.93 164.82 76.93 162.99 76.92 C159.03 76.89 155.08 76.87 151.12 76.86 C149.75 76.85 148.39 76.85 147.03 76.84 C141.36 76.82 135.69 76.8 130.03 76.79 C121.9 76.78 113.78 76.74 105.66 76.69 C99.95 76.65 94.23 76.63 88.52 76.62 C85.11 76.62 81.7 76.61 78.29 76.57 C74.48 76.54 70.68 76.54 66.87 76.55 C65.74 76.53 64.61 76.52 63.45 76.5 C57.22 76.55 53.95 76.77 50.04 82.13 Z " fill="#163FB2" transform="translate(380.9574432373047,266.8662872314453)"/>
<path d="M0 0 C1.34 0 1.34 0 2.7 0.01 C3.72 0 4.74 0 5.79 -0 C6.92 0 8.04 0.01 9.2 0.02 C10.97 0.02 10.97 0.02 12.78 0.02 C16.02 0.02 19.26 0.03 22.5 0.04 C25.89 0.06 29.27 0.06 32.66 0.06 C39.07 0.07 45.49 0.08 51.9 0.1 C59.2 0.12 66.5 0.14 73.8 0.15 C88.82 0.17 103.84 0.2 118.86 0.25 C118.86 0.58 118.86 0.91 118.86 1.25 C105.99 1.58 93.12 1.91 79.86 2.25 C84.86 2.87 89.23 3.38 94.18 3.37 C95.69 3.37 95.69 3.37 97.23 3.38 C99.97 3.36 99.97 3.36 102.86 2.25 C103.85 2.58 104.84 2.91 105.86 3.25 C107.66 3.16 109.45 3 111.24 2.81 C131.92 1 150.17 5.54 166.74 18.62 C179.26 29.53 190.77 45.49 193.86 62.25 C193.91 64.08 193.9 65.91 193.86 67.75 C193.82 71.95 193.89 76.1 194.15 80.3 C194.21 81.18 194.26 82.06 194.32 82.96 C194.43 84.7 194.55 86.44 194.68 88.18 C195.01 93.35 194.47 97.25 192.86 102.25 C192.77 104.4 192.77 104.4 192.99 106.37 C193.28 123.61 180.64 142.11 169.07 154.11 C168.47 154.67 168.47 154.67 167.86 155.25 C168.98 158.26 170.09 159.43 172.64 161.49 C175.91 164.16 178.39 167.23 180.8 170.68 C181.23 171.29 181.66 171.9 182.1 172.53 C189.03 182.64 193.74 193.38 196.86 205.25 C197.22 206.46 197.58 207.67 197.95 208.91 C203.28 230.56 197.66 255.47 187.02 274.56 C174.14 294.86 155.06 309.65 131.86 316.25 C126.24 317.47 120.72 317.37 115 317.34 C113.44 317.34 113.44 317.34 111.86 317.34 C108.57 317.33 105.28 317.32 101.99 317.31 C99.75 317.3 97.52 317.3 95.28 317.29 C89.81 317.28 84.34 317.27 78.86 317.25 C78.86 316.92 78.86 316.59 78.86 316.25 C77.21 316.26 77.21 316.26 75.53 316.28 C68.07 316.33 60.77 316.36 53.36 315.27 C50.72 315.12 50.72 315.12 47.77 316.23 C43.46 317.5 39.37 317.51 34.9 317.47 C33.6 317.47 33.6 317.47 32.27 317.47 C29.41 317.47 26.56 317.46 23.71 317.44 C21.73 317.44 19.74 317.43 17.76 317.43 C12.55 317.43 7.34 317.41 2.13 317.38 C-3.2 317.36 -8.52 317.35 -13.84 317.34 C-24.27 317.32 -34.7 317.29 -45.14 317.25 C-46.32 314.89 -46.27 313.48 -46.28 310.84 C-46.28 309.91 -46.29 308.98 -46.29 308.02 C-46.29 306.99 -46.3 305.96 -46.3 304.9 C-46.3 303.81 -46.31 302.73 -46.31 301.6 C-46.33 297.93 -46.34 294.26 -46.34 290.59 C-46.35 287.97 -46.36 285.34 -46.37 282.72 C-46.4 274.83 -46.42 266.94 -46.44 259.06 C-46.44 256.83 -46.45 254.6 -46.45 252.38 C-46.49 238.55 -46.51 224.73 -46.53 210.9 C-46.53 207.7 -46.54 204.5 -46.54 201.3 C-46.54 200.5 -46.54 199.7 -46.54 198.88 C-46.56 185.98 -46.6 173.08 -46.65 160.18 C-46.7 146.94 -46.73 133.71 -46.74 120.47 C-46.75 113.03 -46.76 105.6 -46.8 98.16 C-46.84 91.17 -46.85 84.18 -46.83 77.18 C-46.83 74.61 -46.84 72.04 -46.86 69.47 C-46.89 65.97 -46.88 62.47 -46.86 58.97 C-46.88 57.95 -46.9 56.92 -46.91 55.87 C-46.82 49.12 -46.82 49.12 -44.8 46.56 C-43.18 45.23 -43.18 45.23 -40.14 43.25 C-39.12 41.59 -38.12 39.92 -37.14 38.25 C-35.69 36.73 -34.18 35.29 -32.64 33.87 C-31.01 32.23 -31.01 32.23 -29.78 29.89 C-28.17 27.31 -26.54 25.44 -24.37 23.32 C-23.64 22.61 -22.92 21.89 -22.17 21.15 C-21.42 20.42 -20.66 19.69 -19.89 18.93 C-14.91 14.07 -10.08 9.18 -5.55 3.89 C-2.44 0.28 -2.44 0.28 0 0 Z M-1.14 45.25 C1.06 47.5 3.21 49.25 5.86 50.96 C6.66 51.48 7.45 51.99 8.27 52.52 C9.56 53.34 9.56 53.34 10.86 54.18 C11.76 54.76 12.65 55.33 13.57 55.93 C20.26 60.24 26.99 64.49 33.73 68.73 C40.19 72.8 46.59 76.95 52.98 81.12 C59.62 85.45 66.3 89.73 72.99 94 C82.99 100.38 92.93 106.84 102.85 113.35 C107.41 116.34 111.97 119.33 116.58 122.25 C117.58 122.88 117.58 122.88 118.6 123.53 C120.27 124.58 121.94 125.63 123.62 126.68 C125.86 128.25 125.86 128.25 126.86 130.25 C126.17 130.49 125.47 130.74 124.75 131 C121.44 132.43 118.67 134.22 115.68 136.24 C114.81 136.82 114.81 136.82 113.93 137.41 C112.09 138.64 110.26 139.88 108.43 141.12 C107.2 141.95 105.97 142.77 104.75 143.59 C102.48 145.12 100.21 146.64 97.94 148.17 C96.93 148.86 95.91 149.54 94.86 150.25 C93.83 151.01 92.79 151.78 91.72 152.57 C88.86 154.25 88.86 154.25 86.73 154.14 C84.7 153.17 82.86 152.12 80.98 150.87 C79.84 150.12 79.84 150.12 78.67 149.35 C77.44 148.52 77.44 148.52 76.18 147.68 C74.38 146.5 72.57 145.31 70.77 144.13 C69.34 143.18 69.34 143.18 67.87 142.22 C62.67 138.81 57.42 135.47 52.18 132.12 C45.19 127.66 38.2 123.19 31.24 118.68 C30.59 118.27 29.95 117.85 29.29 117.42 C25.11 114.71 20.94 111.98 16.78 109.24 C15.73 108.55 14.68 107.86 13.6 107.14 C11.51 105.77 9.43 104.4 7.35 103.02 C5.94 102.09 5.94 102.09 4.49 101.14 C3.65 100.58 2.8 100.02 1.93 99.45 C-0.03 98.08 -0.03 98.08 -2.14 98.25 C-2.14 137.85 -2.14 177.45 -2.14 218.25 C4.21 215.14 4.21 215.14 10.11 211.56 C10.85 211.08 11.58 210.59 12.33 210.09 C13.1 209.57 13.86 209.05 14.65 208.52 C15.88 207.7 15.88 207.7 17.13 206.86 C19.73 205.12 22.33 203.37 24.93 201.62 C26.64 200.47 28.36 199.32 30.07 198.17 C33.43 195.92 36.79 193.67 40.14 191.42 C49.49 185.14 58.85 178.88 68.3 172.74 C73.42 169.41 78.53 166.05 83.65 162.7 C86.1 161.09 88.55 159.49 91.01 157.88 C95.71 154.8 100.4 151.71 105.09 148.61 C106.97 147.38 108.84 146.15 110.72 144.92 C127.67 133.84 142.38 122.74 148.11 102.31 C150.44 90.12 150 78.19 143.86 67.25 C143.27 66.17 142.67 65.1 142.05 64 C134.31 54.27 125.36 47.44 112.86 45.25 C109.07 44.98 105.29 44.99 101.49 45.02 C100.38 45.02 99.27 45.02 98.12 45.02 C94.46 45.02 90.8 45.04 87.15 45.05 C84.6 45.05 82.06 45.06 79.51 45.06 C73.51 45.07 67.51 45.08 61.51 45.1 C54.68 45.12 47.85 45.14 41.01 45.15 C26.96 45.17 12.91 45.2 -1.14 45.25 Z M120.45 189.86 C119.73 190.33 119 190.81 118.26 191.3 C115.91 192.86 113.58 194.43 111.24 196 C109.63 197.06 108.03 198.13 106.42 199.2 C102.56 201.76 98.7 204.34 94.85 206.92 C92.26 208.65 89.67 210.37 87.08 212.09 C84.39 213.88 81.71 215.66 79.04 217.45 C68.31 224.63 57.57 231.77 46.77 238.84 C35.45 246.24 24.14 253.68 12.88 261.16 C11.54 262.05 10.2 262.94 8.86 263.82 C7 265.05 5.15 266.28 3.3 267.51 C2.25 268.21 1.2 268.91 0.11 269.63 C-0.63 270.16 -1.37 270.7 -2.14 271.25 C-2.14 271.58 -2.14 271.91 -2.14 272.25 C13.43 272.32 29 272.37 44.57 272.4 C51.8 272.42 59.03 272.44 66.26 272.47 C72.57 272.5 78.88 272.52 85.18 272.53 C88.52 272.53 91.85 272.54 95.19 272.56 C98.92 272.59 102.66 272.59 106.39 272.59 C107.48 272.6 108.57 272.61 109.69 272.62 C122.22 272.57 135.2 269.74 144.68 261.06 C148.44 257.02 150.67 252.27 152.86 247.25 C152.04 266.99 144.83 285.42 131.86 300.25 C130.14 302.55 128.5 304.89 126.86 307.25 C139 302.04 146.46 287.93 151.61 276.5 C159.72 255.44 161.15 233.12 152.13 212.13 C148.26 203.59 143.6 196.84 136.86 190.25 C136.36 189.68 135.85 189.11 135.33 188.53 C133.97 186.97 133.97 186.97 131.86 185.25 C126.91 185.25 124.4 187.19 120.45 189.86 Z " fill="#F4F5F2" transform="translate(436.13579750061035,345.75390434265137)"/>
<path d="M0 0 C9.31 3.47 15.88 11.16 20.04 19.99 C25.46 32.41 27.68 44.62 27.19 58.19 C26.2 58.52 25.21 58.85 24.19 59.19 C22.98 61.19 22.98 61.19 22.19 63.19 C21.2 63.19 20.21 63.19 19.19 63.19 C19.19 63.85 19.19 64.51 19.19 65.19 C17.83 66.52 17.83 66.52 16 68 C13.74 69.85 11.91 71.52 10 73.75 C5.66 77.51 0.5 79.15 -4.81 81.19 C-5.8 81.68 -5.8 81.68 -6.81 82.19 C-8.36 82.28 -9.91 82.31 -11.46 82.31 C-12.44 82.31 -13.41 82.31 -14.42 82.31 C-16.04 82.31 -16.04 82.31 -17.69 82.3 C-19.39 82.3 -19.39 82.3 -21.12 82.3 C-24.87 82.3 -28.63 82.29 -32.38 82.29 C-34.98 82.28 -37.58 82.28 -40.18 82.28 C-46.32 82.28 -52.47 82.27 -58.62 82.26 C-65.62 82.25 -72.62 82.24 -79.62 82.24 C-94.02 82.23 -108.41 82.21 -122.81 82.19 C-121.96 80.22 -121.96 80.22 -120.81 78.19 C-119.15 77.85 -117.48 77.51 -115.81 77.19 C-114.78 75.88 -113.78 74.55 -112.81 73.19 C-111.82 73.19 -110.83 73.19 -109.81 73.19 C-109.48 72.2 -109.15 71.21 -108.81 70.19 C-104.48 67.19 -104.48 67.19 -101.81 67.19 C-101.81 66.53 -101.81 65.87 -101.81 65.19 C-99.73 63.71 -97.68 62.37 -95.5 61.06 C-94.91 60.69 -94.31 60.32 -93.7 59.93 C-89.2 57.19 -89.2 57.19 -85.81 57.19 C-85.48 56.2 -85.15 55.21 -84.81 54.19 C-83.22 53.09 -83.22 53.09 -81.31 52.12 C-78.48 50.76 -78.48 50.76 -76.81 48.19 C-76.03 48.04 -75.25 47.9 -74.44 47.75 C-71.41 47.1 -70.93 46.31 -68.81 44.19 C-66.91 43.16 -66.91 43.16 -64.88 42.25 C-61.49 40.63 -59.44 38.89 -56.81 36.19 C-48.74 30.19 -48.74 30.19 -44.81 30.19 C-44.81 29.53 -44.81 28.87 -44.81 28.19 C-43.82 28.19 -42.83 28.19 -41.81 28.19 C-41.81 27.53 -41.81 26.87 -41.81 26.19 C-40.98 26.09 -40.98 26.09 -40.12 26 C-37.56 25.29 -37.56 25.29 -35.38 22.75 C-32.81 20.19 -31.12 19.44 -27.81 18.19 C-26.82 16.7 -26.82 16.7 -25.81 15.19 C-24.49 14.83 -23.15 14.49 -21.81 14.19 C-21.48 13.53 -21.15 12.87 -20.81 12.19 C-19.82 12.19 -18.83 12.19 -17.81 12.19 C-17.81 11.53 -17.81 10.87 -17.81 10.19 C-14.81 8.19 -14.81 8.19 -11.81 8.19 C-11.81 7.53 -11.81 6.87 -11.81 6.19 C-10.82 6.19 -9.83 6.19 -8.81 6.19 C-8.81 5.53 -8.81 4.87 -8.81 4.19 C-5.88 1.74 -3.86 0.26 0 0 Z " fill="#1740B1" transform="translate(564.8125,533.8125)"/>
<path d="M0 0 C14.01 -0.02 28.02 -0.04 42.04 -0.05 C48.54 -0.06 55.05 -0.06 61.56 -0.08 C67.83 -0.09 74.11 -0.09 80.38 -0.09 C82.78 -0.1 85.18 -0.1 87.58 -0.11 C90.93 -0.11 94.28 -0.11 97.63 -0.11 C98.63 -0.12 99.62 -0.12 100.65 -0.12 C102.02 -0.12 102.02 -0.12 103.42 -0.12 C104.21 -0.12 105 -0.12 105.82 -0.12 C108 0 109.91 0.4 112 1 C112 1.66 112 2.32 112 3 C113.09 3.1 114.19 3.21 115.31 3.31 C119.11 4.02 119.67 4.24 122 7 C123.18 7.68 123.18 7.68 124.38 8.38 C130.45 12.13 134.63 17.33 137 24 C137.37 24.93 137.37 24.93 137.74 25.87 C139.97 31.87 140.46 37.2 140.38 43.56 C140.39 44.46 140.4 45.35 140.41 46.27 C140.38 52.19 139.39 56.59 137 62 C136.34 62 135.68 62 135 62 C134.67 64.31 134.34 66.62 134 69 C133.01 69 132.02 69 131 69 C130.96 69.74 130.92 70.49 130.88 71.25 C129.65 75.1 127.37 75.96 124 78 C123.67 78.66 123.34 79.32 123 80 C120.08 78.93 118.22 78.22 116 76 C114.97 75.61 113.94 75.22 112.88 74.81 C109.71 73.53 107.61 71.89 105.12 69.56 C101.64 66.33 98.3 64.66 93.92 62.9 C91.45 61.74 90.22 60.43 89 58 C89 57.34 89 56.68 89 56 C86.36 55.67 83.72 55.34 81 55 C81 54.34 81 53.68 81 53 C80.44 52.9 79.89 52.79 79.31 52.69 C76.5 51.85 74.38 50.72 72 49 C72 48.01 72 47.02 72 46 C71.09 45.73 70.18 45.46 69.25 45.19 C66.23 44.08 64.5 42.94 62 41 C61.24 40.7 60.48 40.4 59.7 40.09 C56.9 38.96 54.41 37.61 51.81 36.06 C50.95 35.56 50.09 35.05 49.21 34.54 C47 33 47 33 45 30 C43.89 29.53 42.77 29.05 41.62 28.56 C38.04 27.02 36.68 25.68 34 23 C32.32 22.26 30.64 21.52 28.94 20.85 C24.19 18.77 19.4 15.95 16 12 C16 11.34 16 10.68 16 10 C15.23 9.85 15.23 9.85 14.44 9.69 C5.83 7.26 5.83 7.26 3.56 3.81 C3.38 3.21 3.19 2.62 3 2 C2.01 2 1.02 2 0 2 C0 1.34 0 0.68 0 0 Z " fill="#173FB2" transform="translate(443,393)"/>
<path d="M0 0 C2.42 0.48 4.66 1.22 7 2 C7 2.66 7 3.32 7 4 C7.73 4.12 8.47 4.23 9.22 4.36 C15.63 5.84 21.75 10.1 27 14 C27 14.66 27 15.32 27 16 C28.32 16.33 29.64 16.66 31 17 C31 17.66 31 18.32 31 19 C32.32 19.33 33.64 19.66 35 20 C35 20.66 35 21.32 35 22 C37.31 22.66 39.62 23.32 42 24 C42 24.99 42 25.98 42 27 C42.56 27.12 43.11 27.25 43.69 27.38 C46.22 28.06 48.58 28.99 51 30 C51 30.99 51 31.98 51 33 C51.7 33.08 52.4 33.17 53.12 33.25 C56.65 34.17 59 35.96 62 38 C64.23 38.77 64.23 38.77 66 39 C66 39.66 66 40.32 66 41 C67.08 41.09 67.08 41.09 68.19 41.19 C71.88 42.26 73.53 44.11 76 47 C76 47.66 76 48.32 76 49 C77.98 49.66 79.96 50.32 82 51 C82 51.66 82 52.32 82 53 C82.66 53 83.32 53 84 53 C84 53.99 84 54.98 84 56 C83.01 56 82.02 56 81 56 C81 56.66 81 57.32 81 58 C79.38 60.06 79.38 60.06 77 62 C75.73 62.14 75.73 62.14 74.43 62.28 C69.55 63.31 65.96 65.83 61.81 68.5 C60.22 69.51 58.62 70.52 57.02 71.53 C56.32 71.98 55.62 72.43 54.9 72.89 C53 74 53 74 50 75 C49.5 76.49 49.5 76.49 49 78 C48.34 78.66 47.68 79.32 47 80 C46.01 80 45.02 80 44 80 C43.5 81.49 43.5 81.49 43 83 C40 85 40 85 37 85 C37 85.66 37 86.32 37 87 C34 89 34 89 31 89 C31 89.66 31 90.32 31 91 C28.52 91.5 28.52 91.5 26 92 C25.67 93.32 25.34 94.64 25 96 C20.55 96.5 20.55 96.5 16 97 C16 97.66 16 98.32 16 99 C12.54 102 12.54 102 10 102 C10 102.66 10 103.32 10 104 C9.05 104.08 8.1 104.16 7.12 104.25 C3.9 104.65 3.9 104.65 2.62 107.06 C2.42 107.7 2.21 108.34 2 109 C1.01 109 0.02 109 -1 109 C-1.02 94.94 -1.04 80.87 -1.05 66.81 C-1.06 60.28 -1.06 53.75 -1.08 47.22 C-1.09 40.92 -1.09 34.63 -1.09 28.33 C-1.1 25.92 -1.1 23.51 -1.11 21.11 C-1.11 17.75 -1.11 14.39 -1.11 11.03 C-1.12 10.02 -1.12 9.02 -1.12 7.98 C-1.12 7.07 -1.12 6.16 -1.12 5.22 C-1.12 4.03 -1.12 4.03 -1.12 2.81 C-1 1 -1 1 0 0 Z " fill="#173EB1" transform="translate(437,450)"/>
<path d="M0 0 C0 0.33 0 0.66 0 1 C-10.21 3.41 -20.56 3.61 -31 4 C-31.33 4.99 -31.66 5.98 -32 7 C-117.8 7 -203.6 7 -292 7 C-292 6.01 -292 5.02 -292 4 C-292.66 4 -293.32 4 -294 4 C-294 3.34 -294 2.68 -294 2 C-293.41 2 -292.81 2 -292.2 1.99 C-256.96 1.89 -221.72 1.78 -186.48 1.67 C-182.25 1.66 -178.02 1.64 -173.79 1.63 C-172.95 1.62 -172.11 1.62 -171.24 1.62 C-157.6 1.58 -143.96 1.53 -130.32 1.5 C-116.32 1.45 -102.33 1.41 -88.34 1.36 C-79.7 1.33 -71.06 1.31 -62.43 1.28 C-56.51 1.27 -50.59 1.25 -44.67 1.23 C-41.25 1.21 -37.83 1.2 -34.42 1.2 C-30.71 1.19 -27.01 1.17 -23.31 1.16 C-22.22 1.16 -21.14 1.16 -20.03 1.16 C-19.03 1.15 -18.04 1.14 -17.02 1.14 C-15.74 1.13 -15.74 1.13 -14.43 1.13 C-9.52 0.87 -4.99 -0.1 0 0 Z " fill="#12318A" transform="translate(663,748)"/>
<path d="M0 0 C28.89 -0.05 57.79 -0.08 86.68 -0.1 C89.35 -0.11 92.02 -0.11 94.68 -0.11 C95.35 -0.11 96.01 -0.11 96.69 -0.11 C107.44 -0.12 118.18 -0.14 128.93 -0.15 C139.95 -0.17 150.97 -0.18 161.99 -0.19 C168.18 -0.19 174.38 -0.2 180.57 -0.21 C186.39 -0.22 192.22 -0.23 198.04 -0.23 C200.18 -0.23 202.32 -0.23 204.47 -0.24 C207.38 -0.25 210.3 -0.25 213.21 -0.24 C214.07 -0.25 214.92 -0.25 215.8 -0.26 C219.72 -0.24 221.67 -0.22 225 2 C222.45 4.68 220.37 5.23 216.81 5.37 C215.04 5.38 213.28 5.38 211.52 5.36 C210.06 5.36 210.06 5.36 208.58 5.37 C205.32 5.37 202.05 5.36 198.79 5.34 C196.45 5.34 194.12 5.34 191.78 5.34 C185.43 5.34 179.09 5.33 172.74 5.3 C166.78 5.29 160.82 5.28 154.86 5.28 C143.05 5.27 131.25 5.25 119.44 5.23 C107.97 5.2 96.51 5.18 85.04 5.16 C84.33 5.16 83.62 5.16 82.9 5.16 C79.35 5.16 75.8 5.15 72.26 5.15 C42.84 5.12 13.42 5.07 -16 5 C-16 4.67 -16 4.34 -16 4 C-14.89 3.88 -13.77 3.75 -12.62 3.62 C-8.97 3.35 -8.97 3.35 -7 1 C-6.01 1 -5.02 1 -4 1 C-3.67 1.66 -3.34 2.32 -3 3 C-1.1 3.47 -1.1 3.47 1.06 3.62 C2.36 3.75 3.66 3.87 5 4 C4.34 3.67 3.68 3.34 3 3 C3 2.34 3 1.68 3 1 C2.01 0.67 1.02 0.34 0 0 Z " fill="#6F88CD" transform="translate(395,260)"/>
<path d="M0 0 C3.72 0.38 6.67 1.25 10 2.88 C15.36 5.31 20.82 6.54 26.56 7.75 C28.08 8.08 28.08 8.08 29.62 8.42 C32.08 8.95 34.54 9.48 37 10 C37 10.66 37 11.32 37 12 C37.66 12 38.32 12 39 12 C39 12.99 39 13.98 39 15 C40.11 14.99 40.11 14.99 41.24 14.98 C59.63 14.86 78.03 14.73 96.42 14.61 C105.32 14.55 114.22 14.49 123.11 14.43 C160.56 14.17 198 13.95 235.44 13.94 C237.86 13.94 240.27 13.94 242.69 13.93 C268.8 13.91 294.9 14.25 321 15 C321 15.99 321 16.98 321 18 C285.28 18.05 249.56 18.08 213.84 18.1 C209.62 18.1 205.4 18.11 201.18 18.11 C200.34 18.11 199.5 18.11 198.63 18.11 C185.04 18.12 171.45 18.14 157.86 18.15 C143.9 18.17 129.95 18.18 116 18.19 C107.39 18.19 98.79 18.2 90.18 18.22 C84.28 18.23 78.37 18.23 72.46 18.23 C69.06 18.23 65.65 18.23 62.25 18.24 C58.55 18.25 54.85 18.25 51.15 18.24 C50.09 18.25 49.02 18.25 47.93 18.26 C37.6 18.22 27.75 16.33 17.75 13.88 C16.99 13.69 16.24 13.51 15.46 13.32 C13.64 12.89 11.82 12.44 10 12 C10 11.01 10 10.02 10 9 C8.68 8.34 7.36 7.68 6 7 C6 6.01 6 5.02 6 4 C5.01 4 4.02 4 3 4 C1 2 1 2 0 0 Z " fill="#2C407D" transform="translate(332,740)"/>
<path d="M0 0 C1.32 0.33 2.64 0.66 4 1 C3.24 1.56 3.24 1.56 2.47 2.13 C-5.06 7.96 -12.72 14.17 -14.58 23.91 C-15.34 30.9 -15.17 37.88 -15.02 44.9 C-15.03 47.58 -15.04 50.26 -15.06 52.95 C-15.09 58.69 -15.06 64.43 -14.98 70.17 C-14.87 78.47 -14.86 86.77 -14.87 95.07 C-14.88 108.55 -14.82 122.02 -14.71 135.49 C-14.6 148.57 -14.53 161.65 -14.51 174.72 C-14.51 175.54 -14.5 176.36 -14.5 177.2 C-14.49 183.58 -14.48 189.97 -14.47 196.35 C-14.43 227.57 -14.2 258.78 -14 290 C41.77 290 97.54 290 155 290 C155 290.33 155 290.66 155 291 C98.57 291 42.14 291 -16 291 C-16.32 222.81 -16.32 222.81 -16.39 194.35 C-16.41 187.83 -16.42 181.32 -16.44 174.8 C-16.44 173.98 -16.44 173.17 -16.45 172.33 C-16.48 159.15 -16.54 145.97 -16.62 132.78 C-16.69 119.26 -16.74 105.73 -16.75 92.2 C-16.76 83.85 -16.8 75.51 -16.86 67.16 C-16.91 61.43 -16.92 55.71 -16.91 49.98 C-16.9 46.68 -16.92 43.38 -16.95 40.08 C-16.99 36.49 -16.98 32.91 -16.96 29.33 C-16.99 28.29 -17.01 27.25 -17.03 26.18 C-16.94 20.39 -16.16 17.58 -11.94 13.48 C-11.21 12.87 -10.47 12.27 -9.72 11.64 C-8.87 10.83 -8.87 10.83 -8 10 C-8 9.01 -8 8.02 -8 7 C-7.24 6.77 -6.47 6.55 -5.69 6.31 C-2.45 4.73 -1.58 3.17 0 0 Z " fill="#234084" transform="translate(403,374)"/>
<path d="M0 0 C2.47 2.47 2.25 3.14 2.25 6.53 C2.26 7.49 2.27 8.45 2.27 9.44 C2.27 10.5 2.26 11.56 2.26 12.65 C2.26 13.78 2.27 14.9 2.27 16.05 C2.28 19.84 2.28 23.63 2.27 27.41 C2.28 30.12 2.28 32.82 2.29 35.53 C2.3 42.13 2.3 48.74 2.3 55.35 C2.3 60.72 2.3 66.1 2.31 71.48 C2.31 72.24 2.31 73.01 2.31 73.8 C2.31 75.35 2.31 76.91 2.31 78.46 C2.32 93.06 2.32 107.67 2.31 122.27 C2.31 135.59 2.32 148.91 2.34 162.23 C2.36 175.92 2.37 189.62 2.36 203.31 C2.36 211 2.36 218.68 2.38 226.36 C2.39 232.91 2.39 239.46 2.38 246.01 C2.37 249.34 2.37 252.68 2.38 256.01 C2.43 271.29 1.68 285.94 -1 301 C-1.33 301 -1.66 301 -2 301 C-2.23 299.5 -2.43 298 -2.62 296.5 C-2.74 295.66 -2.86 294.83 -2.98 293.97 C-3 291 -3 291 -2.02 287.55 C-0.63 282.15 -0.71 276.84 -0.72 271.29 C-0.72 270.13 -0.71 268.97 -0.7 267.77 C-0.69 264.56 -0.68 261.35 -0.68 258.15 C-0.68 254.68 -0.66 251.21 -0.65 247.75 C-0.63 241.74 -0.61 235.74 -0.6 229.74 C-0.59 221.07 -0.56 212.39 -0.54 203.72 C-0.49 189.64 -0.45 175.56 -0.42 161.49 C-0.39 147.81 -0.36 134.14 -0.32 120.47 C-0.31 119.63 -0.31 118.78 -0.31 117.92 C-0.3 113.69 -0.29 109.46 -0.27 105.23 C-0.17 70.15 -0.08 35.08 0 0 Z " fill="#1B3577" transform="translate(756,371)"/>
<path d="M0 0 C1.66 -0 1.66 -0 3.35 -0.01 C7.05 -0.01 10.74 -0.01 14.43 -0.01 C17.09 -0.01 19.74 -0.02 22.39 -0.02 C28.85 -0.03 35.3 -0.03 41.75 -0.03 C47 -0.03 52.25 -0.04 57.5 -0.04 C72.39 -0.05 87.28 -0.05 102.18 -0.05 C102.98 -0.05 103.78 -0.05 104.61 -0.05 C105.41 -0.05 106.21 -0.05 107.04 -0.05 C120.05 -0.05 133.07 -0.06 146.08 -0.07 C159.45 -0.09 172.83 -0.1 186.21 -0.1 C193.71 -0.09 201.21 -0.1 208.72 -0.11 C215.11 -0.12 221.49 -0.12 227.88 -0.11 C231.14 -0.11 234.4 -0.11 237.65 -0.12 C241.19 -0.13 244.73 -0.12 248.27 -0.11 C249.28 -0.12 250.3 -0.12 251.35 -0.13 C258.03 -0.1 264.29 0.73 270.82 2.13 C270.82 2.46 270.82 2.79 270.82 3.13 C175.45 3.13 80.08 3.13 -18.18 3.13 C-18.51 2.47 -18.84 1.81 -19.18 1.13 C-12.75 0.18 -6.49 -0.01 0 0 Z " fill="#8B99BE" transform="translate(387.1762237548828,257.8662872314453)"/>
<path d="M0 0 C0.66 0 1.32 0 2 0 C2 3 2 3 0.62 4.69 C-1 6 -1 6 -3 6 C-3 6.66 -3 7.32 -3 8 C-3.66 8 -4.32 8 -5 8 C-5.33 8.99 -5.66 9.98 -6 11 C-8.11 12.25 -8.11 12.25 -10.75 13.44 C-17.44 16.49 -17.44 16.49 -22 22 C-23.66 22.69 -25.33 23.35 -27 24 C-27.71 24.47 -28.43 24.95 -29.16 25.43 C-32.74 27.41 -36.23 28.23 -40.19 29.12 C-45.22 30.18 -45.22 30.18 -50 32 C-49.34 32.66 -48.68 33.32 -48 34 C-54.1 35.4 -59.73 36.34 -66 36 C-66.5 35.5 -66.5 35.5 -67 35 C-68.63 34.84 -70.27 34.75 -71.91 34.68 C-72.9 34.64 -73.89 34.6 -74.91 34.56 C-76.47 34.5 -76.47 34.5 -78.06 34.44 C-79.63 34.37 -79.63 34.37 -81.23 34.31 C-83.82 34.2 -86.41 34.1 -89 34 C-88.67 33.01 -88.34 32.02 -88 31 C-84.88 29.44 -81.5 29.75 -78.06 29.62 C-65.62 29.04 -52.5 28.19 -41.06 22.89 C-38.98 21.99 -37.09 21.55 -34.88 21.12 C-30.74 20.21 -28.06 18 -24.8 15.38 C-22.66 13.74 -20.54 12.91 -18 12 C-16.25 10.98 -14.5 9.96 -12.76 8.93 C-11 8 -11 8 -7.88 7.12 C-3.94 5.58 -2.59 3.31 0 0 Z " fill="#142F79" transform="translate(720,721)"/>
<path d="M0 0 C0.66 0 1.32 0 2 0 C2.33 62.37 2.66 124.74 3 189 C-0.18 182.64 -0.13 176.33 -0.12 169.32 C-0.12 168.59 -0.12 167.86 -0.12 167.11 C-0.12 164.69 -0.12 162.26 -0.11 159.84 C-0.11 158.1 -0.11 156.35 -0.11 154.61 C-0.11 149.89 -0.11 145.17 -0.1 140.45 C-0.1 135.51 -0.09 130.57 -0.09 125.63 C-0.09 116.28 -0.08 106.94 -0.07 97.59 C-0.06 86.95 -0.06 76.3 -0.05 65.66 C-0.04 43.77 -0.02 21.89 0 0 Z " fill="#15307A" transform="translate(266,474)"/>
<path d="M0 0 C1.19 -0 2.39 -0.01 3.62 -0.01 C6.92 -0.02 10.21 -0.02 13.51 -0.02 C17.08 -0.02 20.64 -0.03 24.2 -0.04 C31.98 -0.05 39.76 -0.06 47.54 -0.06 C52.4 -0.06 57.26 -0.07 62.12 -0.07 C75.59 -0.08 89.05 -0.09 102.51 -0.1 C103.37 -0.1 104.23 -0.1 105.12 -0.1 C105.98 -0.1 106.84 -0.1 107.73 -0.1 C109.48 -0.1 111.23 -0.1 112.97 -0.1 C113.84 -0.1 114.71 -0.1 115.6 -0.1 C129.66 -0.1 143.72 -0.12 157.78 -0.15 C172.22 -0.17 186.67 -0.18 201.11 -0.18 C209.21 -0.18 217.32 -0.19 225.43 -0.21 C232.33 -0.22 239.22 -0.23 246.12 -0.22 C249.64 -0.22 253.16 -0.22 256.68 -0.23 C260.49 -0.25 264.31 -0.24 268.13 -0.23 C269.24 -0.24 270.35 -0.24 271.49 -0.25 C277.45 -0.21 281.72 0.31 287 3.14 C285.25 3.77 285.25 3.77 283 4.14 C282.4 3.82 281.79 3.51 281.17 3.18 C278.6 1.95 276.86 1.89 274.02 1.89 C273.01 1.88 272 1.87 270.96 1.87 C269.86 1.87 268.75 1.88 267.61 1.88 C266.43 1.88 265.26 1.87 264.04 1.87 C260.77 1.86 257.51 1.86 254.24 1.86 C250.71 1.87 247.19 1.86 243.66 1.85 C236.75 1.84 229.84 1.84 222.93 1.84 C217.31 1.84 211.69 1.84 206.07 1.83 C205.27 1.83 204.47 1.83 203.65 1.83 C202.02 1.83 200.4 1.83 198.77 1.83 C183.52 1.82 168.26 1.82 153.01 1.83 C139.08 1.83 125.15 1.82 111.22 1.8 C96.9 1.78 82.58 1.77 68.27 1.78 C60.24 1.78 52.2 1.78 44.17 1.76 C37.33 1.75 30.48 1.75 23.63 1.76 C20.15 1.77 16.66 1.77 13.17 1.76 C-15.04 1.27 -15.04 1.27 -41 11.14 C-41.99 10.81 -42.98 10.48 -44 10.14 C-40.22 6.69 -35.8 5.56 -31 4.14 C-29.64 3.73 -29.64 3.73 -28.25 3.32 C-18.74 0.6 -9.85 -0.01 0 0 Z " fill="#3A5DBA" transform="translate(381.00038146972656,265.85955810546875)"/>
<path d="M0 0 C0.72 -0.01 1.43 -0.02 2.17 -0.04 C6.32 -0.05 9.52 0.33 13.25 2.19 C13.25 2.85 13.25 3.51 13.25 4.19 C10.61 4.19 7.97 4.19 5.25 4.19 C4.92 3.2 4.59 2.21 4.25 1.19 C1.77 2.67 1.77 2.67 -0.75 4.19 C130.42 4.68 130.42 4.68 264.25 5.19 C264.25 5.52 264.25 5.85 264.25 6.19 C173.83 6.19 83.41 6.19 -9.75 6.19 C-8.28 -1.16 -6.69 0.01 0 0 Z " fill="#5976C8" transform="translate(386.75,259.8125)"/>
<path d="M0 0 C0 3 0 3 -1.43 4.65 C-2.05 5.22 -2.67 5.79 -3.31 6.38 C-6.14 9.07 -8.03 11.62 -10 15 C-10.68 15.45 -11.35 15.89 -12.05 16.35 C-14.18 17.82 -14.18 17.82 -14.5 20.1 C-14.5 20.91 -14.49 21.73 -14.49 22.57 C-14.5 23.51 -14.51 24.46 -14.52 25.43 C-14.5 26.47 -14.49 27.5 -14.48 28.57 C-14.48 29.67 -14.49 30.78 -14.49 31.91 C-14.5 35.62 -14.48 39.33 -14.45 43.03 C-14.45 45.68 -14.45 48.34 -14.46 50.99 C-14.46 56.7 -14.45 62.42 -14.42 68.13 C-14.39 76.4 -14.38 84.66 -14.37 92.93 C-14.37 106.34 -14.34 119.75 -14.3 133.16 C-14.27 146.18 -14.24 159.21 -14.22 172.24 C-14.22 173.04 -14.22 173.84 -14.22 174.67 C-14.21 178.69 -14.21 182.72 -14.2 186.75 C-14.16 220.17 -14.09 253.58 -14 287 C-14.66 287 -15.32 287 -16 287 C-16.37 252.75 -16.65 218.5 -16.82 184.25 C-16.84 180.2 -16.86 176.15 -16.88 172.1 C-16.88 171.29 -16.89 170.48 -16.89 169.65 C-16.96 156.62 -17.09 143.59 -17.23 130.57 C-17.38 117.18 -17.47 103.8 -17.51 90.41 C-17.53 82.16 -17.6 73.92 -17.73 65.67 C-17.81 60 -17.84 54.33 -17.82 48.66 C-17.81 45.4 -17.83 42.14 -17.91 38.88 C-18.4 17.32 -18.4 17.32 -10.15 8.48 C-6.93 5.42 -3.59 2.61 0 0 Z " fill="#DBEBFE" transform="translate(405,376)"/>
<path d="M0 0 C1.55 -0.01 1.55 -0.01 3.14 -0.02 C4.28 -0.01 5.42 -0.01 6.59 -0 C7.79 -0.01 8.98 -0.01 10.22 -0.02 C13.5 -0.02 16.79 -0.02 20.08 -0.01 C23.51 -0.01 26.95 -0.01 30.38 -0.02 C36.16 -0.02 41.93 -0.02 47.7 -0.01 C54.37 0 61.05 0 67.73 -0.01 C73.45 -0.02 79.18 -0.02 84.91 -0.02 C88.33 -0.01 91.75 -0.01 95.17 -0.02 C98.99 -0.03 102.8 -0.02 106.62 -0 C107.76 -0.01 108.9 -0.01 110.07 -0.02 C111.62 -0.01 111.62 -0.01 113.21 0 C114.56 0 114.56 0 115.94 0 C118.1 0.25 118.1 0.25 120.1 2.25 C78.19 2.25 36.28 2.25 -6.9 2.25 C-4.36 -0.28 -3.51 0 0 0 Z " fill="#17368C" transform="translate(440.8966064453125,343.74603271484375)"/>
<path d="M0 0 C1.32 0.33 2.64 0.66 4 1 C0.27 4.57 -4.09 5.11 -9 6 C-9 6.66 -9 7.32 -9 8 C-11.08 9.4 -11.08 9.4 -13.81 10.94 C-17 12.74 -19.44 14.42 -22 17 C-22.78 17.43 -23.56 17.86 -24.36 18.3 C-27.64 20.41 -29.81 23.1 -32.19 26.12 C-36.77 31.88 -36.77 31.88 -39 33 C-39.71 34.27 -39.71 34.27 -40.44 35.56 C-40.95 36.37 -41.47 37.17 -42 38 C-42.99 38 -43.98 38 -45 38 C-44.5 35.03 -44.5 35.03 -44 32 C-43.34 32 -42.68 32 -42 32 C-41.73 30.91 -41.46 29.81 -41.19 28.69 C-39.63 23.87 -39.63 23.87 -37 22 C-36.34 22 -35.68 22 -35 22 C-35 21.34 -35 20.68 -35 20 C-32.62 17.38 -32.62 17.38 -30 15 C-29.34 15 -28.68 15 -28 15 C-27.73 14.4 -27.46 13.8 -27.19 13.19 C-25.96 10.93 -25.02 9.57 -23 8 C-20.31 7.31 -20.31 7.31 -18 7 C-18 7.66 -18 8.32 -18 9 C-14.25 7.5 -11.2 6.14 -7.88 3.81 C-4.85 1.91 -3.48 1.59 0 2 C0 1.34 0 0.68 0 0 Z " fill="#4163BA" transform="translate(333,277)"/>
<path d="M0 0 C0.33 0 0.66 0 1 0 C1.73 7.09 2.16 14.11 2.22 21.24 C2.24 22.68 2.24 22.68 2.26 24.14 C2.29 27.27 2.32 30.39 2.35 33.52 C2.37 35.71 2.4 37.9 2.42 40.09 C2.47 44.66 2.51 49.23 2.56 53.8 C2.61 59.65 2.68 65.5 2.74 71.35 C2.79 75.87 2.84 80.38 2.88 84.89 C2.9 87.05 2.93 89.21 2.95 91.37 C2.99 94.38 3.01 97.39 3.04 100.41 C3.05 101.29 3.06 102.18 3.07 103.09 C3.1 107.52 2.9 111.64 2 116 C2.66 116.33 3.32 116.66 4 117 C3.34 117 2.68 117 2 117 C1.67 117.99 1.34 118.98 1 120 C0.67 120 0.34 120 0 120 C0 80.4 0 40.8 0 0 Z " fill="#173587" transform="translate(434,444)"/>
<path d="M0 0 C4.61 3.52 7.62 6.93 10.62 11.88 C10.99 12.46 11.36 13.05 11.74 13.65 C12.85 15.42 13.93 17.21 15 19 C15.39 19.63 15.77 20.26 16.17 20.9 C19.03 25.66 19.03 25.66 18.75 28.94 C18.5 29.62 18.25 30.3 18 31 C15.36 27.87 14.16 24.91 13 21 C12.01 21 11.02 21 10 21 C10.33 23.64 10.66 26.28 11 29 C8.26 25.51 6.24 21.84 4.18 17.93 C3.14 15.85 3.14 15.85 1 15 C0.86 14.34 0.71 13.68 0.56 13 C0.38 12.34 0.19 11.68 0 11 C-0.99 10.67 -1.98 10.34 -3 10 C-4.36 8.35 -5.69 6.69 -7 5 C-7.66 4.67 -8.32 4.34 -9 4 C-8.67 3.01 -8.34 2.02 -8 1 C-5.37 2.52 -3.16 3.84 -1 6 C-0.67 4.02 -0.34 2.04 0 0 Z " fill="#3656A6" transform="translate(728,298)"/>
<path d="M0 0 C0.33 0 0.66 0 1 0 C1.21 6.47 0.63 12.01 -1.06 18.25 C-1.28 19.07 -1.51 19.9 -1.73 20.75 C-6.18 36.34 -15.46 47.93 -27 59 C-27.66 58.67 -28.32 58.34 -29 58 C-28.3 57.24 -27.6 56.47 -26.88 55.68 C-12.77 39.92 -6.28 22.61 -2 2 C-1.34 2 -0.68 2 0 2 C0 1.34 0 0.68 0 0 Z " fill="#304374" transform="translate(592,594)"/>
<path d="M0 0 C1.47 2.94 1.14 5.91 1.13 9.13 C1.13 9.87 1.13 10.6 1.13 11.36 C1.14 13.81 1.14 16.25 1.13 18.7 C1.13 20.4 1.13 22.11 1.14 23.82 C1.14 27.41 1.14 31 1.13 34.6 C1.12 39.16 1.13 43.72 1.13 48.28 C1.14 51.82 1.14 55.35 1.13 58.89 C1.13 60.57 1.13 62.25 1.14 63.92 C1.15 72.3 1.06 80.67 0.62 89.03 C0.55 90.33 0.48 91.62 0.41 92.96 C0 96 0 96 -2 98 C-2.05 85.96 -2.08 73.92 -2.1 61.88 C-2.11 56.29 -2.13 50.7 -2.15 45.11 C-2.17 39.72 -2.18 34.32 -2.19 28.93 C-2.19 26.87 -2.2 24.81 -2.21 22.75 C-2.23 19.87 -2.23 16.99 -2.23 14.1 C-2.23 13.25 -2.24 12.4 -2.25 11.52 C-2.23 7.23 -2 3.92 0 0 Z " fill="#17368A" transform="translate(269,376)"/>
<path d="M0 0 C2.87 0.57 3.86 0.86 6 3 C6.66 3.14 7.32 3.29 8 3.44 C10 4 10 4 12 7 C13.33 7.68 14.66 8.35 16 9 C16.33 9.66 16.66 10.32 17 11 C17.99 11.33 18.98 11.66 20 12 C21.75 13.78 21.75 13.78 23.56 15.94 C25.33 18.03 27.06 20.06 29 22 C29.12 24.62 29.12 24.62 29 27 C28.01 27 27.02 27 26 27 C26 26.34 26 25.68 26 25 C25.38 24.88 24.76 24.75 24.12 24.62 C22 24 22 24 20 22 C20 21.01 20 20.02 20 19 C19.43 18.72 18.86 18.44 18.27 18.16 C16.03 17.02 13.89 15.8 11.75 14.5 C11.04 14.08 10.34 13.65 9.61 13.22 C9.08 12.82 8.55 12.41 8 12 C8 11.34 8 10.68 8 10 C7.01 9.67 6.02 9.34 5 9 C5 8.34 5 7.68 5 7 C4.4 6.9 3.8 6.79 3.19 6.69 C0.72 5.91 -0.32 4.93 -2 3 C-1.34 2.67 -0.68 2.34 0 2 C0 1.34 0 0.68 0 0 Z " fill="#506FBF" transform="translate(699,277)"/>
<path d="M0 0 C0.66 0 1.32 0 2 0 C2.12 7.75 2.12 7.75 1 10 C0.01 10 -0.98 10 -2 10 C-2.19 10.58 -2.39 11.16 -2.59 11.76 C-3.13 13.38 -3.67 15 -4.21 16.62 C-4.83 18.49 -5.45 20.37 -6.06 22.25 C-6.96 24.87 -7.94 27.44 -9 30 C-9.66 30 -10.32 30 -11 30 C-11 30.66 -11 31.32 -11 32 C-11.99 32.5 -11.99 32.5 -13 33 C-13.65 35.02 -13.65 35.02 -14 37 C-14.66 37 -15.32 37 -16 37 C-16.12 37.64 -16.25 38.28 -16.38 38.94 C-16.58 39.62 -16.79 40.3 -17 41 C-17.99 41.5 -17.99 41.5 -19 42 C-19.66 44.53 -19.66 44.53 -20 47 C-20.99 47 -21.98 47 -23 47 C-23.23 47.78 -23.45 48.57 -23.69 49.38 C-25 52 -25 52 -27.62 53.31 C-28.41 53.54 -29.19 53.77 -30 54 C-28.85 51.53 -27.95 49.95 -26 48 C-25.57 46.61 -25.57 46.61 -25.12 45.19 C-23.91 41.76 -22.33 39.76 -20 37 C-19.29 35.69 -18.61 34.36 -18 33 C-17.34 33 -16.68 33 -16 33 C-16 32.01 -16 31.02 -16 30 C-15.26 29.3 -14.51 28.6 -13.75 27.88 C-10.29 24.26 -8.83 20.6 -7 16 C-6.42 14.64 -5.84 13.29 -5.25 11.94 C-4.84 10.97 -4.42 10 -4 9 C-3.34 9 -2.68 9 -2 9 C-1.86 7.89 -1.71 6.77 -1.56 5.62 C-1 2 -1 2 0 0 Z " fill="#152F78" transform="translate(752,667)"/>
<path d="M0 0 C2.65 0.62 5.05 0.63 7.77 0.62 C8.9 0.62 10.03 0.62 11.19 0.62 C12.43 0.61 13.66 0.6 14.94 0.6 C16.94 0.59 18.94 0.59 20.94 0.58 C23.09 0.58 25.24 0.57 27.39 0.56 C31.87 0.54 36.35 0.53 40.83 0.52 C53.56 0.5 66.3 0.46 79.03 0.42 C86.07 0.39 93.1 0.38 100.14 0.37 C104.59 0.36 109.05 0.34 113.5 0.32 C116.92 0.31 120.33 0.31 123.75 0.3 C125.61 0.29 125.61 0.29 127.51 0.28 C128.63 0.28 129.75 0.28 130.91 0.28 C131.89 0.28 132.87 0.27 133.89 0.27 C136.21 0.51 136.21 0.51 138.21 2.51 C121.67 2.67 105.13 2.82 88.58 2.96 C80.9 3.02 73.22 3.09 65.54 3.16 C58.83 3.23 52.13 3.28 45.42 3.34 C41.88 3.37 38.34 3.4 34.8 3.43 C-4.81 3.83 -4.81 3.83 -9.79 0.51 C-2.26 -0.61 -2.26 -0.61 0 0 Z " fill="#153AA1" transform="translate(369.78661918640137,747.4857568740845)"/>
<path d="M0 0 C-0.66 0.66 -1.32 1.32 -2 2 C-2 2.99 -2 3.98 -2 5 C-13.07 9.53 -23.22 9.42 -35 9 C-32.15 6.15 -28.67 5.29 -24.94 4 C-24.17 3.73 -23.39 3.47 -22.6 3.19 C-8.15 -1.73 -8.15 -1.73 0 0 Z " fill="#768BC2" transform="translate(368,261)"/>
<path d="M0 0 C14.3 -0.09 28.6 -0.16 42.9 -0.21 C49.54 -0.23 56.18 -0.26 62.82 -0.3 C69.23 -0.35 75.65 -0.37 82.06 -0.38 C84.5 -0.39 86.94 -0.4 89.39 -0.42 C92.82 -0.45 96.25 -0.46 99.68 -0.45 C101.18 -0.48 101.18 -0.48 102.71 -0.5 C111.15 -0.45 118.8 1.74 125.5 7.06 C126.13 7.55 126.76 8.03 127.41 8.54 C129 10 129 10 131 13 C128.55 11.87 126.47 10.63 124.25 9.06 C120.56 6.72 117.12 5.42 113 4 C113 3.34 113 2.68 113 2 C112.45 2 111.89 2.01 111.32 2.01 C89.33 2.09 67.34 1.81 45.35 1.54 C40.33 1.47 35.32 1.42 30.3 1.36 C20.53 1.24 10.77 1.12 1 1 C1 1.66 1 2.32 1 3 C1.99 3 2.98 3 4 3 C3.67 3.66 3.34 4.32 3 5 C2.01 4.67 1.02 4.34 0 4 C0 2.68 0 1.36 0 0 Z " fill="#22408B" transform="translate(442,392)"/>
<path d="M0 0 C54.45 0 108.9 0 165 0 C165 0.33 165 0.66 165 1 C110.55 1 56.1 1 0 1 C0 0.67 0 0.34 0 0 Z " fill="#5A74AE" transform="translate(389,663)"/>
<path d="M0 0 C0.99 0.33 1.98 0.66 3 1 C1.65 6.02 -0.65 9.64 -3.88 13.62 C-4.36 14.23 -4.84 14.84 -5.34 15.46 C-13 24.85 -22.12 35.38 -33 41 C-36.32 41.2 -36.32 41.2 -39 41 C-35.39 36.81 -32.04 34.9 -26.89 32.89 C-24.82 32.15 -24.82 32.15 -24 30 C-23.34 30 -22.68 30 -22 30 C-22 29.34 -22 28.68 -22 28 C-21.34 28 -20.68 28 -20 28 C-19.67 27.01 -19.34 26.02 -19 25 C-18.34 25 -17.68 25 -17 25 C-16.67 23.68 -16.34 22.36 -16 21 C-15.38 20.94 -14.76 20.88 -14.12 20.81 C-11.72 20.17 -11.72 20.17 -10.75 17.44 C-10.5 16.63 -10.25 15.83 -10 15 C-9.01 15 -8.02 15 -7 15 C-7.06 14.22 -7.12 13.43 -7.19 12.62 C-7.09 11.33 -7.09 11.33 -7 10 C-6.01 9.34 -5.02 8.68 -4 8 C-3.67 7.01 -3.34 6.02 -3 5 C-2.34 5 -1.68 5 -1 5 C-0.67 3.35 -0.34 1.7 0 0 Z " fill="#1A2E66" transform="translate(739,699)"/>
<path d="M0 0 C1.99 2.99 2.35 4.2 2.78 7.63 C2.9 8.52 3.02 9.41 3.14 10.32 C3.38 12.2 3.62 14.07 3.86 15.95 C3.98 16.83 4.1 17.72 4.22 18.63 C4.32 19.45 4.42 20.26 4.53 21.1 C4.68 21.73 4.84 22.35 5 23 C5.66 23.33 6.32 23.66 7 24 C6.96 24.93 6.92 25.86 6.88 26.81 C6.73 30.16 6.73 30.16 9 33 C9.99 32.5 9.99 32.5 11 32 C13.71 36.63 14.1 39.7 14 45 C14.64 46.35 15.3 47.69 16 49 C15.67 49.99 15.34 50.98 15 52 C15 51.34 15 50.68 15 50 C14.41 49.84 13.83 49.67 13.22 49.5 C9.75 47.15 8.89 43.77 7.44 39.94 C7.13 39.17 6.83 38.39 6.52 37.6 C5.66 35.4 4.83 33.2 4 31 C3.64 30.06 3.29 29.12 2.92 28.16 C-0.39 18.89 -0.12 9.74 0 0 Z " fill="#19347C" transform="translate(268,649)"/>
<path d="M0 0 C9.41 9.41 12.23 29.3 12.25 42.19 C12.19 43.79 12.12 45.4 12 47 C11.67 47 11.34 47 11 47 C10.67 54.26 10.34 61.52 10 69 C9.34 68.67 8.68 68.34 8 68 C8.01 67.26 8.01 66.51 8.02 65.74 C8.25 41.48 8.25 41.48 5.4 17.43 C5 15 5 15 5 12 C4.01 11.67 3.02 11.34 2 11 C1.34 7.37 0.68 3.74 0 0 Z " fill="#284690" transform="translate(746,326)"/>
<path d="M0 0 C6.22 -0.13 12.44 -0.22 18.66 -0.27 C20.77 -0.3 22.88 -0.33 24.99 -0.38 C43.66 -0.75 59.04 2.19 76 10 C72.19 11.27 70.66 10.49 66.88 9.25 C65.72 8.88 64.57 8.5 63.38 8.12 C62.26 7.75 61.15 7.38 60 7 C58.64 6.55 58.64 6.55 57.25 6.1 C55.16 5.41 53.08 4.71 51 4 C46.95 2.65 43.25 2.98 39.01 3.06 C36 3 36 3 33.41 2.48 C30.84 1.97 28.84 2.05 26.25 2.38 C25.47 2.47 24.69 2.56 23.89 2.65 C21.99 2.82 21.99 2.82 21 4 C19.4 4.1 17.79 4.13 16.19 4.12 C15.31 4.13 14.44 4.13 13.54 4.13 C11.21 4.01 9.23 3.66 7 3 C7 2.34 7 1.68 7 1 C4.69 1 2.38 1 0 1 C0 0.67 0 0.34 0 0 Z " fill="#7689BE" transform="translate(617,260)"/>
<path d="M0 0 C4.86 1.69 9.03 4.31 13.38 7 C14.56 7.73 14.56 7.73 15.78 8.48 C21.52 12.03 27.18 15.7 32.78 19.5 C37.42 22.65 42.18 25.59 47.02 28.43 C49.27 30.22 49.67 31.19 50 34 C50.99 34 51.98 34 53 34 C53 34.66 53 35.32 53 36 C49.21 35.46 47.45 33.88 45 31 C45 30.34 45 29.68 45 29 C43.35 28.67 41.7 28.34 40 28 C40 27.34 40 26.68 40 26 C39.01 26 38.02 26 37 26 C37 25.34 37 24.68 37 24 C36.3 23.92 35.6 23.83 34.88 23.75 C31.35 22.83 29 21.04 26 19 C23.77 18.23 23.77 18.23 22 18 C22 17.01 22 16.02 22 15 C21.26 14.88 20.51 14.75 19.75 14.62 C17.2 14.05 15.27 13.26 13 12 C13 11.01 13 10.02 13 9 C12.24 8.9 11.47 8.79 10.69 8.69 C7.76 7.94 6.98 7.17 5 5 C4.01 4.67 3.02 4.34 2 4 C0.81 1.94 0.81 1.94 0 0 Z " fill="#21408F" transform="translate(466,465)"/>
<path d="M0 0 C2.04 1.27 4.04 2.61 6 4 C6 4.66 6 5.32 6 6 C6.74 6.29 7.49 6.58 8.25 6.88 C10.57 7.82 12.78 8.85 15 10 C15 10.66 15 11.32 15 12 C15.99 12 16.98 12 18 12 C18 12.66 18 13.32 18 14 C19.32 14.66 20.64 15.32 22 16 C22 16.66 22 17.32 22 18 C22.93 18.27 23.86 18.54 24.81 18.81 C27.76 19.91 29.06 20.62 31 23 C28.69 22.67 26.38 22.34 24 22 C23.67 22.66 23.34 23.32 23 24 C21.68 23.34 20.36 22.68 19 22 C19 21.34 19 20.68 19 20 C17.89 20.12 17.89 20.12 16.75 20.25 C14 20 14 20 11.75 18.44 C9.52 15.33 9.29 12.77 9 9 C8.44 8.94 7.89 8.88 7.31 8.81 C3.98 7.64 2.27 5.65 0 3 C0 2.01 0 1.02 0 0 Z " fill="#133693" transform="translate(303,717)"/>
<path d="M0 0 C1.89 0.23 1.89 0.23 4 1 C5.05 2.96 5.05 2.96 5.75 5.38 C5.99 6.17 6.23 6.96 6.48 7.77 C7 10 7 10 7 13 C7.66 13 8.32 13 9 13 C11.31 18.89 12.41 24.3 12.79 30.62 C12.92 33.15 12.92 33.15 14 36 C14.12 38.91 14.19 41.78 14.19 44.69 C14.2 45.47 14.21 46.24 14.22 47.04 C14.24 52.36 13.48 56.89 12 62 C9.69 58.54 9.79 57.39 9.91 53.33 C9.93 52.2 9.95 51.06 9.98 49.9 C10.02 48.09 10.02 48.09 10.06 46.25 C10.23 31.06 8.37 18.92 2 5 C1.32 3.34 0.65 1.67 0 0 Z " fill="#22408D" transform="translate(621,387)"/>
<path d="M0 0 C0.33 1.32 0.66 2.64 1 4 C1.66 4 2.32 4 3 4 C3.23 4.75 3.46 5.5 3.7 6.27 C6.18 13.8 6.18 13.8 12 19 C12 19.66 12 20.32 12 21 C13.32 21 14.64 21 16 21 C20.06 27.4 20.06 27.4 19.75 30.44 C19.5 30.95 19.25 31.47 19 32 C14.51 29.82 11.85 26.73 8.7 22.98 C6.91 20.82 6.91 20.82 4.25 18.44 C0.98 14.89 -1.04 11.5 -0.96 6.55 C-0.72 4.34 -0.41 2.18 0 0 Z " fill="#133289" transform="translate(283,688)"/>
<path d="M0 0 C0.33 0 0.66 0 1 0 C1 30.69 1 61.38 1 93 C-1.6 90.4 -1.24 88.6 -1.26 85.05 C-1.25 84.22 -1.25 83.39 -1.24 82.53 C-1.24 81.65 -1.25 80.77 -1.25 79.87 C-1.25 76.96 -1.24 74.06 -1.23 71.15 C-1.23 69.14 -1.23 67.13 -1.23 65.11 C-1.23 60.89 -1.22 56.67 -1.21 52.45 C-1.19 47.03 -1.18 41.61 -1.19 36.18 C-1.19 32.03 -1.18 27.87 -1.17 23.71 C-1.17 21.71 -1.17 19.71 -1.17 17.71 C-1.16 14.92 -1.16 12.13 -1.15 9.34 C-1.15 8.51 -1.15 7.67 -1.15 6.81 C-1.11 1.11 -1.11 1.11 0 0 Z " fill="#163A98" transform="translate(755,530)"/>
<path d="M0 0 C0 0.66 0 1.32 0 2 C2.27 2.03 4.54 2.05 6.81 2.06 C8.71 2.08 8.71 2.08 10.64 2.1 C14 2.16 14 2.16 17 1 C22.27 0.1 26.72 0.01 32 1 C35 1.09 38 1.06 41 1 C41.5 2.49 41.5 2.49 42 4 C41.67 4.66 41.34 5.32 41 6 C40.2 5.93 39.41 5.87 38.58 5.8 C28.6 5.03 18.63 4.69 8.62 4.44 C7 4.39 5.38 4.35 3.76 4.31 C-0.16 4.2 -4.08 4.1 -8 4 C-4.5 0 -4.5 0 0 0 Z " fill="#6983CC" transform="translate(624,261)"/>
<path d="M0 0 C0.99 0.99 1.98 1.98 3 3 C-12.35 13.39 -12.35 13.39 -28 24 C-29.32 23.34 -30.64 22.68 -32 22 C-28.14 18.8 -24.12 16 -19.94 13.25 C-18.61 12.37 -17.29 11.49 -15.96 10.62 C-15.3 10.18 -14.64 9.75 -13.96 9.3 C-10.99 7.33 -8.03 5.35 -5.06 3.38 C-3.38 2.25 -1.69 1.12 0 0 Z " fill="#304479" transform="translate(561,476)"/>
<path d="M0 0 C6.85 4.31 9.94 12.43 12 20 C12.3 22.88 12.33 25.73 12.31 28.62 C12.31 29.42 12.3 30.22 12.3 31.04 C12.01 44.88 7.42 56.75 -2 67 C-2.33 65.68 -2.66 64.36 -3 63 C-2.01 62.34 -1.02 61.68 0 61 C0.72 58.94 0.72 58.94 1 57 C1.99 57 2.98 57 4 57 C4.33 54.69 4.66 52.38 5 50 C5.66 50 6.32 50 7 50 C8.83 43.74 9.34 38.07 9.31 31.56 C9.33 30.67 9.34 29.78 9.36 28.87 C9.37 21.12 7.56 14.53 3.94 7.69 C3.62 7.07 3.3 6.46 2.96 5.82 C2.49 4.92 2.49 4.92 2 4 C1.33 2.67 0.66 1.34 0 0 Z " fill="#25428D" transform="translate(573,405)"/>
<path d="M0 0 C0.33 0 0.66 0 1 0 C1 2.64 1 5.28 1 8 C2.65 7.01 4.3 6.02 6 5 C5.4 8.6 3.92 10.64 1.62 13.44 C-0.26 15.78 -1.98 17.96 -3.5 20.56 C-5.45 23.73 -7.91 26.26 -10.48 28.94 C-12.22 31.3 -12.63 33.11 -13 36 C-13.33 36 -13.66 36 -14 36 C-14.82 29.79 -12.08 25.19 -9 20 C-8.28 19.15 -7.56 18.31 -6.81 17.44 C-4.54 14.38 -4.1 11.7 -3.49 7.99 C-3 6 -3 6 -1 4 C-0.36 1.93 -0.36 1.93 0 0 Z " fill="#274CAD" transform="translate(286,312)"/>
<path d="M0 0 C0.33 0.66 0.66 1.32 1 2 C0.67 2.66 0.34 3.32 0 4 C37.95 4 75.9 4 115 4 C115 4.33 115 4.66 115 5 C75.07 5 35.14 5 -6 5 C-4.35 3.68 -2.7 2.36 -1 1 C-0.67 0.67 -0.34 0.34 0 0 Z " fill="#2F4784" transform="translate(440,613)"/>
<path d="M0 0 C1.32 0.33 2.64 0.66 4 1 C4.05 3.54 4.09 6.08 4.12 8.62 C4.14 9.34 4.16 10.05 4.18 10.79 C4.18 11.49 4.19 12.19 4.2 12.91 C4.21 13.55 4.22 14.19 4.23 14.85 C4 17 4 17 3 19.73 C1.8 23.67 1.78 27.29 1.88 31.36 C1.88 32.14 1.89 32.92 1.9 33.73 C1.92 36.22 1.96 38.7 2 41.19 C2.05 44.47 2.09 47.76 2.12 51.04 C2.15 52.17 2.15 52.17 2.18 53.33 C2.21 57.12 2.16 58.76 0 62 C0 41.54 0 21.08 0 0 Z " fill="#163A96" transform="translate(268,523)"/>
<path d="M0 0 C-7.31 3.21 -13.86 4.51 -21.84 4.82 C-24.87 4.91 -24.87 4.91 -27.25 5.5 C-30.6 6.11 -33.77 6.12 -37.18 6.11 C-37.88 6.11 -38.58 6.11 -39.31 6.11 C-41.62 6.11 -43.93 6.11 -46.24 6.1 C-47.85 6.1 -49.45 6.09 -51.06 6.09 C-55.28 6.09 -59.5 6.08 -63.72 6.07 C-68.03 6.06 -72.34 6.05 -76.65 6.05 C-85.1 6.04 -93.55 6.02 -102 6 C-102 5.67 -102 5.34 -102 5 C-92.98 4.04 -84.04 3.93 -74.98 3.97 C-73.79 3.98 -72.6 3.98 -71.38 3.99 C-66.4 4.02 -61.42 4.05 -56.44 4.1 C-30.99 4.56 -30.99 4.56 -6.2 -0.51 C-3.76 -1.05 -2.34 -0.8 0 0 Z " fill="#163BA3" transform="translate(681,744)"/>
<path d="M0 0 C1.32 0 2.64 0 4 0 C5.55 5.55 6.19 10.35 5 16 C5.38 18.73 5.38 18.73 6 21 C6.66 21 7.32 21 8 21 C8.79 22.73 9.58 24.46 10.38 26.19 C10.82 27.15 11.26 28.11 11.71 29.11 C12.14 30.06 12.56 31.02 13 32 C13.57 33.27 13.57 33.27 14.16 34.56 C15.05 37.15 15.21 39.09 15.12 41.81 C15.11 42.6 15.09 43.39 15.07 44.21 C15.04 45.09 15.04 45.09 15 46 C14.34 46 13.68 46 13 46 C13.09 44.36 13.09 44.36 13.19 42.69 C13.36 39.15 13.36 39.15 11.75 37.38 C11.17 36.92 10.6 36.47 10 36 C7.75 33.69 7.75 33.69 6 31 C6.25 27.69 6.25 27.69 7 25 C6.01 24.67 5.02 24.34 4 24 C3.91 23.42 3.83 22.83 3.74 22.23 C3.35 19.57 2.96 16.91 2.56 14.25 C2.43 13.33 2.29 12.41 2.15 11.46 C2.02 10.57 1.89 9.68 1.75 8.77 C1.63 7.95 1.51 7.13 1.39 6.29 C1.03 4.16 0.56 2.09 0 0 Z " fill="#143795" transform="translate(268,648)"/>
<path d="M0 0 C6.27 1.36 11.94 4 17 8 C17 8.99 17 9.98 17 11 C18.11 11.43 18.11 11.43 19.25 11.88 C21.57 12.82 23.78 13.85 26 15 C26 15.66 26 16.32 26 17 C27.89 17.09 27.89 17.09 29.81 17.19 C32.06 17.46 32.06 17.46 34 18 C35.01 19.66 36.01 21.33 37 23 C39.48 24.43 42.02 25.6 44.61 26.8 C47.28 28.14 49.12 29.69 51 32 C50.01 32.33 49.02 32.66 48 33 C45.73 31.71 43.68 30.38 41.56 28.88 C40.21 27.95 38.87 27.02 37.52 26.09 C36.79 25.59 36.07 25.09 35.32 24.58 C31.2 21.77 27 19.08 22.81 16.38 C21.11 15.27 19.42 14.17 17.72 13.07 C14.34 10.87 14.34 10.87 10.96 8.68 C9.24 7.56 7.53 6.44 5.81 5.31 C4.89 4.71 3.97 4.11 3.02 3.49 C1 2 1 2 0 0 Z " fill="#25428E" transform="translate(498,431)"/>
<path d="M0 0 C37.62 0 75.24 0 114 0 C114 0.33 114 0.66 114 1 C78.69 1 43.38 1 7 1 C6.67 2.32 6.34 3.64 6 5 C3.98 3.7 1.98 2.36 0 1 C0 0.67 0 0.34 0 0 Z " fill="#2C447D" transform="translate(435,391)"/>
<path d="M0 0 C0.5 0.99 0.5 0.99 1 2 C-1.48 6.23 -4.6 7.16 -9 9 C-9.66 9.99 -10.32 10.98 -11 12 C-12.32 12 -13.64 12 -15 12 C-15 12.66 -15 13.32 -15 14 C-15.99 14 -16.98 14 -18 14 C-18 14.66 -18 15.32 -18 16 C-18.51 16.24 -19.02 16.48 -19.54 16.73 C-25.06 19.42 -30.2 22.07 -34.44 26.62 C-37.48 29.45 -40.05 29.94 -44 31 C-44.5 32.49 -44.5 32.49 -45 34 C-46.65 34 -48.3 34 -50 34 C-45.75 30.45 -41.24 27.42 -36.62 24.38 C-35.01 23.3 -33.4 22.23 -31.78 21.16 C-30.98 20.63 -30.17 20.1 -29.34 19.55 C-25.93 17.29 -22.53 15.02 -19.12 12.75 C-17.92 11.95 -16.71 11.14 -15.5 10.34 C-14.93 9.95 -14.35 9.56 -13.75 9.17 C-9.17 6.11 -4.58 3.06 0 0 Z " fill="#2A448D" transform="translate(538,548)"/>
<path d="M0 0 C0.66 0 1.32 0 2 0 C2 0.66 2 1.32 2 2 C2.66 2 3.32 2 4 2 C7 6.38 7 6.38 7 9 C7.6 9.21 8.2 9.41 8.81 9.62 C11.84 11.53 12.65 13.75 14 17 C14 17.66 14 18.32 14 19 C14.56 19.23 15.11 19.45 15.69 19.69 C18.63 21.36 20.64 23.58 23 26 C23.99 26.66 24.98 27.32 26 28 C26 28.66 26 29.32 26 30 C26.99 30.33 27.98 30.66 29 31 C29.33 31.66 29.66 32.32 30 33 C32.55 34.63 35.17 36.09 37.81 37.56 C38.53 38.04 39.26 38.51 40 39 C40 39.66 40 40.32 40 41 C40.99 41.33 41.98 41.66 43 42 C42.01 42.5 42.01 42.5 41 43 C24.5 32.31 7.81 18.59 0 0 Z " fill="#223567" transform="translate(281,699)"/>
<path d="M0 0 C39.27 0 78.54 0 119 0 C119 0.33 119 0.66 119 1 C79.73 1 40.46 1 0 1 C0 0.67 0 0.34 0 0 Z " fill="#16368A" transform="translate(440,616)"/>
<path d="M0 0 C-0.33 0.99 -0.66 1.98 -1 3 C-1.99 3.5 -1.99 3.5 -3 4 C-2.89 4.75 -2.78 5.49 -2.67 6.26 C-3 9 -3 9 -5.27 11.02 C-6.25 11.61 -7.24 12.2 -8.25 12.81 C-9.22 13.42 -10.2 14.02 -11.2 14.64 C-14 16 -14 16 -18 16 C-18.33 14.02 -18.66 12.04 -19 10 C-16.21 8.33 -13.42 6.66 -10.62 5 C-9.83 4.52 -9.04 4.05 -8.22 3.55 C-7.46 3.1 -6.7 2.65 -5.91 2.19 C-4.86 1.56 -4.86 1.56 -3.79 0.92 C-2 0 -2 0 0 0 Z " fill="#647CBA" transform="translate(333,270)"/>
<path d="M0 0 C1.94 0.31 3.88 0.62 5.81 0.94 C6.89 1.11 7.97 1.29 9.08 1.46 C12 2 12 2 15 3 C15.63 2.68 16.25 2.35 16.89 2.02 C19.57 0.73 20.84 1.05 23.69 1.75 C24.48 1.93 25.26 2.11 26.07 2.3 C28 3 28 3 29 5 C30.98 6.05 32.97 7.05 35 8 C34.34 8.33 33.68 8.66 33 9 C33.5 10.49 33.5 10.49 34 12 C30.61 11.41 27.66 10.55 24.5 9.19 C19.45 7.11 14.31 5.49 9.08 3.93 C6.03 3.01 3.01 2.02 0 1 C0 0.67 0 0.34 0 0 Z " fill="#5875C0" transform="translate(666,268)"/>
<path d="M0 0 C9.1 3.94 16.63 15.23 20.42 24.05 C20.09 24.71 19.76 25.37 19.42 26.05 C18.97 25.32 18.53 24.6 18.07 23.85 C10.76 11.9 10.76 11.9 -0.58 4.05 C-3.27 3.95 -3.27 3.95 -5.58 5.05 C-6.51 5.4 -7.43 5.75 -8.39 6.11 C-9.47 6.57 -9.47 6.57 -10.58 7.05 C-10.58 7.71 -10.58 8.37 -10.58 9.05 C-11.57 9.05 -12.56 9.05 -13.58 9.05 C-13.58 9.71 -13.58 10.37 -13.58 11.05 C-15.56 11.71 -17.54 12.37 -19.58 13.05 C-19.58 13.71 -19.58 14.37 -19.58 15.05 C-20.57 15.05 -21.56 15.05 -22.58 15.05 C-22.91 16.04 -23.24 17.03 -23.58 18.05 C-24.9 17.72 -26.22 17.39 -27.58 17.05 C-21.56 12.54 -15.45 8.17 -9.2 3.98 C-8.62 3.58 -8.04 3.17 -7.44 2.75 C-4.9 1.08 -3.07 0.06 0 0 Z " fill="#26428A" transform="translate(566.578125,530.953125)"/>
<path d="M0 0 C0.66 0 1.32 0 2 0 C1.19 2.94 1.19 2.94 0 6 C-0.99 6.33 -1.98 6.66 -3 7 C-3.88 8.93 -3.88 8.93 -4.44 11.25 C-6.4 17.68 -9.8 20.89 -15 25 C-15.66 25.99 -16.32 26.98 -17 28 C-19.16 28.73 -19.16 28.73 -21.62 29.19 C-22.44 29.35 -23.26 29.5 -24.1 29.67 C-24.73 29.78 -25.35 29.89 -26 30 C-25.13 28.04 -25.13 28.04 -24 26 C-22.67 25.64 -21.34 25.3 -20 25 C-19.67 24.01 -19.34 23.02 -19 22 C-17.01 20.65 -15.01 19.31 -13 18 C-12.34 17.01 -11.68 16.02 -11 15 C-10.34 15 -9.68 15 -9 15 C-8.69 14.01 -8.69 14.01 -8.38 13 C-6.78 9.51 -4.69 6.78 -2.34 3.77 C-0.94 2.03 -0.94 2.03 0 0 Z " fill="#143799" transform="translate(732,700)"/>
<path d="M0 0 C3.86 1.45 7.48 3.21 11.13 5.1 C13.15 6.12 13.15 6.12 16 7 C16 7.66 16 8.32 16 9 C16.99 9.33 17.98 9.66 19 10 C19 10.66 19 11.32 19 12 C19.89 12.25 20.77 12.5 21.69 12.75 C25.14 14.05 27.17 15.68 30 18 C30.85 18.33 31.69 18.66 32.56 19 C35 20 35 20 36.88 21.94 C38.93 23.93 40.09 24.56 42.69 25.56 C43.78 26.04 44.87 26.51 46 27 C46.5 28.49 46.5 28.49 47 30 C48.65 30.71 50.32 31.37 52 32 C53.36 32.96 54.71 33.95 56 35 C55.01 35.5 55.01 35.5 54 36 C51.84 34.88 51.84 34.88 49.14 33.12 C48.14 32.48 47.14 31.83 46.1 31.16 C45.02 30.45 43.93 29.73 42.81 29 C41.69 28.27 40.57 27.54 39.45 26.82 C36.54 24.93 33.63 23.03 30.73 21.13 C27.97 19.33 25.2 17.53 22.44 15.73 C17.7 12.66 12.97 9.57 8.25 6.47 C6.85 5.55 5.44 4.64 4.03 3.73 C2.67 2.84 1.33 1.93 0 1 C0 0.67 0 0.34 0 0 Z " fill="#2B468C" transform="translate(443,396)"/>
<path d="M0 0 C0.66 0.33 1.32 0.66 2 1 C1.33 1.46 1.33 1.46 0.64 1.93 C-6.49 7 -13.54 13.24 -18.7 20.34 C-19.13 20.89 -19.56 21.43 -20 22 C-20.66 22 -21.32 22 -22 22 C-22.99 24.48 -22.99 24.48 -24 27 C-24.66 27 -25.32 27 -26 27 C-26.23 27.6 -26.45 28.2 -26.69 28.81 C-28.34 31.56 -30.2 32.52 -33 34 C-32.89 32.19 -32.76 30.37 -32.62 28.56 C-32.56 27.55 -32.49 26.54 -32.41 25.5 C-32.21 24.26 -32.21 24.26 -32 23 C-31.34 22.67 -30.68 22.34 -30 22 C-30 23.98 -30 25.96 -30 28 C-26.98 26.36 -26.98 26.36 -26.12 24.19 C-24.94 21.88 -23.49 20.4 -21.62 18.62 C-18.68 15.67 -16.01 12.46 -13.28 9.3 C-10.99 6.99 -8.84 5.56 -6 4 C-3.99 2.68 -1.99 1.34 0 0 Z " fill="#2C50B2" transform="translate(319,287)"/>
<path d="M0 0 C0.33 0 0.66 0 1 0 C1 23.1 1 46.2 1 70 C-1 68 -1 68 -1.25 65.22 C-1.25 64.04 -1.24 62.86 -1.24 61.64 C-1.24 60.99 -1.25 60.33 -1.25 59.66 C-1.25 57.5 -1.24 55.34 -1.23 53.18 C-1.23 51.69 -1.23 50.19 -1.23 48.69 C-1.23 45.55 -1.22 42.42 -1.21 39.28 C-1.19 35.25 -1.18 31.22 -1.19 27.19 C-1.19 24.09 -1.18 21 -1.17 17.91 C-1.17 16.43 -1.17 14.94 -1.17 13.45 C-1.16 11.38 -1.16 9.31 -1.15 7.23 C-1.14 6.05 -1.14 4.87 -1.13 3.65 C-1 1 -1 1 0 0 Z " fill="#173B99" transform="translate(755,460)"/>
<path d="M0 0 C0 3.23 -0.9 5.21 -2.21 8.11 C-3.14 10.23 -3.14 10.23 -3.94 13.5 C-5.48 18.58 -7.98 22.58 -11.06 26.88 C-13.46 30.74 -14.73 34.66 -16 39 C-16.66 39 -17.32 39 -18 39 C-15.95 26.26 -9.22 9.22 0 0 Z " fill="#2E478C" transform="translate(288,307)"/>
<path d="M0 0 C0.67 1.73 0.67 1.73 1 4 C-0.07 6.08 -0.07 6.08 -1.69 8.25 C-4.61 12.36 -6.85 16.45 -9 21 C-8.34 21.95 -7.68 22.9 -7 23.88 C-5 27 -5 27 -5 29 C-4.34 29 -3.68 29 -3 29 C-2.67 30.32 -2.34 31.64 -2 33 C-2.66 32.32 -3.32 31.64 -4 30.94 C-7.49 27.43 -11.25 24.23 -15 21 C-13.42 17.37 -11.17 14.64 -8.62 11.62 C-5.5 7.86 -2.58 4.15 0 0 Z " fill="#24418C" transform="translate(618,482)"/>
<path d="M0 0 C3.25 -0.06 6.5 -0.09 9.75 -0.12 C10.67 -0.14 11.59 -0.16 12.54 -0.18 C13.43 -0.18 14.32 -0.19 15.23 -0.2 C16.05 -0.21 16.87 -0.22 17.71 -0.23 C20.24 0.02 21.78 0.8 24 2 C25.99 2.32 27.99 2.59 30 2.81 C36.93 3.79 42.68 6.09 49 9 C50.37 9.55 51.75 10.09 53.12 10.62 C56 12 56 12 58 15 C54.63 14.57 51.87 13.54 48.81 12.12 C44.68 10.22 40.55 8.89 36.16 7.71 C34 7 34 7 31 5 C28.39 4.39 25.83 3.88 23.19 3.44 C22.44 3.31 21.69 3.18 20.92 3.05 C13.97 1.9 7.04 1.32 0 1 C0 0.67 0 0.34 0 0 Z " fill="#2E52B2" transform="translate(640,267)"/>
<path d="M0 0 C0.33 0 0.66 0 1 0 C1.08 4.18 1.13 8.35 1.16 12.53 C1.18 13.95 1.2 15.36 1.23 16.77 C1.4 26.22 0.62 34.85 -2 44 C-2.66 44 -3.32 44 -4 44 C-5.61 39.98 -4.33 36.98 -3 33 C-2.61 32.11 -2.22 31.23 -1.81 30.31 C-0.9 27.72 -1.06 26.54 -2 24 C-2.66 24.33 -3.32 24.66 -4 25 C-3.12 21.12 -3.12 21.12 -2 20 C-1.86 18.6 -1.77 17.19 -1.72 15.78 C-1.68 14.93 -1.64 14.08 -1.61 13.21 C-1.57 12.31 -1.54 11.42 -1.5 10.5 C-1.43 8.74 -1.36 6.98 -1.28 5.22 C-1.25 4.43 -1.22 3.65 -1.19 2.84 C-1 1 -1 1 0 0 Z " fill="#163A98" transform="translate(755,623)"/>
<path d="M0 0 C0.99 0 1.98 0 3 0 C3 0.66 3 1.32 3 2 C5.55 2.85 6.85 3.04 9.5 2.38 C12 2 12 2 14.31 3.31 C16 5 16 5 16 7 C16.99 7 17.98 7 19 7 C19.33 7.99 19.66 8.98 20 10 C22.5 11.7 22.5 11.7 25 13 C22.67 13.81 21.38 14.12 18.99 13.38 C18.29 13.04 17.6 12.7 16.89 12.35 C16.14 11.98 15.38 11.62 14.61 11.24 C13.83 10.85 13.05 10.46 12.25 10.06 C11.46 9.68 10.66 9.29 9.85 8.89 C7.89 7.94 5.95 6.97 4 6 C4 5.34 4 4.68 4 4 C3.34 3.67 2.68 3.34 2 3 C2 2.34 2 1.68 2 1 C1.34 0.67 0.68 0.34 0 0 Z " fill="#182E6E" transform="translate(319,737)"/>
<path d="M0 0 C0 0.99 0 1.98 0 3 C-1.79 3.98 -3.58 4.95 -5.37 5.93 C-7.17 6.91 -7.17 6.91 -8 9 C-9.64 9.93 -9.64 9.93 -11.69 10.88 C-14.4 12.17 -16.9 13.53 -19.38 15.25 C-22 17 -22 17 -24 17 C-24 17.66 -24 18.32 -24 19 C-25.79 19.98 -27.58 20.95 -29.37 21.93 C-31.17 22.91 -31.17 22.91 -32 25 C-32.99 25 -33.98 25 -35 25 C-35.25 25.62 -35.5 26.24 -35.75 26.88 C-37.74 30.25 -40.39 30.8 -44 32 C-44.33 32.66 -44.66 33.32 -45 34 C-45.66 33.67 -46.32 33.34 -47 33 C-43.42 29.21 -39.65 26.16 -35.31 23.25 C-34.65 22.8 -33.99 22.35 -33.31 21.89 C-22.3 14.44 -11.14 7.24 0 0 Z " fill="#264185" transform="translate(487,582)"/>
<path d="M0 0 C1.6 3.2 0.03 5.72 -1 9 C-1.66 9 -2.32 9 -3 9 C-3.13 9.55 -3.26 10.1 -3.39 10.66 C-5.31 18.02 -7.48 24.62 -13 30 C-13.66 30 -14.32 30 -15 30 C-15 30.99 -15 31.98 -15 33 C-15.66 33 -16.32 33 -17 33 C-16.55 27.94 -14.35 25.6 -11 22 C-10.34 21.67 -9.68 21.34 -9 21 C-8.79 19.42 -8.59 17.83 -8.4 16.24 C-7.45 10.94 -6.04 4.75 -1.86 1.17 C-1.25 0.79 -0.63 0.4 0 0 Z " fill="#163A98" transform="translate(751,667)"/>
<path d="M0 0 C15.84 0 31.68 0 48 0 C47.67 0.66 47.34 1.32 47 2 C31.87 4.71 15.28 2.63 0 2 C0 1.34 0 0.68 0 0 Z " fill="#F6FBFD" transform="translate(466,758)"/>
<path d="M0 0 C0.33 0 0.66 0 1 0 C1 21.45 1 42.9 1 65 C0.34 64.67 -0.32 64.34 -1 64 C-1.02 56.69 -1.04 49.38 -1.05 42.07 C-1.06 38.67 -1.06 35.28 -1.08 31.88 C-1.09 27.97 -1.09 24.06 -1.1 20.15 C-1.1 18.94 -1.11 17.73 -1.11 16.48 C-1.11 10.88 -1.02 5.51 0 0 Z " fill="#173B99" transform="translate(755,395)"/>
<path d="M0 0 C9.56 -0.43 17.32 -0.54 26 4 C26.81 4.37 27.61 4.75 28.44 5.13 C46.57 13.7 46.57 13.7 49 20 C48.35 19.56 47.69 19.13 47.02 18.68 C32.29 9.07 17.48 3.17 0 1 C0 0.67 0 0.34 0 0 Z " fill="#2E4A91" transform="translate(555,346)"/>
<path d="M0 0 C0.99 0 1.98 0 3 0 C3.33 2.64 3.66 5.28 4 8 C4.66 8 5.32 8 6 8 C7.96 15.34 8.27 22.11 8.19 29.69 C8.19 30.79 8.19 31.89 8.19 33.03 C8.16 38.15 7.94 42.95 7 48 C6.67 48 6.34 48 6 48 C5.99 46.85 5.99 46.85 5.97 45.68 C5.75 31.28 5.45 17.78 1 4 C0.65 2.67 0.31 1.34 0 0 Z " fill="#25438E" transform="translate(629,539)"/>
<path d="M0 0 C0.33 0 0.66 0 1 0 C1 31.02 1 62.04 1 94 C0.67 94 0.34 94 0 94 C0 62.98 0 31.96 0 0 Z " fill="#15307A" transform="translate(266,380)"/>
<path d="M0 0 C0.99 0.33 1.98 0.66 3 1 C-4.01 11.12 -10.85 16.7 -23 20 C-23.99 19.67 -24.98 19.34 -26 19 C-23.56 16.56 -21.32 15.78 -18.12 14.5 C-10.61 11.87 -10.61 11.87 -6 6 C-5.01 5.67 -4.02 5.34 -3 5 C-2.67 4.01 -2.34 3.02 -2 2 C-1.34 2 -0.68 2 0 2 C0 1.34 0 0.68 0 0 Z " fill="#203E8E" transform="translate(584,597)"/>
<path d="M0 0 C15.51 0 31.02 0 47 0 C47 0.33 47 0.66 47 1 C43.56 1.36 40.13 1.71 36.69 2.06 C35.71 2.17 34.73 2.27 33.73 2.38 C32.32 2.52 32.32 2.52 30.89 2.66 C29.59 2.79 29.59 2.79 28.27 2.93 C26 3 26 3 23 2 C20.67 2.33 18.33 2.66 16 3 C10.23 3.37 5.47 2.86 0 1 C0 0.67 0 0.34 0 0 Z " fill="#EFF7FD" transform="translate(515,347)"/>
<path d="M0 0 C0 0.33 0 0.66 0 1 C-0.6 1.18 -1.21 1.36 -1.83 1.55 C-6.16 2.91 -9.4 4.2 -13 7 C-14.32 7 -15.64 7 -17 7 C-17 7.66 -17 8.32 -17 9 C-17.99 9 -18.98 9 -20 9 C-20.75 6.75 -20.75 6.75 -21 4 C-19.13 1.41 -17.74 0.24 -14.69 -0.75 C-9.64 -1.22 -4.95 -1.2 0 0 Z " fill="#5473C1" transform="translate(350,270)"/>
<path d="M0 0 C0.66 0 1.32 0 2 0 C2.63 1.64 3.26 3.29 3.88 4.94 C4.22 5.85 4.57 6.77 4.93 7.71 C7.56 15.78 8.27 23.08 8.12 31.56 C8.12 32.57 8.11 33.58 8.1 34.62 C8.07 37.08 8.04 39.54 8 42 C7.34 41.01 6.68 40.02 6 39 C5.34 39 4.68 39 4 39 C4.16 38.44 4.32 37.88 4.49 37.31 C6.88 26.51 4.4 13.89 0.59 3.71 C0 2 0 2 0 0 Z " fill="#375394" transform="translate(586,557)"/>
<path d="M0 0 C6.81 3.83 13.44 7.86 19.94 12.19 C20.56 12.6 21.19 13.02 21.83 13.45 C25.36 15.81 28.72 18.29 32 21 C31.01 21.33 30.02 21.66 29 22 C28.67 21.34 28.34 20.68 28 20 C25.69 18.61 23.37 17.3 21 16 C19.79 15.29 18.58 14.58 17.38 13.88 C14.61 12.34 11.97 11.08 9 10 C9 9.34 9 8.68 9 8 C6.69 7.67 4.38 7.34 2 7 C1.34 8.32 0.68 9.64 0 11 C0 7.37 0 3.74 0 0 Z " fill="#274591" transform="translate(435,444)"/>
<path d="M0 0 C0.33 0 0.66 0 1 0 C1.21 11.55 1.11 22.6 -1 34 C-1.66 33.67 -2.32 33.34 -3 33 C-3.38 21.58 -2.52 11.15 0 0 Z " fill="#233D81" transform="translate(269,347)"/>
<path d="M0 0 C-2.72 2.87 -5.44 5.1 -8.77 7.23 C-9.66 7.81 -10.54 8.38 -11.46 8.97 C-12.38 9.56 -13.3 10.15 -14.25 10.75 C-15.19 11.35 -16.12 11.95 -17.09 12.57 C-19.39 14.05 -21.69 15.53 -24 17 C-24.33 15.68 -24.66 14.36 -25 13 C-24.4 12.73 -23.8 12.46 -23.19 12.19 C-20.96 11.13 -20.96 11.13 -19.5 9.38 C-18 8 -18 8 -14 8 C-14 7.34 -14 6.68 -14 6 C-10.54 3 -10.54 3 -8 3 C-8 2.34 -8 1.68 -8 1 C-3.38 -1.12 -3.38 -1.12 0 0 Z " fill="#274390" transform="translate(461,546)"/>
<path d="M0 0 C0.66 0.33 1.32 0.66 2 1 C-8.18 10.58 -19.72 12.53 -33.21 12.14 C-34.13 12.09 -35.05 12.05 -36 12 C-36 11.67 -36 11.34 -36 11 C-35.2 10.94 -34.4 10.87 -33.57 10.81 C-22.48 9.61 -11.69 6.24 -1.89 0.83 C-1.26 0.56 -0.64 0.28 0 0 Z " fill="#405B9F" transform="translate(590,652)"/>
<path d="M0 0 C10.93 4.81 19.92 11.97 28.75 19.88 C29.28 20.34 29.8 20.8 30.34 21.28 C31.62 22.46 32.82 23.72 34 25 C34 25.99 34 26.98 34 28 C32.87 27.09 31.74 26.17 30.62 25.25 C30 24.74 29.37 24.23 28.73 23.7 C26.91 21.91 26.11 20.26 25 18 C22.98 17.35 22.98 17.35 21 17 C20.67 16.34 20.34 15.68 20 15 C19.15 14.5 18.31 14.01 17.44 13.5 C16.63 13 15.83 12.51 15 12 C15 11.34 15 10.68 15 10 C14.3 9.94 13.6 9.88 12.88 9.81 C9.07 8.74 6.96 6.58 4 4 C1.78 2.72 1.78 2.72 0 2 C0 1.34 0 0.68 0 0 Z " fill="#5D71A1" transform="translate(694,271)"/>
<path d="M0 0 C0.85 0.76 1.69 1.53 2.56 2.31 C4.87 4.26 6.93 5.5 9.75 6.56 C13.31 8.14 13.55 8.65 15 12 C17.05 12.81 17.05 12.81 19 13 C19.33 15.31 19.66 17.62 20 20 C17 19 15.97 18.35 14 16 C14 15.34 14 14.68 14 14 C13.38 13.75 12.76 13.5 12.12 13.25 C9.6 11.76 9.28 10.56 8 8 C6.68 7.3 5.35 6.63 4 6 C1.75 4 1.75 4 0 2 C0 1.34 0 0.68 0 0 Z " fill="#122F80" transform="translate(293,713)"/>
<path d="M0 0 C0.99 0.33 1.98 0.66 3 1 C3 1.66 3 2.32 3 3 C1.39 3.59 1.39 3.59 -0.25 4.19 C-3.91 5.73 -5.65 7.78 -8 11 C-8.66 11 -9.32 11 -10 11 C-10.27 11.64 -10.54 12.28 -10.81 12.94 C-12 15 -12 15 -15 16 C-15 16.66 -15 17.32 -15 18 C-15.78 18.58 -16.57 19.15 -17.38 19.75 C-20.4 22.34 -21.05 24.2 -22 28 C-22.66 28 -23.32 28 -24 28 C-24.33 27.01 -24.66 26.02 -25 25 C-23.47 22.8 -21.95 20.87 -20.19 18.88 C-19.69 18.3 -19.19 17.72 -18.68 17.13 C-14.16 12 -9.28 7.35 -4 3 C-3.31 2.4 -2.62 1.81 -1.9 1.2 C-1.27 0.8 -0.65 0.41 0 0 Z " fill="#50679D" transform="translate(313,281)"/>
<path d="M0 0 C0.66 0 1.32 0 2 0 C2.05 7.79 2.08 15.58 2.1 23.37 C2.11 26.98 2.13 30.6 2.15 34.21 C2.17 37.7 2.18 41.19 2.19 44.68 C2.2 46.66 2.21 48.64 2.23 50.63 C2.23 51.83 2.23 53.03 2.23 54.27 C2.23 55.33 2.24 56.39 2.24 57.48 C2 60 2 60 0 62 C0 41.54 0 21.08 0 0 Z " fill="#153893" transform="translate(268,586)"/>
<path d="M0 0 C2 2 2 2 2.25 4.94 C2 8 2 8 0 11 C-0.66 13.05 -0.66 13.05 -1.12 15.19 C-1.56 17.07 -1.56 17.07 -2 19 C-2.66 19 -3.32 19 -4 19 C-4.15 20.02 -4.15 20.02 -4.31 21.06 C-5.15 24.63 -6.49 27.66 -8 31 C-8.66 31 -9.32 31 -10 31 C-9.67 31.99 -9.34 32.98 -9 34 C-9.99 34.99 -10.98 35.98 -12 37 C-12.99 36.67 -13.98 36.34 -15 36 C-14.49 35.26 -13.98 34.52 -13.46 33.75 C-6.74 23.47 -1.67 12.28 0 0 Z " fill="#223E8C" transform="translate(633,590)"/>
<path d="M0 0 C6.55 1.16 12.75 2.73 19 5 C18 8 18 8 16.42 8.81 C12.84 9.09 9.66 8.06 6.25 7.06 C5.55 6.87 4.86 6.67 4.14 6.47 C2.42 5.99 0.71 5.5 -1 5 C-0.67 3.35 -0.34 1.7 0 0 Z " fill="#768BC7" transform="translate(666,263)"/>
<path d="M0 0 C1.65 0 3.3 0 5 0 C2.94 2.23 1.08 3.64 -1.66 4.94 C-2.37 5.27 -3.07 5.61 -3.8 5.96 C-4.92 6.47 -4.92 6.47 -6.06 7 C-6.83 7.35 -7.59 7.71 -8.37 8.07 C-23.02 14.75 -23.02 14.75 -30 13 C-27.34 11.23 -25.89 10.57 -22.91 9.82 C-22.13 9.61 -21.34 9.41 -20.53 9.19 C-18.89 8.77 -17.25 8.36 -15.6 7.94 C-11.36 6.83 -8.47 5.76 -5 3 C-3.68 3 -2.36 3 -1 3 C-0.67 2.01 -0.34 1.02 0 0 Z " fill="#20346C" transform="translate(699,740)"/>
<path d="M0 0 C0.66 0.33 1.32 0.66 2 1 C-1.68 5.9 -5.37 8.84 -10.62 11.94 C-12.04 12.8 -13.46 13.66 -14.88 14.52 C-15.93 15.15 -15.93 15.15 -16.99 15.78 C-19.86 17.52 -22.68 19.32 -25.5 21.12 C-26.38 21.68 -27.25 22.24 -28.16 22.82 C-29.07 23.4 -29.07 23.4 -30 24 C-29.67 22.68 -29.34 21.36 -29 20 C-27.35 19.67 -25.7 19.34 -24 19 C-24 18.34 -24 17.68 -24 17 C-22.02 16.34 -20.04 15.68 -18 15 C-18 14.34 -18 13.68 -18 13 C-16 11 -16 11 -14.06 10.62 C-11.31 9.79 -10.64 8.29 -9 6 C-8.01 5.67 -7.02 5.34 -6 5 C-4.65 3.69 -3.31 2.35 -2 1 C-1.34 0.67 -0.68 0.34 0 0 Z " fill="#25428E" transform="translate(492,522)"/>
<path d="M0 0 C3.36 1.44 5.59 3.25 8 6 C8 6.66 8 7.32 8 8 C8.6 8.08 9.2 8.17 9.81 8.25 C12.63 9.22 13.48 10.49 15 13 C15 13.66 15 14.32 15 15 C15.66 15 16.32 15 17 15 C20.1 20.46 20.1 20.46 19.59 23.2 C19.4 23.8 19.2 24.39 19 25 C18.04 23.61 18.04 23.61 17.06 22.18 C10.88 13.25 10.88 13.25 3.38 5.43 C1.78 3.77 0.93 2.09 0 0 Z " fill="#1E3D90" transform="translate(602,362)"/>
<path d="M0 0 C2.06 0.44 2.06 0.44 4 1 C-1.27 7.41 -7.09 13.19 -13 19 C-13.58 17.14 -13.58 17.14 -14 15 C-12.69 12.75 -12.69 12.75 -11 11 C-10.34 11 -9.68 11 -9 11 C-9 10.34 -9 9.68 -9 9 C-8.01 9 -7.02 9 -6 9 C-6 8.01 -6 7.02 -6 6 C-3.56 3.38 -3.56 3.38 -1 1 C-0.67 0.67 -0.34 0.34 0 0 Z " fill="#2C4995" transform="translate(422,354)"/>
<path d="M0 0 C0.33 0.66 0.66 1.32 1 2 C-2.02 8.45 -5.38 13.71 -12.2 16.22 C-14.3 17.13 -15.48 18.31 -17 20 C-17.66 19.34 -18.32 18.68 -19 18 C-18.29 17.42 -18.29 17.42 -17.57 16.82 C-12.55 12.58 -8.18 8 -3.88 3.04 C-2 1 -2 1 0 0 Z " fill="#26438E" transform="translate(620,626)"/>
<path d="M0 0 C2.38 2.38 2.59 3.72 3 7 C2.67 7.66 2.34 8.32 2 9 C1.88 10.81 1.82 12.62 1.81 14.44 C1.8 15.41 1.78 16.37 1.77 17.37 C1.81 20.23 1.81 20.23 4 23 C3.67 23.55 3.35 24.11 3.01 24.67 C1.84 27.38 1.77 29.26 1.8 32.2 C1.81 33.18 1.82 34.16 1.82 35.17 C1.84 36.19 1.86 37.2 1.88 38.25 C1.88 39.28 1.89 40.31 1.9 41.38 C1.93 43.92 1.96 46.46 2 49 C1.01 49.5 1.01 49.5 0 50 C0 33.5 0 17 0 0 Z " fill="#163A96" transform="translate(268,473)"/>
<path d="M0 0 C-11.21 6.67 -31.47 2.89 -43.94 2.56 C-46.18 2.51 -48.43 2.46 -50.67 2.4 C-56.11 2.28 -61.56 2.14 -67 2 C-67 1.67 -67 1.34 -67 1 C-59 0.87 -51.01 0.74 -43.01 0.61 C-39.29 0.55 -35.58 0.49 -31.87 0.43 C-28.28 0.37 -24.7 0.31 -21.11 0.25 C-19.74 0.23 -18.38 0.21 -17.01 0.19 C-15.09 0.15 -13.18 0.12 -11.26 0.09 C-10.17 0.07 -9.08 0.06 -7.96 0.04 C-5.3 0 -2.65 -0.01 0 0 Z " fill="#5A74AE" transform="translate(563,664)"/>
<path d="M0 0 C6.85 0.49 13.72 0.33 20.59 0.26 C20.26 0.92 19.93 1.58 19.59 2.26 C8.04 2.26 -3.51 2.26 -15.41 2.26 C-15.08 1.6 -14.75 0.94 -14.41 0.26 C-9.55 -1.19 -4.95 -0.49 0 0 Z " fill="#F1F9FE" transform="translate(495.41015625,660.7421875)"/>
<path d="M0 0 C0.74 0.31 1.49 0.62 2.25 0.94 C6.92 2.9 6.92 2.9 11.75 2.06 C12.49 1.71 13.24 1.36 14 1 C14.66 1.66 15.32 2.32 16 3 C10.47 6.96 4.98 10.75 -1 14 C-0.67 13.01 -0.34 12.02 0 11 C0.66 11 1.32 11 2 11 C2 10.34 2 9.68 2 9 C2.99 9 3.98 9 5 9 C5 8.01 5 7.02 5 6 C4.34 6 3.68 6 3 6 C3 4.68 3 3.36 3 2 C2.01 2 1.02 2 0 2 C0 1.34 0 0.68 0 0 Z " fill="#263F7F" transform="translate(516,497)"/>
<path d="M0 0 C0.33 0 0.66 0 1 0 C2.06 6.1 2.18 12.07 2.19 18.25 C2.2 19.22 2.21 20.2 2.22 21.2 C2.24 28 1.44 34.35 0 41 C-2.8 36.8 -1.87 34.88 -1 30 C-0.67 29.67 -0.34 29.34 0 29 C0 27.19 -0.06 25.38 -0.16 23.57 C-0.21 22.47 -0.26 21.36 -0.32 20.22 C-0.44 17.88 -0.56 15.53 -0.68 13.19 C-0.74 12.08 -0.79 10.97 -0.84 9.82 C-0.9 8.8 -0.95 7.78 -1.01 6.73 C-1 4.26 -0.73 2.34 0 0 Z " fill="#D9E8F7" transform="translate(630,412)"/>
<path d="M0 0 C6.82 2.56 13.04 5.83 19 10 C19.66 8.68 20.32 7.36 21 6 C21.66 6 22.32 6 23 6 C22.52 10.31 21.25 12.17 18 15 C17.01 14.67 16.02 14.34 15 14 C15 13.01 15 12.02 15 11 C13.61 9.67 13.61 9.67 11.72 8.55 C11.04 8.12 10.37 7.68 9.67 7.23 C8.95 6.78 8.24 6.34 7.5 5.88 C4.98 4.27 2.49 2.65 0 1 C0 0.67 0 0.34 0 0 Z " fill="#1F3B85" transform="translate(547,463)"/>
<path d="M0 0 C4.62 0 9.24 0 14 0 C13.34 1.98 12.68 3.96 12 6 C7.38 6.33 2.76 6.66 -2 7 C-1.01 6.67 -0.02 6.34 1 6 C0.67 4.02 0.34 2.04 0 0 Z " fill="#6880C8" transform="translate(365,260)"/>
<path d="M0 0 C0.99 0 1.98 0 3 0 C0.49 8.4 -3.21 16.12 -7 24 C-7.66 23.67 -8.32 23.34 -9 23 C-9 22.01 -9 21.02 -9 20 C-8.34 20 -7.68 20 -7 20 C-6.9 19.34 -6.79 18.68 -6.69 18 C-5.25 11.74 -2.57 5.87 0 0 Z " fill="#23376F" transform="translate(750,677)"/>
<path d="M0 0 C0.99 0.33 1.98 0.66 3 1 C-1.09 4.4 -5.38 7.33 -9.81 10.25 C-10.51 10.71 -11.2 11.17 -11.91 11.64 C-13.61 12.76 -15.3 13.88 -17 15 C-17 12 -17 12 -15.35 10.04 C-12.82 7.84 -10.22 6.08 -7.38 4.31 C-6.41 3.71 -5.45 3.11 -4.46 2.49 C-2 1 -2 1 0 0 Z " fill="#2A4894" transform="translate(510,511)"/>
</svg>
