<?xml version="1.0" encoding="UTF-8"?>
<!-- Generator: visioncortex VTracer 0.6.4 -->
<svg version="1.1" xmlns="http://www.w3.org/2000/svg" width="1024" height="1024">
<path d="M0 0 C337.92 0 675.84 0 1024 0 C1024 337.92 1024 675.84 1024 1024 C686.08 1024 348.16 1024 0 1024 C0 686.08 0 348.16 0 0 Z M479 328 C479 328.66 479 329.32 479 330 C478.32 329.99 477.64 329.98 476.95 329.97 C469.89 329.86 462.83 329.78 455.78 329.73 C453.14 329.7 450.51 329.67 447.88 329.62 C444.09 329.56 440.31 329.53 436.52 329.51 C435.34 329.49 434.17 329.46 432.95 329.43 C426.42 329.33 426.42 329.33 420.87 332.41 C419.94 333.69 419.94 333.69 419 335 C418.2 335.62 417.39 336.24 416.56 336.88 C413.84 339.13 411.73 341.55 409.48 344.26 C407.45 346.64 405.21 348.79 403 351 C402.34 351.99 401.68 352.98 401 354 C401.66 354.33 402.32 354.66 403 355 C401.9 356.01 400.8 357.01 399.69 358 C399.07 358.56 398.46 359.11 397.82 359.69 C396 361 396 361 393 361 C391.3 362.64 389.64 364.31 388 366 C386.92 366.79 385.83 367.56 384.72 368.31 C379.81 371.96 375.85 375.76 374.26 381.83 C373.14 389.79 373.32 397.82 373.46 405.84 C373.51 409.51 373.49 413.18 373.48 416.85 C373.46 424.01 373.51 431.18 373.59 438.35 C373.68 446.69 373.69 455.04 373.7 463.39 C373.72 478.27 373.8 493.16 373.91 508.04 C374.02 522.49 374.1 536.94 374.14 551.39 C374.14 552.28 374.14 553.17 374.14 554.09 C374.15 557.67 374.16 561.26 374.17 564.84 C374.21 580.28 374.27 595.71 374.34 611.15 C374.34 612.81 374.35 614.48 374.36 616.14 C374.4 626.46 374.46 636.77 374.54 647.09 C374.56 649.97 374.57 652.85 374.59 655.72 C374.6 659.64 374.64 663.55 374.67 667.46 C374.68 668.61 374.68 669.76 374.68 670.95 C374.69 671.99 374.71 673.03 374.72 674.11 C374.72 675.01 374.73 675.91 374.74 676.84 C374.8 679.21 374.8 679.21 377 681 C379.57 681.65 379.57 681.65 382 682 C382 681.34 382 680.68 382 680 C384.75 680.14 387.5 680.29 390.25 680.44 C391.42 680.5 391.42 680.5 392.61 680.56 C393.36 680.6 394.11 680.64 394.89 680.68 C395.58 680.72 396.27 680.76 396.99 680.79 C399.07 681.01 400.99 681.45 403 682 C403 681.34 403 680.68 403 680 C403.66 680.33 404.32 680.66 405 681 C406.49 681.12 407.99 681.18 409.48 681.21 C410.42 681.23 411.35 681.25 412.31 681.27 C413.33 681.28 414.35 681.3 415.39 681.32 C416.45 681.34 417.51 681.36 418.6 681.38 C420.85 681.42 423.11 681.46 425.36 681.5 C428.73 681.56 432.11 681.63 435.48 681.69 C460.02 682.16 484.53 681.92 509.08 681.54 C515.33 681.44 521.58 681.35 527.84 681.25 C529.98 681.22 532.13 681.19 534.28 681.15 C542.85 681.02 551.42 680.97 560 681 C560 680.34 560 679.68 560 679 C560.81 678.88 561.62 678.75 562.45 678.62 C590.28 673.73 613.81 660.01 630.33 636.72 C645.21 614.75 651.58 586.93 646.75 560.75 C643.1 542.77 635.58 527.16 624 513 C623.5 512.37 623.01 511.75 622.5 511.11 C619.87 507.85 617 504.91 614 502 C614.47 501.57 614.95 501.15 615.43 500.71 C631.67 485.36 638.89 465.82 644.07 444.62 C645 441 645 441 646 439 C646.16 436.59 646.26 434.21 646.32 431.8 C646.34 431.1 646.36 430.39 646.38 429.66 C646.44 427.4 646.5 425.14 646.56 422.88 C646.61 421.34 646.65 419.81 646.69 418.28 C646.8 414.52 646.9 410.76 647 407 C646.34 407 645.68 407 645 407 C645 403.04 645 399.08 645 395 C644.34 395 643.68 395 643 395 C642.67 394.01 642.34 393.02 642 392 C641.34 392 640.68 392 640 392 C639.65 390.78 639.3 389.57 638.94 388.31 C632 367.63 616.82 351.37 598 341 C591.21 337.25 591.21 337.25 589.35 335.06 C574.77 322.25 541.49 327.45 523.62 327.66 C518.58 327.71 513.54 327.73 508.5 327.76 C498.66 327.81 488.83 327.89 479 328 Z " fill="#F5F4F0" transform="translate(0,0)"/>
<path d="M0 0 C0.75 0.01 1.49 0.02 2.26 0.03 C4.09 0.05 5.92 0.09 7.75 0.12 C7.75 0.79 7.75 1.44 7.75 2.12 C9.73 1.46 11.71 0.81 13.75 0.12 C13.75 0.79 13.75 1.44 13.75 2.12 C14.53 1.98 15.32 1.84 16.13 1.7 C24.15 0.34 31.86 -0.16 39.99 -0.11 C41.8 -0.1 41.8 -0.1 43.64 -0.1 C46.17 -0.1 48.69 -0.09 51.22 -0.08 C55.07 -0.06 58.92 -0.06 62.78 -0.06 C65.24 -0.06 67.71 -0.05 70.18 -0.04 C71.32 -0.04 72.46 -0.04 73.64 -0.04 C79.44 -0.01 85 0.32 90.75 1.12 C93.09 1.04 95.42 0.9 97.75 0.69 C108.29 -0.11 118.91 -0.89 129.26 1.63 C132.27 2.23 135.19 2.35 138.25 2.5 C144.39 2.91 149.26 4.41 154.75 7.12 C155.76 7.62 156.77 8.12 157.81 8.62 C159.75 10.12 159.75 10.12 160.56 12.31 C160.62 12.91 160.69 13.51 160.75 14.12 C162.08 14.03 162.08 14.03 163.44 13.94 C167.11 14.15 168.85 14.91 171.75 17.12 C171.75 17.79 171.75 18.44 171.75 19.12 C172.3 19.35 172.85 19.58 173.42 19.82 C185.61 26.65 194.48 41.28 198.75 54.12 C198.96 54.72 199.17 55.32 199.38 55.94 C202.02 63.6 204.26 70.83 204.61 78.99 C204.67 81.31 204.67 81.31 205.75 84.12 C206.5 98.58 205.56 111.69 199.75 125.12 C199.41 127.07 199.41 127.07 199.06 129.06 C198.09 133.85 196.09 138.02 193.94 142.38 C193.61 143.06 193.27 143.75 192.93 144.45 C190.74 148.78 188.26 151.72 184.75 155.12 C183.81 157.06 183.81 157.06 183.38 159 C181.75 163.93 178.53 166.73 174.75 170.12 C172.83 171.87 171.66 173.28 170.37 175.55 C168.53 178.47 166.59 180.14 163.88 182.25 C163.03 182.91 162.19 183.58 161.32 184.26 C158.86 186.04 156.37 187.59 153.75 189.12 C146.76 193.51 146.76 193.51 140.75 199.12 C140.42 198.47 140.09 197.81 139.75 197.12 C139.09 197.78 138.43 198.44 137.75 199.12 C135.37 199.54 135.37 199.54 132.62 199.75 C131.26 199.86 131.26 199.86 129.87 199.98 C129.17 200.03 128.47 200.07 127.75 200.12 C127.75 200.78 127.75 201.44 127.75 202.12 C126.44 203.75 126.44 203.75 124.75 205.12 C123.76 205.12 122.77 205.12 121.75 205.12 C121.75 205.78 121.75 206.44 121.75 207.12 C121.11 207.3 120.47 207.47 119.82 207.64 C118.99 207.88 118.16 208.13 117.31 208.38 C116.08 208.72 116.08 208.72 114.82 209.08 C112.55 209.93 112.55 209.93 111.96 212.23 C111.89 212.86 111.82 213.48 111.75 214.12 C111.11 214.25 110.47 214.37 109.81 214.5 C109.13 214.71 108.45 214.91 107.75 215.12 C107.42 215.78 107.09 216.44 106.75 217.12 C105.76 217.12 104.77 217.12 103.75 217.12 C103.42 218.12 103.09 219.11 102.75 220.12 C101.1 220.12 99.45 220.12 97.75 220.12 C97.75 220.78 97.75 221.44 97.75 222.12 C96.54 222.56 96.54 222.56 95.31 223 C92.62 223.86 92.62 223.86 91.75 226.12 C89.42 227.12 87.08 228.12 84.75 229.12 C84.42 229.78 84.09 230.44 83.75 231.12 C81.98 232.05 80.19 232.92 78.38 233.75 C72.89 236.42 68.16 239.56 63.3 243.22 C54.05 250.12 54.05 250.12 50.75 250.12 C50.75 250.78 50.75 251.44 50.75 252.12 C49.42 252.87 49.42 252.87 48.06 253.62 C44.35 255.74 40.7 257.96 37.06 260.19 C35.97 260.86 34.87 261.53 33.74 262.22 C30.83 264.01 30.83 264.01 28.59 265.8 C25.89 267.75 22.95 268.32 19.75 269.12 C19.75 269.79 19.75 270.44 19.75 271.12 C18.17 271.99 18.17 271.99 16.56 272.88 C14.2 274.22 12.25 275.53 10.12 277.25 C7.73 279.14 5.62 280.14 2.75 281.12 C2.75 281.79 2.75 282.44 2.75 283.12 C-3.87 287.12 -3.87 287.12 -7.25 287.12 C-8.24 289.11 -8.24 289.11 -9.25 291.12 C-9.91 291.12 -10.57 291.12 -11.25 291.12 C-12.4 280.69 -12.56 270.59 -11.47 260.15 C-11.03 254.15 -11.18 248.13 -11.25 242.12 C-10.59 242.12 -9.93 242.12 -9.25 242.12 C-9.21 241.53 -9.17 240.93 -9.12 240.31 C-7.82 237.04 -5.36 236.67 -2.25 235.12 C-0.18 233.65 1.86 232.12 3.88 230.56 C7.1 228.07 10.08 225.88 13.75 224.12 C17.45 221.6 20.94 218.96 24.06 215.75 C25.75 214.12 25.75 214.12 28.75 214.12 C28.75 213.47 28.75 212.81 28.75 212.12 C29.33 211.93 29.92 211.73 30.52 211.53 C39.11 208.4 46.15 203.45 53.52 198.12 C57.9 194.97 61.53 192.65 66.75 191.12 C68.46 189.58 68.46 189.58 69.75 188.12 C70.41 188.12 71.07 188.12 71.75 188.12 C71.75 186.81 71.75 185.49 71.75 184.12 C75.02 181.52 77.75 180.12 81.75 179.12 C82.41 178.13 83.07 177.14 83.75 176.12 C85.75 175.46 87.75 174.79 89.75 174.12 C90.41 173.13 91.07 172.14 91.75 171.12 C93.08 170.76 94.41 170.43 95.75 170.12 C96.08 169.47 96.41 168.81 96.75 168.12 C97.74 168.12 98.73 168.12 99.75 168.12 C99.75 167.47 99.75 166.81 99.75 166.12 C100.74 166.12 101.73 166.12 102.75 166.12 C103.08 165.13 103.41 164.14 103.75 163.12 C106.75 161.12 106.75 161.12 110.75 161.12 C111.08 160.13 111.41 159.14 111.75 158.12 C113.49 156.74 113.49 156.74 115.62 155.44 C116.32 155 117.02 154.56 117.74 154.11 C119.75 153.12 119.75 153.12 122.75 153.12 C122.75 152.47 122.75 151.81 122.75 151.12 C124.29 149.94 124.29 149.94 126.38 148.69 C127.11 148.24 127.84 147.8 128.6 147.34 C130.75 146.12 130.75 146.12 133.81 144.81 C138.74 141.98 142.44 137.56 145.12 132.56 C147.31 129.28 150.16 127.42 153.29 125.06 C163.92 116.7 171.32 106.12 177.69 94.31 C178.08 93.6 178.47 92.88 178.87 92.14 C180.94 88.19 182.59 84.67 182.75 80.12 C177 68.7 155.35 58.4 143.75 54.12 C137.84 52.38 131.82 51.19 125.75 50.12 C126.08 49.47 126.41 48.81 126.75 48.12 C120.01 45.77 114.08 44.69 106.96 44.8 C106.06 44.8 105.16 44.8 104.23 44.8 C101.34 44.81 98.45 44.84 95.56 44.88 C93.55 44.89 91.53 44.9 89.52 44.91 C81 44.96 72.49 45.03 63.98 45.48 C52.44 46.1 40.92 46.27 29.36 46.3 C27.3 46.31 25.25 46.32 23.19 46.33 C20.28 46.35 17.38 46.36 14.47 46.36 C13.59 46.36 12.72 46.37 11.82 46.38 C6.72 46.36 2.59 45.73 -2.25 44.12 C-3.89 43.87 -5.54 43.65 -7.19 43.5 C-7.96 43.43 -8.73 43.35 -9.53 43.27 C-10.1 43.22 -10.66 43.18 -11.25 43.12 C-11.58 44.44 -11.91 45.76 -12.25 47.12 C-12.25 32.27 -12.25 17.43 -12.25 2.12 C-7.88 -0.06 -4.73 -0.11 0 0 Z " fill="#1248D3" transform="translate(438.25,332.875)"/>
<path d="M0 0 C0 0.99 0 1.98 0 3 C0.66 3 1.32 3 2 3 C2 3.66 2 4.32 2 5 C2.66 5 3.32 5 4 5 C4 5.66 4 6.32 4 7 C4.73 7.05 5.46 7.09 6.21 7.14 C10.12 8.35 11.28 10.45 13.62 13.75 C14.38 14.8 15.14 15.84 15.91 16.92 C21.33 24.92 24.53 33.3 27.91 42.3 C28.75 44.88 28.75 44.88 30 46 C30.67 48.97 31.09 51.99 31.56 55 C31.7 55.83 31.84 56.65 31.98 57.5 C33.6 67.71 32.82 77.26 31.69 87.5 C31.57 88.67 31.45 89.84 31.33 91.05 C29.5 107.8 29.5 107.8 24 113 C23.67 113.66 23.34 114.32 23 115 C22.34 115 21.68 115 21 115 C20.9 116.09 20.79 117.19 20.69 118.31 C20 122.02 19.73 122.73 17 125 C16.67 125.99 16.34 126.98 16 128 C15.01 128 14.02 128 13 128 C13 129.65 13 131.3 13 133 C11.02 133.99 11.02 133.99 9 135 C9 135.66 9 136.32 9 137 C8.01 137.33 7.02 137.66 6 138 C6 138.66 6 139.32 6 140 C5.24 140.43 4.47 140.87 3.69 141.31 C0.66 143.21 -0.21 144.99 -2 148 C-2.99 148 -3.98 148 -5 148 C-5.33 149.32 -5.66 150.64 -6 152 C-7.32 152.33 -8.64 152.66 -10 153 C-10 153.66 -10 154.32 -10 155 C-10.99 155 -11.98 155 -13 155 C-13 155.66 -13 156.32 -13 157 C-16.8 159.77 -20.67 160.89 -25.19 162.06 C-30.08 163.16 -30.08 163.16 -34 166 C-36.61 166.6 -36.61 166.6 -39.75 167.06 C-40.78 167.22 -41.8 167.37 -42.86 167.54 C-43.9 167.69 -44.93 167.84 -46 168 C-47.06 168.18 -48.11 168.37 -49.2 168.56 C-52 169 -52 169 -55 169 C-55.62 169.16 -56.23 169.33 -56.86 169.5 C-59.38 170.09 -61.59 170.1 -64.18 170.06 C-65.28 170.05 -66.39 170.05 -67.53 170.04 C-68.78 170.02 -70.03 170.01 -71.31 170 C-82.93 169.93 -94.54 170.03 -106.15 170.22 C-106.83 170.23 -107.5 170.24 -108.19 170.25 C-114.39 170.35 -120.59 170.46 -126.78 170.57 C-145.19 170.91 -163.59 171.07 -182 171 C-182 170.67 -182 170.34 -182 170 C-184.06 169.8 -186.12 169.62 -188.19 169.44 C-189.34 169.33 -190.48 169.23 -191.67 169.12 C-194.74 169.01 -197.03 169.37 -200 170 C-202.27 170.07 -204.54 170.09 -206.81 170.06 C-207.97 170.05 -209.14 170.04 -210.33 170.04 C-211.21 170.02 -212.09 170.01 -213 170 C-213 170.33 -213 170.66 -213 171 C-220.59 171 -228.18 171 -236 171 C-236 155.16 -236 139.32 -236 123 C-233.62 121.81 -231.77 121.72 -229.12 121.5 C-226.63 121.29 -224.34 121.1 -221.93 120.41 C-220 120 -220 120 -218.3 120.45 C-215.27 121.17 -212.38 121.22 -209.27 121.32 C-207.97 121.36 -206.67 121.4 -205.34 121.44 C-203.98 121.48 -202.61 121.52 -201.25 121.56 C-199.87 121.61 -198.49 121.65 -197.11 121.69 C-193.74 121.8 -190.37 121.9 -187 122 C-187 122.66 -187 123.32 -187 124 C-186.16 124 -186.16 124 -185.29 123.99 C-171.59 123.95 -157.88 123.92 -144.18 123.9 C-137.55 123.89 -130.93 123.87 -124.3 123.85 C-117.91 123.83 -111.51 123.82 -105.12 123.81 C-102.68 123.81 -100.24 123.8 -97.79 123.79 C-94.38 123.77 -90.97 123.77 -87.55 123.77 C-86.03 123.76 -86.03 123.76 -84.48 123.75 C-83.55 123.75 -82.62 123.76 -81.66 123.76 C-80.85 123.76 -80.04 123.76 -79.21 123.75 C-76.74 124.03 -75.19 124.88 -73 126 C-70.21 126.06 -67.58 126.01 -64.81 125.81 C-64.02 125.76 -63.23 125.71 -62.42 125.66 C-45.76 124.42 -33.43 121.76 -21 110 C-19.57 112.86 -20.4 114.93 -21 118 C-21.66 118 -22.32 118 -23 118 C-23.08 118.78 -23.16 119.57 -23.25 120.38 C-25.6 131.75 -31.58 142.04 -40 150 C-40.56 150.93 -41.11 151.86 -41.69 152.81 C-42.12 153.53 -42.55 154.26 -43 155 C-43.66 155 -44.32 155 -45 155 C-45 156.32 -45 157.64 -45 159 C-44.01 158.34 -43.02 157.68 -42 157 C-41.4 157.21 -40.8 157.41 -40.19 157.62 C-37.76 158.27 -37.76 158.27 -34.94 156.38 C-31.99 153.99 -30.79 152.27 -29 149 C-27.81 147.66 -27.81 147.66 -26.61 146.3 C-23.86 143.05 -22.32 139.53 -20.88 135.56 C-20.39 134.29 -19.91 133.02 -19.43 131.75 C-19.2 131.13 -18.97 130.52 -18.73 129.88 C-17.98 127.95 -17.18 126.06 -16.36 124.17 C-14.17 119.06 -13.77 114.09 -13.28 108.6 C-13 106 -13 106 -12.48 103.32 C-11.83 98.81 -11.81 94.37 -11.81 89.81 C-11.81 88.87 -11.81 87.93 -11.81 86.97 C-11.86 81.3 -12.23 75.96 -13.5 70.42 C-14.07 67.67 -14.26 64.99 -14.44 62.19 C-14.77 57.83 -15.8 54.83 -18 51 C-18 50.01 -18 49.02 -18 48 C-18.66 48 -19.32 48 -20 48 C-21.46 45.35 -22 44.11 -22 41 C-22.66 41 -23.32 41 -24 41 C-25.62 39.69 -25.62 39.69 -27 38 C-27 37.01 -27 36.02 -27 35 C-27.99 35 -28.98 35 -30 35 C-30 34.34 -30 33.68 -30 33 C-30.66 33 -31.32 33 -32 33 C-32 32.34 -32 31.68 -32 31 C-33.98 30.01 -33.98 30.01 -36 29 C-36 27.68 -36 26.36 -36 25 C-35.01 24.67 -34.02 24.34 -33 24 C-32.42 23.24 -31.85 22.47 -31.25 21.69 C-29.03 19.03 -27 17.7 -23.98 16.08 C-16.87 12.2 -10.99 7.36 -5.16 1.76 C-3 0 -3 0 0 0 Z " fill="#134CD4" transform="translate(614,506)"/>
<path d="M0 0 C1.1 34.7 0.84 69.29 0 104 C-0.66 104 -1.32 104 -2 104 C-2.07 121.05 -2.12 138.09 -2.16 155.14 C-2.17 163.05 -2.19 170.97 -2.23 178.88 C-2.26 185.78 -2.28 192.67 -2.28 199.57 C-2.29 203.22 -2.3 206.87 -2.32 210.53 C-2.34 214.6 -2.34 218.67 -2.34 222.75 C-2.35 223.97 -2.36 225.18 -2.37 226.44 C-2.37 227.54 -2.37 228.65 -2.36 229.79 C-2.36 231.23 -2.36 231.23 -2.37 232.71 C-2.25 233.46 -2.13 234.22 -2 235 C-1.01 235.66 -0.02 236.32 1 237 C1.29 240.02 1.4 242.83 1.36 245.86 C1.36 247.2 1.36 247.2 1.36 248.56 C1.36 250.47 1.35 252.37 1.34 254.27 C1.31 257.13 1.32 259.99 1.32 262.85 C1.3 273.4 0.77 283.59 -1 294 C-15 294 -29 294 -43 294 C-43 293.34 -43 292.68 -43 292 C-44.32 292.33 -45.64 292.66 -47 293 C-47.03 289.92 -47.05 286.83 -47.06 283.75 C-47.07 282.88 -47.08 282 -47.09 281.11 C-47.09 280.26 -47.09 279.42 -47.1 278.55 C-47.1 277.77 -47.11 277 -47.11 276.2 C-47 274 -47 274 -46.43 272.03 C-45.88 269.42 -46.47 267.62 -47 265 C-47.17 261.98 -47.16 258.96 -47.17 255.94 C-47.17 255.07 -47.17 254.2 -47.18 253.3 C-47.18 251.47 -47.19 249.64 -47.19 247.81 C-47.19 245.01 -47.21 242.21 -47.22 239.41 C-47.23 237.63 -47.23 235.85 -47.23 234.06 C-47.24 233.23 -47.24 232.4 -47.25 231.54 C-47.24 227.24 -47 223.92 -45 220 C-45.66 220 -46.32 220 -47 220 C-47.26 197.86 -47.45 175.72 -47.57 153.58 C-47.63 143.3 -47.7 133.02 -47.83 122.74 C-47.94 113.78 -48.01 104.81 -48.03 95.85 C-48.05 91.11 -48.08 86.36 -48.16 81.62 C-48.24 77.15 -48.26 72.68 -48.24 68.21 C-48.25 66.58 -48.27 64.94 -48.31 63.3 C-48.62 50.93 -48.62 50.93 -44.61 46.15 C-41.68 43.78 -41.68 43.78 -38.77 41.88 C-35.79 39.86 -33.96 37.75 -31.81 34.88 C-28.97 31.13 -26.08 28.19 -22.49 25.18 C-18.9 22.03 -15.48 18.72 -12.06 15.38 C-11.39 14.73 -10.71 14.08 -10.02 13.42 C-9.07 12.48 -9.07 12.48 -8.1 11.52 C-7.53 10.97 -6.95 10.41 -6.36 9.83 C-4.7 7.59 -4.46 5.72 -4 3 C-1.52 0 -1.52 0 0 0 Z " fill="#134DD8" transform="translate(426,334)"/>
<path d="M0 0 C13.83 7.77 22.4 23.63 26.9 38.31 C28.6 44.68 28.7 50.79 28.6 57.35 C28.61 58.48 28.61 59.6 28.61 60.76 C28.56 69.02 28.56 69.02 26.29 71.29 C25.96 69.64 25.63 67.99 25.29 66.29 C25.03 66.9 24.78 67.52 24.51 68.16 C19.16 80 11.14 86.31 -0.71 91.29 C-3.57 92.24 -5.34 92.41 -8.3 92.41 C-9.25 92.42 -10.19 92.42 -11.16 92.42 C-12.19 92.42 -13.22 92.42 -14.28 92.42 C-15.37 92.42 -16.46 92.42 -17.58 92.42 C-21.19 92.43 -24.79 92.42 -28.4 92.42 C-30.9 92.42 -33.4 92.42 -35.9 92.42 C-41.14 92.42 -46.38 92.42 -51.62 92.42 C-57.69 92.41 -63.75 92.41 -69.81 92.42 C-75.64 92.42 -81.47 92.42 -87.3 92.42 C-89.78 92.42 -92.26 92.42 -94.74 92.42 C-98.21 92.43 -101.67 92.42 -105.14 92.42 C-106.68 92.42 -106.68 92.42 -108.26 92.42 C-109.21 92.42 -110.15 92.42 -111.12 92.41 C-111.94 92.41 -112.76 92.41 -113.6 92.41 C-115.71 92.29 -115.71 92.29 -118.71 91.29 C-119.7 91.78 -119.7 91.78 -120.71 92.29 C-122.66 92.46 -124.62 92.55 -126.59 92.6 C-128.16 92.66 -128.16 92.66 -129.77 92.71 C-133.35 92.19 -134.46 91.04 -136.71 88.29 C-135.56 84.83 -134.98 84.54 -131.98 82.72 C-131.21 82.24 -130.43 81.76 -129.63 81.26 C-128.79 80.76 -127.95 80.25 -127.09 79.72 C-125.34 78.65 -123.6 77.57 -121.86 76.49 C-120.99 75.95 -120.12 75.41 -119.22 74.86 C-114.54 71.93 -109.97 68.83 -105.4 65.74 C-102.48 63.78 -99.53 61.89 -96.56 60.01 C-90.36 56.08 -84.22 52.06 -78.09 48.04 C-75.78 46.53 -73.47 45.02 -71.17 43.51 C-70.61 43.14 -70.04 42.77 -69.46 42.4 C-60.8 36.73 -52.13 31.06 -43.37 25.55 C-42.24 24.84 -42.24 24.84 -41.09 24.12 C-39.55 23.15 -38 22.18 -36.46 21.22 C-32.14 18.51 -27.88 15.75 -23.67 12.88 C-21.32 11.28 -18.95 9.69 -16.59 8.1 C-15.42 7.31 -14.27 6.52 -13.11 5.72 C-11.49 4.59 -9.86 3.49 -8.22 2.39 C-6.81 1.42 -6.81 1.42 -5.36 0.43 C-2.71 -0.71 -2.71 -0.71 0 0 Z " fill="#F5F5F2" transform="translate(573.71044921875,534.713134765625)"/>
<path d="M0 0 C40.59 0 81.18 0 123 0 C123 0.33 123 0.66 123 1 C107.82 1 92.64 1 77 1 C77 1.66 77 2.32 77 3 C77.79 2.96 78.58 2.93 79.39 2.89 C95.61 2.19 111.63 1.87 127.85 2.9 C130.19 3.04 130.19 3.04 133.29 2.88 C141.87 3.26 150.44 10.93 156 17 C165.81 29.78 168.56 42.2 167 58 C164.71 72.97 156.84 84.85 146 95 C145.34 95 144.68 95 144 95 C144 94.01 144 93.02 144 92 C143.33 91.77 142.66 91.54 141.98 91.3 C138.15 89.63 134.85 87.43 131.38 85.12 C129.85 84.13 128.32 83.13 126.8 82.13 C126.01 81.61 125.22 81.1 124.4 80.56 C120.5 78.03 116.56 75.54 112.62 73.06 C111.83 72.56 111.04 72.06 110.22 71.55 C108.61 70.53 107 69.52 105.39 68.51 C92.78 60.56 80.19 52.58 67.61 44.57 C63.88 42.2 60.15 39.83 56.42 37.46 C45.91 30.79 35.43 24.07 25.01 17.26 C21.45 14.94 17.88 12.63 14.3 10.33 C13.38 9.73 12.45 9.13 11.49 8.52 C9.69 7.36 7.89 6.2 6.09 5.05 C5.29 4.53 4.5 4.02 3.67 3.48 C2.96 3.03 2.25 2.57 1.52 2.1 C1.02 1.74 0.52 1.37 0 1 C0 0.67 0 0.34 0 0 Z M36 1 C36 1.66 36 2.32 36 3 C40.89 3.19 45.79 3.37 50.68 3.54 C52.34 3.6 54.01 3.66 55.67 3.72 C58.06 3.82 60.46 3.9 62.86 3.98 C63.6 4.01 64.34 4.04 65.1 4.07 C69.22 4.19 72.3 3.86 76 2 C76 1.67 76 1.34 76 1 C62.8 1 49.6 1 36 1 Z " fill="#F3F4F2" transform="translate(427,380)"/>
<path d="M0 0 C11.47 5.74 22.4 12.8 33 20 C38.86 23.96 44.86 27.7 50.88 31.44 C58.49 36.17 66.08 40.95 73.59 45.84 C83.01 51.97 92.51 57.98 102 64 C100.5 67.92 98.38 69.35 94.86 71.54 C93.82 72.2 92.77 72.85 91.7 73.53 C90.58 74.22 89.46 74.91 88.31 75.62 C86.58 76.71 84.86 77.8 83.13 78.89 C81.44 79.95 79.74 81.01 78.04 82.08 C74.38 84.39 70.77 86.77 67.19 89.19 C61.19 93.22 55.13 97.17 49.06 101.1 C42.79 105.16 36.56 109.27 30.34 113.39 C27.73 115.12 25.12 116.85 22.5 118.57 C20.75 119.73 19 120.89 17.25 122.06 C14.77 123.71 12.29 125.35 9.8 126.99 C8.67 127.75 8.67 127.75 7.51 128.52 C2.23 132 2.23 132 0 132 C0 88.44 0 44.88 0 0 Z " fill="#F3F4F2" transform="translate(426,438)"/>
<path d="M0 0 C2 1 2 1 2.74 2.84 C4.56 5.96 6.98 6.93 10.12 8.62 C12.11 9.7 14.08 10.81 16 12 C16 12.66 16 13.32 16 14 C16.78 14.14 17.57 14.29 18.38 14.44 C21 15 21 15 23 16 C23 16.66 23 17.32 23 18 C23.78 18.27 24.57 18.54 25.38 18.81 C28 20 28 20 30 23 C31.54 23.68 33.08 24.36 34.65 24.97 C39.93 27.28 44.95 30.23 50 33 C50 33.66 50 34.32 50 35 C52.97 35.99 55.94 36.98 59 38 C59 38.66 59 39.32 59 40 C59.81 40.14 59.81 40.14 60.64 40.29 C63.7 41.21 66.06 42.72 68.75 44.44 C69.73 45.05 70.72 45.67 71.73 46.31 C72.48 46.87 73.23 47.42 74 48 C74 48.66 74 49.32 74 50 C74.99 50 75.98 50 77 50 C77 50.66 77 51.32 77 52 C77.99 52 78.98 52 80 52 C80 52.66 80 53.32 80 54 C80.75 54.17 81.5 54.34 82.27 54.52 C83.25 54.76 84.24 55 85.25 55.25 C86.22 55.48 87.2 55.71 88.2 55.95 C91.4 57.15 92.67 58.55 95 61 C97.21 62.51 99.42 63.96 101.69 65.38 C102.93 66.17 104.18 66.96 105.43 67.75 C107.58 69.11 109.75 70.47 111.92 71.81 C113.13 72.59 113.13 72.59 114.38 73.38 C115.44 74.04 115.44 74.04 116.52 74.71 C117.01 75.14 117.5 75.56 118 76 C118 76.99 118 77.98 118 79 C119.3 79.4 119.3 79.4 120.62 79.81 C123.92 80.97 126.91 82.38 130 84 C130 84.66 130 85.32 130 86 C130.99 86 131.98 86 133 86 C133 86.66 133 87.32 133 88 C133.8 88.29 134.61 88.58 135.44 88.88 C138 90 138 90 139 92 C136.15 95.1 133.41 97.06 129.69 99 C128.72 99.51 127.75 100.03 126.75 100.56 C125.14 101.41 123.52 102.25 121.9 103.1 C117.95 105.24 115.04 107.7 112 111 C111.34 111.66 110.68 112.32 110 113 C109.01 113 108.02 113 107 113 C106.5 114.49 106.5 114.49 106 116 C102.91 117.36 101.28 118.07 98 118 C95.68 116.77 93.88 115.32 91.89 113.6 C89.49 111.57 86.82 110.37 84 109 C83.67 108.34 83.34 107.68 83 107 C82.18 106.67 81.35 106.34 80.5 106 C78 105 78 105 77 103 C75.31 102.27 73.62 101.55 71.92 100.85 C68.98 99.55 66.52 97.98 64 96 C63.65 94.67 63.31 93.34 63 92 C61.36 91.28 59.68 90.62 58 90 C56.34 88.8 54.68 87.59 53.04 86.37 C49.91 84.27 46.54 82.71 43.14 81.11 C41 80 41 80 39 78 C37.34 77.32 35.67 76.65 34 76 C32.59 75.4 31.2 74.77 29.81 74.12 C28.8 73.66 28.8 73.66 27.77 73.2 C25.61 71.74 25.08 70.32 24 68 C21.74 66.93 21.74 66.93 19 66 C16.63 64.73 14.32 63.37 12 62 C12 61.34 12 60.68 12 60 C10.35 59.67 8.7 59.34 7 59 C6.5 57.51 6.5 57.51 6 56 C3.03 56.5 3.03 56.5 0 57 C0 38.19 0 19.38 0 0 Z " fill="#1146CE" transform="translate(426,381)"/>
<path d="M0 0 C19.08 0.09 37.1 14.06 50.81 26.19 C53 29 53 29 52.91 31.61 C51.71 36.1 49.79 39.97 47.62 44.06 C47.18 44.9 46.74 45.74 46.28 46.6 C42.07 54.3 37.03 60.66 31 67 C29.72 68.37 29.72 68.37 28.41 69.76 C22.55 75.82 22.55 75.82 19 77 C19.61 72.85 21.1 69.71 23 66 C23.69 63.76 23.69 63.76 24 62 C24.66 62 25.32 62 26 62 C25.84 61.28 25.68 60.55 25.52 59.81 C25.03 57.17 24.83 54.73 24.75 52.05 C24.72 51.12 24.69 50.19 24.65 49.23 C24.59 47.3 24.54 45.38 24.48 43.46 C24.16 34.68 23.24 26.57 19.12 18.69 C18.63 17.72 18.14 16.76 17.63 15.76 C14.65 10.71 12.47 8.04 7 6 C4.57 4.46 2.22 2.83 0 1 C0 0.67 0 0.34 0 0 Z " fill="#0E3CB5" transform="translate(569,384)"/>
<path d="M0 0 C0.66 0 1.32 0 2 0 C2.01 0.8 2.02 1.59 2.03 2.41 C2.13 9.97 2.23 17.53 2.34 25.09 C2.39 28.98 2.45 32.86 2.5 36.75 C2.55 40.51 2.6 44.27 2.65 48.03 C2.67 49.45 2.69 50.87 2.71 52.3 C1.94 67.57 1.94 67.57 5 82 C4.76 84.12 4.52 86.23 4.25 88.34 C3.89 92.14 3.98 95.9 4.06 99.71 C4 102 4 102 3 104 C4.98 103.5 4.98 103.5 7 103 C7 103.66 7 104.32 7 105 C4.52 105.5 4.52 105.5 2 106 C2 121.84 2 137.68 2 154 C60.74 154.33 119.48 154.66 180 155 C180 155.33 180 155.66 180 156 C156.68 156.02 133.36 156.04 110.04 156.05 C99.21 156.06 88.38 156.06 77.55 156.08 C68.12 156.09 58.68 156.09 49.25 156.09 C44.25 156.1 39.25 156.1 34.26 156.11 C29.56 156.11 24.86 156.11 20.16 156.11 C18.43 156.11 16.7 156.12 14.97 156.12 C12.62 156.12 10.27 156.12 7.92 156.12 C6.6 156.12 5.28 156.12 3.92 156.12 C1 156 1 156 0 155 C-0.1 153 -0.12 151 -0.12 149 C-0.12 147.69 -0.12 146.38 -0.12 145.04 C-0.12 143.58 -0.12 142.12 -0.11 140.66 C-0.11 139.13 -0.11 137.6 -0.11 136.08 C-0.11 131.92 -0.11 127.76 -0.1 123.6 C-0.1 119.26 -0.09 114.92 -0.09 110.57 C-0.09 102.35 -0.08 94.12 -0.07 85.89 C-0.06 76.53 -0.06 67.17 -0.05 57.8 C-0.04 38.53 -0.02 19.27 0 0 Z " fill="#4567B2" transform="translate(376,523)"/>
<path d="M0 0 C-1.32 0.33 -2.64 0.66 -4 1 C-4 1.66 -4 2.32 -4 3 C-4.66 3 -5.32 2.99 -6 2.99 C-24.32 2.93 -42.62 3.15 -60.94 3.5 C-84.76 3.95 -108.51 4.11 -132.33 3.63 C-135.68 3.56 -139.03 3.5 -142.38 3.44 C-144.52 3.4 -146.65 3.36 -148.79 3.32 C-149.79 3.3 -150.79 3.28 -151.82 3.27 C-152.73 3.25 -153.65 3.23 -154.59 3.21 C-155.4 3.19 -156.2 3.17 -157.03 3.16 C-159 3 -159 3 -161 2 C-161.33 2.66 -161.66 3.32 -162 4 C-162.58 3.84 -163.16 3.68 -163.76 3.52 C-167.21 2.72 -170.72 2.63 -174.25 2.44 C-175 2.39 -175.74 2.35 -176.51 2.31 C-178.34 2.2 -180.17 2.1 -182 2 C-182.33 2.66 -182.66 3.32 -183 4 C-184.32 3.67 -185.64 3.34 -187 3 C-187 2.34 -187 1.68 -187 1 C-163.8 0.87 -140.6 0.74 -117.4 0.61 C-106.63 0.55 -95.85 0.49 -85.08 0.43 C-75.69 0.37 -66.3 0.32 -56.91 0.27 C-51.94 0.24 -46.97 0.21 -42 0.19 C-37.31 0.16 -32.63 0.13 -27.95 0.11 C-26.24 0.1 -24.52 0.09 -22.8 0.08 C-20.46 0.06 -18.11 0.05 -15.76 0.04 C-14.44 0.03 -13.13 0.02 -11.78 0.02 C-7.85 -0 -3.93 -0 0 0 Z " fill="#E7F5FD" transform="translate(564,678)"/>
<path d="M0 0 C10.98 -0.12 21.96 -0.21 32.94 -0.26 C38.04 -0.28 43.14 -0.32 48.25 -0.38 C53.19 -0.43 58.13 -0.46 63.07 -0.47 C64.93 -0.48 66.8 -0.5 68.67 -0.53 C78.93 -0.67 88.54 -0.04 98.57 2.28 C99.45 2.48 100.34 2.69 101.25 2.89 C105.88 4.07 108.97 5.07 112 9 C110 10 110 10 107.79 9.29 C105.99 8.57 104.2 7.84 102.41 7.11 C93.02 4.06 83.7 3.7 73.9 3.68 C72.52 3.67 71.14 3.66 69.76 3.65 C66.04 3.62 62.33 3.61 58.61 3.6 C54.72 3.58 50.83 3.55 46.93 3.53 C39.57 3.48 32.21 3.44 24.85 3.41 C16.47 3.37 8.08 3.32 -0.3 3.27 C-17.53 3.17 -34.77 3.08 -52 3 C-52 2.67 -52 2.34 -52 2 C-34.84 2 -17.68 2 0 2 C0 1.34 0 0.68 0 0 Z " fill="#C3D8F3" transform="translate(479,328)"/>
<path d="M0 0 C0.92 3.12 1.12 5.89 1.11 9.13 C1.11 10.17 1.1 11.22 1.1 12.29 C1.1 13.43 1.09 14.58 1.08 15.76 C1.08 16.97 1.08 18.19 1.07 19.44 C1.06 22.82 1.05 26.2 1.03 29.57 C1.01 33.21 1 36.86 0.99 40.5 C0.97 46.81 0.95 53.12 0.92 59.43 C0.88 68.55 0.85 77.67 0.82 86.79 C0.76 101.59 0.71 116.39 0.65 131.19 C0.59 145.57 0.53 159.95 0.48 174.33 C0.48 175.21 0.48 176.1 0.47 177.01 C0.46 181.46 0.44 185.9 0.42 190.35 C0.29 227.23 0.15 264.12 0 301 C-0.33 301 -0.66 301 -1 301 C-1.02 262.8 -1.04 224.6 -1.05 186.4 C-1.05 181.89 -1.05 177.39 -1.05 172.88 C-1.06 171.98 -1.06 171.09 -1.06 170.16 C-1.06 155.62 -1.07 141.08 -1.08 126.54 C-1.09 111.63 -1.09 96.71 -1.09 81.8 C-1.1 72.6 -1.1 63.39 -1.11 54.18 C-1.11 47.87 -1.11 41.57 -1.11 35.26 C-1.11 31.62 -1.11 27.98 -1.12 24.33 C-1.12 20.39 -1.12 16.45 -1.12 12.51 C-1.12 11.35 -1.13 10.18 -1.13 8.98 C-1.13 7.93 -1.13 6.89 -1.12 5.81 C-1.12 4.9 -1.12 3.99 -1.12 3.05 C-1 1 -1 1 0 0 Z " fill="#EEFBFE" transform="translate(376,378)"/>
<path d="M0 0 C0.66 0 1.32 0 2 0 C2 43.56 2 87.12 2 132 C1.01 132 0.02 132 -1 132 C-1.03 114.46 -0.96 96.93 -0.78 79.39 C-0.76 77.08 -0.74 74.76 -0.71 72.45 C-0.66 66.46 -0.6 60.46 -0.54 54.47 C-0.48 48.32 -0.42 42.16 -0.36 36.01 C-0.24 24 -0.12 12 0 0 Z " fill="#1C46AB" transform="translate(424,438)"/>
<path d="M0 0 C0.33 0.66 0.66 1.32 1 2 C43.57 2 86.14 2 130 2 C130 2.33 130 2.66 130 3 C115.81 3.33 101.62 3.66 87 4 C87 4.33 87 4.66 87 5 C57.32 5.12 27.67 5.06 -2 4 C-1.34 2.68 -0.68 1.36 0 0 Z " fill="#587DCC" transform="translate(429,626)"/>
<path d="M0 0 C0 0.33 0 0.66 0 1 C2.64 1.33 5.28 1.66 8 2 C8 2.33 8 2.66 8 3 C-26.65 3 -61.3 3 -97 3 C-94.37 0.37 -93.17 0.73 -89.5 0.68 C-87.76 0.65 -87.76 0.65 -85.99 0.62 C-84.09 0.6 -84.09 0.6 -82.15 0.59 C-80.84 0.57 -79.53 0.55 -78.18 0.53 C-74.64 0.48 -71.1 0.44 -67.56 0.4 C-64.66 0.37 -61.76 0.33 -58.85 0.29 C-39.24 0.03 -19.62 -0.16 0 0 Z " fill="#1740A8" transform="translate(555,675)"/>
<path d="M0 0 C0 0.66 0 1.32 0 2 C-4.38 5 -4.38 5 -7 5 C-7 5.66 -7 6.32 -7 7 C-7.53 7.24 -8.06 7.48 -8.61 7.73 C-11.92 9.3 -14.58 10.58 -17.19 13.19 C-19.39 15.39 -20.96 15.66 -24 16 C-24 16.66 -24 17.32 -24 18 C-24.72 18.23 -25.44 18.45 -26.19 18.69 C-29.58 20.27 -31.38 22.32 -34 25 C-38.75 28.88 -43.84 32.26 -48.96 35.62 C-51.17 37.07 -51.17 37.07 -53.75 39.25 C-56 41 -56 41 -58.75 42.06 C-59.49 42.37 -60.24 42.68 -61 43 C-61.33 43.99 -61.66 44.98 -62 46 C-62.66 46 -63.32 46 -64 46 C-63.92 47.11 -63.83 48.22 -63.75 49.36 C-63.64 50.82 -63.54 52.29 -63.44 53.75 C-63.38 54.48 -63.33 55.21 -63.27 55.96 C-63.02 59.55 -63 62.55 -64 66 C-63.34 66.33 -62.68 66.66 -62 67 C-62.66 67 -63.32 67 -64 67 C-64 68.65 -64 70.3 -64 72 C-64.33 72 -64.66 72 -65 72 C-65.27 67.88 -65.47 63.75 -65.6 59.62 C-65.66 58.22 -65.73 56.82 -65.83 55.42 C-66.6 43.91 -66.6 43.91 -62.93 39.53 C-60.06 37.42 -57.13 35.71 -54 34 C-52.01 32.69 -50.02 31.37 -48.05 30.03 C-45.95 28.66 -43.85 27.3 -41.75 25.94 C-40.62 25.21 -39.5 24.47 -38.37 23.74 C-36.07 22.24 -33.76 20.74 -31.45 19.24 C-27 16.35 -22.56 13.45 -18.12 10.55 C-14.42 8.15 -10.73 5.74 -7.04 3.33 C-1.94 0 -1.94 0 0 0 Z " fill="#1A3A95" transform="translate(491,529)"/>
<path d="M0 0 C44.55 0 89.1 0 135 0 C135 0.33 135 0.66 135 1 C134.13 1.02 134.13 1.02 133.24 1.03 C96.45 1.68 96.45 1.68 59.66 2.44 C57.87 2.48 56.07 2.52 54.28 2.55 C44.48 2.76 34.76 3.1 25 4 C25 3.34 25 2.68 25 2 C16.75 1.67 8.5 1.34 0 1 C0 0.67 0 0.34 0 0 Z " fill="#163FA2" transform="translate(427,331)"/>
<path d="M0 0 C-1.27 3.81 -2.65 4.13 -5.99 6.23 C-9.24 8.79 -10.78 10.22 -11.93 14.23 C-12.27 18.29 -12.3 22.25 -12.23 26.32 C-12.23 27.87 -12.25 29.42 -12.26 30.96 C-12.29 35.15 -12.26 39.33 -12.22 43.51 C-12.18 47.89 -12.2 52.27 -12.22 56.65 C-12.24 64.93 -12.21 73.22 -12.17 81.5 C-12.11 90.94 -12.12 100.37 -12.13 109.8 C-12.15 129.2 -12.1 148.6 -12 168 C-12.33 168 -12.66 168 -13 168 C-13.23 147.57 -13.41 127.14 -13.52 106.72 C-13.57 97.23 -13.64 87.74 -13.75 78.26 C-13.85 69.99 -13.92 61.72 -13.94 53.45 C-13.95 49.07 -13.98 44.7 -14.06 40.32 C-14.13 36.19 -14.15 32.07 -14.13 27.94 C-14.13 26.43 -14.15 24.93 -14.19 23.42 C-14.34 17.29 -14.41 12.04 -10.8 6.81 C-4.24 0 -4.24 0 0 0 Z " fill="#2159D1" transform="translate(391,372)"/>
<path d="M0 0 C0.59 0.22 1.18 0.45 1.8 0.67 C0.26 4.31 -1.93 6.66 -4.7 9.44 C-6.04 10.77 -6.04 10.77 -7.39 12.14 C-8.32 13.06 -9.25 13.98 -10.2 14.92 C-11.13 15.86 -12.06 16.8 -13.02 17.76 C-13.9 18.64 -14.79 19.53 -15.7 20.44 C-16.52 21.25 -17.33 22.06 -18.17 22.9 C-20.2 24.67 -20.2 24.67 -22.2 24.67 C-22.45 25.25 -22.7 25.83 -22.95 26.42 C-25.5 31 -28.4 32.87 -33.2 34.67 C-34.57 35.63 -35.91 36.62 -37.2 37.67 C-35.71 34.13 -33.66 31.95 -30.89 29.3 C-28.29 26.76 -25.75 24.25 -23.45 21.42 C-21.18 18.64 -18.75 16.21 -16.2 13.67 C-15.07 12.48 -13.93 11.29 -12.79 10.09 C-11.58 8.83 -10.36 7.56 -9.14 6.3 C-8.22 5.32 -8.22 5.32 -7.29 4.32 C-6.69 3.71 -6.1 3.09 -5.48 2.46 C-4.95 1.9 -4.41 1.34 -3.86 0.77 C-2.2 -0.33 -2.2 -0.33 0 0 Z " fill="#2B60C4" transform="translate(420.204833984375,339.32568359375)"/>
<path d="M0 0 C1.2 0.07 1.2 0.07 2.42 0.15 C3.66 0.23 3.66 0.23 4.92 0.32 C5.76 0.37 6.6 0.42 7.47 0.47 C9.54 0.6 11.6 0.74 13.67 0.88 C13.67 1.21 13.67 1.54 13.67 1.88 C20.6 2.21 27.53 2.54 34.67 2.88 C34.67 3.21 34.67 3.54 34.67 3.88 C8.93 3.88 -16.81 3.88 -43.33 3.88 C-43.33 3.55 -43.33 3.22 -43.33 2.88 C-41.35 2.55 -39.37 2.22 -37.33 1.88 C-37.33 1.55 -37.33 1.22 -37.33 0.88 C-36.47 0.88 -35.61 0.89 -34.73 0.89 C-31.54 0.91 -28.35 0.92 -25.16 0.93 C-23.78 0.94 -22.4 0.95 -21.02 0.95 C-19.03 0.97 -17.05 0.97 -15.06 0.98 C-13.87 0.98 -12.67 0.99 -11.44 0.99 C-7.47 0.85 -4 -0.26 0 0 Z " fill="#1F57C6" transform="translate(423.328125,674.12109375)"/>
<path d="M0 0 C1.35 -0.06 2.71 -0.09 4.06 -0.12 C4.82 -0.15 5.57 -0.17 6.35 -0.2 C9 0 9 0 11.99 0.99 C16.9 2.43 21.8 2.31 26.89 2.32 C27.97 2.33 29.04 2.34 30.15 2.35 C33.68 2.38 37.21 2.4 40.75 2.41 C43.2 2.43 45.66 2.45 48.11 2.47 C54.57 2.52 61.02 2.56 67.47 2.6 C74.06 2.64 80.65 2.69 87.24 2.74 C100.16 2.84 113.08 2.92 126 3 C126 3.33 126 3.66 126 4 C84.42 4 42.84 4 0 4 C0 2.68 0 1.36 0 0 Z " fill="#19409A" transform="translate(427,376)"/>
<path d="M0 0 C0 0.99 0 1.98 0 3 C-0.49 3.44 -0.97 3.88 -1.48 4.33 C-3.67 6.74 -3.38 8.49 -3.4 11.71 C-3.41 12.9 -3.42 14.09 -3.44 15.32 C-3.44 16.63 -3.43 17.94 -3.43 19.28 C-3.44 20.67 -3.45 22.06 -3.46 23.45 C-3.49 27.23 -3.5 31 -3.51 34.78 C-3.52 38.72 -3.54 42.66 -3.57 46.61 C-3.61 54.08 -3.64 61.55 -3.66 69.02 C-3.69 77.52 -3.73 86.02 -3.78 94.52 C-3.87 112.02 -3.94 129.51 -4 147 C-4.33 147 -4.66 147 -5 147 C-5.12 128.57 -5.2 110.14 -5.26 91.72 C-5.28 83.16 -5.32 74.6 -5.38 66.05 C-5.43 58.59 -5.46 51.13 -5.47 43.67 C-5.48 39.72 -5.49 35.78 -5.53 31.83 C-5.56 28.11 -5.57 24.39 -5.57 20.67 C-5.57 18.66 -5.59 16.65 -5.62 14.63 C-5.57 4.79 -5.57 4.79 -2.46 1.65 C-1.24 0.83 -1.24 0.83 0 0 Z " fill="#1B47A7" transform="translate(382,376)"/>
<path d="M0 0 C23.78 0.86 44.78 12.72 60.99 29.63 C64.96 33.94 68.56 38.64 71 44 C70.5 44.99 70.5 44.99 70 46 C69.39 45.11 68.79 44.21 68.16 43.29 C59.73 30.43 59.73 30.43 48 21 C48 20.34 48 19.68 48 19 C45.18 17.76 42.89 16.99 39.81 16.62 C38.88 16.42 37.96 16.21 37 16 C36.71 15.37 36.43 14.74 36.13 14.09 C34.6 11.26 33.11 10.93 30.12 9.88 C25.14 8.07 25.14 8.07 23.14 7 C20.83 5.92 18.78 5.45 16.27 5 C15.38 4.83 14.5 4.67 13.59 4.5 C11.73 4.16 9.86 3.83 8 3.5 C7.12 3.33 6.24 3.17 5.33 3 C4.52 2.86 3.72 2.71 2.89 2.56 C2.26 2.38 1.64 2.19 1 2 C0.67 1.34 0.34 0.68 0 0 Z " fill="#305EB2" transform="translate(562,331)"/>
<path d="M0 0 C31.68 0 63.36 0 96 0 C96 0.66 96 1.32 96 2 C91.69 2.99 87.4 3.35 83 3.62 C82.3 3.68 81.6 3.73 80.88 3.78 C77.07 4.03 73.7 3.97 70 3 C70 2.67 70 2.34 70 2 C46.9 1.67 23.8 1.34 0 1 C0 0.67 0 0.34 0 0 Z " fill="#123899" transform="translate(466,629)"/>
<path d="M0 0 C1.55 4.05 0.58 7.88 -0.19 12 C-0.32 12.75 -0.46 13.5 -0.6 14.27 C-1.82 20.72 -3.67 26.86 -6 33 C-6.66 33 -7.32 33 -8 33 C-8 30.69 -8 28.38 -8 26 C-7.34 26 -6.68 26 -6 26 C-6 23.69 -6 21.38 -6 19 C-6.42 19.42 -6.85 19.84 -7.29 20.28 C-11.52 24.23 -14.19 25.76 -20 26 C-17.48 23.38 -14.84 21.02 -12.06 18.69 C-5.82 13.23 -2.61 7.83 0 0 Z " fill="#1C347A" transform="translate(599,598)"/>
<path d="M0 0 C-1.32 4.17 -2.71 5.92 -6.37 8.27 C-7.69 9.13 -7.69 9.13 -9.03 10.01 C-9.97 10.61 -10.91 11.2 -11.88 11.81 C-13.79 13.05 -15.71 14.29 -17.62 15.53 C-19.01 16.42 -19.01 16.42 -20.43 17.33 C-22.6 18.74 -24.73 20.19 -26.85 21.69 C-27.87 22.41 -28.89 23.13 -29.94 23.88 C-31.22 24.8 -31.22 24.8 -32.53 25.74 C-35.52 27.27 -37.68 27.24 -41 27 C-41 27.66 -41 28.32 -41 29 C-41.99 28.67 -42.98 28.34 -44 28 C-42.63 25.27 -41.06 24.91 -38.31 23.62 C-34.3 21.68 -30.66 19.55 -27 17 C-22.29 14 -22.29 14 -20 14 C-20 13.34 -20 12.68 -20 12 C-18.09 10.7 -18.09 10.7 -15.5 9.25 C-11.26 6.81 -7.41 4.15 -3.59 1.1 C-2 0 -2 0 0 0 Z " fill="#1B3E9C" transform="translate(509,571)"/>
<path d="M0 0 C0.5 0.99 0.5 0.99 1 2 C-0.26 4.53 -1.27 4.73 -3.81 5.88 C-6.41 7.12 -8 8 -10.06 10.06 C-11.99 11.99 -13.21 12.63 -15.69 13.62 C-19.08 14.61 -19.08 14.61 -20 17 C-20.99 17 -21.98 17 -23 17 C-23 17.66 -23 18.32 -23 19 C-23.99 19 -24.98 19 -26 19 C-26.5 20.49 -26.5 20.49 -27 22 C-28.33 22.34 -29.66 22.68 -31 23 C-31.66 23.99 -32.32 24.98 -33 26 C-35 26.67 -37 27.33 -39 28 C-39.66 28.99 -40.32 29.98 -41 31 C-44.29 32.55 -47.55 33.85 -51 35 C-51 35.66 -51 36.32 -51 37 C-52.13 37.54 -53.27 38.07 -54.44 38.62 C-59.24 41.01 -63.6 43.95 -68 47 C-68.66 46.67 -69.32 46.34 -70 46 C-66.79 43.85 -63.58 41.71 -60.38 39.56 C-59.49 38.97 -58.61 38.38 -57.7 37.77 C-51.99 33.95 -46.24 30.21 -40.45 26.51 C-34.24 22.52 -28.06 18.47 -21.88 14.42 C-19.97 13.17 -18.06 11.92 -16.15 10.67 C-10.76 7.13 -5.37 3.58 0 0 Z " fill="#294A9D" transform="translate(561,482)"/>
<path d="M0 0 C0.66 1.32 1.32 2.64 2 4 C1.07 4.6 0.15 5.19 -0.8 5.81 C-14.24 14.48 -27.62 23.24 -41 32 C-41.33 31.34 -41.66 30.68 -42 30 C-42.66 29.67 -43.32 29.34 -44 29 C-43.51 28.74 -43.02 28.49 -42.51 28.22 C-35.14 24.26 -28.25 19.61 -21.31 14.94 C-20.1 14.13 -18.89 13.32 -17.69 12.51 C-15.46 11.01 -13.24 9.52 -11.02 8.03 C-10.02 7.36 -9.03 6.69 -8 6 C-6.92 5.25 -5.85 4.51 -4.74 3.74 C-2 2 -2 2 0 2 C0 1.34 0 0.68 0 0 Z " fill="#D0E8F9" transform="translate(570,472)"/>
<path d="M0 0 C0.33 0 0.66 0 1 0 C1 46.53 1 93.06 1 141 C0.67 141 0.34 141 0 141 C0 94.47 0 47.94 0 0 Z " fill="#4567B2" transform="translate(376,382)"/>
<path d="M0 0 C-7.18 5.15 -14.54 9.92 -22.06 14.56 C-29.12 18.93 -36.13 23.34 -43 28 C-43.33 27.34 -43.66 26.68 -44 26 C-42.15 21.31 -39.26 19.77 -34.94 17.7 C-33 17 -33 17 -30 17 C-29.67 16.01 -29.34 15.02 -29 14 C-26.4 12.35 -25.14 12 -22 12 C-21.34 10.68 -20.68 9.36 -20 8 C-18.68 8 -17.36 8 -16 8 C-16 7.34 -16 6.68 -16 6 C-15.2 5.88 -14.39 5.75 -13.56 5.62 C-12.72 5.42 -11.87 5.21 -11 5 C-10.67 4.34 -10.34 3.68 -10 3 C-9.01 3 -8.02 3 -7 3 C-6.67 2.01 -6.34 1.02 -6 0 C-3.43 -1 -2.51 -1.26 0 0 Z " fill="#2145A2" transform="translate(552,547)"/>
<path d="M0 0 C4.84 0.45 7.5 1.6 11 5 C11 5.66 11 6.32 11 7 C9.21 8.37 7.34 9.64 5.45 10.88 C4.89 11.25 4.32 11.62 3.73 12.01 C2.53 12.79 1.32 13.58 0.11 14.36 C-1.73 15.55 -3.57 16.76 -5.41 17.97 C-6.58 18.73 -7.75 19.49 -8.92 20.25 C-9.99 20.95 -11.06 21.64 -12.16 22.36 C-14.55 23.74 -16.3 24.56 -19 25 C-16.99 18.79 -13.13 16.96 -7.56 14 C-4.75 12.5 -1.99 10.99 0.72 9.31 C3 8 3 8 5 8 C4.81 6.05 4.81 6.05 4 4 C2.02 2.72 2.02 2.72 0 2 C0 1.34 0 0.68 0 0 Z " fill="#1C3B8B" transform="translate(559,467)"/>
<path d="M0 0 C1.95 -0.02 3.9 -0.04 5.84 -0.07 C17.07 -0.24 26.79 -0.06 37.32 4.29 C37.32 4.62 37.32 4.95 37.32 5.29 C24.65 5.47 24.65 5.47 19.32 4.29 C19.32 3.96 19.32 3.63 19.32 3.29 C-1.14 2.96 -21.6 2.63 -42.68 2.29 C-42.68 1.96 -42.68 1.63 -42.68 1.29 C-28.47 0.39 -14.24 0.1 0 0 Z " fill="#245BD0" transform="translate(530.6788330078125,376.712890625)"/>
<path d="M0 0 C2 3 2 3 1.68 5.2 C0.11 10.05 -1.63 14.57 -4.04 19.07 C-5.01 21.02 -5.66 22.93 -6.31 25 C-7.8 29.18 -10.33 31.97 -13.38 35.14 C-15.08 36.92 -15.08 36.92 -16.02 39.09 C-17.56 42.08 -20.19 43.29 -23 45 C-23.66 44.67 -24.32 44.34 -25 44 C-23.07 40.58 -21.03 37.82 -18.31 35 C-9.38 25.08 -2.97 13.04 0 0 Z " fill="#2554B6" transform="translate(599,620)"/>
<path d="M0 0 C3.61 0.66 6.2 2.19 9.29 4.13 C10.31 4.77 11.34 5.42 12.39 6.08 C13.99 7.09 13.99 7.09 15.62 8.12 C16.67 8.78 17.71 9.43 18.79 10.1 C33.92 19.62 33.92 19.62 38 23 C38 23.66 38 24.32 38 25 C31.74 24.09 28.24 23.01 24 18 C23.34 17.67 22.68 17.34 22 17 C22 16.34 22 15.68 22 15 C19.69 14.34 17.38 13.68 15 13 C15 12.34 15 11.68 15 11 C14.27 10.73 13.55 10.46 12.8 10.18 C10.06 9.02 7.73 7.7 5.25 6.06 C4.47 5.56 3.69 5.05 2.89 4.54 C1 3 1 3 0 0 Z " fill="#1B3B91" transform="translate(427,382)"/>
<path d="M0 0 C0.33 0.99 0.66 1.98 1 3 C1.66 3.33 2.32 3.66 3 4 C-6.24 22.25 -6.24 22.25 -13 30 C-13.82 31.02 -13.82 31.02 -14.66 32.05 C-18.59 36.86 -18.59 36.86 -22 38 C-21.69 35.62 -21.69 35.62 -21 33 C-20.01 32.34 -19.02 31.68 -18 31 C-16.81 28.95 -16.81 28.95 -16 27 C-15.34 27 -14.68 27 -14 27 C-13.77 26.48 -13.55 25.97 -13.31 25.44 C-12 23 -12 23 -9.66 19.88 C-6.87 16 -5.01 11.96 -3.19 7.56 C-2.88 6.83 -2.56 6.1 -2.24 5.35 C-1.49 3.57 -0.74 1.78 0 0 Z " fill="#173891" transform="translate(590,628)"/>
<path d="M0 0 C0.59 0.38 1.17 0.76 1.77 1.14 C7.68 4.93 13.63 8.61 19.62 12.25 C25.9 16.07 32.13 19.96 38.31 23.94 C39.01 24.39 39.71 24.83 40.43 25.3 C44.12 27.69 47.62 30.18 51 33 C47.44 32.39 44.32 31.42 41 30 C41 29.34 41 28.68 41 28 C40.01 28 39.02 28 38 28 C38 27.34 38 26.68 38 26 C37.01 26 36.02 26 35 26 C33.66 24.68 32.32 23.34 31 22 C29.12 20.85 27.2 19.77 25.25 18.75 C24.27 18.23 23.28 17.71 22.27 17.17 C21.52 16.79 20.77 16.4 20 16 C20 15.34 20 14.68 20 14 C19.26 13.88 18.51 13.75 17.75 13.62 C15.17 13.04 13.25 12.37 11 11 C10.67 10.34 10.34 9.68 10 9 C8.01 7.9 5.98 6.87 3.94 5.88 C2.28 5.07 2.28 5.07 0.59 4.24 C-0.26 3.83 -1.12 3.42 -2 3 C-1.34 2.67 -0.68 2.34 0 2 C0 1.34 0 0.68 0 0 Z " fill="#264EA8" transform="translate(465,405)"/>
<path d="M0 0 C0.33 0 0.66 0 1 0 C2.07 26.33 -3.76 55.74 -22 76 C-22.33 76 -22.66 76 -23 76 C-23.31 73.75 -23.31 73.75 -23 71 C-22.25 70.45 -21.51 69.9 -20.74 69.33 C-17.21 66.33 -15.74 63.15 -13.81 59 C-13.47 58.29 -13.13 57.58 -12.78 56.84 C-12.12 55.48 -11.47 54.12 -10.83 52.75 C-10.18 51.39 -9.49 50.04 -8.79 48.71 C-7.81 46.81 -7.81 46.81 -7.56 43.69 C-7.05 40.34 -6.1 37.91 -4.75 34.85 C-0.36 24.04 -0.38 11.5 0 0 Z " fill="#264A9F" transform="translate(644,418)"/>
<path d="M0 0 C2.15 3.23 2.2 4.28 2 8 C1.34 8 0.68 8 0 8 C-0.1 9.05 -0.21 10.1 -0.31 11.19 C-0.99 14.96 -1.93 16.86 -4 20 C-4.33 20.89 -4.66 21.77 -5 22.69 C-6 25 -6 25 -9 27 C-10.1 28.69 -10.1 28.69 -11 30.56 C-13 34 -13 34 -16 35 C-16.28 35.61 -16.56 36.23 -16.84 36.86 C-18.46 39.86 -20.5 40.65 -23.5 42.19 C-24.48 42.7 -25.46 43.21 -26.47 43.73 C-27.98 44.49 -29.49 45.24 -31 46 C-29.77 42.3 -28.59 41.83 -25.38 39.75 C-11.3 30.14 -3.66 16.48 0 0 Z " fill="#224296" transform="translate(593,438)"/>
<path d="M0 0 C1.82 -0 3.65 -0.01 5.47 -0.01 C9.24 -0.02 13.01 -0.02 16.78 -0.02 C21.61 -0.02 26.44 -0.03 31.27 -0.05 C35.02 -0.06 38.76 -0.06 42.5 -0.06 C44.28 -0.06 46.07 -0.07 47.85 -0.07 C50.32 -0.08 52.8 -0.08 55.28 -0.07 C56.01 -0.08 56.74 -0.09 57.49 -0.09 C61.48 -0.07 63.34 0.32 67.03 2.17 C31.72 2.17 -3.59 2.17 -39.97 2.17 C-39.97 1.84 -39.97 1.51 -39.97 1.17 C-26.64 0.4 -13.35 0.01 0 0 Z " fill="#EAF8FD" transform="translate(498.96875,625.83203125)"/>
<path d="M0 0 C7.3 -0.05 14.59 -0.09 21.89 -0.11 C24.37 -0.12 26.85 -0.13 29.33 -0.15 C32.9 -0.18 36.47 -0.19 40.04 -0.2 C41.15 -0.21 42.25 -0.22 43.39 -0.23 C48.65 -0.23 53.09 -0.15 58 2 C58 2.33 58 2.66 58 3 C51.3 3.1 44.68 3.02 38 2.5 C25.36 1.62 12.66 1.92 0 2 C0 1.34 0 0.68 0 0 Z " fill="#EBF8FD" transform="translate(504,381)"/>
<path d="M0 0 C3.81 1.55 6.25 4.04 9 7 C9.59 7.59 10.18 8.19 10.78 8.8 C20.91 19.48 29.93 34.31 32 49 C28.99 47.5 28.86 45.31 27.75 42.19 C24.12 32.51 20.12 23.78 13.42 15.84 C12 14 12 14 11 11 C9.35 10.67 7.7 10.34 6 10 C6 9.34 6 8.68 6 8 C5.34 8 4.68 8 4 8 C4 7.34 4 6.68 4 6 C3.34 6 2.68 6 2 6 C2 5.01 2 4.02 2 3 C0.35 3.66 -1.3 4.32 -3 5 C-2.67 4.01 -2.34 3.02 -2 2 C-1.34 2 -0.68 2 0 2 C0 1.34 0 0.68 0 0 Z " fill="#22408F" transform="translate(612,503)"/>
<path d="M0 0 C0.66 0.33 1.32 0.66 2 1 C2 1.66 2 2.32 2 3 C2.66 3.25 3.32 3.5 4 3.75 C22.35 11.4 22.35 11.4 26 19 C29.03 21.24 29.03 21.24 32 23 C31.01 23.5 31.01 23.5 30 24 C27.57 22.71 27.57 22.71 24.55 20.74 C23.45 20.03 22.36 19.32 21.23 18.6 C20.07 17.83 18.91 17.07 17.75 16.31 C16.61 15.57 15.46 14.83 14.32 14.09 C11.2 12.07 8.1 10.04 5 8 C3.91 7.32 2.81 6.64 1.69 5.94 C-1 4 -1 4 -2 1 C-1.34 0.67 -0.68 0.34 0 0 Z " fill="#2857B8" transform="translate(465,458)"/>
<path d="M0 0 C7.67 -0.05 15.34 -0.09 23 -0.11 C25.61 -0.12 28.22 -0.13 30.82 -0.15 C34.58 -0.18 38.33 -0.19 42.09 -0.2 C43.25 -0.21 44.4 -0.22 45.59 -0.23 C52.06 -0.23 57.75 0.33 64 2 C63.34 2.66 62.68 3.32 62 4 C60.17 3.76 60.17 3.76 57.75 3.12 C45.1 0.54 31.48 1.66 18.69 2.84 C14.7 3.08 10.93 2.63 7 2 C5.65 1.81 4.29 1.62 2.94 1.44 C1.97 1.29 1 1.15 0 1 C0 0.67 0 0.34 0 0 Z " fill="#1E59D5" transform="translate(508,332)"/>
<path d="M0 0 C2.31 -0.19 2.31 -0.19 5 0 C6.62 1.44 6.62 1.44 8 3 C8.99 3.33 9.98 3.66 11 4 C11 4.66 11 5.32 11 6 C11.72 6.27 12.44 6.54 13.19 6.81 C16 8 16 8 18.56 9.56 C20.78 10.87 22.49 11.54 25 12 C25 13.32 25 14.64 25 16 C26.05 16.23 27.1 16.45 28.19 16.69 C32.16 17.79 34.3 19.89 37 23 C36.01 23.5 36.01 23.5 35 24 C32.93 22.94 32.93 22.94 30.38 21.28 C29.44 20.68 28.51 20.07 27.54 19.45 C26.56 18.81 25.58 18.16 24.56 17.5 C23.61 16.89 22.67 16.27 21.69 15.64 C19.77 14.4 17.85 13.15 15.93 11.89 C13.93 10.6 11.92 9.33 9.89 8.07 C8.91 7.46 7.92 6.85 6.9 6.22 C6.01 5.67 5.12 5.12 4.2 4.56 C2 3 2 3 0 0 Z " fill="#224AA7" transform="translate(427,437)"/>
<path d="M0 0 C6.96 3.56 13.47 7.56 19.92 11.95 C25.94 16.02 32.13 19.79 38.36 23.51 C39.1 23.95 39.83 24.39 40.59 24.85 C41.25 25.24 41.91 25.63 42.59 26.04 C43.05 26.35 43.52 26.67 44 27 C44 27.33 44 27.66 44 28 C42.02 28 40.04 28 38 28 C38 27.34 38 26.68 38 26 C36.02 25.67 34.04 25.34 32 25 C32 24.34 32 23.68 32 23 C31.05 22.75 30.1 22.5 29.12 22.25 C26 21 26 21 25.21 19.16 C23.43 15.99 20.61 14.82 17.5 13.19 C5.26 6.48 5.26 6.48 0 2 C0 1.34 0 0.68 0 0 Z " fill="#24469B" transform="translate(518,439)"/>
<path d="M0 0 C0.99 0.33 1.98 0.66 3 1 C1.21 14.98 -9.96 26.8 -19 37 C-19.66 36.67 -20.32 36.34 -21 36 C-20.52 35.44 -20.03 34.88 -19.53 34.3 C-10.85 23.92 -4.81 12.61 0 0 Z " fill="#BDD9F4" transform="translate(594,626)"/>
<path d="M0 0 C0.66 0.33 1.32 0.66 2 1 C-4.41 13.94 -11.23 26.1 -22 36 C-22.66 36 -23.32 36 -24 36 C-24.5 34.51 -24.5 34.51 -25 33 C-23.69 31.5 -23.69 31.5 -22 30 C-21.01 30 -20.02 30 -19 30 C-19.33 29.01 -19.66 28.02 -20 27 C-18.68 27 -17.36 27 -16 27 C-16 26.34 -16 25.68 -16 25 C-15.01 24.34 -14.02 23.68 -13 23 C-12.27 20.44 -12.27 20.44 -12 18 C-11.01 18 -10.02 18 -9 18 C-8.67 16.68 -8.34 15.36 -8 14 C-7.34 14 -6.68 14 -6 14 C-5.34 11.03 -4.68 8.06 -4 5 C-3.34 5 -2.68 5 -2 5 C-1.34 3.35 -0.68 1.7 0 0 Z " fill="#375EB1" transform="translate(639,616)"/>
<path d="M0 0 C-0.33 0.99 -0.66 1.98 -1 3 C-1.99 3 -2.98 3 -4 3 C-4 3.66 -4 4.32 -4 5 C-4.66 5 -5.32 5 -6 5 C-6.39 5.91 -6.39 5.91 -6.79 6.84 C-8.78 10.4 -12.02 12.11 -15.38 14.31 C-16.38 15.01 -16.38 15.01 -17.41 15.73 C-18.07 16.16 -18.72 16.6 -19.4 17.05 C-20.29 17.65 -20.29 17.65 -21.2 18.26 C-23 19 -23 19 -27 18 C-26.34 15.36 -25.68 12.72 -25 10 C-24.01 11.49 -24.01 11.49 -23 13 C-23.33 13.66 -23.66 14.32 -24 15 C-23.5 14.42 -23.01 13.85 -22.5 13.25 C-19.18 10.26 -14.63 7 -10 7 C-10 6.34 -10 5.68 -10 5 C-8.32 3.71 -8.32 3.71 -6.12 2.38 C-5.41 1.93 -4.69 1.48 -3.95 1.02 C-2 0 -2 0 0 0 Z " fill="#14348E" transform="translate(451,609)"/>
<path d="M0 0 C0.33 0 0.66 0 1 0 C1.68 14.81 0.1 27.75 -4 42 C-4.99 42 -5.98 42 -7 42 C-6.33 36.29 -5.46 30.65 -4.44 25 C-4.3 24.23 -4.16 23.45 -4.02 22.65 C-3.68 20.77 -3.34 18.88 -3 17 C-2.34 17.66 -1.68 18.32 -1 19 C-0.67 12.73 -0.34 6.46 0 0 Z " fill="#C5DEF5" transform="translate(602,585)"/>
<path d="M0 0 C0.99 0.33 1.98 0.66 3 1 C-9.39 6.65 -20.35 10.04 -34 8 C-31.33 6.67 -28.67 5.33 -26 4 C-26 4.66 -26 5.32 -26 6 C-25.36 5.81 -24.71 5.61 -24.05 5.41 C-17.62 3.56 -11.28 2.33 -4.65 1.43 C-2.03 1.14 -2.03 1.14 0 0 Z " fill="#2F5ABD" transform="translate(588,669)"/>
<path d="M0 0 C2.35 0.6 4.69 1.27 7 2 C7.33 2.66 7.66 3.32 8 4 C9.64 4.72 11.31 5.39 13 6 C13 6.66 13 7.32 13 8 C13.82 8.21 14.65 8.41 15.5 8.62 C18.77 9.91 20.29 11.01 22.88 13.25 C25.73 15.53 25.73 15.53 29.25 16.02 C31.72 15.5 31.72 15.5 35 14 C35.33 13.34 35.66 12.68 36 12 C38.38 10.31 38.38 10.31 41 9 C41.99 9.33 42.98 9.66 44 10 C42.35 11.35 40.68 12.68 39 14 C38.45 14.47 37.89 14.93 37.32 15.41 C36.45 16.11 36.45 16.11 35.56 16.81 C35.03 17.25 34.49 17.69 33.94 18.14 C30.9 19.49 29.18 18.93 26 18 C23.1 16.46 20.4 14.66 17.69 12.81 C16.94 12.32 16.19 11.82 15.42 11.31 C13.94 10.32 12.47 9.33 11 8.34 C8.5 6.66 5.96 5.02 3.44 3.38 C2.27 2.61 1.12 1.83 0 1 C0 0.67 0 0.34 0 0 Z " fill="#2A4A97" transform="translate(497,482)"/>
<path d="M0 0 C1.32 0.33 2.64 0.66 4 1 C-4.58 6.61 -13.16 12.22 -22 18 C-22.33 17.34 -22.66 16.68 -23 16 C-22.34 16 -21.68 16 -21 16 C-21 15.34 -21 14.68 -21 14 C-20.01 13.67 -19.02 13.34 -18 13 C-17.86 12.38 -17.71 11.76 -17.56 11.12 C-16.8 8.24 -15.53 7.49 -13 6 C-12.01 6 -11.02 6 -10 6 C-10 5.34 -10 4.68 -10 4 C-6.6 1.91 -3.95 1.82 0 2 C0 1.34 0 0.68 0 0 Z " fill="#1A3888" transform="translate(468,598)"/>
<path d="M0 0 C0 0.66 0 1.32 0 2 C-2.79 4.7 -5.57 6.31 -9.12 7.75 C-14.03 9.82 -17.97 12.78 -22.21 15.96 C-24.92 17.94 -27.66 19.79 -30.5 21.56 C-31.29 22.06 -32.09 22.56 -32.91 23.07 C-35 24 -35 24 -38 23 C-36.57 21.99 -35.13 20.99 -33.69 20 C-32.89 19.44 -32.09 18.89 -31.26 18.31 C-29 17 -29 17 -26 17 C-26 16.34 -26 15.68 -26 15 C-21.62 12 -21.62 12 -19 12 C-19 11.34 -19 10.68 -19 10 C-16.76 8.39 -14.53 6.9 -12.19 5.44 C-11.22 4.82 -11.22 4.82 -10.24 4.19 C-3.62 0 -3.62 0 0 0 Z " fill="#1642BB" transform="translate(510,519)"/>
<path d="M0 0 C0.85 2.94 1.14 5.57 1.12 8.62 C1.13 9.4 1.13 10.18 1.13 10.98 C1 13 1 13 0 15 C0.66 15 1.32 15 2 15 C1.84 16.17 1.67 17.35 1.5 18.56 C0.75 25.38 0.89 32.21 0.94 39.06 C0.94 40.42 0.95 41.77 0.95 43.13 C0.96 46.42 0.98 49.71 1 53 C-1.16 49.77 -1.25 48.9 -1.24 45.18 C-1.25 44.2 -1.25 43.22 -1.25 42.21 C-1.25 41.16 -1.24 40.11 -1.23 39.02 C-1.23 37.94 -1.23 36.86 -1.23 35.75 C-1.23 33.46 -1.22 31.18 -1.21 28.89 C-1.19 25.38 -1.19 21.87 -1.19 18.36 C-1.18 16.14 -1.17 13.93 -1.17 11.71 C-1.17 10.65 -1.17 9.6 -1.16 8.51 C-1.16 7.54 -1.15 6.56 -1.15 5.56 C-1.14 4.7 -1.14 3.85 -1.13 2.96 C-1 1 -1 1 0 0 Z " fill="#1944BC" transform="translate(379,539)"/>
<path d="M0 0 C0.72 0.14 1.44 0.29 2.19 0.44 C4.95 1.03 4.95 1.03 7.56 1.31 C10.66 2.19 11.85 3.65 14 6 C16.17 7.82 17.81 8.94 20.5 9.88 C26.26 12.47 28.43 18.6 31 24 C31.58 25.11 32.15 26.23 32.75 27.38 C34 30 34 30 34 32 C33.34 32 32.68 32 32 32 C31.65 31.23 31.3 30.45 30.93 29.66 C23.95 14.92 14.59 7.88 0 1 C0 0.67 0 0.34 0 0 Z " fill="#244492" transform="translate(559,381)"/>
<path d="M0 0 C13.2 0 26.4 0 40 0 C39.67 0.66 39.34 1.32 39 2 C34.4 3.13 29.9 3.06 25.2 2.88 C24.11 2.84 24.11 2.84 23 2.81 C20.71 2.73 18.42 2.65 16.12 2.56 C14.56 2.51 13 2.46 11.44 2.4 C7.62 2.28 3.81 2.14 0 2 C0 1.34 0 0.68 0 0 Z " fill="#EBF6FD" transform="translate(463,381)"/>
<path d="M0 0 C5.68 7.21 8.32 15.35 10.31 24.19 C10.48 24.94 10.66 25.68 10.83 26.45 C11.88 31.39 12.15 35.95 12 41 C11.34 40.67 10.68 40.34 10 40 C8.88 36.65 8.58 33.58 8.19 30.06 C7.17 21.72 5.03 14.05 1.25 6.5 C0 4 0 4 0 0 Z " fill="#3056A8" transform="translate(633,377)"/>
<path d="M0 0 C0.47 0.5 0.95 0.99 1.44 1.5 C2.76 3.12 2.76 3.12 4 3 C4 6.96 4 10.92 4 15 C4.66 15 5.32 15 6 15 C5.91 19.52 5.8 24.04 5.68 28.56 C5.64 30.1 5.61 31.64 5.58 33.18 C5.53 35.39 5.47 37.6 5.41 39.8 C5.4 40.49 5.39 41.18 5.38 41.89 C5.23 46.77 5.23 46.77 3 49 C3.02 48.13 3.03 47.27 3.05 46.38 C3.1 43.09 3.14 39.81 3.16 36.52 C3.18 35.12 3.2 33.71 3.23 32.3 C3.39 23.43 2.81 15.52 0.65 6.88 C0 4 0 4 0 0 Z " fill="#D5E5FA" transform="translate(641,392)"/>
<path d="M0 0 C0.99 0.33 1.98 0.66 3 1 C-4.59 8.59 -12.18 16.18 -20 24 C-20.99 23.67 -21.98 23.34 -23 23 C-19.85 18.99 -16.61 15.7 -12.7 12.44 C-9.39 9.64 -6.5 6.63 -3.81 3.25 C-2 1 -2 1 0 0 Z " fill="#E7F6FD" transform="translate(424,330)"/>
<path d="M0 0 C0.66 0.33 1.32 0.66 2 1 C0.94 2.5 0.94 2.5 -1 4 C-4.69 4.19 -4.69 4.19 -8 4 C-8.26 4.61 -8.52 5.21 -8.78 5.84 C-10.12 8.22 -11.2 9.11 -13.48 10.58 C-14.15 11.02 -14.82 11.45 -15.51 11.91 C-16.56 12.57 -16.56 12.57 -17.62 13.25 C-18.68 13.94 -18.68 13.94 -19.77 14.64 C-21.5 15.77 -23.25 16.89 -25 18 C-25.66 17.67 -26.32 17.34 -27 17 C-27 16.01 -27 15.02 -27 14 C-21.38 11 -21.38 11 -18 11 C-18 10.34 -18 9.68 -18 9 C-17.01 9 -16.02 9 -15 9 C-14.67 8.01 -14.34 7.02 -14 6 C-13.34 6 -12.68 6 -12 6 C-12 5.34 -12 4.68 -12 4 C-10.95 3.82 -10.95 3.82 -9.88 3.63 C-8.52 3.38 -8.52 3.38 -7.12 3.12 C-5.77 2.88 -5.77 2.88 -4.38 2.63 C-1.83 2.17 -1.83 2.17 0 0 Z " fill="#1C45B0" transform="translate(578,529)"/>
<path d="M0 0 C0.66 0 1.32 0 2 0 C2.5 1.49 2.5 1.49 3 3 C-17.02 20.38 -17.02 20.38 -30 21 C-30.66 20.67 -31.32 20.34 -32 20 C-26.38 17.85 -20.72 15.87 -15 14 C-14.01 13.67 -13.02 13.34 -12 13 C-12 12.34 -12 11.68 -12 11 C-11.01 11 -10.02 11 -9 11 C-9 10.34 -9 9.68 -9 9 C-8.36 8.73 -7.72 8.46 -7.06 8.19 C-4.67 7.11 -4.67 7.11 -4 4 C-3.01 4 -2.02 4 -1 4 C-0.67 2.68 -0.34 1.36 0 0 Z " fill="#4567B2" transform="translate(613,650)"/>
<path d="M0 0 C0.73 1.74 0.73 1.74 1 4 C-0.45 6.01 -0.45 6.01 -2.62 8.11 C-3.39 8.86 -4.16 9.62 -4.96 10.39 C-5.77 11.17 -6.59 11.95 -7.44 12.75 C-8.66 13.94 -8.66 13.94 -9.91 15.15 C-11.93 17.11 -13.96 19.06 -16 21 C-16.66 19.19 -16.66 19.19 -17 17 C-15.98 15.42 -15.98 15.42 -14.39 13.91 C-13.82 13.35 -13.25 12.8 -12.66 12.22 C-12.05 11.65 -11.44 11.09 -10.81 10.5 C-10.22 9.93 -9.63 9.36 -9.02 8.78 C-7.87 7.67 -6.72 6.58 -5.56 5.48 C-3.67 3.69 -1.83 1.85 0 0 Z " fill="#DAEBF9" transform="translate(394,360)"/>
<path d="M0 0 C3 1 3 1 4.31 2.55 C6.8 4.69 8.77 4.33 12 4.25 C13.58 4.23 13.58 4.23 15.19 4.2 C18.08 4.11 18.08 4.11 21 3 C21.99 3.99 22.98 4.98 24 6 C14.43 6 4.86 6 -5 6 C-3 2 -3 2 0 0 Z " fill="#E2F2FB" transform="translate(435,622)"/>
<path d="M0 0 C0.66 0.33 1.32 0.66 2 1 C2 1.66 2 2.32 2 3 C2.66 3 3.32 3 4 3 C4.66 5.31 5.32 7.62 6 10 C6.66 10 7.32 10 8 10 C11.52 16.64 12.72 22.51 13 30 C11.06 27.09 9.87 24.42 8.56 21.19 C6.86 17.03 5.05 13 3 9 C2.47 7.67 2.47 7.67 1.94 6.31 C1 3.79 1 3.79 -1 1 C-0.67 0.67 -0.34 0.34 0 0 Z " fill="#2046AC" transform="translate(588,544)"/>
<path d="M0 0 C7.2 12.94 4.96 32.89 2 47 C1.34 47.99 0.68 48.98 0 50 C0.15 48.23 0.29 46.46 0.44 44.69 C0.53 43.59 0.62 42.5 0.71 41.37 C0.97 38.35 1.26 35.33 1.56 32.31 C2.24 24.63 2.12 17.99 0.45 10.44 C-0.2 6.91 -0.13 3.58 0 0 Z " fill="#4567B2" transform="translate(644,553)"/>
<path d="M0 0 C-1.86 3.72 -6.22 4.73 -10 6 C-14.31 6.87 -18.63 7.49 -23 8 C-23 7.34 -23 6.68 -23 6 C-23.99 5.67 -24.98 5.34 -26 5 C-25.05 4.81 -24.09 4.61 -23.11 4.41 C-21.23 4.02 -21.23 4.02 -19.31 3.62 C-18.07 3.37 -16.83 3.11 -15.55 2.85 C-12.09 2.11 -12.09 2.11 -9.28 0.91 C-6.15 -0.34 -3.33 -0.13 0 0 Z " fill="#1E3E95" transform="translate(585,623)"/>
<path d="M0 0 C1.05 0.04 1.05 0.04 2.13 0.09 C4.36 0.19 6.59 0.32 8.82 0.46 C10.34 0.53 11.86 0.6 13.38 0.67 C17.09 0.84 20.8 1.05 24.51 1.27 C24.51 1.6 24.51 1.93 24.51 2.27 C20.55 2.93 16.59 3.59 12.51 4.27 C12.51 3.61 12.51 2.95 12.51 2.27 C11.73 2.43 10.94 2.6 10.14 2.77 C7.13 3.18 4.53 3.28 1.51 3.21 C-5.25 3.16 -9.38 4.77 -14.49 9.27 C-11.57 2.11 -7.62 -0.39 0 0 Z " fill="#1C42A6" transform="translate(433.48828125,330.73046875)"/>
<path d="M0 0 C4.16 -0.33 6.36 -0.41 9.94 1.88 C12 4 12 4 12 6 C12.66 6 13.32 6 14 6 C14 6.66 14 7.32 14 8 C14.99 8 15.98 8 17 8 C17.27 8.91 17.54 9.82 17.81 10.75 C18.9 13.71 19.98 15.62 22 18 C21.67 18.66 21.34 19.32 21 20 C20.29 19.12 19.57 18.24 18.84 17.33 C11.86 8.62 11.86 8.62 3 2 C2.01 2 1.02 2 0 2 C0 1.34 0 0.68 0 0 Z " fill="#1E3C90" transform="translate(570,533)"/>
</svg>
