<?xml version="1.0" encoding="UTF-8"?>
<!-- Generator: visioncortex VTracer 0.6.4 -->
<svg version="1.1" xmlns="http://www.w3.org/2000/svg" width="1024" height="1024">
<path d="M0 0 C337.92 0 675.84 0 1024 0 C1024 337.92 1024 675.84 1024 1024 C686.08 1024 348.16 1024 0 1024 C0 686.08 0 348.16 0 0 Z M374.19 263.31 C369.29 269.32 363.27 273.56 356.8 277.73 C340.88 288.3 324.42 302.63 320.09 322.06 C315.25 347.92 316.95 375.26 317.65 401.41 C317.96 413.14 318.02 424.87 318.06 436.6 C318.15 457.51 318.43 478.41 318.83 499.32 C319.22 519.6 319.52 539.87 319.69 560.15 C319.71 562.04 319.71 562.04 319.73 563.96 C319.78 570.26 319.83 576.56 319.89 582.86 C320.32 634.91 321.06 686.96 322 739 C354.62 739.09 387.24 739.16 419.86 739.2 C423.72 739.21 427.59 739.21 431.45 739.22 C432.22 739.22 432.99 739.22 433.78 739.22 C446.18 739.24 458.59 739.27 470.99 739.31 C483.74 739.35 496.5 739.37 509.25 739.38 C517.1 739.38 524.96 739.4 532.81 739.43 C538.86 739.46 544.9 739.46 550.95 739.45 C553.41 739.45 555.88 739.46 558.34 739.48 C599.6 739.72 634.43 727.69 664.68 699.29 C668 696.01 671.08 692.64 674 689 C674.7 688.14 675.39 687.28 676.11 686.4 C685.75 674.06 692.67 660.68 698 646 C698.38 645.01 698.76 644.01 699.15 642.99 C711.61 608.6 707.55 568.77 692.89 535.81 C685.27 519.59 674.16 504.15 660.88 492.12 C659 490 659 490 659.1 488.14 C660.33 485.21 662.16 483.7 664.5 481.56 C670.27 475.94 674.74 469.79 679 463 C679.55 462.13 679.55 462.13 680.12 461.24 C700.32 429.17 707.13 387.28 698.88 350.19 C698.02 346.75 697.06 343.38 696 340 C695.78 339.27 695.55 338.53 695.32 337.78 C685.81 307.66 666.15 283.35 640 266 C638.94 265.27 638.94 265.27 637.86 264.52 C606.45 244.05 567.43 244.41 531.43 243.97 C530.47 243.96 529.51 243.95 528.53 243.93 C519.44 243.82 510.35 243.73 501.27 243.67 C489.75 243.58 478.24 243.43 466.72 243.18 C458.56 243.02 450.4 242.93 442.24 242.9 C437.39 242.88 432.55 242.83 427.7 242.69 C403.95 242.02 388.67 242.63 374.19 263.31 Z " fill="#FAF6F4" transform="translate(0,0)"/>
<path d="M0 0 C22.96 -0.07 45.92 -0.12 68.88 -0.16 C79.54 -0.17 90.2 -0.19 100.86 -0.23 C110.17 -0.26 119.47 -0.28 128.77 -0.28 C133.69 -0.29 138.61 -0.3 143.52 -0.32 C183.6 -0.49 183.6 -0.49 201 3 C201.73 3.14 202.46 3.29 203.22 3.44 C225.64 7.99 245.72 18.08 263 33 C263.81 33.66 264.61 34.32 265.44 35 C284.75 51.42 298.01 75.6 304 100 C304.25 100.97 304.25 100.97 304.51 101.96 C307.47 113.49 308.66 124.3 308.5 136.19 C308.49 136.99 308.49 137.79 308.48 138.61 C308.17 175.54 296.17 212.12 269.44 238.62 C268.68 239.36 267.92 240.1 267.14 240.86 C265.21 242.79 263.48 244.77 261.75 246.88 C249.28 261.28 231.84 272.16 215.82 282.2 C213.05 283.89 213.05 283.89 210.87 285.74 C209 287 209 287 205 287 C205 287.66 205 288.32 205 289 C203.57 290.12 203.57 290.12 201.55 291.36 C200.79 291.83 200.04 292.3 199.26 292.78 C198.43 293.29 197.6 293.79 196.75 294.31 C194.99 295.41 193.22 296.5 191.46 297.6 C190.55 298.16 189.64 298.73 188.7 299.31 C184.56 301.9 180.47 304.57 176.38 307.25 C168.68 312.28 160.94 317.24 153.19 322.19 C145.89 326.85 138.62 331.53 131.44 336.36 C126.61 339.6 121.75 342.78 116.88 345.94 C107.27 352.17 97.69 358.44 88.12 364.72 C82.26 368.56 76.39 372.4 70.52 376.22 C59.01 383.73 47.54 391.29 36.11 398.93 C33.96 400.36 31.82 401.79 29.67 403.22 C28.98 403.68 28.29 404.14 27.58 404.61 C26.24 405.51 24.89 406.4 23.54 407.3 C19.79 409.8 16.04 412.32 12.3 414.84 C10.78 415.85 9.27 416.87 7.75 417.88 C6.79 418.54 6.79 418.54 5.8 419.21 C2.41 421.44 0.09 422.51 -4 422 C-2.68 421.67 -1.36 421.34 0 421 C-0.06 420.01 -0.12 419.03 -0.18 418.01 C-0.73 408.63 -1.14 399.25 -1.4 389.86 C-1.54 385.03 -1.73 380.21 -2.04 375.39 C-4.04 343.32 -4.04 343.32 2.6 335.5 C8.64 329.55 16.14 325.84 23.82 322.45 C27.98 320.55 31.63 318.16 35.38 315.56 C36.71 314.7 38.04 313.84 39.38 312.99 C49.94 306.18 60.42 299.26 70.92 292.36 C73.05 290.97 75.17 289.57 77.3 288.18 C81.74 285.27 86.18 282.35 90.62 279.44 C91.36 278.95 92.1 278.47 92.87 277.97 C102.71 271.5 112.53 264.99 122.31 258.44 C132.07 251.91 141.92 245.54 151.84 239.27 C159.27 234.57 166.65 229.79 174.01 224.96 C176.22 223.51 178.44 222.06 180.67 220.61 C184.03 218.42 187.38 216.22 190.73 214.01 C192.06 213.14 193.39 212.27 194.72 211.41 C206.9 203.52 206.9 203.52 216.52 192.77 C217.01 192.19 217.5 191.6 218 191 C218.99 191 219.98 191 221 191 C221 190.34 221 189.68 221 189 C222 188.48 223 187.96 224.03 187.43 C228.42 184.92 231.88 181.68 235.5 178.19 C236.13 177.6 236.75 177.01 237.39 176.4 C239.28 174.61 241.14 172.81 243 171 C243.91 170.13 243.91 170.13 244.84 169.24 C248.78 165.4 252.22 161.4 255.44 156.94 C255.91 156.29 256.38 155.64 256.86 154.97 C263.38 145.8 268.68 136.2 273.12 125.88 C273.45 125.15 273.77 124.43 274.09 123.68 C275.72 119.84 275.72 119.84 275.46 115.79 C258.24 94.75 227.56 78.43 201 74 C201.33 75.32 201.66 76.64 202 78 C200.79 77.59 199.59 77.18 198.34 76.76 C196.73 76.21 195.11 75.67 193.5 75.12 C192.71 74.86 191.92 74.59 191.1 74.31 C190.32 74.04 189.53 73.78 188.72 73.51 C188.01 73.27 187.29 73.03 186.56 72.78 C180.32 70.88 174.91 69.75 168.36 69.72 C167.27 69.71 167.27 69.71 166.16 69.7 C163.75 69.69 161.34 69.68 158.94 69.68 C157.2 69.67 155.47 69.66 153.73 69.65 C149.04 69.62 144.34 69.61 139.65 69.6 C134.74 69.58 129.83 69.55 124.92 69.53 C115.62 69.48 106.33 69.44 97.04 69.41 C86.45 69.37 75.87 69.32 65.29 69.27 C43.53 69.17 21.76 69.08 0 69 C0 46.23 0 23.46 0 0 Z " fill="#1551D7" transform="translate(393,245)"/>
<path d="M0 0 C1.11 1.11 2.22 2.22 3.33 3.34 C4.53 4.53 5.75 5.71 6.98 6.88 C33.39 32.3 48.41 68.98 49.28 105.47 C49.64 139.7 39.43 176.38 16.02 202.18 C14.88 203.31 13.73 204.42 12.56 205.5 C10.96 207.03 9.63 208.65 8.25 210.38 C-12.03 234.35 -45.64 247.45 -76 251 C-84.75 251.63 -93.51 251.51 -102.27 251.45 C-104.83 251.45 -107.38 251.45 -109.94 251.46 C-115.39 251.46 -120.84 251.45 -126.29 251.42 C-134.17 251.39 -142.05 251.38 -149.94 251.37 C-162.73 251.37 -175.52 251.34 -188.32 251.3 C-200.73 251.26 -213.14 251.24 -225.55 251.22 C-226.32 251.22 -227.09 251.22 -227.88 251.22 C-231.73 251.21 -235.58 251.21 -239.44 251.2 C-271.29 251.16 -303.15 251.09 -335 251 C-335 225.92 -335 200.84 -335 175 C-334.34 175 -333.68 175 -333 175 C-332.67 175.99 -332.34 176.98 -332 178 C-323.91 178.15 -315.81 178.3 -307.72 178.44 C-303.96 178.51 -300.2 178.58 -296.44 178.65 C-292.81 178.72 -289.18 178.78 -285.55 178.84 C-284.17 178.87 -282.79 178.89 -281.41 178.92 C-279.46 178.96 -277.52 178.99 -275.58 179.02 C-273.92 179.05 -273.92 179.05 -272.23 179.08 C-268.99 179.07 -268.99 179.07 -265.79 178.5 C-261.89 177.99 -258.1 177.87 -254.19 177.91 C-253.43 177.91 -252.67 177.91 -251.9 177.91 C-249.38 177.92 -246.86 177.94 -244.34 177.95 C-242.53 177.96 -240.72 177.96 -238.9 177.97 C-235.01 177.98 -231.11 178 -227.21 178.02 C-221.03 178.04 -214.85 178.06 -208.67 178.08 C-206.55 178.08 -204.42 178.09 -202.3 178.09 C-201.24 178.09 -200.18 178.1 -199.09 178.1 C-184.7 178.14 -170.32 178.18 -155.94 178.25 C-146.23 178.29 -136.52 178.32 -126.81 178.34 C-121.68 178.34 -116.56 178.36 -111.43 178.39 C-106.59 178.42 -101.75 178.44 -96.92 178.43 C-95.16 178.44 -93.4 178.45 -91.64 178.46 C-75.16 178.62 -59.68 176.76 -45.08 168.68 C-42 167 -42 167 -38.34 165.49 C-31.31 162.35 -27.28 156.17 -23 150 C-22.67 150 -22.34 150 -22 150 C-18.74 169.57 -31.2 194.05 -42 210 C-48.55 219.01 -55.84 227.41 -64 235 C-38 213.34 -19.62 184.01 -16.21 149.87 C-13.96 119.18 -17.41 87.86 -37.89 63.46 C-43.11 57.52 -48.71 52.27 -55.04 47.49 C-57 46 -57 46 -59 44 C-58.11 43.75 -57.23 43.5 -56.31 43.25 C-52.81 41.93 -50.89 40.34 -48 38 C-45.82 36.58 -43.64 35.19 -41.44 33.81 C-17.82 19.69 -17.82 19.69 0 0 Z " fill="#1554DA" transform="translate(657,488)"/>
<path d="M0 0 C0.91 48.03 1.09 96.04 0.91 144.08 C0.87 153.68 0.84 163.27 0.82 172.87 C0.76 189.97 0.71 207.07 0.65 224.17 C0.59 240.72 0.53 257.27 0.48 273.83 C0.48 274.86 0.48 275.89 0.47 276.95 C0.46 282.12 0.44 287.29 0.42 292.46 C0.29 334.98 0.15 377.49 0 420 C-4.66 421.39 -8.52 422.24 -13.39 422.14 C-15.23 422.1 -15.23 422.1 -17.09 422.07 C-18.39 422.04 -19.69 422.01 -21.03 421.98 C-22.38 421.95 -23.74 421.93 -25.1 421.9 C-28.65 421.83 -32.21 421.76 -35.76 421.67 C-39.39 421.59 -43.02 421.52 -46.66 421.45 C-53.77 421.31 -60.89 421.16 -68 421 C-70.03 417.62 -70.26 415.03 -70.27 411.11 C-70.28 409.9 -70.29 408.69 -70.3 407.44 C-70.3 406.1 -70.3 404.75 -70.3 403.41 C-70.31 401.98 -70.32 400.55 -70.33 399.12 C-70.35 395.19 -70.36 391.26 -70.36 387.33 C-70.37 383.09 -70.4 378.86 -70.41 374.62 C-70.46 364.39 -70.48 354.15 -70.51 343.92 C-70.51 340.07 -70.52 336.21 -70.53 332.36 C-70.58 315.38 -70.61 298.39 -70.63 281.41 C-70.64 277.25 -70.64 273.09 -70.65 268.94 C-70.65 267.91 -70.65 266.87 -70.65 265.81 C-70.67 249.07 -70.73 232.33 -70.8 215.59 C-70.88 198.41 -70.92 181.22 -70.93 164.04 C-70.93 154.39 -70.95 144.74 -71.01 135.09 C-71.06 126.88 -71.08 118.66 -71.06 110.44 C-71.05 106.25 -71.06 102.06 -71.1 97.87 C-71.14 94.03 -71.14 90.19 -71.1 86.35 C-71.1 84.96 -71.11 83.58 -71.14 82.19 C-71.32 71.88 -71.32 71.88 -68.06 67.25 C-65.81 64.96 -63.52 62.97 -61 61 C-59.67 59.85 -58.34 58.69 -57.02 57.52 C-56.37 56.96 -55.72 56.4 -55.05 55.82 C-51.06 52.28 -47.36 48.46 -43.61 44.67 C-42.74 43.8 -41.88 42.93 -40.98 42.03 C-38.24 39.27 -35.49 36.51 -32.75 33.75 C-29.12 30.1 -25.49 26.45 -21.86 22.8 C-21.03 21.96 -20.2 21.12 -19.35 20.26 C-18.57 19.48 -17.8 18.7 -17 17.9 C-15.98 16.88 -15.98 16.88 -14.95 15.83 C-13 14 -13 14 -10.8 12.4 C-8.81 11.1 -8.81 11.1 -8.12 8.69 C-6.95 5.89 -3.38 0 0 0 Z " fill="#1658DF" transform="translate(393,246)"/>
<path d="M0 0 C2.94 2.03 5.59 4.24 8.18 6.69 C8.7 7.19 9.23 7.68 9.77 8.19 C30.04 27.44 41.02 52.53 41.74 80.5 C41.78 86.12 41.78 86.12 39.84 88.51 C39.35 88.88 38.87 89.25 38.36 89.63 C38.03 88.97 37.7 88.31 37.36 87.63 C37.16 88.87 36.95 90.1 36.74 91.38 C33.78 104.44 26.31 114.43 15.43 121.94 C13.42 123.2 11.4 124.43 9.36 125.63 C8.32 126.25 8.32 126.25 7.26 126.88 C-6.39 133.86 -22.99 134.21 -37.96 134.08 C-39.8 134.08 -41.65 134.08 -43.5 134.08 C-48.44 134.09 -53.38 134.06 -58.32 134.03 C-63.51 134.01 -68.7 134.01 -73.89 134 C-83.69 133.99 -93.49 133.96 -103.29 133.92 C-114.46 133.87 -125.63 133.85 -136.8 133.83 C-159.74 133.79 -182.69 133.72 -205.64 133.63 C-200.18 128.12 -200.18 128.12 -197.09 126.1 C-196.43 125.67 -195.77 125.23 -195.09 124.79 C-194.39 124.33 -193.69 123.88 -192.96 123.41 C-192.21 122.92 -191.46 122.43 -190.69 121.92 C-188.24 120.32 -185.78 118.72 -183.32 117.13 C-181.61 116.01 -179.89 114.88 -178.17 113.76 C-174.67 111.48 -171.17 109.19 -167.67 106.91 C-161.11 102.64 -154.57 98.34 -148.03 94.04 C-144.78 91.9 -141.53 89.77 -138.27 87.64 C-137.33 87.01 -137.33 87.01 -136.36 86.38 C-135.09 85.55 -133.82 84.71 -132.55 83.88 C-130.62 82.62 -128.69 81.35 -126.76 80.09 C-114.22 71.86 -101.67 63.64 -89.09 55.47 C-84.56 52.53 -80.03 49.58 -75.51 46.62 C-63.6 38.81 -51.66 31.05 -39.65 23.39 C-32.13 18.59 -24.64 13.75 -17.18 8.88 C-15.71 7.92 -14.23 6.96 -12.75 6.01 C-11.31 5.07 -9.88 4.09 -8.48 3.09 C-3.34 -0.47 -3.34 -0.47 0 0 Z " fill="#FAF6F4" transform="translate(600.63671875,533.37109375)"/>
<path d="M0 0 C22.91 -0.12 45.83 -0.21 68.74 -0.26 C79.39 -0.28 90.03 -0.32 100.67 -0.38 C109.95 -0.43 119.23 -0.46 128.51 -0.47 C133.42 -0.48 138.33 -0.49 143.24 -0.53 C147.87 -0.56 152.5 -0.57 157.14 -0.57 C158.83 -0.57 160.51 -0.58 162.2 -0.6 C182.48 -0.82 199.81 4.58 214.82 18.82 C228.34 32.34 235.44 48.27 235.56 67.38 C235.21 94.46 224.48 114.68 205.66 133.74 C204 135 204 135 201 135 C201.33 133.35 201.66 131.7 202 130 C201.39 129.62 200.79 129.25 200.16 128.86 C188.74 121.77 177.36 114.63 166.12 107.25 C158.63 102.33 151.08 97.55 143.42 92.91 C137.76 89.49 132.2 85.93 126.66 82.32 C120.96 78.62 115.24 74.96 109.5 71.31 C92.43 60.46 75.39 49.59 58.47 38.51 C50.97 33.62 43.43 28.8 35.87 24 C29.47 19.94 23.09 15.84 16.74 11.71 C13.67 9.72 10.6 7.74 7.51 5.8 C6.49 5.17 5.48 4.53 4.44 3.88 C3.57 3.34 2.7 2.8 1.81 2.24 C1.21 1.83 0.61 1.42 0 1 C0 0.67 0 0.34 0 0 Z " fill="#F8F5F5" transform="translate(395,315)"/>
<path d="M0 0 C5.43 2.65 10.76 5.31 15.85 8.6 C16.86 9.25 17.87 9.9 18.9 10.57 C19.95 11.25 20.99 11.93 22.06 12.62 C23.16 13.33 24.26 14.04 25.39 14.77 C28.6 16.84 31.8 18.92 35 21 C36.6 22.04 38.21 23.07 39.81 24.11 C43.21 26.3 46.61 28.5 50 30.71 C53.5 32.97 57 35.24 60.5 37.5 C64.66 40.19 68.81 42.88 72.97 45.57 C92 57.92 111.14 70.1 130.29 82.27 C133.06 84.04 135.82 85.8 138.59 87.56 C147.16 93.02 155.72 98.46 164.31 103.88 C172 108.72 179.66 113.6 187.31 118.5 C188.38 119.18 189.45 119.87 190.55 120.57 C195.4 123.67 200.23 126.78 205 130 C201.72 132.68 198.39 135.16 194.86 137.5 C193.88 138.16 192.9 138.81 191.89 139.48 C190.85 140.17 189.82 140.86 188.75 141.56 C187.14 142.63 187.14 142.63 185.5 143.72 C178.67 148.25 171.82 152.76 164.91 157.17 C161.49 159.35 158.14 161.59 154.84 163.93 C154.16 164.4 153.48 164.88 152.79 165.36 C151.51 166.26 150.25 167.17 148.99 168.09 C146.2 170.05 144.56 171.04 141.1 170.79 C137.87 169.97 135.81 168.9 133.05 167.04 C132.13 166.43 131.21 165.82 130.26 165.19 C129.29 164.53 128.31 163.87 127.31 163.19 C125.24 161.81 123.17 160.43 121.1 159.05 C120.07 158.37 119.04 157.68 117.98 156.97 C113.77 154.19 109.52 151.49 105.25 148.81 C104.48 148.33 103.72 147.85 102.93 147.35 C101.39 146.38 99.85 145.42 98.31 144.45 C94.37 141.98 90.43 139.49 86.5 137 C84.92 136 83.33 135 81.75 134 C65.92 124 50.08 114 34.25 104 C33.46 103.5 32.68 103.01 31.87 102.5 C30.3 101.51 28.73 100.52 27.16 99.52 C22.98 96.88 18.8 94.25 14.62 91.61 C13.74 91.06 12.86 90.51 11.96 89.94 C10.27 88.87 8.57 87.81 6.88 86.74 C6.12 86.27 5.36 85.79 4.59 85.3 C3.92 84.88 3.25 84.46 2.56 84.02 C1 83 1 83 0 82 C-0.1 79.44 -0.13 76.92 -0.11 74.36 C-0.11 73.56 -0.11 72.76 -0.11 71.94 C-0.11 69.28 -0.11 66.62 -0.1 63.96 C-0.1 62.13 -0.09 60.29 -0.09 58.45 C-0.09 53.61 -0.08 48.76 -0.07 43.92 C-0.06 38.98 -0.05 34.04 -0.05 29.1 C-0.04 19.4 -0.02 9.7 0 0 Z " fill="#144FD2" transform="translate(393,315)"/>
<path d="M0 0 C6.09 3.39 12.02 6.82 17.88 10.56 C19.55 11.63 21.22 12.69 22.9 13.75 C23.75 14.29 24.59 14.83 25.46 15.39 C29.47 17.93 33.49 20.47 37.5 23 C39.08 24 40.67 25 42.25 26 C43.03 26.5 43.82 26.99 44.62 27.5 C53.33 33 62.04 38.5 70.75 44 C71.53 44.49 72.32 44.99 73.12 45.5 C74.71 46.5 76.3 47.5 77.88 48.5 C81.8 50.98 85.72 53.46 89.64 55.93 C98.21 61.33 106.77 66.75 115.31 72.19 C116.24 72.78 117.17 73.36 118.12 73.97 C122.21 76.57 126.29 79.18 130.33 81.85 C131.29 82.48 131.29 82.48 132.27 83.13 C133.92 84.22 135.57 85.32 137.22 86.43 C139.91 87.95 141.96 88.62 145 89 C144.34 89.99 143.68 90.98 143 92 C143 92.66 143 93.32 143 94 C141.04 95.5 141.04 95.5 138.26 97.28 C137.23 97.95 136.19 98.62 135.13 99.31 C134.57 99.66 134.01 100.02 133.43 100.39 C130.45 102.29 127.48 104.21 124.52 106.13 C123.9 106.53 123.28 106.93 122.64 107.34 C116.61 111.24 110.63 115.22 104.66 119.22 C96.37 124.78 88.06 130.3 79.67 135.7 C69.13 142.48 58.67 149.37 48.2 156.25 C44.47 158.69 40.73 161.14 37 163.59 C33.82 165.67 30.64 167.76 27.46 169.84 C25.92 170.86 24.37 171.87 22.83 172.88 C20.66 174.3 18.49 175.72 16.32 177.15 C15.68 177.57 15.05 177.98 14.39 178.41 C11.26 180.47 8.19 182.58 5.17 184.8 C2 187 2 187 0 187 C0 125.29 0 63.58 0 0 Z " fill="#F9F6F5" transform="translate(393,397)"/>
<path d="M0 0 C6.46 0.51 11.95 1.7 18 4 C18.82 4.31 19.64 4.62 20.48 4.93 C41.38 13.05 60.36 25.92 76 42 C73.84 51.36 69.49 59.59 65 68 C64.52 68.91 64.03 69.82 63.53 70.76 C54.21 87.18 39.12 104.91 23 115 C22.01 115 21.02 115 20 115 C20 115.66 20 116.32 20 117 C19.34 116.67 18.68 116.34 18 116 C18.59 115.13 19.18 114.26 19.79 113.36 C32.89 93.75 38.46 72.22 34.61 48.6 C30.83 32.16 20.35 18.43 7.02 8.53 C4.39 6.54 2.18 4.47 0 2 C0 1.34 0 0.68 0 0 Z " fill="#1346C4" transform="translate(594,319)"/>
<path d="M0 0 C2.4 3.59 2.26 6.12 2.2 10.27 C2.2 11.02 2.2 11.76 2.2 12.53 C2.18 15.04 2.16 17.54 2.14 20.05 C2.12 21.84 2.12 23.63 2.11 25.43 C2.08 30.3 2.04 35.18 2 40.06 C1.96 45.15 1.93 50.24 1.9 55.33 C1.84 64.98 1.77 74.63 1.7 84.28 C1.62 95.26 1.54 106.24 1.47 117.22 C1.33 139.81 1.17 162.41 1 185 C0.67 185 0.34 185 0 185 C0 123.95 0 62.9 0 0 Z " fill="#0F58EF" transform="translate(322,327)"/>
<path d="M0 0 C-3.7 3.99 -7.48 6.77 -12.12 9.56 C-13.53 10.43 -14.94 11.29 -16.35 12.15 C-17.47 12.83 -17.47 12.83 -18.61 13.53 C-22.93 16.19 -27.21 18.91 -31.5 21.62 C-33.14 22.66 -34.77 23.69 -36.41 24.73 C-37.6 25.48 -38.8 26.24 -40 27 C-40.66 26.34 -41.32 25.68 -42 25 C-38.4 21.17 -34.61 18.17 -30.19 15.31 C-29.54 14.89 -28.9 14.47 -28.23 14.04 C-26.86 13.15 -25.49 12.26 -24.12 11.37 C-21.96 9.98 -19.82 8.55 -17.67 7.13 C-16.26 6.21 -14.85 5.29 -13.44 4.38 C-12.46 3.72 -12.46 3.72 -11.46 3.05 C-7.48 0.51 -4.87 -0.52 0 0 Z " fill="#EAEDF9" transform="translate(577,463)"/>
<path d="M0 0 C57.75 0 115.5 0 175 0 C175 0.33 175 0.66 175 1 C88.38 1.5 88.38 1.5 0 2 C0 1.34 0 0.68 0 0 Z " fill="#1658DF" transform="translate(394,314)"/>
<path d="M0 0 C0.66 0.66 1.32 1.32 2 2 C2.66 1.34 3.32 0.68 4 0 C4.35 8.57 3.96 16.71 2.62 25.19 C2.5 26 2.37 26.81 2.24 27.65 C1.6 31.49 0.87 34.55 -1 38 C-1.66 38 -2.32 38 -3 38 C-3.99 38.5 -3.99 38.5 -5 39 C-4.87 38.08 -4.73 37.16 -4.6 36.21 C-3.85 31 -3.14 25.78 -2.44 20.56 C-2.3 19.56 -2.16 18.57 -2.02 17.54 C-1.43 13.11 -0.92 8.81 -0.97 4.34 C-0.98 3.24 -0.99 2.14 -1 1 C-0.67 0.67 -0.34 0.34 0 0 Z " fill="#E3E8F6" transform="translate(638,620)"/>
<path d="M0 0 C0.33 0 0.66 0 1 0 C1 49.83 1 99.66 1 151 C0.67 151 0.34 151 0 151 C0 101.17 0 51.34 0 0 Z " fill="#1555DB" transform="translate(322,512)"/>
<path d="M0 0 C1.32 0.33 2.64 0.66 4 1 C0.2 11.23 -6.64 19.14 -14 27 C-15.17 28.35 -16.34 29.7 -17.5 31.06 C-21.44 35.6 -25.71 39.8 -30 44 C-30.66 43.67 -31.32 43.34 -32 43 C-31.26 42.31 -30.52 41.62 -29.76 40.9 C-17.17 28.86 -8.16 15.33 0 0 Z " fill="#D8E3F9" transform="translate(624,680)"/>
<path d="M0 0 C1.7 4.08 0.15 7.45 -1.25 11.38 C-1.47 12.02 -1.69 12.67 -1.91 13.34 C-3.31 17.4 -5 21.2 -7 25 C-7.99 25 -8.98 25 -10 25 C-10.33 25.66 -10.66 26.32 -11 27 C-11.46 21.42 -9.89 17.4 -7.75 12.38 C-7.45 11.62 -7.15 10.87 -6.84 10.1 C-5.12 5.96 -3.52 2.94 0 0 Z " fill="#EEF1F9" transform="translate(636,656)"/>
<path d="M0 0 C0.5 1.49 0.5 1.49 1 3 C0.34 3.59 -0.32 4.18 -1 4.78 C-13.12 15.72 -24.51 27.42 -36 39 C-36.99 38.67 -37.98 38.34 -39 38 C-35.59 34.56 -32.18 31.13 -28.76 27.7 C-27.6 26.54 -26.44 25.37 -25.28 24.21 C-13.63 12.47 -13.63 12.47 -7.63 7.41 C-4.94 5.09 -2.48 2.55 0 0 Z " fill="#2674F3" transform="translate(384,254)"/>
<path d="M0 0 C0.66 1.32 1.32 2.64 2 4 C-1.02 6.22 -4.07 8.39 -7.12 10.56 C-7.98 11.19 -8.84 11.82 -9.72 12.47 C-16.19 17.02 -16.19 17.02 -20.62 16.9 C-21.4 16.6 -22.19 16.31 -23 16 C-18.47 12.2 -13.61 9 -8.69 5.75 C-7.85 5.2 -7.02 4.64 -6.15 4.07 C-4.1 2.71 -2.05 1.35 0 0 Z " fill="#E5EAF7" transform="translate(595,447)"/>
<path d="M0 0 C0.33 0 0.66 0 1 0 C0.86 2.4 0.71 4.79 0.56 7.19 C0.52 7.86 0.48 8.53 0.44 9.23 C0.21 12.9 -0.17 16.42 -1 20 C-1.66 18.68 -2.32 17.36 -3 16 C-3.41 16.57 -3.83 17.14 -4.25 17.72 C-8.35 23.2 -12.68 27.71 -18 32 C-18 31.01 -18 30.02 -18 29 C-16.48 27.76 -16.48 27.76 -14.94 26.5 C-6.63 19.67 -2.84 10.11 0 0 Z " fill="#1747BF" transform="translate(637,623)"/>
<path d="M0 0 C0.99 0.33 1.98 0.66 3 1 C-10.26 14.45 -10.26 14.45 -16.51 19.73 C-19.38 22.1 -19.38 22.1 -20.41 25.6 C-20.48 26.6 -20.55 27.6 -20.62 28.62 C-20.7 29.63 -20.77 30.63 -20.85 31.66 C-20.9 32.43 -20.95 33.21 -21 34 C-21.33 34 -21.66 34 -22 34 C-22.99 28.33 -23.25 23.85 -19.94 18.95 C-17.16 15.83 -14.09 13.04 -11 10.25 C-9.94 9.25 -8.88 8.24 -7.82 7.23 C-5.24 4.79 -2.63 2.38 0 0 Z " fill="#1C6EF5" transform="translate(344,293)"/>
</svg>
