<?xml version="1.0" encoding="UTF-8"?>
<!-- Generator: visioncortex VTracer 0.6.4 -->
<svg version="1.1" xmlns="http://www.w3.org/2000/svg" width="1408" height="768">
<path d="M0 0 C464.64 0 929.28 0 1408 0 C1408 253.44 1408 506.88 1408 768 C943.36 768 478.72 768 0 768 C0 514.56 0 261.12 0 0 Z " fill="#0C0D13" transform="translate(0,0)"/>
<path d="M0 0 C1.95 1.65 1.95 1.65 4.45 4.15 C3.91 5.04 3.38 5.94 2.84 6.86 C-1.22 13.77 -4.89 20.55 -7.55 28.15 C-8.21 28.15 -8.87 28.15 -9.55 28.15 C-10.78 26.61 -10.78 26.61 -12.18 24.52 C-18.2 16.34 -25.64 12.25 -35.55 10.15 C-47.22 8.86 -57.49 10.74 -66.93 17.9 C-74.72 24.64 -81.96 33.96 -82.73 44.6 C-83.3 67.94 -83.3 67.94 -72.55 88.15 C-66.22 94.76 -58.42 100.15 -49.02 100.39 C-35.22 100.92 -35.22 100.92 -22.55 96.15 C-21.84 95.74 -21.13 95.32 -20.4 94.9 C-11 88.74 -5.91 76.86 -3.55 66.15 C-3.39 64.53 -3.26 62.91 -3.16 61.29 C-1.58 38.65 2.38 18.79 19.39 2.26 C36.91 -12.53 57.36 -13.96 79.32 -12.68 C94.49 -10.5 109.55 0.44 118.56 12.32 C129.62 28.95 134.21 48.83 131.05 68.64 C127.21 86.73 118.91 102.78 103.33 113.37 C90.77 121.13 78.86 124.73 64.07 124.59 C62.43 124.57 62.43 124.57 60.76 124.56 C44.19 124.23 30.43 118.75 18.45 107.15 C20.26 102.37 22.56 97.87 24.88 93.32 C26.57 89.98 28.12 86.65 29.45 83.15 C30.11 83.15 30.77 83.15 31.45 83.15 C32.64 84.69 32.64 84.69 34.01 86.77 C38.71 93.25 45.77 97.83 53.45 100.15 C56.71 100.58 59.91 100.63 63.2 100.59 C64.52 100.57 64.52 100.57 65.88 100.56 C76.32 100.3 84.78 97.41 92.45 90.15 C103.36 78.62 104.95 64.27 104.72 49.15 C104.28 37.42 99.21 27.44 90.76 19.4 C81.28 11.57 70.47 9.26 58.45 10.15 C48.31 11.93 39.26 17.55 33.18 25.89 C27.51 34.43 24.47 43.14 24.26 53.38 C23.71 74.56 17.75 93.01 2.45 108.15 C1.93 108.7 1.41 109.25 0.88 109.82 C-10.7 121.09 -28.29 125.69 -43.97 125.57 C-62.75 124.91 -79.61 117.55 -92.7 103.91 C-107.95 86.07 -111.27 64.89 -109.55 42.15 C-106.87 24.81 -96.74 8.72 -82.74 -1.66 C-57.04 -18.39 -24.91 -18.06 0 0 Z " fill="#5558DB" transform="translate(757.5546875,328.8515625)"/>
<path d="M0 0 C12.21 -0.08 24.42 -0.17 37 -0.25 C40.82 -0.29 44.64 -0.32 48.58 -0.36 C53.33 -0.38 53.33 -0.38 55.57 -0.38 C57.1 -0.39 58.63 -0.4 60.16 -0.42 C76.29 -0.63 93.74 1.01 105.93 12.88 C113.02 21.61 115.06 30.93 114 42 C112.82 50.7 108.29 56.08 102 62 C101.01 62.66 100.02 63.32 99 64 C99.98 64.64 99.98 64.64 100.98 65.29 C109.82 71.22 116.22 77.48 119.59 87.8 C121.56 98.31 120.53 109.27 114.49 118.24 C106.52 128.06 97 131.35 85 134 C84.27 134.18 83.53 134.36 82.78 134.54 C79.21 135.13 75.7 135.13 72.09 135.11 C71.3 135.11 70.5 135.11 69.68 135.11 C67.13 135.11 64.57 135.11 62.01 135.1 C60.43 135.1 58.84 135.1 57.26 135.09 C51.4 135.09 45.55 135.08 39.69 135.06 C26.59 135.04 13.49 135.02 0 135 C0 90.45 0 45.9 0 0 Z " fill="#EFEFF3" transform="translate(126,317)"/>
<path d="M0 0 C11.55 -0.08 23.1 -0.17 35 -0.25 C38.61 -0.29 42.23 -0.32 45.95 -0.36 C50.45 -0.38 50.45 -0.38 52.57 -0.38 C54.02 -0.39 55.46 -0.4 56.91 -0.42 C72.48 -0.63 88.76 1.27 101.09 11.78 C107.49 18.38 110.15 26.29 110.56 35.38 C110.21 45.19 106.99 54.07 99.75 60.83 C97.84 62.11 96.25 62.59 94 63 C94 63.66 94 64.32 94 65 C94.87 65.16 94.87 65.16 95.75 65.33 C102.64 67.38 108.68 73.84 112.08 79.93 C114.86 85.72 115.64 90.55 115.5 96.94 C115.49 97.82 115.48 98.69 115.46 99.6 C115.19 108.57 113.08 115.78 106.8 122.41 C96.1 131.84 81.4 135.14 67.43 135.11 C66.69 135.11 65.95 135.11 65.18 135.11 C62.79 135.11 60.4 135.11 58.01 135.1 C56.52 135.1 55.04 135.1 53.56 135.09 C48.08 135.09 42.6 135.08 37.12 135.06 C24.87 135.04 12.62 135.02 0 135 C0 90.45 0 45.9 0 0 Z " fill="#EFF0F3" transform="translate(515,317)"/>
<path d="M0 0 C80.8 0 80.8 0 96 15 C98.71 18.15 100.93 21.4 103 25 C103.65 26.13 103.65 26.13 104.32 27.28 C109.5 38.46 109.02 54.97 104.88 66.44 C100.15 76.53 93.33 84.47 83 89 C83.55 92.96 84.67 95.34 87.05 98.54 C89.81 102.34 92.48 106.17 95.08 110.09 C95.76 111.12 96.45 112.15 97.16 113.21 C97.85 114.26 98.54 115.3 99.25 116.38 C100.65 118.49 102.05 120.6 103.45 122.71 C104.06 123.63 104.67 124.55 105.3 125.5 C106.39 127.1 107.53 128.68 108.72 130.21 C110 132 110 132 110 134 C105.65 134.29 101.3 134.47 96.94 134.62 C95.71 134.71 94.48 134.79 93.21 134.88 C84.27 135.12 84.27 135.12 80.76 132.03 C78.93 129.43 77.46 126.81 76 124 C75.07 122.55 74.12 121.12 73.16 119.69 C72.27 118.32 71.38 116.94 70.5 115.56 C69.85 114.55 69.85 114.55 69.18 113.52 C68.74 112.84 68.3 112.15 67.84 111.44 C67.38 110.75 66.91 110.05 66.43 109.34 C65 107 65 107 63.71 104.06 C62.09 100.73 60.75 98.49 58 96 C52.12 94.48 46.61 94.64 40.56 94.81 C35.1 94.87 29.63 94.94 24 95 C24 107.87 24 120.74 24 134 C16.08 134 8.16 134 0 134 C0 89.78 0 45.56 0 0 Z " fill="#F2F2F6" transform="translate(1171,317)"/>
<path d="M0 0 C31.35 0 62.7 0 95 0 C95 7.26 95 14.52 95 22 C72.23 22 49.46 22 26 22 C26 33.22 26 44.44 26 56 C46.13 56 66.26 56 87 56 C87 62.93 87 69.86 87 77 C66.87 77 46.74 77 26 77 C26 88.88 26 100.76 26 113 C49.43 113 72.86 113 97 113 C97 119.93 97 126.86 97 134 C64.99 134 32.98 134 0 134 C0 89.78 0 45.56 0 0 Z " fill="#EEEEF2" transform="translate(1048,317)"/>
<path d="M0 0 C8.25 0 16.5 0 25 0 C25.33 21.78 25.66 43.56 26 66 C33.36 58.64 33.36 58.64 40.29 50.96 C43.86 46.86 47.65 42.95 51.39 39 C55.13 35.04 58.77 31.01 62.34 26.9 C64.8 24.09 67.33 21.36 69.88 18.62 C74.38 13.77 78.84 8.87 83.26 3.93 C86.79 0.02 86.79 0.02 89.8 -0.23 C90.96 -0.22 92.12 -0.21 93.32 -0.2 C95.21 -0.19 95.21 -0.19 97.13 -0.18 C99.11 -0.15 99.11 -0.15 101.12 -0.12 C102.46 -0.11 103.8 -0.11 105.14 -0.1 C108.43 -0.07 111.71 -0.04 115 0 C113.67 2.93 112.2 5.07 109.99 7.39 C109.4 8.01 108.81 8.64 108.2 9.28 C107.27 10.25 107.27 10.25 106.31 11.25 C105.03 12.61 103.75 13.96 102.46 15.32 C101.55 16.29 101.55 16.29 100.62 17.27 C98.3 19.75 96.07 22.31 93.86 24.89 C90.65 28.53 87.32 32.07 84 35.61 C81.17 38.57 81.17 38.57 79 42 C78.34 42 77.68 42 77 42 C76.73 42.59 76.46 43.19 76.18 43.8 C75.03 45.95 73.85 47.46 72.18 49.23 C71.38 50.09 71.38 50.09 70.56 50.97 C70 51.56 69.45 52.15 68.88 52.75 C68.31 53.35 67.75 53.95 67.17 54.57 C65.78 56.05 64.39 57.53 63 59 C64.58 63.86 67.36 67.44 70.44 71.44 C70.97 72.14 71.5 72.84 72.05 73.57 C76.43 79.31 80.88 84.99 85.36 90.65 C89.63 96.06 93.81 101.53 98 107 C98.53 107.69 99.06 108.38 99.6 109.09 C101.32 111.33 103.04 113.57 104.75 115.81 C105.28 116.51 105.81 117.2 106.36 117.91 C107.39 119.26 108.42 120.61 109.45 121.96 C110.53 123.39 111.63 124.81 112.72 126.22 C113.27 126.94 113.82 127.65 114.39 128.39 C114.89 129.03 115.39 129.68 115.91 130.34 C117 132 117 132 117 134 C92.36 136.2 92.36 136.2 85.72 132.85 C82.24 129.85 80.18 126.05 78.1 122 C76.22 118.59 73.72 115.69 71.25 112.69 C70.32 111.51 69.4 110.34 68.48 109.16 C67.83 108.34 67.83 108.34 67.18 107.5 C60.04 98.4 53.02 89.2 46 80 C43.16 81.28 41.21 82.56 39.12 84.86 C38.61 85.42 38.1 85.98 37.58 86.55 C37.06 87.13 36.54 87.71 36 88.31 C35.48 88.88 34.96 89.45 34.42 90.04 C32.93 91.68 31.45 93.32 30 95 C28.94 96.09 28.94 96.09 27.86 97.21 C25.48 100.77 25.4 103.78 25.39 107.93 C25.37 108.67 25.36 109.42 25.34 110.19 C25.29 112.57 25.27 114.94 25.25 117.31 C25.22 118.93 25.19 120.54 25.16 122.16 C25.08 126.11 25.04 130.05 25 134 C16.75 134 8.5 134 0 134 C0 89.78 0 45.56 0 0 Z " fill="#F0F0F4" transform="translate(914,317)"/>
<path d="M0 0 C10.23 0 20.46 0 31 0 C34.38 6.76 37.52 13.4 40.38 20.38 C41.25 22.49 42.12 24.6 43 26.72 C43.71 28.45 43.71 28.45 44.44 30.21 C47.42 37.44 50.43 44.66 53.44 51.88 C53.76 52.64 54.08 53.41 54.4 54.19 C60.22 68.15 66.09 82.08 72 96 C75.38 88.68 78.59 81.31 81.67 73.86 C82.1 72.82 82.53 71.79 82.97 70.73 C84.31 67.49 85.66 64.24 87 61 C89.99 53.8 92.98 46.6 95.97 39.4 C96.83 37.32 97.69 35.25 98.55 33.17 C99.83 30.09 101.11 27.01 102.39 23.93 C102.77 23.02 103.14 22.11 103.53 21.18 C106.51 14.02 109.74 7.06 113 0 C122.9 0 132.8 0 143 0 C139.63 10.11 139.63 10.11 137.75 14.42 C137.32 15.42 136.88 16.43 136.44 17.46 C135.96 18.54 135.49 19.63 135 20.75 C133.92 23.24 132.85 25.73 131.77 28.22 C131.34 29.24 131.34 29.24 130.89 30.27 C126.75 39.89 122.69 49.54 118.62 59.19 C116.99 63.07 115.35 66.96 113.71 70.85 C113.11 72.27 113.11 72.27 112.49 73.72 C108.21 83.87 103.91 94.01 99.6 104.15 C97.19 109.83 94.78 115.51 92.4 121.21 C92.02 122.12 91.64 123.03 91.24 123.97 C90.57 125.59 89.89 127.22 89.22 128.84 C87.11 133.89 87.11 133.89 86 135 C83.85 135.09 81.71 135.11 79.56 135.1 C78.25 135.09 76.95 135.09 75.6 135.09 C74.21 135.08 72.83 135.07 71.44 135.06 C70.04 135.06 68.65 135.05 67.26 135.05 C63.84 135.04 60.42 135.02 57 135 C52.95 127.12 49.27 119.18 45.88 111 C44.91 108.69 43.94 106.38 42.97 104.07 C42.23 102.31 42.23 102.31 41.48 100.51 C39.14 94.95 36.76 89.41 34.38 83.88 C28.63 70.5 22.93 57.11 17.25 43.71 C16.89 42.87 16.53 42.03 16.16 41.16 C15.45 39.49 14.74 37.81 14.04 36.14 C12.13 31.66 10.22 27.18 8.3 22.71 C7.5 20.84 6.7 18.97 5.9 17.1 C4.95 14.89 4 12.68 3.05 10.47 C2.64 9.52 2.23 8.56 1.81 7.57 C1.46 6.76 1.1 5.94 0.74 5.09 C0 3 0 3 0 0 Z " fill="#F0F0F4" transform="translate(356,317)"/>
<path d="M0 0 C9.57 0 19.14 0 29 0 C29 35.97 29 71.94 29 109 C51.44 109 73.88 109 97 109 C97 117.25 97 125.5 97 134 C64.99 134 32.98 134 0 134 C0 89.78 0 45.56 0 0 Z " fill="#F0F0F5" transform="translate(269,318)"/>
<path d="M0 0 C5.73 -0.06 11.47 -0.12 17.38 -0.19 C19.16 -0.21 20.95 -0.24 22.79 -0.27 C34.77 -0.38 44.19 0.13 53.15 8.92 C58.74 15.2 58.48 21.23 58.27 29.4 C57.77 36.03 56.35 40.01 51.62 44.75 C41.19 52.83 28.71 52.53 16.19 52.25 C8.17 52.13 8.17 52.13 0 52 C0 34.84 0 17.68 0 0 Z " fill="#0C0C13" transform="translate(1195,339)"/>
<path d="M0 0 C6.51 -0.07 13.02 -0.13 19.53 -0.16 C21.74 -0.18 23.95 -0.2 26.17 -0.23 C29.36 -0.26 32.55 -0.28 35.74 -0.29 C36.72 -0.31 37.7 -0.32 38.7 -0.34 C46.34 -0.34 53.35 0.75 59.94 4.81 C65.17 10.36 65.55 15.53 65.34 22.93 C64.88 27.05 63.98 29.1 61 32 C53.17 37.13 45.23 37.14 36.13 37.1 C35.1 37.1 34.06 37.09 33 37.09 C29.71 37.09 26.42 37.08 23.12 37.06 C20.89 37.06 18.65 37.05 16.41 37.05 C10.94 37.04 5.47 37.02 0 37 C0 24.79 0 12.58 0 0 Z " fill="#0C0C13" transform="translate(540,393)"/>
<path d="M0 0 C6.08 -0.07 12.17 -0.13 18.25 -0.16 C20.32 -0.18 22.38 -0.2 24.45 -0.23 C27.43 -0.26 30.41 -0.28 33.4 -0.29 C34.76 -0.32 34.76 -0.32 36.16 -0.34 C43.34 -0.34 50.34 0.68 56.51 4.59 C60.3 8.79 61.49 11.92 61.69 17.62 C61.37 22.82 60.85 26.25 57 30 C50.75 34.32 44.91 34.54 37.5 34.39 C36.42 34.38 35.35 34.38 34.24 34.37 C30.83 34.35 27.41 34.3 24 34.25 C21.68 34.23 19.35 34.21 17.03 34.2 C11.35 34.15 5.68 34.08 0 34 C0 22.78 0 11.56 0 0 Z " fill="#0E0E13" transform="translate(155,394)"/>
<path d="M0 0 C5.67 -0.05 11.35 -0.09 17.02 -0.11 C18.95 -0.12 20.88 -0.13 22.8 -0.15 C25.59 -0.18 28.37 -0.19 31.15 -0.2 C32 -0.21 32.85 -0.22 33.73 -0.23 C41.86 -0.23 49.63 0.52 56 6 C59.23 9.95 60.68 13.73 60.39 18.95 C59.46 23.89 57.19 27.71 53.81 31.38 C47.11 35.25 39.5 35.28 31.93 35.2 C31.01 35.19 30.09 35.19 29.15 35.19 C26.24 35.18 23.34 35.15 20.44 35.12 C18.46 35.11 16.47 35.11 14.49 35.1 C9.66 35.08 4.83 35.04 0 35 C0 23.45 0 11.9 0 0 Z " fill="#0D0D14" transform="translate(540,338)"/>
<path d="M0 0 C5.53 -0.07 11.06 -0.13 16.6 -0.16 C18.47 -0.18 20.35 -0.2 22.23 -0.23 C24.94 -0.26 27.66 -0.28 30.37 -0.29 C31.61 -0.32 31.61 -0.32 32.88 -0.34 C39.9 -0.34 45.98 1.07 51.94 4.88 C55.38 8.42 55.92 11.03 56.31 15.94 C56.16 21.15 54.43 24.6 50.69 28.25 C44.7 32.15 39.14 32.28 32.23 32.2 C31.3 32.19 30.38 32.19 29.43 32.19 C26.49 32.18 23.56 32.15 20.62 32.12 C18.63 32.11 16.63 32.11 14.64 32.1 C9.76 32.08 4.88 32.04 0 32 C0 21.44 0 10.88 0 0 Z " fill="#101017" transform="translate(155,340)"/>
<path d="M0 0 C0.66 0 1.32 0 2 0 C4.23 3.35 4.25 4.39 4.24 8.3 C4.24 9.39 4.25 10.49 4.25 11.62 C4.24 12.83 4.23 14.03 4.23 15.27 C4.23 16.54 4.23 17.81 4.23 19.12 C4.23 22.6 4.22 26.08 4.2 29.55 C4.19 33.19 4.19 36.83 4.19 40.46 C4.18 47.35 4.16 54.23 4.14 61.12 C4.12 70.42 4.11 79.72 4.1 89.03 C4.08 103.68 4.04 118.34 4 133 C34.69 133 65.38 133 97 133 C96.01 133.33 95.02 133.66 94 134 C93.67 134.99 93.34 135.98 93 137 C64.62 137 36.24 137 7 137 C6.67 136.34 6.34 135.68 6 135 C5.5 135.99 5.5 135.99 5 137 C3.35 137 1.7 137 0 137 C0 91.79 0 46.58 0 0 Z " fill="#04050C" transform="translate(264,319)"/>
<path d="M0 0 C0.66 0 1.32 0 2 0 C2.51 1.18 2.51 1.18 3.03 2.38 C8.05 13.26 13.79 18.82 25 23 C25 23.66 25 24.32 25 25 C24.21 25.34 23.43 25.68 22.62 26.03 C11.74 31.05 6.18 36.79 2 48 C1.34 48 0.68 48 0 48 C-0.34 47.21 -0.68 46.43 -1.03 45.62 C-6.05 34.74 -11.79 29.18 -23 25 C-23 24.34 -23 23.68 -23 23 C-22.21 22.66 -21.43 22.32 -20.62 21.97 C-9.74 16.95 -4.18 11.21 0 0 Z " fill="#545459" transform="translate(1287,624)"/>
<path d="M0 0 C11.88 0 23.76 0 36 0 C36 0.33 36 0.66 36 1 C28.74 1 21.48 1 14 1 C14 1.66 14 2.32 14 3 C11.36 3.33 8.72 3.66 6 4 C5.67 17.53 5.34 31.06 5 45 C19.52 45 34.04 45 49 45 C45.89 49.66 41.34 50.41 36.02 51.64 C29.5 52.8 22.77 52.39 16.19 52.25 C8.17 52.13 8.17 52.13 0 52 C0 34.84 0 17.68 0 0 Z " fill="#1A1B1F" transform="translate(1195,339)"/>
<path d="M0 0 C15.51 0 31.02 0 47 0 C47.5 0.99 47.5 0.99 48 2 C33.81 2.33 19.62 2.66 5 3 C4.67 3.66 4.34 4.32 4 5 C5.98 5 7.96 5 10 5 C10 5.66 10 6.32 10 7 C8.02 7 6.04 7 4 7 C4 14.92 4 22.84 4 31 C21.82 31 39.64 31 58 31 C58 31.99 58 32.98 58 34 C50.8 37.18 43.86 37.14 36.13 37.1 C35.1 37.1 34.06 37.09 33 37.09 C29.71 37.09 26.42 37.08 23.12 37.06 C20.89 37.06 18.65 37.05 16.41 37.05 C10.94 37.04 5.47 37.02 0 37 C0 24.79 0 12.58 0 0 Z " fill="#141418" transform="translate(540,393)"/>
<path d="M0 0 C0.66 0 1.32 0 2 0 C2 34.98 2 69.96 2 106 C13.88 105.67 25.76 105.34 38 105 C52.34 105.49 52.34 105.49 59 106 C59 106.33 59 106.66 59 107 C38.54 107 18.08 107 -3 107 C-3.08 84.62 -3.08 84.62 -3.1 75.11 C-3.11 68.6 -3.12 62.1 -3.15 55.6 C-3.17 50.36 -3.18 45.13 -3.19 39.89 C-3.19 37.88 -3.2 35.88 -3.21 33.88 C-3.23 31.08 -3.23 28.29 -3.23 25.49 C-3.23 24.65 -3.24 23.82 -3.25 22.96 C-3.23 17.23 -3.23 17.23 -1 15 C-0.69 12.43 -0.49 9.95 -0.38 7.38 C-0.34 6.67 -0.3 5.96 -0.26 5.23 C-0.16 3.49 -0.08 1.75 0 0 Z " fill="#06060B" transform="translate(302,319)"/>
<path d="M0 0 C1.36 0 1.36 0 2.74 0 C3.65 0 4.56 0 5.5 0 C11.68 0.05 17.31 0.59 23.31 2.19 C23.31 2.85 23.31 3.51 23.31 4.19 C24.48 4.41 24.48 4.41 25.68 4.63 C28.31 5.19 28.31 5.19 30.31 6.19 C30.31 6.85 30.31 7.51 30.31 8.19 C30.97 8.19 31.63 8.19 32.31 8.19 C32.31 8.85 32.31 9.51 32.31 10.19 C33.3 10.19 34.29 10.19 35.31 10.19 C35.31 11.51 35.31 12.83 35.31 14.19 C35.97 14.19 36.63 14.19 37.31 14.19 C37.8 16.17 37.8 16.17 38.31 18.19 C39.3 18.19 40.29 18.19 41.31 18.19 C41.59 19.08 41.88 19.96 42.18 20.88 C42.84 22.81 43.53 24.74 44.31 26.63 C46.8 33.02 47.62 38.43 47.56 45.25 C47.56 46.03 47.57 46.81 47.58 47.61 C47.56 52.19 47.04 55.88 45.31 60.19 C44.46 57.3 44.22 54.85 44.35 51.85 C44.79 36.81 43.09 24.75 32.53 13.26 C23.65 4.81 13.17 1.82 1.17 1.98 C-8.69 2.7 -16.09 7.22 -23.44 13.56 C-31.3 22.73 -35.63 33.36 -35.88 45.42 C-36.43 66.57 -42.37 85.08 -57.69 100.19 C-58.25 100.75 -58.8 101.31 -59.37 101.89 C-64.55 106.77 -71.17 110.43 -77.69 113.19 C-78.68 112.86 -79.67 112.53 -80.69 112.19 C-78.71 111.69 -78.71 111.69 -76.69 111.19 C-76.69 110.53 -76.69 109.87 -76.69 109.19 C-75.7 109.19 -74.71 109.19 -73.69 109.19 C-73.69 108.53 -73.69 107.87 -73.69 107.19 C-73.03 107.19 -72.37 107.19 -71.69 107.19 C-71.69 106.53 -71.69 105.87 -71.69 105.19 C-68.72 104.69 -68.72 104.69 -65.69 104.19 C-65.69 103.53 -65.69 102.87 -65.69 102.19 C-64.7 102.19 -63.71 102.19 -62.69 102.19 C-62.69 101.53 -62.69 100.87 -62.69 100.19 C-61.99 99.65 -61.29 99.12 -60.57 98.56 C-57.4 95.95 -55.41 93.18 -53.12 89.8 C-52.42 89 -52.42 89 -51.69 88.19 C-50.7 88.19 -49.71 88.19 -48.69 88.19 C-46.8 82 -45.04 75.81 -43.44 69.54 C-42.69 67.19 -42.69 67.19 -40.69 64.19 C-40.3 61.6 -40.3 61.6 -40.2 58.67 C-40.14 57.57 -40.08 56.47 -40.01 55.34 C-39.95 54.18 -39.88 53.01 -39.82 51.81 C-38.4 30.13 -38.4 30.13 -31.69 21.19 C-31.43 20.06 -31.16 18.92 -30.88 17.75 C-29.34 13.13 -27.66 11.91 -23.69 9.19 C-23.03 9.19 -22.37 9.19 -21.69 9.19 C-21.49 8.57 -21.28 7.96 -21.07 7.33 C-19.11 4.28 -17.06 4 -13.63 3 C-3.68 0.03 -3.68 0.03 0 0 Z " fill="#585ABF" transform="translate(817.6943359375,336.810546875)"/>
<path d="M0 0 C22.11 0 44.22 0 67 0 C67 7.92 67 15.84 67 24 C63.37 24 59.74 24 56 24 C56 23.67 56 23.34 56 23 C57.98 23 59.96 23 62 23 C62 17.06 62 11.12 62 5 C42.53 5 23.06 5 3 5 C2.67 4.01 2.34 3.02 2 2 C1.34 2.66 0.68 3.32 0 4 C0 2.68 0 1.36 0 0 Z " fill="#F7F8FB" transform="translate(298,427)"/>
<path d="M0 0 C20.13 0 40.26 0 61 0 C61 0.33 61 0.66 61 1 C42.85 1 24.7 1 6 1 C6 1.99 6 2.98 6 4 C23.49 4 40.98 4 59 4 C59 4.66 59 5.32 59 6 C41.51 6 24.02 6 6 6 C6 13.92 6 21.84 6 30 C27.45 30 48.9 30 71 30 C71 30.66 71 31.32 71 32 C48.89 32.33 26.78 32.66 4 33 C2.86 29.58 2.97 27.18 3.12 23.58 C3.17 22.33 3.22 21.07 3.27 19.78 C3.32 18.47 3.38 17.16 3.44 15.81 C3.49 14.48 3.54 13.14 3.6 11.81 C3.73 8.54 3.86 5.27 4 2 C3.34 2 2.68 2 2 2 C1.95 6.38 1.91 10.76 1.89 15.13 C1.88 16.62 1.87 18.11 1.85 19.6 C1.82 21.74 1.81 23.88 1.8 26.02 C1.79 27.31 1.78 28.6 1.77 29.93 C1.67 33.11 1.67 33.11 4 35 C2.68 35 1.36 35 0 35 C0 23.45 0 11.9 0 0 Z " fill="#020207" transform="translate(1074,394)"/>
<path d="M0 0 C0.66 0 1.32 0 2 0 C2 43.89 2 87.78 2 133 C-1 130 -1 130 -1.37 127.64 C-1.37 126.7 -1.37 125.76 -1.37 124.79 C-1.37 123.72 -1.38 122.64 -1.38 121.53 C-1.38 120.34 -1.37 119.16 -1.36 117.94 C-1.36 116.7 -1.36 115.45 -1.36 114.17 C-1.37 110.75 -1.35 107.33 -1.34 103.91 C-1.32 100.34 -1.32 96.77 -1.32 93.2 C-1.32 87.2 -1.3 81.2 -1.28 75.2 C-1.25 67.49 -1.24 59.78 -1.24 52.08 C-1.23 45.46 -1.22 38.84 -1.21 32.22 C-1.2 30.09 -1.2 27.96 -1.2 25.82 C-1.19 21.86 -1.18 17.89 -1.16 13.93 C-1.16 12.74 -1.16 11.56 -1.16 10.34 C-1.15 9.26 -1.15 8.19 -1.14 7.08 C-1.14 6.14 -1.13 5.2 -1.13 4.24 C-1 2 -1 2 0 0 Z " fill="#010104" transform="translate(513,318)"/>
<path d="M0 0 C26.73 0 53.46 0 81 0 C80.67 0.66 80.34 1.32 80 2 C78.07 2.39 78.07 2.39 75.56 2.6 C74.67 2.68 73.77 2.76 72.85 2.84 C71.44 2.95 71.44 2.95 70 3.06 C68.15 3.22 66.29 3.37 64.44 3.54 C63.61 3.6 62.78 3.67 61.93 3.73 C60 3.8 60 3.8 59 5 C57.16 5.09 55.31 5.12 53.47 5.11 C52.29 5.11 51.11 5.11 49.89 5.11 C48.61 5.11 47.32 5.1 46 5.1 C44.69 5.1 43.38 5.09 42.03 5.09 C38.55 5.09 35.06 5.08 31.58 5.07 C28.03 5.06 24.48 5.05 20.92 5.05 C13.95 5.04 6.97 5.02 0 5 C0 3.35 0 1.7 0 0 Z " fill="#05060B" transform="translate(127,312)"/>
<path d="M0 0 C26.73 0 53.46 0 81 0 C80.67 0.66 80.34 1.32 80 2 C77.35 2.59 74.71 2.74 72 3 C72 3.66 72 4.32 72 5 C51.54 5 31.08 5 10 5 C10.99 4.34 11.98 3.68 13 3 C12.23 3.03 11.46 3.07 10.66 3.11 C9.66 3.13 8.66 3.16 7.62 3.19 C6.13 3.24 6.13 3.24 4.6 3.29 C3.74 3.2 2.88 3.1 2 3 C1.34 2.01 0.68 1.02 0 0 Z " fill="#090A0E" transform="translate(514,312)"/>
<path d="M0 0 C26.73 0 53.46 0 81 0 C81 0.33 81 0.66 81 1 C82.13 1.12 83.27 1.25 84.44 1.38 C86.2 1.68 86.2 1.68 88 2 C88.5 2.99 88.5 2.99 89 4 C59.63 4 30.26 4 0 4 C0 2.68 0 1.36 0 0 Z " fill="#04040A" transform="translate(127,452)"/>
<path d="M0 0 C17.05 4.04 30.76 13.77 39.99 28.61 C49.97 45.51 53.23 66.07 48.51 85.21 C43.5 103.17 34.78 116.7 19 127 C17.51 126.01 17.51 126.01 16 125 C16.64 124.9 17.28 124.79 17.94 124.69 C18.62 124.46 19.3 124.23 20 124 C20.5 122.51 20.5 122.51 21 121 C22.43 120.07 23.87 119.14 25.32 118.24 C27.85 116.38 29.65 114.03 31.61 111.6 C33 110 33 110 35.31 108.38 C37.61 106.5 37.69 104.87 38 102 C38.99 102 39.98 102 41 102 C41.08 101.05 41.16 100.1 41.25 99.12 C41.68 95.93 42.65 93.42 44 90.5 C46.8 83.84 46.8 77.13 47 70 C47.07 69.11 47.15 68.22 47.23 67.3 C47.61 60.9 46.26 55.05 44.75 48.88 C44.55 48.04 44.34 47.2 44.13 46.34 C41.9 37.81 39.38 31.21 33 25 C32.19 22.19 32.19 22.19 32 20 C31.34 20 30.68 20 30 20 C29.04 18.95 29.04 18.95 28.06 17.88 C24.76 14.37 20.58 12.49 16.33 10.33 C14 9 14 9 13 7 C8.08 4.97 3.13 3.39 -2 2 C-1.34 1.34 -0.68 0.68 0 0 Z " fill="#585ABA" transform="translate(839,317)"/>
<path d="M0 0 C1.65 0 3.3 0 5 0 C5 16.17 5 32.34 5 49 C5.66 49 6.32 49 7 49 C7 49.66 7 50.32 7 51 C6.34 51 5.68 51 5 51 C5.14 51.59 5.28 52.18 5.43 52.79 C5.58 53.58 5.72 54.37 5.88 55.19 C6.12 56.35 6.12 56.35 6.37 57.54 C6 60 6 60 0 65 C0 43.55 0 22.1 0 0 Z " fill="#020207" transform="translate(939,319)"/>
<path d="M0 0 C-0.57 0.36 -1.14 0.73 -1.72 1.1 C-16.73 10.87 -26.11 23.25 -30.75 40.88 C-32.05 47.06 -32.47 53.27 -32.94 59.56 C-34.02 73.88 -37.53 87.53 -48 98 C-56.74 104.12 -63.91 106.34 -74.5 106.25 C-75.42 106.26 -76.35 106.27 -77.3 106.27 C-82.27 106.26 -86.35 105.95 -91 104 C-87.37 102.91 -84.47 103.26 -80.72 103.74 C-75.51 104.24 -70.23 104.26 -65 104 C-64.67 103.67 -64.34 103.34 -64 103 C-62.33 102.96 -60.67 102.96 -59 103 C-59 102.34 -59 101.68 -59 101 C-58.22 100.65 -58.22 100.65 -57.43 100.3 C-49.86 96.76 -45.91 92.82 -43 85 C-42.34 85 -41.68 85 -41 85 C-40.82 84 -40.82 84 -40.63 82.99 C-40.47 82.11 -40.3 81.22 -40.12 80.31 C-39.96 79.44 -39.8 78.57 -39.63 77.68 C-39 75 -39 75 -37.96 72.59 C-36.77 69.38 -36.68 66.61 -36.56 63.19 C-35.86 49.74 -32.94 37.5 -28 25 C-27.34 25 -26.68 25 -26 25 C-25.89 24.27 -25.79 23.54 -25.68 22.78 C-24.95 19.78 -23.9 18.01 -22.12 15.5 C-20.39 13.02 -18.82 10.66 -17.38 8 C-16 6 -16 6 -13.81 5.19 C-13.21 5.13 -12.62 5.06 -12 5 C-12 4.34 -12 3.68 -12 3 C-9.52 2.5 -9.52 2.5 -7 2 C-7 1.34 -7 0.68 -7 0 C-3.99 -0.93 -3.13 -1.04 0 0 Z " fill="#0A0A33" transform="translate(789,324)"/>
<path d="M0 0 C1.95 1.65 1.95 1.65 4.45 4.15 C3.91 5.04 3.38 5.94 2.84 6.86 C-1.22 13.77 -4.89 20.55 -7.55 28.15 C-8.21 28.15 -8.87 28.15 -9.55 28.15 C-10.78 26.61 -10.78 26.61 -12.18 24.52 C-18.2 16.34 -25.64 12.25 -35.55 10.15 C-47.16 8.87 -57.46 10.71 -66.8 17.9 C-68.07 18.97 -69.32 20.04 -70.55 21.15 C-71.21 20.16 -71.87 19.17 -72.55 18.15 C-71.89 18.15 -71.23 18.15 -70.55 18.15 C-70.22 17.16 -69.89 16.17 -69.55 15.15 C-67.9 14.82 -66.25 14.49 -64.55 14.15 C-64.55 13.49 -64.55 12.83 -64.55 12.15 C-52.89 7.76 -37.58 4.78 -25.54 9.5 C-22.73 10.9 -20.13 12.36 -17.55 14.15 C-17.55 14.81 -17.55 15.47 -17.55 16.15 C-16.96 16.4 -16.36 16.64 -15.74 16.9 C-13.24 18.33 -12.07 19.72 -10.55 22.15 C-10.55 22.81 -10.55 23.47 -10.55 24.15 C-9.56 24.15 -8.57 24.15 -7.55 24.15 C-7.88 23.16 -8.21 22.17 -8.55 21.15 C-7.66 19.13 -7.66 19.13 -6.3 16.9 C-4.05 13.06 -2.22 9.27 -0.55 5.15 C-1.32 4.18 -2.08 3.21 -2.87 2.21 C-3.3 1.67 -3.73 1.12 -4.17 0.56 C-5.61 -1.12 -5.61 -1.12 -8.55 -1.85 C-8.55 -2.51 -8.55 -3.17 -8.55 -3.85 C-9.81 -4 -11.07 -4.14 -12.37 -4.29 C-14.98 -4.59 -17.03 -5.01 -19.55 -5.85 C-19.55 -6.51 -19.55 -7.17 -19.55 -7.85 C-20.17 -7.9 -20.78 -7.95 -21.42 -8 C-22.63 -8.11 -22.63 -8.11 -23.87 -8.23 C-24.67 -8.3 -25.47 -8.37 -26.29 -8.44 C-28.55 -8.85 -28.55 -8.85 -31.55 -10.85 C-34.27 -11.22 -34.27 -11.22 -37.32 -11.27 C-38.43 -11.3 -39.55 -11.34 -40.71 -11.38 C-41.87 -11.41 -43.04 -11.44 -44.24 -11.48 C-45.42 -11.52 -46.6 -11.55 -47.81 -11.59 C-50.73 -11.69 -53.64 -11.77 -56.55 -11.85 C-56.55 -12.18 -56.55 -12.51 -56.55 -12.85 C-36.73 -16.55 -16.34 -11.84 0 0 Z " fill="#5658B7" transform="translate(757.5546875,328.8515625)"/>
<path d="M0 0 C0.99 0 1.98 0 3 0 C3 0.99 3 1.98 3 3 C3.66 3 4.32 3 5 3 C8.08 6.87 10.53 11.01 11 16 C12.32 16.33 13.64 16.66 15 17 C15.12 17.83 15.24 18.67 15.37 19.53 C15.53 20.65 15.7 21.78 15.88 22.94 C16.04 24.04 16.2 25.14 16.37 26.28 C16.83 29.02 17.39 31.62 18.05 34.31 C19.16 39.25 19.38 44.02 19.38 49.06 C19.38 50.42 19.38 50.42 19.38 51.81 C19.22 61.4 17.02 69.93 14 79 C13.34 79 12.68 79 12 79 C11.73 80.26 11.46 81.52 11.19 82.81 C10.46 86.21 9.48 87.62 7 90 C6.14 91.43 5.33 92.89 4.56 94.38 C1.98 99.14 -0.43 102.95 -5 106 C-5.87 106.17 -6.73 106.33 -7.62 106.5 C-8.41 106.67 -9.19 106.83 -10 107 C-10.5 107.99 -10.5 107.99 -11 109 C-12.65 109 -14.3 109 -16 109 C-11.4 105.26 -11.4 105.26 -9.2 103.82 C4.91 94.28 12.1 77.63 15.58 61.49 C19.13 40.59 13.61 20.45 1.57 3.3 C0 1 0 1 0 0 Z " fill="#0A0C33" transform="translate(872,336)"/>
<path d="M0 0 C8.74 6.54 13.6 16.51 16 27 C16.29 30.23 16.33 33.44 16.31 36.69 C16.3 38.01 16.3 38.01 16.3 39.37 C16.08 50.8 13.5 60.46 7 70 C4.12 72.69 4.12 72.69 2 74 C2.66 71.69 3.32 69.38 4 67 C4.66 67 5.32 67 6 67 C6 66.01 6 65.02 6 64 C6.66 64 7.32 64 8 64 C10.08 59.02 10.35 54.28 10.71 48.96 C10.96 46.41 11.38 44.15 12.06 41.69 C14.35 32.7 11.71 25.03 8.81 16.5 C8 14 8 14 8 11 C7.34 11 6.68 11 6 11 C5.47 9.95 5.47 9.95 4.94 8.88 C2.12 4.69 -1.75 2.6 -6 0 C-7.36 -0.87 -7.36 -0.87 -8.75 -1.75 C-13.09 -4.16 -16.53 -5.25 -21.52 -5.2 C-22.54 -5.19 -23.56 -5.18 -24.62 -5.18 C-25.67 -5.16 -26.73 -5.14 -27.81 -5.12 C-28.89 -5.12 -29.96 -5.11 -31.07 -5.1 C-33.71 -5.07 -36.36 -5.04 -39 -5 C-27.23 -12.85 -10.86 -6.56 0 0 Z " fill="#0D0E40" transform="translate(847,346)"/>
<path d="M0 0 C5.38 -0.08 10.77 -0.17 16.31 -0.25 C18.01 -0.29 19.7 -0.32 21.45 -0.36 C22.8 -0.37 24.14 -0.38 25.49 -0.39 C26.19 -0.41 26.88 -0.43 27.6 -0.45 C29.63 -0.45 29.63 -0.45 33 0 C34.97 2.02 34.97 2.02 36 4 C35.67 4.66 35.34 5.32 35 6 C34.51 5.5 34.51 5.5 34 5 C31.78 4.84 29.56 4.75 27.34 4.68 C26.12 4.65 24.91 4.61 23.66 4.57 C22.1 4.53 20.54 4.48 18.94 4.44 C14.01 4.29 9.08 4.15 4 4 C4 14.56 4 25.12 4 36 C2.52 36.5 2.52 36.5 1 37 C0.67 37.66 0.34 38.32 0 39 C0 26.13 0 13.26 0 0 Z " fill="#030306" transform="translate(1196,412)"/>
<path d="M0 0 C0.33 0 0.66 0 1 0 C1 8.25 1 16.5 1 25 C21.13 25 41.26 25 62 25 C61.67 26.32 61.34 27.64 61 29 C40.87 29 20.74 29 0 29 C0 19.43 0 9.86 0 0 Z " fill="#030308" transform="translate(1074,343)"/>
<path d="M0 0 C0.66 0.33 1.32 0.66 2 1 C0.96 3.79 -0.07 6.1 -1.75 8.56 C-2.16 9.37 -2.58 10.17 -3 11 C-0.88 17.49 7.2 21.15 12.88 24.25 C22.06 28.45 31.51 29.49 41.5 29.38 C42.54 29.39 43.58 29.4 44.64 29.41 C54.23 29.37 63.01 27.25 72 24 C71.05 26.51 70.13 27.89 68.06 29.62 C59.98 33.26 50.86 33.36 42.12 33.31 C41.08 33.31 40.03 33.31 38.95 33.3 C30.33 33.19 21.38 32.92 14 28 C14 27.34 14 26.68 14 26 C13.3 25.89 12.61 25.79 11.89 25.68 C8.56 24.9 5.81 23.64 2.75 22.12 C1.69 21.61 0.64 21.1 -0.45 20.57 C-3 19 -3 19 -4 16 C-4.66 15.67 -5.32 15.34 -6 15 C-5.25 8.38 -5.25 8.38 -3 5 C-2.34 5 -1.68 5 -1 5 C-0.67 3.35 -0.34 1.7 0 0 Z " fill="#0D0F39" transform="translate(780,423)"/>
<path d="M0 0 C0 1.65 0 3.3 0 5 C-0.62 5.25 -1.24 5.5 -1.88 5.75 C-4.44 7.26 -4.75 8.35 -6 11 C-7.23 13.02 -8.51 15.01 -9.78 17 C-12.14 20.87 -13.71 24.84 -15.22 29.1 C-16 31 -16 31 -18 34 C-18.38 36.07 -18.38 36.07 -18.45 38.36 C-18.49 39.22 -18.54 40.08 -18.58 40.97 C-18.62 41.89 -18.65 42.81 -18.69 43.75 C-18.73 44.69 -18.77 45.62 -18.81 46.59 C-19.07 53.51 -18.83 60.27 -18.16 67.16 C-18 70 -18 70 -19 73 C-24.94 64.09 -23.19 46.68 -21.62 36.53 C-19.74 28.06 -10.37 0 0 0 Z " fill="#5759BF" transform="translate(670,332)"/>
<path d="M0 0 C0.99 0.33 1.98 0.66 3 1 C2.54 1.68 2.08 2.36 1.61 3.05 C1 3.99 0.38 4.92 -0.25 5.88 C-1.15 7.23 -1.15 7.23 -2.08 8.62 C-6.87 17.05 -8.68 24.1 -8.5 33.81 C-8.49 34.87 -8.48 35.92 -8.46 37.01 C-8.18 48.21 -6.09 57.12 0.83 66.2 C2 68 2 68 2 71 C-0.94 69.81 -0.94 69.81 -4 68 C-4.75 65.38 -4.75 65.38 -5 63 C-5.66 62.67 -6.32 62.34 -7 62 C-7.59 59.35 -7.74 56.71 -8 54 C-8.66 54 -9.32 54 -10 54 C-10.09 52.93 -10.09 52.93 -10.18 51.85 C-10.27 50.93 -10.35 50.01 -10.44 49.06 C-10.52 48.15 -10.6 47.23 -10.68 46.29 C-10.76 44.04 -10.76 44.04 -12 43 C-13.15 24.13 -13.15 24.13 -8.88 15.81 C-7.78 13.89 -7.78 13.89 -8 11 C-7.34 10.67 -6.68 10.34 -6 10 C-5.78 9.04 -5.78 9.04 -5.56 8.06 C-5 6 -5 6 -2 4 C-0.81 1.95 -0.81 1.95 0 0 Z " fill="#5455B4" transform="translate(683,349)"/>
<path d="M0 0 C1.61 0.24 3.21 0.48 4.82 0.75 C8.2 1.14 11.56 1.02 14.96 0.94 C17 1 17 1 18 2 C19.69 2.07 21.38 2.08 23.06 2.06 C23.98 2.05 24.9 2.04 25.85 2.04 C26.56 2.02 27.27 2.01 28 2 C28 2.66 28 3.32 28 4 C30.48 4.5 30.48 4.5 33 5 C33 5.66 33 6.32 33 7 C34.65 7 36.3 7 38 7 C38 7.99 38 8.98 38 10 C37.47 9.81 36.93 9.61 36.38 9.41 C24.1 5.12 12.9 4.66 0 5 C-1.13 5.02 -2.27 5.04 -3.44 5.05 C-11.27 5.41 -17.85 7.88 -25 11 C-25 10.01 -25 9.02 -25 8 C-18.37 3.29 -11.99 2.15 -4.06 1.36 C-1.13 1.34 -1.13 1.34 0 0 Z " fill="#040528" transform="translate(815,312)"/>
<path d="M0 0 C13.53 0 27.06 0 41 0 C41 0.33 41 0.66 41 1 C43.47 1.5 43.47 1.5 46 2 C45.67 2.66 45.34 3.32 45 4 C31.14 4 17.28 4 3 4 C3.33 3.01 3.66 2.02 4 1 C3.34 1 2.68 1 2 1 C2 1.99 2 2.98 2 4 C1.01 3.67 0.02 3.34 -1 3 C-0.67 2.01 -0.34 1.02 0 0 Z " fill="#FAFBFD" transform="translate(156,372)"/>
<path d="M0 0 C26.73 0 53.46 0 81 0 C80.67 0.66 80.34 1.32 80 2 C36.79 3.1 36.79 3.1 17.95 3.23 C16.53 3.24 15.11 3.26 13.69 3.28 C11.74 3.31 9.78 3.32 7.83 3.33 C6.2 3.34 6.2 3.34 4.54 3.36 C3.7 3.24 2.86 3.12 2 3 C1.34 2.01 0.68 1.02 0 0 Z " fill="#010206" transform="translate(514,312)"/>
<path d="M0 0 C2.25 -0.25 2.25 -0.25 5 0 C7.31 1.88 7.31 1.88 9 4 C9 4.66 9 5.32 9 6 C12.3 6.99 15.6 7.98 19 9 C19 9.66 19 10.32 19 11 C19.77 11.13 20.54 11.27 21.34 11.4 C22.34 11.58 23.34 11.76 24.38 11.94 C25.37 12.11 26.37 12.29 27.4 12.46 C30 13 30 13 32 14 C34.7 14.09 37.37 14.12 40.07 14.1 C40.87 14.1 41.66 14.09 42.48 14.09 C45.03 14.09 47.58 14.08 50.12 14.06 C51.85 14.06 53.58 14.05 55.3 14.05 C59.53 14.04 63.77 14.02 68 14 C54.57 21.06 37.02 19.05 22.98 14.7 C14.66 11.76 6.56 6.9 0 1 C0 0.67 0 0.34 0 0 Z " fill="#5657B9" transform="translate(669,436)"/>
<path d="M0 0 C3.41 1.32 6.66 2.82 9.94 4.44 C27.07 12.17 45.43 11.88 63 6 C65.01 5.01 67.01 4.02 69 3 C69.66 3 70.32 3 71 3 C70.76 4.87 70.76 4.87 70 7 C62.92 11.81 53.29 12.4 45 13 C44.22 13.06 43.43 13.11 42.63 13.17 C26.4 14.19 13.84 10.69 0 2 C0 1.34 0 0.68 0 0 Z " fill="#090A2E" transform="translate(677,443)"/>
<path d="M0 0 C1.32 0.33 2.64 0.66 4 1 C4.07 6.07 4.13 11.14 4.16 16.22 C4.18 17.94 4.2 19.67 4.23 21.39 C4.26 23.87 4.28 26.35 4.29 28.83 C4.31 29.6 4.32 30.38 4.34 31.17 C4.34 36.55 4.34 36.55 2.48 39.01 C1.99 39.34 1.5 39.66 1 40 C-0.14 35.9 -0.13 31.96 -0.1 27.73 C-0.1 26.94 -0.09 26.15 -0.09 25.33 C-0.09 22.8 -0.08 20.28 -0.06 17.75 C-0.06 16.03 -0.05 14.32 -0.05 12.6 C-0.04 8.4 -0.02 4.2 0 0 Z " fill="#FBFCFC" transform="translate(536,392)"/>
<path d="M0 0 C2.64 0.33 5.28 0.66 8 1 C8 1.66 8 2.32 8 3 C9.32 3 10.64 3 12 3 C12 3.66 12 4.32 12 5 C13.32 5 14.64 5 16 5 C16 5.66 16 6.32 16 7 C16.94 7.06 17.88 7.12 18.85 7.18 C20.1 7.27 21.34 7.35 22.62 7.44 C23.85 7.52 25.08 7.6 26.35 7.68 C30 8 30 8 33.07 8.52 C41.3 9.87 49.12 9.47 56.98 6.66 C59 6 59 6 62 6 C62 5.34 62 4.68 62 4 C65.51 2.4 68.14 1.78 72 2 C69.4 5.15 66.46 6.21 62.69 7.62 C61.58 8.05 60.47 8.48 59.32 8.91 C43.36 14.13 22.72 12.72 7.72 5.4 C5.1 4 2.53 2.55 0 1 C0 0.67 0 0.34 0 0 Z " fill="#5A5BBF" transform="translate(784,442)"/>
<path d="M0 0 C1.79 3.09 2.25 5.3 2.23 8.86 C2.23 9.82 2.23 10.78 2.23 11.77 C2.22 12.8 2.21 13.83 2.2 14.89 C2.19 15.95 2.19 17.01 2.19 18.1 C2.18 21.48 2.15 24.87 2.12 28.25 C2.11 30.54 2.11 32.84 2.1 35.13 C2.08 40.76 2.04 46.38 2 52 C1.34 52 0.68 52 0 52 C-0.94 49.17 -1.13 47.42 -1.13 44.48 C-1.13 43.57 -1.14 42.66 -1.14 41.72 C-1.14 40.74 -1.13 39.76 -1.13 38.75 C-1.13 37.74 -1.13 36.73 -1.14 35.69 C-1.14 33.56 -1.13 31.42 -1.13 29.29 C-1.13 26.01 -1.13 22.74 -1.14 19.47 C-1.14 17.4 -1.13 15.32 -1.13 13.25 C-1.13 12.27 -1.14 11.29 -1.14 10.28 C-1.14 9.37 -1.13 8.45 -1.13 7.52 C-1.13 6.71 -1.13 5.91 -1.13 5.09 C-1 3 -1 3 0 0 Z " fill="#09090E" transform="translate(940,327)"/>
<path d="M0 0 C9.24 0 18.48 0 28 0 C27.67 0.99 27.34 1.98 27 3 C27.99 3.66 28.98 4.32 30 5 C20.43 5 10.86 5 1 5 C0.67 3.35 0.34 1.7 0 0 Z " fill="#030307" transform="translate(999,312)"/>
<path d="M0 0 C4.25 -0.06 8.5 -0.09 12.75 -0.12 C13.96 -0.14 15.16 -0.16 16.41 -0.18 C17.57 -0.18 18.73 -0.19 19.92 -0.2 C20.99 -0.21 22.06 -0.22 23.16 -0.23 C25.98 -0 27.61 0.54 30 2 C28 4 28 4 24.38 4.23 C22.82 4.23 21.27 4.22 19.71 4.2 C18.48 4.19 18.48 4.19 17.23 4.19 C14.61 4.18 11.99 4.15 9.38 4.12 C7.6 4.11 5.83 4.11 4.05 4.1 C-0.3 4.08 -4.65 4.04 -9 4 C-8.67 3.34 -8.34 2.68 -8 2 C-5.36 2 -2.72 2 0 2 C0 1.34 0 0.68 0 0 Z " fill="#020206" transform="translate(1209,340)"/>
<path d="M0 0 C0.33 0 0.66 0 1 0 C1.04 0.58 1.09 1.17 1.14 1.77 C1.35 4.47 1.58 7.17 1.81 9.88 C1.88 10.79 1.95 11.71 2.03 12.66 C2.59 19.1 3.98 24.87 6 31 C6.72 33.66 6.72 33.66 7.44 36.31 C9.37 42.7 12.28 45.71 18 49 C19.35 50.31 20.69 51.64 22 53 C22.66 53.33 23.32 53.66 24 54 C24 54.66 24 55.32 24 56 C16.08 53.31 9.02 46.56 5.03 39.23 C4.52 38.13 4.52 38.13 4 37 C3.61 36.16 3.22 35.32 2.82 34.45 C-1.41 23.41 -0.37 11.63 0 0 Z " fill="#0A0B33" transform="translate(674,371)"/>
<path d="M0 0 C8.91 0 17.82 0 27 0 C27 0.99 27 1.98 27 3 C26.34 3 25.68 3 25 3 C25 3.66 25 4.32 25 5 C16.42 5 7.84 5 -1 5 C-0.34 4.34 0.32 3.68 1 3 C0.67 2.01 0.34 1.02 0 0 Z " fill="#05060C" transform="translate(270,312)"/>
<path d="M0 0 C0.33 0 0.66 0 1 0 C1.1 4.07 1.17 8.14 1.22 12.21 C1.24 13.59 1.27 14.97 1.3 16.35 C1.59 28.02 0.14 37.56 -7 47 C-7.66 46.67 -8.32 46.34 -9 46 C-8.08 43.16 -7.15 40.36 -6 37.6 C-2.17 27.9 -1.87 17.8 -1.23 7.49 C-0.99 4.94 -0.54 2.5 0 0 Z " fill="#5758C6" transform="translate(757,367)"/>
<path d="M0 0 C4.46 3.32 8.08 6.96 11.43 11.39 C11.1 12.05 10.77 12.71 10.43 13.39 C8.93 12.01 8.93 12.01 7.43 10.39 C7.43 9.73 7.43 9.07 7.43 8.39 C6.77 8.39 6.11 8.39 5.43 8.39 C4.41 7.41 3.41 6.41 2.43 5.39 C1.44 4.73 0.45 4.07 -0.57 3.39 C-0.57 2.73 -0.57 2.07 -0.57 1.39 C-1.23 1.25 -1.9 1.12 -2.58 0.98 C-10.57 -0.61 -10.57 -0.61 -12.93 -1.13 C-15.46 -1.59 -17.87 -1.81 -20.43 -1.93 C-21.76 -1.99 -21.76 -1.99 -23.12 -2.06 C-24.03 -2.1 -24.94 -2.14 -25.88 -2.18 C-26.81 -2.22 -27.75 -2.26 -28.71 -2.31 C-30.99 -2.41 -33.28 -2.51 -35.57 -2.61 C-25.42 -9.38 -9.77 -6.13 0 0 Z " fill="#0C0E3A" transform="translate(736.5703125,343.61328125)"/>
<path d="M0 0 C18.81 0.5 18.81 0.5 38 1 C37.67 2.32 37.34 3.64 37 5 C18.68 4.5 18.68 4.5 0 4 C0 2.68 0 1.36 0 0 Z " fill="#0F0F14" transform="translate(1197,385)"/>
<path d="M0 0 C0.33 0 0.66 0 1 0 C2.12 29.82 2.12 29.82 -8.67 43.57 C-10 45 -10 45 -12 46 C-11.34 43.69 -10.68 41.38 -10 39 C-9.34 39 -8.68 39 -8 39 C-8 38.01 -8 37.02 -8 36 C-7.34 36 -6.68 36 -6 36 C-3.92 31.01 -3.65 26.27 -3.28 20.95 C-2.98 17.83 -2.33 15.03 -1.48 12.02 C-0.55 8.08 -0.31 4.03 0 0 Z " fill="#090A28" transform="translate(861,374)"/>
<path d="M0 0 C0.66 0.33 1.32 0.66 2 1 C-0.51 3.6 -2.93 6.08 -6 8 C-7.32 8 -8.64 8 -10 8 C-10.09 8.56 -10.17 9.13 -10.26 9.71 C-11.22 12.67 -12.81 14.31 -14.88 16.62 C-18.9 21.47 -20.75 25.88 -22 32 C-22.66 31.34 -23.32 30.68 -24 30 C-23.34 21.22 -18.15 13.36 -11.8 7.5 C-8.11 4.43 -4.61 1.54 0 0 Z " fill="#0A0B33" transform="translate(699,341)"/>
<path d="M0 0 C9.24 0 18.48 0 28 0 C27.67 1.32 27.34 2.64 27 4 C18.75 4 10.5 4 2 4 C2 3.34 2 2.68 2 2 C1.34 1.34 0.68 0.68 0 0 Z " fill="#04040A" transform="translate(413,452)"/>
<path d="M0 0 C10.56 0 21.12 0 32 0 C31.67 0.66 31.34 1.32 31 2 C25.46 3.46 19.69 3.09 14 3 C14.66 3.66 15.32 4.32 16 5 C11.05 5 6.1 5 1 5 C1.66 4.34 2.32 3.68 3 3 C2.34 3 1.68 3 1 3 C0.67 2.01 0.34 1.02 0 0 Z " fill="#04040A" transform="translate(354,312)"/>
<path d="M0 0 C0.33 0 0.66 0 1 0 C1 10.56 1 21.12 1 32 C0.01 32.5 0.01 32.5 -1 33 C-3.11 28.77 -2.19 23.22 -2.19 18.57 C-2.19 16.51 -2.21 14.45 -2.22 12.39 C-2.23 10.45 -2.23 10.45 -2.23 8.47 C-2.23 7.28 -2.24 6.09 -2.24 4.86 C-2 2 -2 2 0 0 Z " fill="#FAFAFD" transform="translate(154,394)"/>
<path d="M0 0 C0.66 0 1.32 0 2 0 C3.44 1.64 3.44 1.64 5 3.81 C5.52 4.52 6.03 5.23 6.56 5.96 C7.73 7.62 8.87 9.31 10 11 C7.75 9.95 5.85 8.89 3.88 7.38 C2.12 5.8 2.12 5.8 0 6 C-0.27 7.07 -0.54 8.14 -0.81 9.25 C-2 13 -2 13 -3.5 14.94 C-5.76 18.04 -6.19 21.26 -7 25 C-5.68 25.99 -4.36 26.98 -3 28 C-3.33 28.66 -3.66 29.32 -4 30 C-6.31 28.02 -8.62 26.04 -11 24 C-9.19 19.22 -6.89 14.72 -4.57 10.17 C-2.88 6.83 -1.33 3.5 0 0 Z " fill="#595BB9" transform="translate(787,412)"/>
<path d="M0 0 C4.22 0.6 4.57 1.57 8 5 C-12.29 4.5 -12.29 4.5 -33 4 C-33 3.34 -33 2.68 -33 2 C-22.11 1.67 -11.22 1.34 0 1 C0 0.67 0 0.34 0 0 Z " fill="#07070C" transform="translate(594,396)"/>
<path d="M0 0 C2.09 3.14 3.29 6.12 4.69 9.62 C7.29 15.91 10.54 20.89 15 26 C15.43 26.56 15.86 27.12 16.31 27.7 C19.39 31.7 22.84 34.23 27 37 C26.01 37.5 26.01 37.5 25 38 C22.88 37.06 22.88 37.06 21 36 C21 35.34 21 34.68 21 34 C20.01 34 19.02 34 18 34 C18 33.34 18 32.68 18 32 C17.34 32 16.68 32 16 32 C14.38 30.62 14.38 30.62 13 29 C13 28.34 13 27.68 13 27 C12.34 27 11.68 27 11 27 C10.6 25.86 10.6 25.86 10.19 24.69 C9.22 22.04 9.22 22.04 7.56 20.62 C6 19 6 19 4.5 15.44 C3.28 11.8 3.28 11.8 0 10 C-0.29 7.62 -0.29 7.62 -0.19 4.88 C-0.16 3.96 -0.13 3.05 -0.11 2.12 C-0.07 1.42 -0.04 0.72 0 0 Z " fill="#080831" transform="translate(650,405)"/>
<path d="M0 0 C0.66 0 1.32 0 2 0 C3.73 3.78 4.35 6.91 4.44 11.06 C4.48 12.08 4.52 13.11 4.56 14.16 C4 17 4 17 1.47 19.37 C0.66 19.91 -0.16 20.45 -1 21 C-1.03 17.69 -1.05 14.38 -1.06 11.06 C-1.07 10.12 -1.08 9.17 -1.09 8.2 C-1.09 7.3 -1.09 6.4 -1.1 5.47 C-1.1 4.64 -1.11 3.81 -1.11 2.95 C-1 1 -1 1 0 0 Z " fill="#06060A" transform="translate(1249,352)"/>
<path d="M0 0 C2.56 2.22 3.39 3.69 4 7 C4.08 8.81 4.11 10.61 4.1 12.42 C4.09 13.45 4.09 14.47 4.09 15.53 C4.08 16.59 4.07 17.65 4.06 18.75 C4.06 19.83 4.05 20.91 4.05 22.02 C4.04 24.68 4.02 27.34 4 30 C3.53 29.5 3.05 29.01 2.56 28.5 C1.24 26.88 1.24 26.88 0 27 C-0.04 25.33 -0.04 23.67 0 22 C0.33 21.67 0.66 21.34 1 21 C1.07 19.31 1.08 17.62 1.06 15.94 C1.05 14.56 1.05 14.56 1.04 13.15 C1.02 12.44 1.01 11.73 1 11 C0.34 10.67 -0.32 10.34 -1 10 C-1.12 2.25 -1.12 2.25 0 0 Z " fill="#EFEFF0" transform="translate(1274,346)"/>
<path d="M0 0 C0.66 0.33 1.32 0.66 2 1 C-2.39 7.79 -10.28 12.06 -18 14 C-21.5 14.28 -24.99 14.28 -28.5 14.25 C-29.42 14.26 -30.35 14.27 -31.3 14.27 C-36.27 14.26 -40.35 13.95 -45 12 C-41.37 10.91 -38.47 11.26 -34.72 11.74 C-29.51 12.24 -24.23 12.26 -19 12 C-18.67 11.67 -18.34 11.34 -18 11 C-16.33 10.96 -14.67 10.96 -13 11 C-13 10.34 -13 9.68 -13 9 C-12.48 8.77 -11.96 8.54 -11.43 8.3 C-6.71 6.1 -3.46 3.89 0 0 Z " fill="#0E0F40" transform="translate(743,416)"/>
<path d="M0 0 C8.25 0 16.5 0 25 0 C25 0.99 25 1.98 25 3 C21.69 4.65 18.01 4.1 14.38 4.06 C13.57 4.06 12.77 4.05 11.95 4.05 C9.96 4.04 7.98 4.02 6 4 C6.33 3.34 6.66 2.68 7 2 C4.61 2.58 2.33 3.22 0 4 C0 2.68 0 1.36 0 0 Z " fill="#040408" transform="translate(913,452)"/>
<path d="M0 0 C0 0.99 0 1.98 0 3 C-0.64 3.24 -1.28 3.48 -1.93 3.73 C-2.76 4.07 -3.59 4.4 -4.44 4.75 C-5.26 5.07 -6.08 5.4 -6.93 5.73 C-9.17 6.8 -9.17 6.8 -9.63 8.97 C-9.75 9.64 -9.88 10.31 -10 11 C-12.44 13.75 -12.44 13.75 -15 16 C-15.66 16 -16.32 16 -17 16 C-17.33 17.65 -17.66 19.3 -18 21 C-19.32 21.33 -20.64 21.66 -22 22 C-19.46 11.86 -12.56 6.31 -4 1 C-2 0 -2 0 0 0 Z " fill="#06081D" transform="translate(808,341)"/>
<path d="M0 0 C0.99 0.33 1.98 0.66 3 1 C2.54 1.68 2.08 2.36 1.61 3.05 C-3.19 10.33 -7.02 17.47 -9 26 C-9.66 26 -10.32 26 -11 26 C-11 31.61 -11 37.22 -11 43 C-11.33 43 -11.66 43 -12 43 C-12.73 23.3 -12.73 23.3 -8.88 15.81 C-7.78 13.89 -7.78 13.89 -8 11 C-7.34 10.67 -6.68 10.34 -6 10 C-5.78 9.04 -5.78 9.04 -5.56 8.06 C-5 6 -5 6 -2 4 C-0.81 1.95 -0.81 1.95 0 0 Z " fill="#5B5DCA" transform="translate(683,349)"/>
<path d="M0 0 C0.82 -0 1.64 -0 2.49 -0 C6.49 0.03 10.22 0.2 14.12 1.19 C11.35 3.97 8.95 3.84 5.12 4.19 C4.79 3.86 4.47 3.53 4.12 3.19 C1.55 3.09 -0.99 3.05 -3.56 3.06 C-4.27 3.06 -4.98 3.05 -5.71 3.05 C-9.88 3.06 -13.76 3.43 -17.88 4.19 C-18.87 4.19 -19.86 4.19 -20.88 4.19 C-20.88 3.53 -20.88 2.87 -20.88 2.19 C-13.91 0.44 -7.14 -0.01 0 0 Z " fill="#5F62D0" transform="translate(824.875,315.8125)"/>
<path d="M0 0 C0 0.66 0 1.32 0 2 C2.48 2.5 2.48 2.5 5 3 C5 3.66 5 4.32 5 5 C6.65 5 8.3 5 10 5 C10 5.99 10 6.98 10 8 C9.47 7.81 8.93 7.61 8.38 7.41 C7.64 7.15 6.89 6.89 6.12 6.62 C5.05 6.24 5.05 6.24 3.95 5.85 C-5.16 3.22 -13.66 2.74 -23.12 2.88 C-24.37 2.88 -25.61 2.89 -26.89 2.9 C-29.93 2.93 -32.96 2.96 -36 3 C-36 2.67 -36 2.34 -36 2 C-31.85 1.23 -27.83 0.83 -23.61 0.68 C-22.43 0.64 -21.24 0.6 -20.02 0.56 C-18.8 0.52 -17.57 0.48 -16.31 0.44 C-14.46 0.37 -14.46 0.37 -12.57 0.31 C-3.65 0 -3.65 0 0 0 Z " fill="#1B1D50" transform="translate(843,314)"/>
<path d="M0 0 C-0.7 0.47 -1.4 0.95 -2.12 1.43 C-12.69 8.8 -19.3 16.45 -25 28 C-25.33 28 -25.66 28 -26 28 C-26 26.35 -26 24.7 -26 23 C-25.34 23 -24.68 23 -24 23 C-23.67 21.35 -23.34 19.7 -23 18 C-22.34 18 -21.68 18 -21 18 C-20.9 17.24 -20.79 16.47 -20.69 15.69 C-19.95 12.82 -19.33 11.77 -17 10 C-16.34 10 -15.68 10 -15 10 C-14.9 9.36 -14.79 8.72 -14.69 8.06 C-14.35 7.04 -14.35 7.04 -14 6 C-13.01 5.67 -12.02 5.34 -11 5 C-10.67 4.01 -10.34 3.02 -10 2 C-8.68 2 -7.36 2 -6 2 C-6 1.34 -6 0.68 -6 0 C-3 -1 -3 -1 0 0 Z " fill="#0B0C35" transform="translate(680,325)"/>
<path d="M0 0 C0.33 0 0.66 0 1 0 C1.33 9.9 1.66 19.8 2 30 C1.34 30 0.68 30 0 30 C-1.96 21.6 -4.41 9.8 -0.98 1.56 C-0.66 1.04 -0.33 0.53 0 0 Z " fill="#0D0D33" transform="translate(647,371)"/>
<path d="M0 0 C0.66 0 1.32 0 2 0 C2.18 0.71 2.36 1.42 2.55 2.15 C2.8 3.07 3.05 3.99 3.31 4.94 C3.56 5.85 3.8 6.77 4.05 7.71 C4.36 8.47 4.68 9.22 5 10 C5.99 10.33 6.98 10.66 8 11 C8.84 12.74 8.84 12.74 9.5 14.88 C10.49 18.06 11.53 19.76 14 22 C17 25.56 17 25.56 17 29 C9.42 21.88 3.39 13.93 0 4 C0 2.68 0 1.36 0 0 Z " fill="#5453B3" transform="translate(652,407)"/>
<path d="M0 0 C0.99 0.33 1.98 0.66 3 1 C2.19 2.94 2.19 2.94 1 5 C0.01 5.33 -0.98 5.66 -2 6 C-2 6.66 -2 7.32 -2 8 C-2.78 8.25 -3.57 8.5 -4.38 8.75 C-7.13 9.71 -7.13 9.71 -7.88 12 C-9 14 -9 14 -12.38 15.31 C-15.72 15.95 -16.91 15.94 -20 15 C-19.23 14.67 -18.45 14.34 -17.66 14 C-10.02 10.52 -5.06 6.7 0 0 Z " fill="#5557BA" transform="translate(855,413)"/>
<path d="M0 0 C0.66 0.33 1.32 0.66 2 1 C-1.01 4.48 -3.22 5.61 -7.69 6.56 C-10.57 7.12 -10.57 7.12 -13 8 C-13.33 8.99 -13.66 9.98 -14 11 C-14.66 11 -15.32 11 -16 11 C-16 11.66 -16 12.32 -16 13 C-18.31 13.33 -20.62 13.66 -23 14 C-19.2 9.81 -15.39 7.3 -10.38 4.75 C-9.71 4.4 -9.04 4.05 -8.35 3.69 C-5.6 2.26 -2.95 0.98 0 0 Z " fill="#5354AF" transform="translate(693,318)"/>
<path d="M0 0 C0.33 0 0.66 0 1 0 C1.31 2.25 1.31 2.25 1 5 C-1.25 7 -1.25 7 -4 9 C-4.87 10.27 -4.87 10.27 -5.75 11.56 C-9.54 15.67 -14.58 16.85 -20.06 17.19 C-21.02 17.09 -21.02 17.09 -22 17 C-21.43 16.72 -20.86 16.44 -20.28 16.15 C-11.81 11.88 -5.21 8.18 0 0 Z " fill="#5A5CC4" transform="translate(747,413)"/>
<path d="M0 0 C2.34 0.91 4.63 1.8 6.84 2.99 C13.31 6.3 18.9 6.49 26.06 6.25 C27.12 6.23 28.18 6.21 29.26 6.2 C31.84 6.15 34.42 6.08 37 6 C36.67 6.99 36.34 7.98 36 9 C32.35 8.95 28.71 8.85 25.06 8.75 C24.04 8.74 23.02 8.72 21.97 8.71 C15.11 8.49 10.03 7.25 4 4 C2.67 3.33 1.33 2.66 0 2 C0 1.34 0 0.68 0 0 Z " fill="#5C5DBD" transform="translate(797,423)"/>
<path d="M0 0 C0.66 0.99 1.32 1.98 2 3 C1.42 3.7 0.85 4.4 0.25 5.12 C-2.05 7.98 -2.05 7.98 -4.06 11.12 C-5.6 13.4 -6.89 15.27 -9 17 C-9.66 17 -10.32 17 -11 17 C-9.67 12.09 -7.67 8.98 -4.38 5.12 C-3.56 4.16 -2.74 3.19 -1.9 2.2 C-1.27 1.47 -0.65 0.75 0 0 Z " fill="#5254B9" transform="translate(775,333)"/>
<path d="M0 0 C0.33 0.66 0.66 1.32 1 2 C-1.09 6.55 -4.03 9.11 -8 12 C-8.99 12 -9.98 12 -11 12 C-11 12.66 -11 13.32 -11 14 C-12.98 14.33 -14.96 14.66 -17 15 C-16.28 14.44 -15.56 13.87 -14.82 13.29 C-12.07 11.06 -9.44 8.75 -6.81 6.38 C-5.95 5.6 -5.09 4.82 -4.21 4.02 C-2.78 2.71 -1.37 1.37 0 0 Z " fill="#0B0C34" transform="translate(765,431)"/>
<path d="M0 0 C0.33 0 0.66 0 1 0 C2.16 11.2 1.68 18.79 -3 29 C-3.66 29 -4.32 29 -5 29 C-4.8 28.32 -4.59 27.65 -4.38 26.95 C-3.97 25.62 -3.97 25.62 -3.56 24.25 C-3.3 23.37 -3.03 22.49 -2.75 21.58 C-2.38 20.3 -2.38 20.3 -2 19 C-1.81 18.39 -1.63 17.78 -1.44 17.16 C-0.77 13.88 -0.63 10.58 -0.44 7.25 C-0.39 6.55 -0.35 5.86 -0.31 5.14 C-0.2 3.42 -0.1 1.71 0 0 Z " fill="#5052AF" transform="translate(755,380)"/>
<path d="M0 0 C5.61 0 11.22 0 17 0 C17 0.33 17 0.66 17 1 C14.03 1 11.06 1 8 1 C8.33 1.99 8.66 2.98 9 4 C5.37 4 1.74 4 -2 4 C-2 3.34 -2 2.68 -2 2 C-1.34 2 -0.68 2 0 2 C0 1.34 0 0.68 0 0 Z " fill="#05060B" transform="translate(1170,452)"/>
<path d="M0 0 C1.65 0 3.3 0 5 0 C5 3.39 4.57 5 3 8 C1.1 9.85 -0.88 11.39 -3 13 C-2.67 11.68 -2.34 10.36 -2 9 C-1.34 9 -0.68 9 0 9 C0 6.03 0 3.06 0 0 Z " fill="#06070A" transform="translate(952,360)"/>
<path d="M0 0 C3.41 1.32 6.66 2.82 9.94 4.44 C16.39 7.42 23.03 8.75 30 10 C30 10.33 30 10.66 30 11 C18.5 10.6 10.08 7.23 0 2 C0 1.34 0 0.68 0 0 Z " fill="#0A0B3A" transform="translate(677,443)"/>
<path d="M0 0 C0.99 0 1.98 0 3 0 C4.27 1.43 5.55 2.87 6.72 4.39 C9.27 7.59 11.28 9.34 15.19 10.69 C15.9 10.94 16.62 11.19 17.36 11.45 C17.9 11.63 18.44 11.81 19 12 C18.67 12.66 18.34 13.32 18 14 C10.45 12.11 4.38 7.38 0 1 C0 0.67 0 0.34 0 0 Z " fill="#0B0C3E" transform="translate(790,414)"/>
<path d="M0 0 C0.33 0 0.66 0 1 0 C0.12 6.56 0.12 6.56 -0.56 9.12 C-1.12 11.1 -1.12 11.1 -0.81 13.56 C-1 16 -1 16 -2.88 17.81 C-5 19 -5 19 -7 19 C-4.94 12.55 -2.58 6.26 0 0 Z " fill="#1A1B1E" transform="translate(487,344)"/>
<path d="M0 0 C0.33 0 0.66 0 1 0 C1.41 7.08 -0.1 13.2 -2 20 C-2.66 20 -3.32 20 -4 20 C-4 20.66 -4 21.32 -4 22 C-4.66 22 -5.32 22 -6 22 C-5.82 21.42 -5.64 20.83 -5.45 20.23 C-3.4 13.54 -1.65 6.8 0 0 Z " fill="#101242" transform="translate(888,395)"/>
<path d="M0 0 C3.26 -0.29 3.26 -0.29 7.12 -0.19 C9.05 -0.15 9.05 -0.15 11.01 -0.11 C12 -0.07 12.98 -0.04 14 0 C13.67 0.99 13.34 1.98 13 3 C8.05 3 3.1 3 -2 3 C-1.34 2.01 -0.68 1.02 0 0 Z " fill="#020206" transform="translate(183,341)"/>
<path d="M0 0 C-0.33 1.32 -0.66 2.64 -1 4 C-1.7 4.12 -2.4 4.25 -3.12 4.38 C-9.56 5.59 -9.56 5.59 -14 10 C-15.32 9.34 -16.64 8.68 -18 8 C-15.57 6.66 -13.13 5.33 -10.69 4 C-10 3.62 -9.31 3.24 -8.6 2.84 C-3.34 0 -3.34 0 0 0 Z " fill="#5556B9" transform="translate(800,319)"/>
<path d="M0 0 C0.33 0.66 0.66 1.32 1 2 C-0 4.43 -1.06 6.72 -2.25 9.06 C-2.56 9.71 -2.88 10.36 -3.2 11.03 C-5.63 15.88 -5.63 15.88 -9 17 C-7.47 11.18 -4.32 4.32 0 0 Z " fill="#0B0B35" transform="translate(761,334)"/>
<path d="M0 0 C4.29 0 8.58 0 13 0 C13 0.33 13 0.66 13 1 C16.3 1.33 19.6 1.66 23 2 C23 2.33 23 2.66 23 3 C20.29 3.05 17.58 3.09 14.88 3.12 C14.11 3.14 13.35 3.16 12.57 3.18 C7.97 3.22 4.34 2.76 0 1 C0 0.67 0 0.34 0 0 Z " fill="#45459F" transform="translate(701,451)"/>
<path d="M0 0 C-2.31 0.66 -4.62 1.32 -7 2 C-7 2.66 -7 3.32 -7 4 C-10.3 5.32 -13.6 6.64 -17 8 C-17 7.01 -17 6.02 -17 5 C-15.59 4.18 -14.17 3.37 -12.75 2.56 C-11.57 1.88 -11.57 1.88 -10.36 1.19 C-6.54 -0.74 -4.11 -1.32 0 0 Z " fill="#0B0C2E" transform="translate(807,315)"/>
<path d="M0 0 C0 4.95 0 9.9 0 15 C-0.66 15 -1.32 15 -2 15 C-2.14 13.78 -2.29 12.57 -2.44 11.31 C-2.83 8.17 -3.32 5.09 -4 2 C-1 0 -1 0 0 0 Z " fill="#06050A" transform="translate(480,369)"/>
<path d="M0 0 C0.99 0 1.98 0 3 0 C3 4.29 3 8.58 3 13 C2.01 13.5 2.01 13.5 1 14 C-1.62 9.22 -0.83 5.16 0 0 Z " fill="#030308" transform="translate(629,392)"/>
<path d="M0 0 C0.33 0 0.66 0 1 0 C1 2.64 1 5.28 1 8 C0.34 8 -0.32 8 -1 8 C-1.23 10.02 -1.46 12.04 -1.68 14.05 C-2 16 -2 16 -3 18 C-3.99 18 -4.98 18 -6 18 C-4 12 -2 6 0 0 Z " fill="#10103E" transform="translate(778,404)"/>
<path d="M0 0 C0.33 0 0.66 0 1 0 C1.29 5.6 1.16 9.15 -2 14 C-4.19 15.88 -4.19 15.88 -6 17 C-6 13 -6 13 -4 10 C-3.34 10 -2.68 10 -2 10 C-1.34 6.7 -0.68 3.4 0 0 Z " fill="#1F1E23" transform="translate(210,352)"/>
<path d="M0 0 C0 4.29 0 8.58 0 13 C-0.99 13 -1.98 13 -3 13 C-2.67 10.69 -2.34 8.38 -2 6 C-2.66 6 -3.32 6 -4 6 C-3.62 3.56 -3.62 3.56 -3 1 C-1 0 -1 0 0 0 Z " fill="#07080C" transform="translate(496,330)"/>
<path d="M0 0 C0 0.99 0 1.98 0 3 C-0.6 3.24 -1.21 3.48 -1.83 3.73 C-6.3 5.61 -9.85 7.16 -13 11 C-13.99 10.67 -14.98 10.34 -16 10 C-14.42 8.7 -12.84 7.41 -11.25 6.12 C-10.37 5.41 -9.49 4.69 -8.58 3.95 C-3.35 0 -3.35 0 0 0 Z " fill="#0B0D3D" transform="translate(808,341)"/>
<path d="M0 0 C0.99 0.5 0.99 0.5 2 1 C3.41 6.12 2.75 10.84 2 16 C1.34 15.67 0.68 15.34 0 15 C0 10.05 0 5.1 0 0 Z " fill="#07080B" transform="translate(400,424)"/>
<path d="M0 0 C0.99 0.33 1.98 0.66 3 1 C1.88 2.79 0.75 4.58 -0.38 6.38 C-1 7.37 -1.63 8.37 -2.27 9.4 C-4 12 -4 12 -6 14 C-5.51 7.95 -5.51 7.95 -5 6 C-4.01 5.34 -3.02 4.68 -2 4 C-0.81 1.95 -0.81 1.95 0 0 Z " fill="#5758B9" transform="translate(683,349)"/>
<path d="M0 0 C2.64 0.33 5.28 0.66 8 1 C8 1.66 8 2.32 8 3 C9.32 3 10.64 3 12 3 C11.67 3.99 11.34 4.98 11 6 C6.49 4.74 3.51 3.1 0 0 Z " fill="#5253B9" transform="translate(784,442)"/>
<path d="M0 0 C0.66 0.33 1.32 0.66 2 1 C0.67 4.59 -0.83 7.84 -3 11 C-3.66 11 -4.32 11 -5 11 C-5.33 12.32 -5.66 13.64 -6 15 C-5.25 8.38 -5.25 8.38 -3 5 C-2.34 5 -1.68 5 -1 5 C-0.67 3.35 -0.34 1.7 0 0 Z " fill="#08092D" transform="translate(780,423)"/>
<path d="M0 0 C0.99 0 1.98 0 3 0 C3 3.63 3 7.26 3 11 C2.01 11 1.02 11 0 11 C0 7.37 0 3.74 0 0 Z " fill="#040508" transform="translate(440,368)"/>
<path d="M0 0 C1.94 2.91 2.97 5.41 4.12 8.69 C4.48 9.68 4.83 10.68 5.2 11.7 C5.46 12.46 5.73 13.22 6 14 C4 14 4 14 1.88 12.62 C-0.97 8.64 -0.33 4.74 0 0 Z " fill="#0F1042" transform="translate(650,405)"/>
<path d="M0 0 C1.45 3.83 0.5 6.34 -0.81 10.12 C-1.17 11.18 -1.53 12.23 -1.89 13.32 C-3 16 -3 16 -5 18 C-5.22 14.11 -4.6 11.45 -3.06 7.88 C-1.95 5.25 -0.9 2.7 0 0 Z " fill="#6062C1" transform="translate(886,399)"/>
<path d="M0 0 C0.33 0.99 0.66 1.98 1 3 C1.66 3 2.32 3 3 3 C2.31 5.38 2.31 5.38 1 8 C-0.65 8.66 -2.3 9.32 -4 10 C-2.68 6.7 -1.36 3.4 0 0 Z " fill="#5252B8" transform="translate(860,402)"/>
<path d="M0 0 C0.66 0 1.32 0 2 0 C2.75 1.75 2.75 1.75 3 4 C1.06 6.25 1.06 6.25 -1 8 C-1.66 7.67 -2.32 7.34 -3 7 C-2.39 4.04 -1.75 2.62 0 0 Z " fill="#EBEBEB" transform="translate(618,366)"/>
<path d="M0 0 C0 3 0 3 -2 6 C-1.69 8.15 -1.69 8.15 -1 10 C-2.65 10.33 -4.3 10.66 -6 11 C-5.01 10.67 -4.02 10.34 -3 10 C-3 9.34 -3 8.68 -3 8 C-3.99 7.67 -4.98 7.34 -6 7 C-4.61 3.63 -3.02 2.01 0 0 Z " fill="#07080C" transform="translate(1002,349)"/>
<path d="M0 0 C0.66 0.33 1.32 0.66 2 1 C2 2.98 2 4.96 2 7 C0.35 7 -1.3 7 -3 7 C-3.33 6.01 -3.66 5.02 -4 4 C-2.68 2.68 -1.36 1.36 0 0 Z " fill="#17181C" transform="translate(628,431)"/>
<path d="M0 0 C-0.33 0.99 -0.66 1.98 -1 3 C-6.94 2.67 -12.88 2.34 -19 2 C-19 1.67 -19 1.34 -19 1 C-16.4 0.83 -13.79 0.67 -11.19 0.5 C-10.08 0.43 -10.08 0.43 -8.95 0.36 C-5.96 0.17 -3 0 0 0 Z " fill="#484BA3" transform="translate(834,429)"/>
<path d="M0 0 C2.68 2.32 3.66 4.32 4.69 7.69 C4.94 8.5 5.19 9.3 5.45 10.14 C5.63 10.75 5.81 11.37 6 12 C5.01 11.67 4.02 11.34 3 11 C3.33 10.34 3.66 9.68 4 9 C3.01 8.67 2.02 8.34 1 8 C0.67 5.36 0.34 2.72 0 0 Z " fill="#141418" transform="translate(383,385)"/>
<path d="M0 0 C0.33 0 0.66 0 1 0 C1.18 4.55 1 7.88 -1 12 C-1.66 11.34 -2.32 10.68 -3 10 C-2.67 6.24 -1.88 3.26 0 0 Z " fill="#0F0F3B" transform="translate(678,361)"/>
<path d="M0 0 C0.33 0 0.66 0 1 0 C0.89 1.58 0.76 3.17 0.62 4.75 C0.52 6.07 0.52 6.07 0.41 7.42 C0 9.99 -0.71 11.76 -2 14 C-3.82 8.87 -1.86 4.82 0 0 Z " fill="#5556B6" transform="translate(761,354)"/>
<path d="M0 0 C1.58 -0.03 3.17 -0.05 4.75 -0.06 C6.07 -0.08 6.07 -0.08 7.42 -0.1 C9.78 -0.01 11.74 0.33 14 1 C13.67 1.99 13.34 2.98 13 4 C8.71 3.01 4.42 2.02 0 1 C0 0.67 0 0.34 0 0 Z " fill="#5153B5" transform="translate(827,338)"/>
<path d="M0 0 C0.33 0 0.66 0 1 0 C1.25 2.29 1.25 2.29 1 5 C-0.75 6.8 -0.75 6.8 -3 8.31 C-3.74 8.82 -4.49 9.34 -5.25 9.86 C-5.83 10.24 -6.4 10.61 -7 11 C-7.66 10.67 -8.32 10.34 -9 10 C-8.26 9.46 -7.51 8.93 -6.75 8.38 C-3.83 5.85 -2.06 3.24 0 0 Z " fill="#5858B7" transform="translate(747,413)"/>
<path d="M0 0 C0.66 0 1.32 0 2 0 C3.2 2.41 3.1 3.95 3.06 6.62 C3.05 7.44 3.04 8.26 3.04 9.1 C3.02 9.73 3.01 10.35 3 11 C1 10 1 10 -0.19 6.62 C-1 3 -1 3 0 0 Z " fill="#0A0A29" transform="translate(857,361)"/>
<path d="M0 0 C0.33 0 0.66 0 1 0 C1.33 4.62 1.66 9.24 2 14 C1.01 13.01 0.02 12.02 -1 11 C-1.33 11 -1.66 11 -2 11 C-2.24 6.91 -1.42 3.82 0 0 Z " fill="#E8E9EC" transform="translate(1276,362)"/>
<path d="M0 0 C-0.33 0.99 -0.66 1.98 -1 3 C-1.66 3 -2.32 3 -3 3 C-3 3.66 -3 4.32 -3 5 C-5.31 5.33 -7.62 5.66 -10 6 C-4.15 0 -4.15 0 0 0 Z " fill="#5B5CBD" transform="translate(680,326)"/>
<path d="M0 0 C3.63 0.33 7.26 0.66 11 1 C7.79 3.14 5.79 3.6 2 4 C1.34 3.67 0.68 3.34 0 3 C0 2.01 0 1.02 0 0 Z " fill="#06080B" transform="translate(1252,320)"/>
<path d="M0 0 C0 1.32 0 2.64 0 4 C-3.38 4.19 -3.38 4.19 -7 4 C-7.66 3.01 -8.32 2.02 -9 1 C-5.94 0.46 -3.11 0 0 0 Z " fill="#141519" transform="translate(599,450)"/>
<path d="M0 0 C0.99 0.33 1.98 0.66 3 1 C1.55 2.01 0.09 3 -1.38 4 C-2.59 4.84 -2.59 4.84 -3.84 5.69 C-6 7 -6 7 -8 7 C-8 6.34 -8 5.68 -8 5 C-7.34 5 -6.68 5 -6 5 C-6 4.34 -6 3.68 -6 3 C-4.02 2.67 -2.04 2.34 0 2 C0 1.34 0 0.68 0 0 Z " fill="#0C0C39" transform="translate(846,420)"/>
<path d="M0 0 C-0.48 4.22 -1.17 6.8 -4 10 C-5.34 4.62 -5.34 4.62 -3.69 1.62 C-2 0 -2 0 0 0 Z " fill="#0D0E38" transform="translate(786,414)"/>
<path d="M0 0 C0.99 0.33 1.98 0.66 3 1 C3.33 4.63 3.66 8.26 4 12 C3.34 11.67 2.68 11.34 2 11 C1.37 8.5 1.37 8.5 0.88 5.44 C0.71 4.43 0.54 3.41 0.37 2.37 C0.25 1.59 0.12 0.81 0 0 Z " fill="#0A0B2A" transform="translate(647,401)"/>
<path d="M0 0 C0.66 0.66 1.32 1.32 2 2 C1.94 4 1.94 4 1 6 C-1.56 7.25 -1.56 7.25 -4 8 C-3.4 5.65 -2.73 3.31 -2 1 C-1.34 0.67 -0.68 0.34 0 0 Z " fill="#E7E8EC" transform="translate(435,401)"/>
<path d="M0 0 C0.33 0.66 0.66 1.32 1 2 C1.66 2 2.32 2 3 2 C2.6 4.89 2.21 5.82 -0.06 7.75 C-0.7 8.16 -1.34 8.57 -2 9 C-2.33 8.34 -2.66 7.68 -3 7 C-2.06 4.64 -1.07 2.3 0 0 Z " fill="#232429" transform="translate(1275,382)"/>
<path d="M0 0 C0.66 0.33 1.32 0.66 2 1 C0.77 4.69 -0.94 5.72 -4 8 C-4.66 7.67 -5.32 7.34 -6 7 C-4.02 4.69 -2.04 2.38 0 0 Z " fill="#131417" transform="translate(989,362)"/>
<path d="M0 0 C2.82 -0.29 2.82 -0.29 6.12 -0.19 C7.77 -0.15 7.77 -0.15 9.45 -0.11 C10.29 -0.07 11.13 -0.04 12 0 C11.67 0.66 11.34 1.32 11 2 C9.87 1.98 8.73 1.96 7.56 1.94 C4.18 1.58 4.18 1.58 3 3 C1.33 3.04 -0.33 3.04 -2 3 C-1.34 2.01 -0.68 1.02 0 0 Z " fill="#05071B" transform="translate(701,341)"/>
<path d="M0 0 C1.78 2.67 2.88 5.03 4 8 C2.35 7.67 0.7 7.34 -1 7 C-1.04 5 -1.04 3 -1 1 C-0.67 0.67 -0.34 0.34 0 0 Z " fill="#18171D" transform="translate(403,430)"/>
<path d="M0 0 C0.66 0 1.32 0 2 0 C2.2 0.7 2.41 1.4 2.62 2.12 C2.89 3.03 3.16 3.94 3.44 4.88 C3.7 5.78 3.97 6.68 4.25 7.62 C4.93 9.98 4.93 9.98 6 12 C3 11 3 11 1.31 7.69 C0 4 0 4 0 0 Z " fill="#6062C6" transform="translate(652,407)"/>
<path d="M0 0 C0.33 0 0.66 0 1 0 C0.12 7.62 0.12 7.62 -1 11 C-1.66 11 -2.32 11 -3 11 C-2.89 9.54 -2.76 8.08 -2.62 6.62 C-2.56 5.81 -2.49 5 -2.41 4.16 C-2 2 -2 2 0 0 Z " fill="#0C0C38" transform="translate(861,394)"/>
<path d="M0 0 C0.33 0.66 0.66 1.32 1 2 C0.22 3.73 0.22 3.73 -0.94 5.62 C-1.62 6.74 -2.3 7.85 -3 9 C-3.66 9 -4.32 9 -5 9 C-5 9.66 -5 10.32 -5 11 C-5.66 11 -6.32 11 -7 11 C-5.51 6.41 -3.15 3.56 0 0 Z " fill="#5254AE" transform="translate(665,336)"/>
<path d="M0 0 C3.57 1.88 5.55 3.17 7 7 C4.62 6.69 4.62 6.69 2 6 C0 3 0 3 0 0 Z " fill="#E6E7E8" transform="translate(227,327)"/>
<path d="M0 0 C1.63 0.14 3.25 0.29 4.88 0.44 C5.78 0.52 6.68 0.6 7.62 0.68 C10 1 10 1 12 2 C12 2.66 12 3.32 12 4 C10.56 3.91 9.12 3.8 7.69 3.69 C6.89 3.63 6.09 3.57 5.26 3.51 C2.64 2.92 1.69 2.04 0 0 Z " fill="#6165C9" transform="translate(726,317)"/>
<path d="M0 0 C4.29 0 8.58 0 13 0 C13 0.33 13 0.66 13 1 C10.03 1 7.06 1 4 1 C3.67 1.99 3.34 2.98 3 4 C2.01 3.67 1.02 3.34 0 3 C0 2.01 0 1.02 0 0 Z " fill="#040409" transform="translate(512,452)"/>
<path d="M0 0 C0.19 3.31 0.19 3.31 0 7 C-0.99 7.99 -1.98 8.98 -3 10 C-3 7.03 -3 4.06 -3 1 C-1 0 -1 0 0 0 Z " fill="#0A0923" transform="translate(678,370)"/>
<path d="M0 0 C0.99 0.33 1.98 0.66 3 1 C2.05 2.01 1.09 3 0.12 4 C-0.41 4.56 -0.94 5.11 -1.49 5.69 C-3 7 -3 7 -5 7 C-5 6.01 -5 5.02 -5 4 C-2.69 1.75 -2.69 1.75 0 0 Z " fill="#6062CA" transform="translate(760,433)"/>
<path d="M0 0 C1.32 0.66 2.64 1.32 4 2 C4 2.99 4 3.98 4 5 C2.51 5.99 2.51 5.99 1 7 C0.34 5.02 -0.32 3.04 -1 1 C-0.67 0.67 -0.34 0.34 0 0 Z " fill="#131318" transform="translate(210,400)"/>
<path d="M0 0 C0.99 0 1.98 0 3 0 C2.12 5.75 2.12 5.75 1 8 C0.34 8 -0.32 8 -1 8 C-1.04 5.67 -1.04 3.33 -1 1 C-0.67 0.67 -0.34 0.34 0 0 Z " fill="#050508" transform="translate(433,393)"/>
<path d="M0 0 C0.66 0 1.32 0 2 0 C1.53 4.25 -0.97 6.2 -4 9 C-2.25 2.25 -2.25 2.25 0 0 Z " fill="#05071F" transform="translate(687,349)"/>
<path d="M0 0 C0.66 0.33 1.32 0.66 2 1 C2 3.97 2 6.94 2 10 C1.34 10 0.68 10 0 10 C-0.19 8.52 -0.38 7.04 -0.56 5.56 C-0.67 4.74 -0.77 3.92 -0.88 3.07 C-0.92 2.38 -0.96 1.7 -1 1 C-0.67 0.67 -0.34 0.34 0 0 Z " fill="#010104" transform="translate(486,351)"/>
<path d="M0 0 C2.97 0.5 2.97 0.5 6 1 C6 2.32 6 3.64 6 5 C6.66 5.33 7.32 5.66 8 6 C5 6 5 6 3.61 4.69 C2.41 3.12 1.2 1.56 0 0 Z " fill="#5355B5" transform="translate(847,346)"/>
<path d="M0 0 C6.52 0.49 6.52 0.49 8.94 3.06 C9.29 3.7 9.64 4.34 10 5 C9.67 5.66 9.34 6.32 9 7 C7.5 6.03 6 5.04 4.5 4.06 C3.66 3.52 2.83 2.97 1.97 2.41 C1.32 1.94 0.67 1.48 0 1 C0 0.67 0 0.34 0 0 Z " fill="#0B0C39" transform="translate(748,323)"/>
<path d="M0 0 C-2.07 2.8 -3.14 3.03 -6.69 3.69 C-7.78 3.79 -8.87 3.89 -10 4 C-10 3.34 -10 2.68 -10 2 C-6.49 0.4 -3.86 -0.22 0 0 Z " fill="#5152B6" transform="translate(856,444)"/>
<path d="M0 0 C1 2 1 2 0.44 4 C-1.57 6.8 -3.74 7.15 -7 8 C-6.02 6.85 -5.04 5.71 -4.06 4.56 C-3.52 3.92 -2.97 3.29 -2.41 2.63 C-1.63 1.73 -0.84 0.84 0 0 Z " fill="#12154B" transform="translate(765,431)"/>
<path d="M0 0 C2.25 2.69 3.88 4.65 5 8 C4.01 9.49 4.01 9.49 3 11 C3 9.68 3 8.36 3 7 C2.34 7 1.68 7 1 7 C0.67 4.69 0.34 2.38 0 0 Z " fill="#19181C" transform="translate(1232,417)"/>
<path d="M0 0 C1.04 3.13 0.93 3.99 0 7 C-0.66 7 -1.32 7 -2 7 C-2 6.34 -2 5.68 -2 5 C-2.99 5.33 -3.98 5.66 -5 6 C-3.87 2.6 -2.87 1.95 0 0 Z " fill="#030407" transform="translate(1272,392)"/>
<path d="M0 0 C0.33 0.99 0.66 1.98 1 3 C0 4 0 4 -3.06 4.06 C-4.52 4.03 -4.52 4.03 -6 4 C-5.67 3.01 -5.34 2.02 -5 1 C-3 0 -3 0 0 0 Z " fill="#DFDFE5" transform="translate(202,370)"/>
<path d="M0 0 C1.43 2.86 0.6 4.93 0 8 C-1.32 8.33 -2.64 8.66 -4 9 C-2.94 5.6 -1.99 2.99 0 0 Z " fill="#0B0C3A" transform="translate(790,354)"/>
<path d="M0 0 C1.65 0 3.3 0 5 0 C3.63 3.16 3.01 3.99 0 6 C0 4.02 0 2.04 0 0 Z " fill="#05060A" transform="translate(992,320)"/>
<path d="M0 0 C-1.33 0.67 -2.67 1.33 -4 2 C-4.68 2.39 -5.36 2.78 -6.06 3.19 C-8 4 -8 4 -11 3 C-10.67 2.34 -10.34 1.68 -10 1 C-6.63 0.06 -3.48 -0.1 0 0 Z " fill="#5357CD" transform="translate(844,428)"/>
<path d="M0 0 C5.94 2.48 5.94 2.48 12 5 C7.09 6.23 5.38 5.32 1 3 C0.67 2.01 0.34 1.02 0 0 Z " fill="#585BBC" transform="translate(692,424)"/>
<path d="M0 0 C0.66 0 1.32 0 2 0 C2 1.32 2 2.64 2 4 C1.34 4 0.68 4 0 4 C-0.33 4.99 -0.66 5.98 -1 7 C-1.66 7 -2.32 7 -3 7 C-1.12 1.12 -1.12 1.12 0 0 Z " fill="#19191D" transform="translate(454,424)"/>
<path d="M0 0 C0.33 0.66 0.66 1.32 1 2 C1.66 2.33 2.32 2.66 3 3 C1.68 4.32 0.36 5.64 -1 7 C-2 6 -2 6 -2.06 3.44 C-2.04 2.63 -2.02 1.83 -2 1 C-1.34 0.67 -0.68 0.34 0 0 Z " fill="#E8E8EB" transform="translate(940,410)"/>
<path d="M0 0 C-1.25 1.5 -1.25 1.5 -3 3 C-4.32 3 -5.64 3 -7 3 C-7 2.34 -7 1.68 -7 1 C-3.38 -1.12 -3.38 -1.12 0 0 Z " fill="#19191C" transform="translate(616,379)"/>
<path d="M0 0 C0.99 0.33 1.98 0.66 3 1 C-0.47 3.97 -0.47 3.97 -4 7 C-4 4 -4 4 -2 1.81 C-1.34 1.21 -0.68 0.62 0 0 Z " fill="#1F2023" transform="translate(1017,331)"/>
<path d="M0 0 C0.45 0.62 0.91 1.24 1.38 1.88 C2.97 4.06 2.97 4.06 5 6 C5 6.99 5 7.98 5 9 C2.5 6.75 2.5 6.75 0 4 C0 2.68 0 1.36 0 0 Z " fill="#5A5CBE" transform="translate(664,427)"/>
<path d="M0 0 C1.81 0.19 1.81 0.19 4 1 C5.75 3.56 5.75 3.56 7 6 C5.68 5.67 4.36 5.34 3 5 C3 4.34 3 3.68 3 3 C2.34 3 1.68 3 1 3 C0.67 2.01 0.34 1.02 0 0 Z " fill="#0F113C" transform="translate(660,429)"/>
<path d="M0 0 C0.66 0.33 1.32 0.66 2 1 C0.35 3.64 -1.3 6.28 -3 9 C-4.33 6.33 -3.67 4.83 -3 2 C-2.01 2 -1.02 2 0 2 C0 1.34 0 0.68 0 0 Z " fill="#5657B2" transform="translate(880,417)"/>
<path d="M0 0 C-0.66 2.31 -1.32 4.62 -2 7 C-3.5 5.62 -3.5 5.62 -5 4 C-5 3.34 -5 2.68 -5 2 C-2 0 -2 0 0 0 Z " fill="#1E1D22" transform="translate(431,407)"/>
<path d="M0 0 C0.99 0.33 1.98 0.66 3 1 C2.34 3.31 1.68 5.62 1 8 C0.34 7.67 -0.32 7.34 -1 7 C-0.67 4.69 -0.34 2.38 0 0 Z " fill="#131418" transform="translate(443,370)"/>
<path d="M0 0 C-3.01 3.01 -5.82 2.6 -10 3 C-7.3 -0.82 -4.38 -0.25 0 0 Z " fill="#6164C2" transform="translate(704,317)"/>
<path d="M0 0 C2.05 0.03 4.1 0.07 6.15 0.1 C6.15 0.76 6.15 1.42 6.15 2.1 C2.78 2.72 2.78 2.72 -0.85 3.1 C-1.51 2.44 -2.17 1.78 -2.85 1.1 C-1.85 0.1 -1.85 0.1 0 0 Z " fill="#08080C" transform="translate(1005.84765625,313.90234375)"/>
<path d="M0 0 C0.99 0 1.98 0 3 0 C3 0.66 3 1.32 3 2 C3.66 2 4.32 2 5 2 C5 2.66 5 3.32 5 4 C3.02 4 1.04 4 -1 4 C-0.67 2.68 -0.34 1.36 0 0 Z " fill="#04040B" transform="translate(362,452)"/>
<path d="M0 0 C0.99 0 1.98 0 3 0 C5.19 3 5.19 3 7 6 C5.19 5.81 5.19 5.81 3 5 C1.25 2.44 1.25 2.44 0 0 Z " fill="#070831" transform="translate(790,414)"/>
<path d="M0 0 C1.32 0.33 2.64 0.66 4 1 C4.33 2.98 4.66 4.96 5 7 C4.34 7 3.68 7 3 7 C2.67 5.35 2.34 3.7 2 2 C1.34 2 0.68 2 0 2 C0 1.34 0 0.68 0 0 Z " fill="#080B25" transform="translate(883,352)"/>
<path d="M0 0 C2.31 0 4.62 0 7 0 C6.34 1.32 5.68 2.64 5 4 C4.67 3.34 4.34 2.68 4 2 C2.68 2 1.36 2 0 2 C0 1.34 0 0.68 0 0 Z " fill="#06070B" transform="translate(968,344)"/>
<path d="M0 0 C1.75 2.62 2.39 4.04 3 7 C2.01 7.5 2.01 7.5 1 8 C1 7.01 1 6.02 1 5 C0.01 5.33 -0.98 5.66 -2 6 C-1.34 4.02 -0.68 2.04 0 0 Z " fill="#17181B" transform="translate(362,334)"/>
</svg>
