<?xml version="1.0" encoding="UTF-8"?>
<!-- Generator: visioncortex VTracer 0.6.4 -->
<svg version="1.1" xmlns="http://www.w3.org/2000/svg" width="1408" height="768">
<path d="M0 0 C464.64 0 929.28 0 1408 0 C1408 253.44 1408 506.88 1408 768 C943.36 768 478.72 768 0 768 C0 514.56 0 261.12 0 0 Z M635 187 C634.22 187.76 633.43 188.52 632.62 189.31 C631.33 190.64 631.33 190.64 630 192 C627.34 194.69 624.67 197.38 622 200.06 C621.3 200.77 620.6 201.48 619.88 202.21 C616.4 205.71 612.92 208.98 609 212 C607.31 213.65 605.64 215.31 604 217 C603.46 217.47 602.93 217.93 602.37 218.42 C599.92 221.25 600.6 225.1 600.64 228.67 C600.64 229.57 600.63 230.47 600.63 231.39 C600.63 234.41 600.64 237.43 600.66 240.44 C600.66 242.6 600.66 244.76 600.66 246.92 C600.66 252.79 600.67 258.66 600.7 264.53 C600.71 270.66 600.72 276.79 600.72 282.92 C600.73 294.53 600.75 306.14 600.78 317.75 C600.82 330.97 600.83 344.19 600.85 357.41 C600.88 384.61 600.93 411.8 601 439 C605.59 439.94 610.02 440.36 614.69 440.62 C615.46 440.68 616.23 440.73 617.03 440.78 C621.14 441.15 621.14 441.15 625 440 C627.51 440.09 629.99 440.24 632.5 440.44 C640.83 441.02 648.91 441.2 657.25 440.5 C666.04 439.78 674.79 439.58 683.56 440.56 C688.82 441.13 693.8 440.68 699.05 440.19 C702.49 439.97 705.61 440.45 709 441 C711 440.68 713 440.35 715 440 C715.73 440.15 716.46 440.31 717.21 440.46 C720.68 441.13 723.95 441.11 727.49 441.1 C728.54 441.1 728.54 441.1 729.62 441.09 C731.85 441.09 734.08 441.08 736.31 441.06 C737.83 441.06 739.35 441.05 740.87 441.05 C744.58 441.04 748.29 441.02 752 441 C752.33 440.01 752.66 439.02 753 438 C755.04 437.23 755.04 437.23 757.62 436.62 C761.96 435.45 764.97 433.95 768.48 431.19 C770 430 770 430 772.62 428.5 C776.56 426.02 779.52 423.45 781 419 C781.99 418.2 782.98 417.39 784 416.56 C797.21 405.52 805.47 387.98 807 371 C808.5 349.09 804.65 330.82 790.44 313.47 C789 311 789 311 789.07 308.45 C790.11 305.72 791.35 304.02 793.25 301.81 C807.06 284.67 808.85 262.47 806.61 241.32 C802.65 223.01 790.21 205.01 774.71 194.84 C755.94 183.44 738.1 181.68 716.6 181.63 C714.44 181.62 712.27 181.61 710.1 181.6 C705.59 181.59 701.07 181.58 696.55 181.57 C690.77 181.57 684.99 181.53 679.2 181.49 C674.74 181.46 670.28 181.45 665.82 181.45 C663.68 181.44 661.55 181.43 659.42 181.41 C656.44 181.38 653.46 181.39 650.49 181.4 C649.17 181.38 649.17 181.38 647.83 181.36 C641.8 181.43 639.23 182.68 635 187 Z M459 488 C458.34 489.65 457.68 491.3 457 493 C461.12 493.09 465.25 493.14 469.38 493.19 C470.55 493.21 471.73 493.24 472.94 493.26 C474.06 493.27 475.18 493.28 476.34 493.29 C477.37 493.31 478.41 493.32 479.48 493.34 C480.31 493.23 481.14 493.12 482 493 C482.66 492.01 483.32 491.02 484 490 C483.07 489.94 482.15 489.88 481.19 489.82 C479.99 489.73 478.8 489.65 477.56 489.56 C476.37 489.48 475.17 489.4 473.94 489.32 C471 489 471 489 470 488 C468.15 487.93 466.29 487.92 464.44 487.94 C463.43 487.95 462.41 487.96 461.37 487.96 C460.59 487.98 459.81 487.99 459 488 Z M452 494 C451.85 495.27 451.69 496.53 451.54 497.84 C451.26 500.13 450.93 502.31 450.44 504.56 C449.87 507.73 449.94 510.79 450 514 C450.66 514 451.32 514 452 514 C451.96 514.73 451.93 515.47 451.89 516.23 C451.12 532.97 450.94 549.62 451.38 566.38 C451.4 567.25 451.42 568.12 451.44 569.02 C451.5 571.5 451.57 573.98 451.65 576.46 C451.67 577.21 451.69 577.96 451.71 578.73 C451.53 582.16 451.53 582.16 453 585 C454.6 585.11 456.2 585.16 457.8 585.18 C458.83 585.19 459.86 585.2 460.91 585.22 C462.03 585.22 463.15 585.23 464.3 585.24 C466.03 585.25 466.03 585.25 467.79 585.26 C470.23 585.28 472.67 585.29 475.12 585.3 C478.82 585.31 482.53 585.36 486.24 585.4 C488.62 585.41 490.99 585.42 493.37 585.43 C495.02 585.45 495.02 585.45 496.7 585.48 C506.2 585.45 515.62 583.33 523 577 C528.97 569.12 530.03 561.82 529 552 C526.38 544.91 520.69 540.19 514 537 C514.54 536.64 515.09 536.27 515.64 535.9 C521.5 531.78 524.44 528.09 526 521 C526.99 513.71 525.2 508.02 521 502 C512.65 493.86 502.26 493.85 491.26 493.9 C490.13 493.9 489.01 493.91 487.85 493.91 C484.28 493.91 480.7 493.92 477.12 493.94 C474.7 493.94 472.27 493.95 469.84 493.95 C463.89 493.96 457.95 493.98 452 494 Z M539 494 C538.67 524.69 538.34 555.38 538 587 C546.11 588.5 546.11 588.5 555.61 586.91 C559.04 582.21 559.42 574.19 558.68 568.56 C558.3 567.05 557.91 565.54 557.52 564.04 C556.76 559.61 556.76 555.24 556.75 550.75 C556.74 549.89 556.73 549.02 556.72 548.13 C556.74 543.36 557.15 539.48 559 535 C558.34 535 557.68 535 557 535 C557.66 533.68 558.32 532.36 559 531 C558.34 531 557.68 531 557 531 C557 530.34 557 529.68 557 529 C556.34 529 555.68 529 555 529 C555 517.45 555 505.9 555 494 C549.72 494 544.44 494 539 494 Z M891 494 C891 523.7 891 553.4 891 584 C895.95 584 900.9 584 906 584 C906 582.77 906.01 581.54 906.01 580.27 C906.05 578.64 906.08 577.01 906.12 575.38 C906.12 574.57 906.12 573.76 906.12 572.93 C906.26 568.45 906.71 565.73 909.87 562.41 C913 560 913 560 916 560 C919.85 563.36 922.65 567.15 925.5 571.38 C926.61 573.02 927.73 574.66 928.86 576.29 C930 578 930 578 931.05 579.96 C932.22 581.98 933.22 583.47 935 585 C938.31 585.84 941.42 585.67 944.81 585.44 C946.14 585.39 946.14 585.39 947.49 585.34 C949.66 585.26 951.83 585.13 954 585 C952.14 581.16 949.87 577.66 947.5 574.12 C947.06 573.47 946.63 572.82 946.18 572.15 C942.6 566.82 938.9 561.59 935.14 556.39 C932.09 552.19 932.09 552.19 931 550 C930.01 550.33 929.02 550.66 928 551 C927.67 550.34 927.34 549.68 927 549 C923.56 550.53 920.91 552.63 918 555 C918.79 554.23 919.57 553.45 920.38 552.66 C927.14 546.02 927.14 546.02 933.5 539 C938.84 532.72 944.83 526.88 950.86 521.27 C952.22 520.04 952.22 520.04 952 518 C951.34 518 950.68 518 950 518 C950 517.34 950 516.68 950 516 C946.94 515.86 943.88 515.77 940.81 515.69 C939.95 515.65 939.08 515.6 938.19 515.56 C933.66 515.47 931.69 515.45 928.03 518.36 C927.03 519.66 927.03 519.66 926 521 C925.24 521.87 924.47 522.73 923.69 523.62 C921.71 525.92 921.71 525.92 922 529 C920.5 531.05 920.5 531.05 918.44 533.31 C917.78 534.05 917.11 534.79 916.43 535.55 C913.46 538.55 910.21 541.25 907 544 C907 527.5 907 511 907 494 C901.72 494 896.44 494 891 494 Z M706.06 499.5 C705.29 499.59 704.52 499.69 703.72 499.78 C702.87 499.89 702.87 499.89 702 500 C701.93 508.99 701.88 517.98 701.84 526.97 C701.83 531.14 701.81 535.31 701.77 539.49 C701.74 543.52 701.72 547.56 701.72 551.59 C701.71 553.12 701.7 554.66 701.68 556.19 C701.27 568.92 701.27 568.92 706.72 580.06 C707.31 580.51 707.89 580.97 708.5 581.44 C709.38 582.15 709.38 582.15 710.28 582.87 C713.39 584.91 716.06 585.12 719.67 585.1 C720.56 585.09 721.45 585.09 722.37 585.09 C723.77 585.08 723.77 585.08 725.19 585.06 C726.13 585.06 727.07 585.05 728.04 585.05 C730.36 585.04 732.68 585.02 735 585 C735 580.38 735 575.76 735 571 C731.42 570.84 727.84 570.67 724.26 570.51 C723.18 570.34 722.11 570.17 721 570 C718.5 566.24 718.65 563.19 718.59 558.83 C718.57 558.04 718.55 557.24 718.53 556.42 C718.47 553.89 718.42 551.35 718.38 548.81 C718.34 547.09 718.3 545.37 718.26 543.65 C718.16 539.43 718.08 535.22 718 531 C723.61 531 729.22 531 735 531 C735 526.71 735 522.42 735 518 C729.39 518 723.78 518 718 518 C718 511.73 718 505.46 718 499 C711.97 499 711.97 499 706.06 499.5 Z M613 514 C612.57 515.21 612.57 515.21 612.12 516.44 C611 519 611 519 609 520 C609.37 520.85 609.75 521.7 610.13 522.58 C611.22 526.86 610.47 528.72 608.86 532.8 C608.62 533.43 608.37 534.06 608.13 534.72 C607.35 536.74 606.55 538.74 605.75 540.75 C604.71 543.39 603.69 546.03 602.67 548.67 C602.43 549.3 602.18 549.94 601.93 550.59 C600.03 555.65 598.76 560.66 598 566 C597.34 566 596.68 566 596 566 C595.89 565.46 595.79 564.91 595.68 564.35 C594.49 558.65 592.82 553.3 590.78 547.84 C590.47 547.02 590.17 546.19 589.85 545.33 C589.21 543.6 588.57 541.87 587.92 540.14 C586.93 537.48 585.95 534.82 584.97 532.16 C584.34 530.47 583.72 528.78 583.09 527.09 C582.8 526.3 582.5 525.5 582.2 524.68 C581.06 521.07 581.06 521.07 579 518 C576.14 517.93 573.3 517.91 570.44 517.94 C569.63 517.94 568.82 517.95 567.99 517.95 C566 517.96 564 517.98 562 518 C563.99 525.05 566.38 531.85 569.09 538.65 C569.48 539.63 569.86 540.61 570.26 541.62 C571.48 544.73 572.71 547.83 573.94 550.94 C575.16 554.04 576.38 557.14 577.61 560.24 C578.36 562.16 579.12 564.08 579.88 566 C582.36 572.29 584.71 578.63 587 585 C593.27 585 599.54 585 606 585 C607.09 582.18 607.09 582.18 608.2 579.31 C608.58 578.33 608.58 578.33 608.97 577.33 C610.27 573.97 611.57 570.61 612.87 567.25 C615.43 560.64 617.99 554.02 620.56 547.41 C621.65 544.59 622.75 541.78 623.84 538.96 C624.36 537.62 624.88 536.28 625.4 534.93 C626.14 533.05 626.87 531.16 627.6 529.28 C628.02 528.21 628.43 527.14 628.86 526.03 C629.98 523.04 631.01 520.04 632 517 C627.67 514.77 624.72 515.08 620 516 C620 515.34 620 514.68 620 514 C617.69 514 615.38 514 613 514 Z M770.25 515.62 C769.45 515.81 768.64 515.99 767.81 516.18 C758.48 518.45 751.48 521.86 746 530 C739.95 540.54 738.66 553.42 741.56 565.31 C744.28 573.04 748.73 579.1 756 583 C757.01 583.62 758.02 584.24 759.06 584.88 C765.5 587.35 774.07 587.15 780.61 585.24 C784.33 583.47 787.41 581.24 790 578 C790 577.34 790 576.68 790 576 C790.66 576 791.32 576 792 576 C792 578.64 792 581.28 792 584 C796.95 584 801.9 584 807 584 C807 561.56 807 539.12 807 516 C802.74 515.15 800.08 514.98 795.88 515.38 C794.32 515.51 794.32 515.51 792.74 515.65 C789.91 515.92 789.91 515.92 787 517 C786.01 517 785.02 517 784 517 C784 516.34 784 515.68 784 515 C779.13 513.5 775.08 514.51 770.25 515.62 Z M639.41 524.41 C635.18 529.19 634.55 533.5 634.79 539.68 C635.21 544.37 636.59 546.84 639.94 550.06 C647.63 556.2 657.56 557.73 666.98 559.61 C672.79 560.79 672.79 560.79 675 563 C675.44 566.44 675.44 566.44 675 570 C671.37 572.87 668.56 573.39 664 573.31 C662.48 573.31 662.48 573.31 660.94 573.3 C656.94 572.89 654.02 572.1 651.25 569.12 C650 567 650 567 649 563 C643.72 563 638.44 563 633 563 C633 569.67 634 572.82 638 578 C647.32 586.07 656.96 586.77 668.75 586.19 C676.43 585.55 682.97 583.73 688.25 577.94 C692.95 571.87 692.59 565.4 692 558 C689.82 552 684.93 549.86 679.39 547.26 C674.05 545.28 668.66 544.53 663 544 C662.67 542.68 662.34 541.36 662 540 C664.96 537.5 667.78 535.15 671 533 C674 534 674 534 676 538 C680.95 538 685.9 538 691 538 C691 531.67 690.78 530.65 687 526 C679.62 518.65 672.6 516.89 662.25 516.75 C653.35 516.84 645.98 518.07 639.41 524.41 Z M825.27 526.86 C817.97 536.15 816.41 545.37 817 557 C818.14 565.4 822.07 572.99 828 579 C837.57 585.78 846.53 587.48 858 586 C866.81 584.06 872.65 580.07 878.31 573.19 C880.46 569.14 881.18 565.5 882 561 C876.39 561 870.78 561 865 561 C864.01 563.31 863.02 565.62 862 568 C857.91 571.84 853.76 572.37 848.35 572.27 C843.77 571.74 840.76 569.93 837.68 566.55 C833.39 559.88 834.09 550.59 835 543 C836.15 538.45 838.21 535.75 841.62 532.5 C846.77 530.21 851.71 529.91 857.09 531.7 C861.88 534.11 862.45 535.91 865 541 C870.28 541 875.56 541 881 541 C880.75 534.04 878.92 529.96 874 525 C860.02 513.72 838.1 513.07 825.27 526.86 Z M719 532 C719 536.95 719 541.9 719 547 C721.21 545.21 721.21 545.21 721.2 542.84 C721.17 542.02 721.15 541.21 721.12 540.38 C721.08 538.93 721.04 537.49 721 536 C724.63 536 728.26 536 732 536 C732.33 535.01 732.66 534.02 733 533 C733.66 532.67 734.32 532.34 735 532 C729.72 532 724.44 532 719 532 Z M1351 688 C1350.59 688.82 1350.18 689.64 1349.76 690.48 C1348.17 693.66 1346.59 696.83 1345 700 C1344.69 700.75 1344.38 701.5 1344.05 702.27 C1342.68 704.52 1341.43 705.01 1339 706 C1337.87 706.51 1337.87 706.51 1336.71 707.04 C1335.94 707.37 1335.17 707.71 1334.38 708.06 C1332.23 709.01 1330.1 709.95 1328 711 C1328 711.66 1328 712.32 1328 713 C1328.58 713.24 1329.16 713.48 1329.76 713.73 C1340.28 718.25 1345.72 723.11 1350.17 733.82 C1350.45 734.54 1350.72 735.26 1351 736 C1351.66 736 1352.32 736 1353 736 C1353.21 735.44 1353.42 734.89 1353.63 734.31 C1357.01 725.94 1361.99 719.43 1370 715 C1373.38 713.75 1373.38 713.75 1376 713 C1376 712.34 1376 711.68 1376 711 C1375.41 710.76 1374.82 710.52 1374.21 710.27 C1369.57 708.3 1365.87 706.29 1362 703 C1361.34 703 1360.68 703 1360 703 C1359.57 702.14 1359.57 702.14 1359.13 701.25 C1358.41 699.82 1357.69 698.39 1356.96 696.96 C1356.63 696.3 1356.29 695.63 1355.94 694.94 C1355.43 693.93 1355.43 693.93 1354.9 692.9 C1354 691 1354 691 1353 688 C1352.34 688 1351.68 688 1351 688 Z " fill="#F2F0E7" transform="translate(0,0)"/>
<path d="M0 0 C0.95 -0 1.91 -0 2.89 -0.01 C6.03 -0.01 9.18 0 12.32 0.01 C14.51 0.01 16.69 0.01 18.88 0.01 C23.45 0.02 28.03 0.02 32.61 0.04 C38.48 0.05 44.36 0.06 50.23 0.06 C54.74 0.06 59.25 0.06 63.76 0.07 C65.93 0.07 68.09 0.08 70.26 0.08 C73.28 0.08 76.3 0.09 79.32 0.1 C80.23 0.1 81.13 0.1 82.06 0.1 C88.24 0.13 88.24 0.13 90.47 1.24 C92.43 1.18 94.39 1.1 96.34 0.99 C103.72 0.95 108.98 2.88 115.47 6.24 C116.47 6.75 117.47 7.26 118.5 7.78 C136.85 17.76 149.16 34.46 155.09 54.32 C156.64 60.48 156.85 66.54 156.84 72.87 C156.84 73.92 156.84 74.98 156.84 76.06 C156.7 84.68 155.48 92.12 152.47 100.24 C152.02 101.49 152.02 101.49 151.56 102.76 C148.85 109.46 144.93 116.87 139.74 121.92 C139.11 122.58 139.11 122.58 138.47 123.24 C138.72 126.3 139.7 128.99 140.59 131.93 C141.47 135.24 141.47 135.24 140.47 137.24 C140.75 139.58 141.08 141.92 141.47 144.24 C143.12 144.24 144.77 144.24 146.47 144.24 C146.78 145.05 147.09 145.85 147.41 146.68 C148.23 149.13 148.23 149.13 149.47 150.24 C149.8 152.34 150.08 154.45 150.34 156.56 C151.25 163.27 152.67 169.71 154.47 176.24 C155.13 176.24 155.79 176.24 156.47 176.24 C157.98 195.3 151.07 212.78 139.03 227.24 C134.66 232.27 130.02 236.56 124.47 240.24 C123.69 240.76 122.91 241.28 122.11 241.82 C114.03 246.93 105.14 251.58 95.47 252.24 C95.14 251.58 94.81 250.92 94.47 250.24 C93.48 249.58 92.49 248.92 91.47 248.24 C92.18 247.65 92.89 247.05 93.63 246.44 C108.75 233.35 115.21 216.69 116.64 196.88 C116.99 191.34 117.25 185.79 117.47 180.24 C117.14 180.24 116.81 180.24 116.47 180.24 C116.34 173.52 116.84 166.93 117.47 160.24 C116.81 160.24 116.15 160.24 115.47 160.24 C115.47 159.58 115.47 158.92 115.47 158.24 C114.48 158.24 113.49 158.24 112.47 158.24 C112.47 156.26 112.47 154.28 112.47 152.24 C111.15 152.24 109.83 152.24 108.47 152.24 C108.47 148.24 108.47 148.24 110.47 145.24 C102.88 149.39 95.42 153.74 87.97 158.12 C87.34 158.49 86.71 158.86 86.06 159.24 C77.07 164.51 68.1 169.82 59.16 175.18 C58.13 175.79 57.11 176.4 56.05 177.03 C51.51 179.76 47 182.52 42.57 185.43 C41.47 186.15 41.47 186.15 40.34 186.89 C39.02 187.75 37.71 188.64 36.41 189.54 C33.33 191.56 31.78 192.27 28.04 191.99 C26.77 191.62 26.77 191.62 25.47 191.24 C25.47 191.9 25.47 192.56 25.47 193.24 C21.84 194.89 18.21 196.54 14.47 198.24 C14.47 197.58 14.47 196.92 14.47 196.24 C12.44 198.18 11.05 199.87 9.47 202.24 C8.81 202.24 8.15 202.24 7.47 202.24 C7.8 203.23 8.13 204.22 8.47 205.24 C5.5 206.89 2.53 208.54 -0.53 210.24 C-0.86 209.25 -1.19 208.26 -1.53 207.24 C-3.02 208.73 -4.47 210.26 -5.91 211.81 C-10.41 215.57 -15.93 215.01 -21.53 215.24 C-22.65 215.45 -23.76 215.66 -24.91 215.87 C-29.76 216.37 -34.39 215.82 -39.23 215.3 C-42.59 215.24 -44.55 215.76 -47.53 217.24 C-47.53 206.24 -47.53 206.24 -46.97 204.18 C-46.3 202.18 -46.3 202.18 -47.53 200.24 C-47.2 199.25 -46.87 198.26 -46.53 197.24 C-46.64 195.61 -46.82 193.99 -47.03 192.37 C-47.46 188.68 -47.36 185.87 -46.53 182.24 C-46.68 181.49 -46.84 180.75 -46.99 179.98 C-47.58 177.02 -47.65 174.34 -47.65 171.33 C-47.65 170.14 -47.65 168.96 -47.66 167.74 C-47.65 166.45 -47.65 165.15 -47.65 163.82 C-47.65 162.44 -47.65 161.06 -47.65 159.68 C-47.65 155.94 -47.64 152.21 -47.63 148.47 C-47.63 144.56 -47.63 140.65 -47.63 136.73 C-47.62 129.33 -47.61 121.93 -47.6 114.53 C-47.59 106.1 -47.59 97.67 -47.58 89.25 C-47.57 71.91 -47.55 54.58 -47.53 37.24 C-46.87 37.24 -46.21 37.24 -45.53 37.24 C-45.53 36.58 -45.53 35.92 -45.53 35.24 C-44.87 35.24 -44.21 35.24 -43.53 35.24 C-43.53 34.58 -43.53 33.92 -43.53 33.24 C-42.87 33.24 -42.21 33.24 -41.53 33.24 C-41.65 32.54 -41.78 31.83 -41.9 31.1 C-41.36 26.89 -38.67 25.1 -35.59 22.49 C-34.4 21.44 -33.2 20.38 -32 19.32 C-31.41 18.8 -30.82 18.28 -30.21 17.74 C-27.9 15.68 -25.71 13.51 -23.53 11.31 C-22.83 10.59 -22.12 9.88 -21.39 9.15 C-20.26 7.99 -19.15 6.83 -18.05 5.65 C-12.68 -0.05 -7.41 -0.05 0 0 Z M-9.53 30.24 C-10.03 34.8 -10.03 34.8 -8.33 38.79 C-6.2 40.51 -4.02 41.79 -1.61 43.11 C-0.12 43.93 -0.12 43.93 1.4 44.77 C2.47 45.36 3.55 45.95 4.66 46.56 C6.94 47.82 9.22 49.08 11.5 50.35 C12.09 50.68 12.67 51 13.27 51.33 C19.09 54.57 24.85 57.93 30.59 61.31 C38.45 65.92 46.34 70.46 54.28 74.93 C69.26 83.38 69.26 83.38 76.34 87.43 C77.15 87.89 77.96 88.35 78.8 88.82 C79.53 89.24 80.27 89.66 81.02 90.1 C81.67 90.47 82.31 90.83 82.98 91.21 C84.47 92.24 84.47 92.24 85.47 94.24 C84.81 94.24 84.15 94.24 83.47 94.24 C83.47 95.23 83.47 96.22 83.47 97.24 C86.77 98.23 90.07 99.22 93.47 100.24 C92.81 100.84 92.15 101.44 91.47 102.06 C89.13 104.12 89.13 104.12 89.47 107.24 C86.48 108.02 83.49 108.64 80.47 109.24 C79.13 109.57 77.8 109.9 76.47 110.24 C75.97 112.22 75.97 112.22 75.47 114.24 C73.82 114.57 72.17 114.9 70.47 115.24 C70.47 116.23 70.47 117.22 70.47 118.24 C68.82 118.24 67.17 118.24 65.47 118.24 C65.47 118.9 65.47 119.56 65.47 120.24 C62.52 121.12 60.94 121.43 58.03 120.31 C57.19 119.81 56.34 119.32 55.48 118.81 C54.53 118.27 53.59 117.73 52.61 117.17 C51.12 116.28 51.12 116.28 49.59 115.37 C48.57 114.77 47.54 114.18 46.48 113.56 C43.47 111.8 40.46 110.03 37.47 108.24 C36.69 107.78 35.91 107.31 35.11 106.84 C32.53 105.3 29.96 103.76 27.4 102.2 C23.21 99.66 18.96 97.3 14.64 94.99 C11.95 93.51 9.29 91.98 6.64 90.43 C5.78 89.93 4.92 89.42 4.03 88.91 C2.3 87.89 0.57 86.87 -1.16 85.85 C-1.95 85.38 -2.75 84.92 -3.57 84.44 C-4.28 84.02 -5 83.59 -5.74 83.16 C-7.49 82.09 -7.49 82.09 -9.53 82.24 C-9.53 83.34 -9.53 84.43 -9.53 85.56 C-9.53 115.12 -9.53 144.68 -9.53 174.24 C-8.21 173.91 -6.89 173.58 -5.53 173.24 C-5.53 172.58 -5.53 171.92 -5.53 171.24 C-2.86 170.14 -0.25 169.16 2.53 168.37 C5.73 167.14 7.16 165.71 9.47 163.24 C10.46 162.91 11.45 162.58 12.47 162.24 C12.47 161.58 12.47 160.92 12.47 160.24 C13.58 159.81 13.58 159.81 14.72 159.37 C17.4 158.32 17.4 158.32 19.59 157.12 C21.47 156.24 21.47 156.24 24.47 156.24 C24.47 155.58 24.47 154.92 24.47 154.24 C23.48 153.25 23.48 153.25 22.47 152.24 C23.14 151.86 23.81 151.47 24.51 151.07 C37.08 143.84 49.64 136.59 62.1 129.17 C67.15 126.18 72.23 123.23 77.34 120.34 C78.51 119.68 79.69 119.01 80.87 118.34 C83.12 117.06 85.38 115.79 87.64 114.53 C93.88 110.99 99.31 107.24 104.47 102.24 C105.13 102.57 105.79 102.9 106.47 103.24 C107.61 102.07 107.61 102.07 108.78 100.87 C111.47 98.24 111.47 98.24 114.47 96.24 C114.47 95.58 114.47 94.92 114.47 94.24 C115.02 94.04 115.57 93.83 116.13 93.62 C119.35 91.72 121.49 89.08 123.84 86.24 C124.33 85.66 124.81 85.08 125.31 84.48 C129.24 79.69 132.61 74.75 135.47 69.24 C135.82 68.57 136.17 67.9 136.53 67.21 C137.66 64.83 138.53 62.9 138.29 60.23 C137.19 57.56 135.84 56.81 133.39 55.3 C132.14 54.52 132.14 54.52 130.87 53.72 C129.56 52.93 129.56 52.93 128.22 52.12 C127.36 51.58 126.5 51.04 125.61 50.49 C121.64 48.03 117.85 45.89 113.47 44.24 C113.47 44.9 113.47 45.56 113.47 46.24 C112.44 45.75 111.41 45.25 110.34 44.74 C107.73 43.61 106.45 43.24 103.53 43.31 C99.79 43.23 97.79 41.96 94.57 40.2 C91.24 38.68 88.1 38.5 84.47 38.24 C84.47 37.58 84.47 36.92 84.47 36.24 C82.82 35.91 81.17 35.58 79.47 35.24 C79.47 34.58 79.47 33.92 79.47 33.24 C76.34 31.68 73 32.05 69.56 32.02 C68.75 32.01 67.93 32 67.09 31.99 C64.38 31.95 61.67 31.92 58.97 31.89 C57.09 31.87 55.22 31.84 53.34 31.82 C49.41 31.77 45.47 31.73 41.54 31.69 C36.49 31.63 31.44 31.57 26.39 31.5 C22.51 31.45 18.64 31.4 14.76 31.36 C12.9 31.34 11.04 31.32 9.17 31.29 C6.57 31.26 3.97 31.23 1.37 31.21 C0.6 31.19 -0.18 31.18 -0.97 31.17 C-4.88 31.06 -4.88 31.06 -8.53 32.24 C-8.86 31.58 -9.19 30.92 -9.53 30.24 Z " fill="#2F246C" transform="translate(650.531982421875,183.757080078125)"/>
<path d="M0 0 C1 2 1 2 1 5 C1.66 5 2.32 5 3 5 C3.33 4.01 3.66 3.02 4 2 C2.01 20.82 -5.15 34.95 -20 47 C-19.01 47.66 -18.02 48.32 -17 49 C-17 49.66 -17 50.32 -17 51 C-23.4 52.23 -23.4 52.23 -26.44 51.06 C-27.21 50.54 -27.21 50.54 -28 50 C-26.02 49.01 -26.02 49.01 -24 48 C-42.15 48 -60.3 48 -79 48 C-77.55 49.45 -75.96 49.56 -74 50 C-75.75 51.75 -78.05 51.12 -80.39 51.12 C-81.16 51.12 -81.94 51.12 -82.73 51.11 C-83.95 51.11 -83.95 51.11 -85.19 51.11 C-87.88 51.11 -90.56 51.11 -93.25 51.1 C-95.11 51.1 -96.97 51.09 -98.83 51.09 C-103.74 51.09 -108.64 51.08 -113.54 51.07 C-118.54 51.06 -123.54 51.05 -128.54 51.05 C-138.36 51.04 -148.18 51.02 -158 51 C-160.59 46.14 -161.36 42.96 -161.29 37.41 C-161.29 36.71 -161.28 36.01 -161.28 35.29 C-161.26 33.07 -161.23 30.85 -161.19 28.62 C-161.17 27.11 -161.16 25.6 -161.15 24.08 C-161.11 20.39 -161.06 16.69 -161 13 C-160.34 13.66 -159.68 14.32 -159 15 C-158.01 15 -157.02 15 -156 15 C-155.67 14.34 -155.34 13.68 -155 13 C-153.93 13.08 -152.85 13.17 -151.75 13.25 C-150.31 13.36 -148.87 13.46 -147.44 13.56 C-146.38 13.65 -146.38 13.65 -145.3 13.73 C-140.7 14.05 -136.57 13.75 -132 13 C-130.35 12.96 -128.71 12.91 -127.06 12.88 C-121.14 12.36 -117.93 9.21 -114 5 C-113.34 5.33 -112.68 5.66 -112 6 C-113.47 9.87 -115.47 11.01 -119 13 C-119.33 13.66 -119.66 14.32 -120 15 C-66.54 14.5 -66.54 14.5 -12 14 C-12.99 13.01 -12.99 13.01 -14 12 C-12.04 10.18 -10.09 8.37 -8.12 6.56 C-7.57 6.05 -7.01 5.53 -6.44 5 C-2.23 1.11 -2.23 1.11 0 0 Z " fill="#2C226A" transform="translate(763,385)"/>
<path d="M0 0 C12.33 -0.09 24.65 -0.16 36.98 -0.21 C42.71 -0.23 48.43 -0.26 54.15 -0.3 C59.69 -0.35 65.22 -0.37 70.75 -0.38 C72.85 -0.39 74.95 -0.4 77.06 -0.42 C92.18 -0.57 103.52 -0.27 114.91 10.77 C122.8 19.18 124.54 27.11 124.29 38.35 C123.94 42.72 123.52 47.29 121 51 C120.35 51.16 119.69 51.32 119.02 51.48 C116.85 51.8 116.85 51.8 115.84 53.78 C115.54 54.49 115.24 55.2 114.94 55.94 C113.54 59.23 113.14 59.9 110 62 C105.36 61.7 102.11 60.21 98.13 57.89 C97.01 57.25 95.89 56.6 94.74 55.93 C93.53 55.23 92.33 54.52 91.12 53.81 C89.87 53.08 88.61 52.36 87.36 51.63 C84.17 49.78 80.99 47.92 77.81 46.06 C75.08 44.46 72.36 42.87 69.63 41.28 C66.66 39.55 63.69 37.82 60.73 36.08 C54.06 32.18 47.36 28.35 40.62 24.56 C32.57 20.02 24.52 15.48 16.5 10.88 C14.78 9.89 13.06 8.92 11.34 7.94 C10.29 7.34 9.25 6.74 8.17 6.12 C7.24 5.59 6.32 5.06 5.36 4.51 C3.24 3.15 1.73 1.8 0 0 Z " fill="#F3F3EE" transform="translate(643,222)"/>
<path d="M0 0 C5.84 3.12 10 10.85 12.15 16.92 C14.67 28.37 13.81 38.8 7.93 48.98 C2.33 56.92 -4.88 62.07 -14.18 64.97 C-17.01 65.32 -19.33 65.24 -22.18 64.97 C-22.18 64.64 -22.18 64.31 -22.18 63.97 C-22.75 63.97 -23.32 63.98 -23.91 63.98 C-29.94 64 -35.98 64.02 -42.02 64.03 C-44.26 64.03 -46.5 64.04 -48.74 64.05 C-59.99 64.09 -71.23 64.08 -82.48 63.53 C-83.29 63.49 -84.1 63.45 -84.94 63.41 C-88.77 63.2 -92.45 62.86 -96.18 61.97 C-96.18 61.64 -96.18 61.31 -96.18 60.97 C-85.62 60.97 -75.06 60.97 -64.18 60.97 C-64.18 60.31 -64.18 59.65 -64.18 58.97 C-74.08 58.97 -83.98 58.97 -94.18 58.97 C-94.51 57.65 -94.84 56.33 -95.18 54.97 C-92.08 53.09 -88.97 51.22 -85.87 49.35 C-84.57 48.56 -84.57 48.56 -83.26 47.77 C-78.8 45.08 -74.33 42.48 -69.75 40.02 C-63.85 36.83 -58.11 33.39 -52.37 29.91 C-50.17 28.58 -47.96 27.26 -45.76 25.93 C-44.66 25.27 -43.56 24.61 -42.43 23.92 C-36.58 20.41 -30.71 16.95 -24.83 13.5 C-20.73 11.09 -16.65 8.66 -12.62 6.13 C-11.92 5.7 -11.23 5.27 -10.52 4.82 C-9.25 4.03 -7.99 3.23 -6.74 2.42 C-4.44 0.99 -2.76 -0.03 0 0 Z " fill="#F2F2EE" transform="translate(754.1796875,333.02734375)"/>
<path d="M0 0 C0 0.99 0 1.98 0 3 C0.99 3 1.98 3 3 3 C3 4.65 3 6.3 3 8 C4.11 7.79 5.23 7.59 6.38 7.38 C7.57 7.25 8.77 7.13 10 7 C12 9 12 9 12.23 10.88 C12.22 11.62 12.21 12.37 12.2 13.13 C12.19 13.94 12.18 14.74 12.18 15.57 C12.15 16.84 12.15 16.84 12.12 18.12 C12.12 18.97 12.11 19.82 12.1 20.7 C12.07 22.8 12.04 24.9 12 27 C12.33 27 12.66 27 13 27 C13.14 25.95 13.29 24.9 13.44 23.81 C13.88 20.85 14.38 17.93 15 15 C15.66 15.33 16.32 15.66 17 16 C17.34 23.12 17.35 30.3 12.31 35.86 C9.99 37.89 7.76 39.62 5 41 C5.78 41.44 5.78 41.44 6.57 41.88 C12.58 45.41 17.36 49.33 20 56 C20.23 59.09 20.23 59.09 20.19 62.5 C20.18 63.62 20.17 64.75 20.17 65.91 C20.03 68.46 19.74 70.57 19 73 C18.22 72.96 17.43 72.92 16.62 72.88 C13.84 72.71 13.84 72.71 12 75 C12 76.32 12 77.64 12 79 C8.53 79.99 8.53 79.99 5 81 C5 81.99 5 82.98 5 84 C-5.62 84.57 -16.24 85.1 -26.88 85.12 C-27.56 85.13 -28.25 85.13 -28.95 85.14 C-36.68 85.12 -44.25 84.48 -52 84 C-52 57.27 -52 30.54 -52 3 C-51.34 2.67 -50.68 2.34 -50 2 C-50.33 1.34 -50.66 0.68 -51 0 C-44.22 -0.17 -37.44 -0.33 -30.66 -0.48 C-28.35 -0.54 -26.04 -0.59 -23.73 -0.65 C-20.42 -0.73 -17.11 -0.81 -13.79 -0.88 C-12.24 -0.92 -12.24 -0.92 -10.66 -0.96 C-9.22 -0.99 -9.22 -0.99 -7.75 -1.02 C-6.48 -1.05 -6.48 -1.05 -5.18 -1.08 C-3 -1 -3 -1 0 0 Z M-39 8 C-38.84 8.54 -38.67 9.09 -38.51 9.65 C-37.92 12.37 -37.89 14.85 -37.9 17.64 C-37.9 18.61 -37.91 19.57 -37.91 20.56 C-37.92 21.78 -37.93 23 -37.94 24.25 C-37.96 28.13 -37.98 32 -38 36 C-25.13 36.5 -25.13 36.5 -12 37 C-19.59 37.33 -27.18 37.66 -35 38 C-35.33 38.66 -35.66 39.32 -36 40 C-32.05 40.05 -28.1 40.09 -24.15 40.11 C-22.14 40.12 -20.13 40.15 -18.13 40.18 C-16.24 40.19 -16.24 40.19 -14.32 40.2 C-13.16 40.21 -12 40.22 -10.8 40.23 C-7.86 40.29 -7.86 40.29 -6 38 C-5.81 37.1 -5.81 37.1 -5.62 36.19 C-5 34 -5 34 -3 31.81 C-0.29 28.01 0.36 24.65 0 20 C-1.87 16.4 -4.08 13.78 -7 11 C-7.33 10.34 -7.66 9.68 -8 9 C-11.37 7.75 -14.73 7.89 -18.3 7.9 C-20.1 7.91 -20.1 7.91 -21.95 7.91 C-23.83 7.92 -23.83 7.92 -25.75 7.94 C-27.02 7.94 -28.29 7.95 -29.6 7.95 C-32.73 7.96 -35.87 7.98 -39 8 Z M-38 49 C-38 58.9 -38 68.8 -38 79 C-35.13 80.44 -32.66 80.11 -29.46 80.1 C-28.16 80.09 -26.86 80.09 -25.52 80.09 C-24.14 80.08 -22.76 80.07 -21.38 80.06 C-19.99 80.06 -18.6 80.05 -17.21 80.05 C-13.81 80.04 -10.4 80.02 -7 80 C-6.67 79.34 -6.34 78.68 -6 78 C-6.66 77.34 -7.32 76.68 -8 76 C-8 75.34 -8 74.68 -8 74 C-6.89 73.88 -6.89 73.88 -5.75 73.75 C-2.38 72.83 -1.17 71.7 1 69 C2.97 65.26 3.51 62.2 3 58 C0.48 53.05 -1.91 51.06 -7 49 C-10.57 48.59 -10.57 48.59 -14.37 48.71 C-15.05 48.71 -15.73 48.72 -16.43 48.72 C-18.58 48.74 -20.73 48.77 -22.88 48.81 C-24.34 48.83 -25.81 48.84 -27.27 48.85 C-30.85 48.88 -34.42 48.94 -38 49 Z " fill="#170E49" transform="translate(509,496)"/>
<path d="M0 0 C3.22 1.29 5.97 2.44 8.93 4.1 C9.66 4.5 10.38 4.91 11.13 5.32 C12.27 5.97 12.27 5.97 13.44 6.62 C14.24 7.07 15.04 7.52 15.87 7.98 C22.26 11.57 28.63 15.19 34.98 18.84 C39.15 21.23 43.33 23.62 47.5 26 C49.3 27.03 51.09 28.05 52.89 29.08 C53.75 29.57 54.61 30.06 55.5 30.57 C58.49 32.28 61.47 33.98 64.45 35.69 C65.07 36.04 65.68 36.39 66.31 36.75 C68.21 37.83 70.1 38.92 72 40 C72 40.99 72 41.98 72 43 C71.16 43.47 70.33 43.95 69.46 44.43 C58.58 50.61 47.76 56.9 37.25 63.69 C32.95 66.45 28.54 68.92 24.04 71.33 C20.37 73.35 16.78 75.47 13.19 77.62 C12.57 78 11.94 78.37 11.3 78.75 C7.45 81.07 3.75 83.5 0 86 C0 57.62 0 29.24 0 0 Z " fill="#F3F3EF" transform="translate(641,266)"/>
<path d="M0 0 C2.49 1.71 4.16 3.69 5.78 6.22 C6.11 3.58 6.44 0.94 6.78 -1.78 C10.74 -1.78 14.7 -1.78 18.78 -1.78 C18.78 -1.45 18.78 -1.12 18.78 -0.78 C15.15 -0.78 11.52 -0.78 7.78 -0.78 C8.27 1.2 8.27 1.2 8.78 3.22 C10.04 3.08 11.29 2.93 12.59 2.79 C13.65 2.66 13.65 2.66 14.73 2.54 C16.97 2.25 16.97 2.25 19.78 1.22 C20.32 16.43 20.87 31.63 20.96 46.85 C20.98 48.3 20.98 48.3 21 49.78 C21.01 54.68 20.71 58.63 18.78 63.22 C14.82 63.22 10.86 63.22 6.78 63.22 C6.78 60.91 6.78 58.6 6.78 56.22 C6.12 56.22 5.46 56.22 4.78 56.22 C4.55 56.8 4.32 57.38 4.09 57.97 C2.29 61.06 0.86 62.34 -2.22 64.22 C-5.78 64.74 -9.26 64.64 -12.85 64.54 C-13.8 64.53 -14.76 64.52 -15.74 64.51 C-22.71 64.39 -22.71 64.39 -26.22 63.22 C-26.88 62.23 -27.54 61.24 -28.22 60.22 C-30.86 58.47 -33.21 57.23 -36.22 56.22 C-41.21 52.9 -42.82 48.98 -44.22 43.22 C-44.63 39.51 -44.75 35.83 -44.79 32.1 C-44.8 31.17 -44.81 30.24 -44.83 29.28 C-44.7 20.5 -41.74 13.08 -36.22 6.22 C-26.06 -2.99 -12.84 -6.67 0 0 Z M-23.96 15.48 C-29.27 22.8 -29.09 30.37 -28.22 39.22 C-26.7 44.7 -24 48.08 -19.22 51.22 C-16.42 52.62 -14.03 52.43 -10.91 52.47 C-9.78 52.5 -8.65 52.52 -7.48 52.55 C-3.85 52.19 -2.1 51.43 0.78 49.22 C2.36 47.37 2.36 47.37 3.53 45.29 C3.93 44.62 4.34 43.95 4.76 43.26 C7.78 37.2 7.72 29.88 6.06 23.42 C3.89 17.53 1.51 14.09 -4.22 11.22 C-15.12 10.04 -15.12 10.04 -23.96 15.48 Z " fill="#160E45" transform="translate(785.22265625,519.77734375)"/>
<path d="M0 0 C3.87 3.18 7.55 6.79 9.81 11.31 C9.85 13.31 9.86 15.31 9.81 17.31 C7.39 17.47 4.98 17.59 2.56 17.69 C1.88 17.74 1.2 17.79 0.5 17.84 C-1.52 17.9 -1.52 17.9 -5.19 17.31 C-7.54 14.38 -7.54 14.38 -9.19 11.31 C-13.6 8.46 -19.11 8.79 -24.19 9.31 C-27.34 10.2 -27.34 10.2 -29.19 12.31 C-29.7 15.36 -29.88 17.27 -28.13 19.91 C-25.24 22 -22.08 22.29 -18.62 22.81 C-17.18 23.06 -15.73 23.31 -14.28 23.57 C-13.57 23.69 -12.87 23.82 -12.15 23.95 C-8.02 24.72 -4.1 25.8 -0.19 27.31 C0.6 27.6 1.39 27.89 2.2 28.19 C4.63 29.34 6.11 30.22 7.81 32.31 C8.63 36.39 8.26 40.2 7.81 44.31 C7.74 45.28 7.67 46.25 7.59 47.25 C7.06 53.82 7.06 53.82 5.81 56.31 C3.5 55.98 1.19 55.65 -1.19 55.31 C-0.53 56.63 0.13 57.95 0.81 59.31 C-0.51 58.98 -1.83 58.65 -3.19 58.31 C-2.69 60.79 -2.69 60.79 -2.19 63.31 C-11.76 66.03 -23.94 67.64 -33.38 63.62 C-34.67 62.9 -35.94 62.13 -37.19 61.31 C-37.83 60.95 -38.47 60.59 -39.13 60.21 C-43.83 57.32 -46.64 53.64 -48.19 48.31 C-48.19 46.33 -48.19 44.35 -48.19 42.31 C-42.91 42.31 -37.63 42.31 -32.19 42.31 C-31.2 44.62 -30.21 46.93 -29.19 49.31 C-25.75 52.75 -21.96 52.49 -17.25 52.56 C-15.72 52.6 -15.72 52.6 -14.16 52.64 C-10.73 52.26 -8.89 51.44 -6.19 49.31 C-5.35 45.81 -5.35 45.81 -6.19 42.31 C-10.21 38.29 -16.77 38.12 -22.19 37.31 C-22.19 35.99 -22.19 34.67 -22.19 33.31 C-20.21 33.31 -18.23 33.31 -16.19 33.31 C-16.19 32.65 -16.19 31.99 -16.19 31.31 C-18.37 31.29 -20.56 31.27 -22.75 31.25 C-24.03 31.24 -25.32 31.23 -26.64 31.22 C-30.28 31.19 -30.28 31.19 -34.06 32.25 C-38.54 32.34 -40.38 30.21 -43.59 27.27 C-46.79 23.36 -46.54 18.71 -46.46 13.84 C-45.84 8.02 -42.86 4.62 -38.44 1 C-27.9 -6.24 -11.15 -5.9 0 0 Z " fill="#170E41" transform="translate(681.1875,520.6875)"/>
<path d="M0 0 C5.61 0 11.22 0 17 0 C20.78 8.86 24.22 17.79 27.5 26.84 C28.32 29.09 29.15 31.34 29.98 33.59 C30.5 35.03 31.03 36.47 31.55 37.91 C31.8 38.58 32.04 39.25 32.3 39.94 C33.32 42.78 34 44.96 34 48 C34.66 48 35.32 48 36 48 C36.12 47.18 36.12 47.18 36.25 46.35 C37.66 38.15 40.52 30.57 43.44 22.81 C43.93 21.47 44.43 20.13 44.92 18.79 C47.15 12.8 49.45 6.86 52 1 C56.95 1 61.9 1 67 1 C67 1.33 67 1.66 67 2 C63.04 2 59.08 2 55 2 C55 2.66 55 3.32 55 4 C56.11 3.96 57.23 3.92 58.38 3.88 C62 4 62 4 64 6 C64.99 6.5 64.99 6.5 66 7 C64.81 13.92 62.47 19.81 59.63 26.21 C57.99 29.97 56.54 33.78 55.12 37.62 C51.61 47.16 47.8 56.58 44 66 C38.06 66 32.12 66 26 66 C29.84 63.44 31.66 63.96 36.19 64.38 C37.46 64.49 38.73 64.6 40.04 64.71 C41.02 64.81 41.99 64.9 43 65 C42.67 64.34 42.34 63.68 42 63 C39.18 62.53 39.18 62.53 35.94 62.38 C34.83 62.3 33.73 62.23 32.59 62.15 C31.74 62.1 30.88 62.05 30 62 C30 61.01 30 60.02 30 59 C29.01 59 28.02 59 27 59 C27 60.32 27 61.64 27 63 C25.51 63.5 25.51 63.5 24 64 C23.27 62.1 22.53 60.21 21.8 58.31 C21.56 57.7 21.33 57.1 21.09 56.48 C19.77 53.07 18.45 49.67 17.14 46.26 C14.56 39.61 11.98 32.95 9.39 26.3 C8.27 23.45 7.16 20.6 6.05 17.75 C5.52 16.37 4.98 15 4.44 13.63 C3.69 11.72 2.95 9.8 2.2 7.89 C1.78 6.8 1.35 5.7 0.91 4.58 C0 2 0 2 0 0 Z " fill="#191044" transform="translate(562,518)"/>
<path d="M0 0 C0 0.99 0 1.98 0 3 C0.99 3.33 1.98 3.66 3 4 C3 5.98 3 7.96 3 10 C4.65 10 6.3 10 8 10 C8.66 11.65 9.32 13.3 10 15 C9.34 15 8.68 15 8 15 C8 15.66 8 16.32 8 17 C3.5 17.21 0.24 16.44 -4 15 C-4.99 15.5 -4.99 15.5 -6 16 C-6.76 15.2 -7.53 14.39 -8.31 13.56 C-12.39 9.67 -16.02 9.59 -21.43 9.66 C-25.5 10.2 -28.38 11.84 -31 15 C-33.77 20.26 -34.52 24.53 -34.44 30.44 C-34.43 31.19 -34.42 31.94 -34.41 32.71 C-34.25 38.13 -33.8 42.83 -30 47 C-25.86 50.73 -21.63 51.6 -16.14 51.32 C-11.98 50.69 -9.06 49.17 -6.25 46.06 C-5.05 44.08 -3.97 42.1 -3 40 C-2.67 40.66 -2.34 41.32 -2 42 C1.96 42 5.92 42 10 42 C7.01 52.17 7.01 52.17 3 55 C1.34 55.36 -0.33 55.7 -2 56 C-4.32 57.72 -4.96 58.88 -5.94 61.62 C-7 64 -7 64 -8.61 64.62 C-21.09 66.61 -30.59 65.24 -41 58 C-45.52 54.05 -47.21 50.45 -47.88 44.5 C-47.94 43 -47.99 41.5 -48 40 C-47.34 40 -46.68 40 -46 40 C-46 33.4 -46 26.8 -46 20 C-47.32 20.33 -48.64 20.66 -50 21 C-49.68 13.38 -46.03 7.95 -40.62 2.69 C-28.14 -5.34 -13.49 -7.11 0 0 Z " fill="#160D43" transform="translate(869,521)"/>
<path d="M0 0 C0.33 0 0.66 0 1 0 C1 16.5 1 33 1 50 C7.25 44.66 7.25 44.66 12.75 38.88 C13.32 38.21 13.89 37.55 14.48 36.86 C16.15 34.87 16.15 34.87 18 32.06 C20.76 29.21 23.13 29.22 27 29 C27 28.34 27 27.68 27 27 C30.96 27 34.92 27 39 27 C40 32 40 32 38.82 33.85 C38.21 34.41 37.61 34.98 36.99 35.56 C36.33 36.19 35.68 36.83 35 37.48 C34.3 38.12 33.6 38.77 32.88 39.44 C31.52 40.73 30.16 42.02 28.8 43.31 C28.15 43.93 27.5 44.54 26.83 45.18 C24.35 47.64 22.18 50.26 20 53 C18.68 52.67 17.36 52.34 16 52 C16 51.34 16 50.68 16 50 C15.34 50 14.68 50 14 50 C13.34 52.31 12.68 54.62 12 57 C11.34 57 10.68 57 10 57 C9.67 57.99 9.34 58.98 9 60 C7.67 61.33 6.33 62.67 5 64 C3.76 66.13 3.76 66.13 3 68 C1.35 67.34 -0.3 66.68 -2 66 C-1.83 66.67 -1.65 67.33 -1.48 68.02 C-0.9 71.65 -1.09 75.1 -1.38 78.75 C-1.42 79.43 -1.46 80.12 -1.51 80.82 C-1.87 85.87 -1.87 85.87 -3 87 C-5.31 87 -7.62 87 -10 87 C-10 58.95 -10 30.9 -10 2 C-7.69 2 -5.38 2 -3 2 C-2.83 6.98 -2.66 11.96 -2.5 16.94 C-2.48 17.67 -2.45 18.4 -2.43 19.15 C-2.11 28.88 -1.91 38.58 -2.06 48.31 C-2.31 50.92 -2.31 50.92 -1 52 C-0.67 34.84 -0.34 17.68 0 0 Z " fill="#1C134D" transform="translate(906,494)"/>
<path d="M0 0 C5.51 2.38 7.48 5.78 10 11 C11.9 17.09 12.05 24.3 9.5 30.19 C9 31.12 8.51 32.04 8 33 C7.01 33 6.02 33 5 33 C4.41 33.99 4.41 33.99 3.81 35 C2 37 2 37 -1.81 37.31 C-5.26 37.14 -8.62 36.68 -12 36 C-12 36.66 -12 37.32 -12 38 C-14.48 38.5 -14.48 38.5 -17 39 C-23.36 31.81 -24.57 26.33 -24.31 16.68 C-23.77 10.26 -21.53 6.93 -17.62 2 C-12.72 -1.71 -5.76 -0.72 0 0 Z " fill="#F0F1EB" transform="translate(781,531)"/>
<path d="M0 0 C2.64 0 5.28 0 8 0 C8.33 4.62 8.66 9.24 9 14 C9.12 12.91 9.25 11.81 9.38 10.69 C10 7 10 7 12 4 C12.66 2.68 13.32 1.36 14 0 C14 4.62 14 9.24 14 14 C19.61 14 25.22 14 31 14 C31 18.29 31 22.58 31 27 C30.67 27 30.34 27 30 27 C30 23.04 30 19.08 30 15 C29.67 15.33 29.34 15.66 29 16 C29 18.64 29 21.28 29 24 C22.4 24 15.8 24 9 24 C9 29.28 9 34.56 9 40 C9.66 39.01 10.32 38.02 11 37 C12.66 38.66 12.15 40.64 12.18 42.92 C12.2 43.93 12.22 44.93 12.25 45.97 C12.29 48.1 12.32 50.22 12.34 52.35 C12.51 58.62 13.05 62.11 17 67 C17.25 69.88 17.25 69.88 17 72 C18.98 72 20.96 72 23 72 C23.5 72.99 23.5 72.99 24 74 C23.67 74.66 23.34 75.32 23 76 C19.35 77.11 16.67 76.94 13 76 C13 76.66 13 77.32 13 78 C12.34 78 11.68 78 11 78 C11 78.66 11 79.32 11 80 C8.18 79.92 6.47 79.42 4.37 77.52 C-0.44 72.08 -1.14 68.59 -1.02 61.3 C-1.01 60.64 -1 59.98 -0.99 59.29 C-0.96 57.11 -0.92 54.92 -0.88 52.73 C-0.85 51.22 -0.83 49.7 -0.81 48.18 C-0.74 44.19 -0.68 40.19 -0.61 36.2 C-0.53 32.13 -0.47 28.05 -0.4 23.98 C-0.28 15.98 -0.14 7.99 0 0 Z " fill="#1A0F4B" transform="translate(704,504)"/>
<path d="M0 0 C4.31 -0.07 8.61 -0.13 12.92 -0.16 C14.38 -0.18 15.84 -0.2 17.3 -0.23 C19.41 -0.26 21.52 -0.28 23.63 -0.29 C24.9 -0.31 26.17 -0.32 27.47 -0.34 C32.69 0.16 35.89 1.8 39.44 5.62 C41.52 10.12 41.2 13.27 40 18 C38.51 21.81 37.5 22.74 33.84 24.61 C30.09 26.14 26.81 26.35 22.75 26.29 C22.1 26.29 21.44 26.28 20.77 26.28 C18.7 26.26 16.63 26.23 14.56 26.19 C13.15 26.17 11.74 26.16 10.32 26.15 C6.88 26.12 3.44 26.06 0 26 C0 17.42 0 8.84 0 0 Z " fill="#EFF0EC" transform="translate(471,545)"/>
<path d="M0 0 C4.02 -0.07 8.04 -0.13 12.06 -0.16 C13.43 -0.18 14.79 -0.2 16.16 -0.23 C18.13 -0.26 20.1 -0.28 22.07 -0.29 C23.25 -0.31 24.44 -0.32 25.66 -0.34 C30.37 0.14 33.73 1.61 36.94 5.12 C38.47 9.28 38.15 12.75 37 17 C34.84 20.46 33.88 21.71 30 23 C27.72 23.08 25.43 23.11 23.14 23.1 C22.15 23.1 22.15 23.1 21.14 23.09 C19.03 23.09 16.92 23.08 14.81 23.06 C13.38 23.06 11.95 23.05 10.52 23.05 C7.01 23.04 3.51 23.02 0 23 C0 15.41 0 7.82 0 0 Z " fill="#F4F4F1" transform="translate(471,508)"/>
<path d="M0 0 C0.66 0 1.32 0 2 0 C2.25 0.6 2.51 1.21 2.77 1.83 C4.53 5.92 6.2 9.5 9 13 C9 13.66 9 14.32 9 15 C9.54 15.25 10.07 15.5 10.62 15.75 C13 17 13 17 15.88 19 C18.9 20.93 21.57 22.02 25 23 C25 23.66 25 24.32 25 25 C24.44 25.21 23.89 25.42 23.31 25.63 C14.94 29.01 8.43 33.99 4 42 C2.76 45.22 2.76 45.22 2 48 C1.34 48 0.68 48 0 48 C-0.38 47.19 -0.75 46.38 -1.14 45.55 C-5.62 36.19 -10.27 29.49 -20.38 25.75 C-21.24 25.5 -22.11 25.25 -23 25 C-23 24.34 -23 23.68 -23 23 C-22.4 22.75 -21.79 22.49 -21.17 22.23 C-17.08 20.47 -13.5 18.8 -10 16 C-9.34 16 -8.68 16 -8 16 C-7.73 15.47 -7.47 14.94 -7.2 14.39 C-3.6 7.2 -3.6 7.2 0 0 Z " fill="#F9F8F4" transform="translate(1351,688)"/>
<path d="M0 0 C4.75 -0.43 7.78 1.02 12 3 C12.33 2.34 12.66 1.68 13 1 C21.31 5.61 29.34 10.35 37 16 C35.63 26.75 28.86 34.98 22 43 C21.34 43.79 20.68 44.59 20 45.4 C16.49 49.55 16.49 49.55 15 51 C14.34 51 13.68 51 13 51 C13 51.66 13 52.32 13 53 C11.54 54.22 11.54 54.22 9.62 55.5 C7.52 56.92 5.81 58.19 4 60 C4.63 56.28 6.32 53.83 8.44 50.75 C14.68 41.03 15.76 30.61 13.42 19.16 C11.28 12.99 7.42 8.68 2.93 4.03 C1 2 1 2 0 0 Z " fill="#1C134A" transform="translate(752,227)"/>
<path d="M0 0 C5.28 0 10.56 0 16 0 C16 30.03 16 60.06 16 91 C10.72 91 5.44 91 0 91 C0 60.97 0 30.94 0 0 Z M5 3 C5.99 3.5 5.99 3.5 7 4 C6.34 4.66 5.68 5.32 5 6 C4.81 8.65 4.75 11.2 4.77 13.85 C4.77 14.66 4.77 15.47 4.77 16.3 C4.77 18.98 4.79 21.67 4.8 24.35 C4.81 26.21 4.81 28.07 4.81 29.93 C4.82 34.82 4.84 39.72 4.86 44.61 C4.88 49.61 4.89 54.6 4.9 59.59 C4.92 69.4 4.96 79.2 5 89 C7.64 89 10.28 89 13 89 C14.57 85.87 14.14 82.53 14.13 79.09 C14.13 78.28 14.13 77.46 14.13 76.62 C14.14 73.91 14.14 71.21 14.13 68.5 C14.13 66.62 14.13 64.75 14.14 62.87 C14.14 58.94 14.14 55 14.13 51.07 C14.12 46.02 14.13 40.97 14.13 35.92 C14.14 32.04 14.14 28.17 14.13 24.3 C14.13 22.43 14.13 20.57 14.14 18.71 C14.14 16.11 14.13 13.51 14.13 10.91 C14.13 10.13 14.13 9.36 14.14 8.56 C14.2 4.65 14.2 4.65 13 1 C9.28 0.8 8.23 0.85 5 3 Z " fill="#1B143F" transform="translate(539,494)"/>
<path d="M0 0 C2.31 0 4.62 0 7 0 C7 27.72 7 55.44 7 84 C4.69 84 2.38 84 0 84 C-0.05 73.6 -0.08 63.21 -0.1 52.81 C-0.11 47.98 -0.13 43.16 -0.15 38.33 C-0.17 33.68 -0.18 29.02 -0.19 24.36 C-0.19 22.59 -0.2 20.81 -0.21 19.03 C-0.23 16.54 -0.23 14.06 -0.23 11.57 C-0.23 10.83 -0.24 10.09 -0.25 9.33 C-0.23 4.23 -0.23 4.23 2 2 C1.34 1.34 0.68 0.68 0 0 Z " fill="#1B1151" transform="translate(544,496)"/>
<path d="M0 0 C8.02 -0.04 16.05 -0.08 24.31 -0.12 C26.84 -0.14 29.37 -0.16 31.98 -0.18 C33.98 -0.19 35.99 -0.19 37.99 -0.2 C39.03 -0.21 40.07 -0.22 41.15 -0.23 C42.14 -0.23 43.14 -0.23 44.16 -0.23 C45.46 -0.23 45.46 -0.23 46.78 -0.24 C49 0 49 0 52 2 C35.83 2.33 19.66 2.66 3 3 C3 31.38 3 59.76 3 89 C19.17 89 35.34 89 52 89 C52 89.66 52 90.32 52 91 C34.84 91 17.68 91 0 91 C0 60.97 0 30.94 0 0 Z " fill="#272544" transform="translate(454,494)"/>
<path d="M0 0 C0.33 0.99 0.66 1.98 1 3 C1.66 3 2.32 3 3 3 C3.33 4.32 3.66 5.64 4 7 C4.66 7 5.32 7 6 7 C6.1 6.22 6.21 5.43 6.31 4.62 C7 2 7 2 10 0 C11.32 0 12.64 0 14 0 C15.75 2.5 15.75 2.5 17 5 C16.34 5 15.68 5 15 5 C15 6.65 15 8.3 15 10 C15.66 10 16.32 10 17 10 C16.67 8.68 16.34 7.36 16 6 C19.65 6.88 21.57 7.47 23.98 10.43 C24.52 11.38 25.06 12.33 25.62 13.31 C27.37 16.31 29.03 19.03 31.21 21.73 C33 24 33 24 33 26 C26.73 26 20.46 26 14 26 C14 25.67 14 25.34 14 25 C18.62 24.67 23.24 24.34 28 24 C24.39 22.19 23.46 21.75 19.75 21.88 C18.51 21.92 17.27 21.96 16 22 C15.67 21.01 15.34 20.02 15 19 C12.12 19.88 12.12 19.88 10 21 C9.55 20.29 9.11 19.57 8.64 18.84 C5.24 13.44 1.77 8.15 -2 3 C-1.34 2.01 -0.68 1.02 0 0 Z " fill="#1E1648" transform="translate(921,559)"/>
<path d="M0 0 C1.32 0 2.64 0 4 0 C4.33 28.71 4.66 57.42 5 87 C3.35 87 1.7 87 0 87 C0 58.29 0 29.58 0 0 Z " fill="#130B3F" transform="translate(892,496)"/>
<path d="M0 0 C4.95 0 9.9 0 15 0 C15 17.49 15 34.98 15 53 C14.01 52.34 13.02 51.68 12 51 C11.64 48.98 11.64 48.98 11.66 46.46 C11.66 45.52 11.66 44.58 11.66 43.61 C11.68 42.59 11.69 41.57 11.71 40.52 C11.71 39.48 11.72 38.44 11.72 37.37 C11.74 34.04 11.77 30.71 11.81 27.38 C11.83 25.12 11.84 22.86 11.85 20.61 C11.89 15.07 11.94 9.54 12 4 C9.02 2.37 9.02 2.37 1 2 C1 30.71 1 59.42 1 89 C3.48 88.01 3.48 88.01 6 87 C8.97 86.5 8.97 86.5 12 86 C12.33 81.05 12.66 76.1 13 71 C13.33 71 13.66 71 14 71 C14.03 73.98 14.05 76.96 14.06 79.94 C14.07 80.79 14.08 81.64 14.09 82.51 C14.09 83.32 14.09 84.13 14.1 84.96 C14.1 85.71 14.11 86.46 14.11 87.23 C14 89 14 89 13 90 C8.71 90 4.42 90 0 90 C0 60.3 0 30.6 0 0 Z " fill="#0A052D" transform="translate(891,494)"/>
<path d="M0 0 C2.34 -0.34 2.34 -0.34 5.23 -0.29 C6.77 -0.28 6.77 -0.28 8.35 -0.26 C9.43 -0.24 10.51 -0.21 11.62 -0.19 C12.71 -0.17 13.8 -0.16 14.92 -0.15 C17.62 -0.11 20.31 -0.06 23 0 C21.68 0.99 20.36 1.98 19 3 C19.99 3.99 19.99 3.99 21 5 C18.4 6.3 16.51 6.12 13.6 6.12 C12.45 6.12 11.3 6.12 10.12 6.12 C8.86 6.12 7.59 6.12 6.29 6.11 C4.95 6.11 3.61 6.11 2.27 6.11 C-1.38 6.11 -5.02 6.11 -8.67 6.1 C-12.47 6.1 -16.28 6.09 -20.08 6.09 C-27.29 6.09 -34.51 6.08 -41.72 6.07 C-49.92 6.06 -58.13 6.06 -66.34 6.05 C-83.23 6.04 -100.11 6.02 -117 6 C-117 5.67 -117 5.34 -117 5 C-116.41 4.99 -115.82 4.98 -115.21 4.98 C-100.85 4.79 -86.48 4.59 -72.12 4.37 C-65.18 4.27 -58.23 4.17 -51.28 4.08 C-44.59 4 -37.89 3.9 -31.19 3.79 C-28.63 3.75 -26.07 3.72 -23.51 3.69 C-19.93 3.65 -16.36 3.59 -12.78 3.52 C-11.72 3.52 -10.65 3.51 -9.55 3.5 C-8.58 3.48 -7.61 3.46 -6.61 3.44 C-5.76 3.42 -4.91 3.41 -4.04 3.4 C-3.03 3.2 -3.03 3.2 -2 3 C-1.34 2.01 -0.68 1.02 0 0 Z " fill="#413669" transform="translate(718,432)"/>
<path d="M0 0 C4.46 -0.06 8.92 -0.09 13.38 -0.12 C15.28 -0.15 15.28 -0.15 17.23 -0.18 C18.44 -0.18 19.65 -0.19 20.9 -0.2 C22.02 -0.21 23.14 -0.22 24.29 -0.23 C27 0 27 0 29 2 C26.36 2.33 23.72 2.66 21 3 C21.99 3.66 22.98 4.32 24 5 C-0.02 5.11 -23.99 5.06 -48 4 C-45.05 2.32 -42.89 1.74 -39.51 1.68 C-38.63 1.66 -37.75 1.64 -36.84 1.62 C-35.43 1.6 -35.43 1.6 -33.98 1.59 C-32.53 1.56 -32.53 1.56 -31.04 1.53 C-27.94 1.47 -24.85 1.42 -21.75 1.38 C-19.65 1.34 -17.55 1.3 -15.45 1.26 C-10.3 1.16 -5.15 1.08 0 1 C0 0.67 0 0.34 0 0 Z " fill="#261E55" transform="translate(701,216)"/>
<path d="M0 0 C0.81 -0.01 1.62 -0.01 2.46 -0.02 C3.35 -0.01 4.23 -0.01 5.15 0 C6.08 -0 7.02 -0.01 7.99 -0.01 C11.09 -0.02 14.2 -0 17.31 0.01 C19.47 0.01 21.64 0.01 23.8 0.01 C28.35 0.01 32.89 0.02 37.44 0.04 C43.24 0.06 49.04 0.06 54.84 0.05 C59.31 0.05 63.79 0.06 68.26 0.07 C70.4 0.07 72.54 0.07 74.67 0.07 C96.09 0.07 96.09 0.07 106 2.37 C102.33 4.82 100.33 4.61 96 4.37 C95.01 3.88 95.01 3.88 94 3.37 C90.93 3.28 87.89 3.25 84.82 3.26 C83.87 3.26 82.92 3.26 81.94 3.26 C78.78 3.26 75.63 3.27 72.47 3.28 C70.29 3.28 68.1 3.28 65.91 3.28 C60.14 3.28 54.38 3.29 48.61 3.31 C42.74 3.32 36.87 3.32 31 3.33 C19.97 3.34 8.93 3.35 -2.11 3.37 C-3.74 3.37 -5.37 3.37 -7 3.37 C-4.74 0.71 -3.49 -0 0 0 Z " fill="#3B355D" transform="translate(645.0004730224609,181.6257781982422)"/>
<path d="M0 0 C0.66 0 1.32 0 2 0 C2 30.03 2 60.06 2 91 C1.34 90.67 0.68 90.34 0 90 C-0.79 66.61 -1.19 43.39 0 20 C-0.66 20 -1.32 20 -2 20 C-2.03 18.19 -2.05 16.38 -2.06 14.56 C-2.07 13.55 -2.09 12.54 -2.1 11.5 C-2 9 -2 9 -1 8 C-0.77 6.65 -0.59 5.3 -0.44 3.94 C-0.29 2.64 -0.15 1.34 0 0 Z " fill="#F9F9F8" transform="translate(452,494)"/>
<path d="M0 0 C0 0.66 0 1.32 0 2 C-0.49 2.28 -0.99 2.56 -1.5 2.85 C-12.84 9.27 -24.11 15.79 -35.31 22.44 C-35.89 22.78 -36.46 23.12 -37.05 23.47 C-42.3 26.58 -47.53 29.68 -52.67 32.97 C-56 35 -56 35 -58 35 C-53.2 23.4 -31.4 15.21 -20.7 9.52 C-18.62 8.35 -16.62 7.14 -14.62 5.86 C-13.75 5.3 -13.75 5.3 -12.86 4.74 C-11.21 3.68 -9.58 2.61 -7.95 1.54 C-4.93 -0.03 -3.33 -0.36 0 0 Z " fill="#E3DADB" transform="translate(699,319)"/>
<path d="M0 0 C1.65 0 3.3 0 5 0 C6.57 3.13 6.14 6.47 6.13 9.91 C6.13 10.72 6.13 11.54 6.13 12.38 C6.14 15.09 6.14 17.79 6.13 20.5 C6.13 22.38 6.13 24.25 6.14 26.13 C6.14 30.06 6.14 34 6.13 37.93 C6.12 42.98 6.13 48.03 6.13 53.08 C6.14 56.96 6.14 60.83 6.13 64.7 C6.13 66.57 6.13 68.43 6.14 70.29 C6.14 72.89 6.13 75.49 6.13 78.09 C6.13 78.87 6.13 79.64 6.14 80.44 C6.11 85.77 6.11 85.77 5 88 C2.36 88 -0.28 88 -3 88 C-3 87.01 -3 86.02 -3 85 C-0.69 85 1.62 85 4 85 C4 57.28 4 29.56 4 1 C2.68 0.67 1.36 0.34 0 0 Z " fill="#0F083E" transform="translate(547,495)"/>
<path d="M0 0 C0.62 0.33 1.24 0.66 1.88 1 C0.88 3 0.88 3 -1.44 4.31 C-4.45 6.2 -6.14 8.06 -8.12 11 C-8.12 11.99 -8.12 12.98 -8.12 14 C-9.59 13.74 -11.04 13.47 -12.5 13.19 C-13.72 12.96 -13.72 12.96 -14.96 12.73 C-17.12 12 -17.12 12 -19.12 9 C-19.67 3.75 -19.67 3.75 -17.81 1.19 C-12.84 -2.31 -5.55 -1.78 0 0 Z " fill="#ECEBED" transform="translate(670.125,530)"/>
<path d="M0 0 C0.99 0.33 1.98 0.66 3 1 C-2.47 12.35 -10.05 18.56 -20.87 24.77 C-23.39 26.23 -25.9 27.72 -28.4 29.21 C-30.31 30.33 -32.22 31.45 -34.12 32.56 C-35.05 33.11 -35.98 33.66 -36.93 34.23 C-37.8 34.73 -38.67 35.23 -39.57 35.75 C-40.74 36.44 -40.74 36.44 -41.94 37.14 C-44 38 -44 38 -47 37 C-44.2 33.98 -41.5 31.95 -37.89 29.98 C-36.91 29.43 -35.93 28.88 -34.91 28.32 C-33.89 27.76 -32.87 27.2 -31.81 26.62 C-21.01 20.94 -21.01 20.94 -11 14 C-11 13.34 -11 12.68 -11 12 C-10.05 11.77 -9.1 11.55 -8.12 11.31 C-4.86 10.33 -4.86 10.33 -3.81 7.69 C-3.54 6.8 -3.28 5.91 -3 5 C-2.03 3.32 -1.03 1.65 0 0 Z " fill="#E1D9E7" transform="translate(761,272)"/>
<path d="M0 0 C0 21.78 0 43.56 0 66 C-4.95 66 -9.9 66 -15 66 C-15 65.67 -15 65.34 -15 65 C-11.04 65 -7.08 65 -3 65 C-2.25 61.01 -1.88 57.24 -1.89 53.18 C-1.89 52.06 -1.89 50.94 -1.89 49.78 C-1.89 48.59 -1.9 47.39 -1.9 46.16 C-1.9 44.93 -1.91 43.7 -1.91 42.42 C-1.91 38.49 -1.92 34.56 -1.94 30.62 C-1.94 27.95 -1.95 25.28 -1.95 22.61 C-1.96 16.08 -1.98 9.54 -2 3 C-2.66 3.66 -3.32 4.32 -4 5 C-6.16 5.2 -6.16 5.2 -8.62 5.12 C-9.44 5.11 -10.26 5.09 -11.1 5.07 C-11.73 5.05 -12.35 5.02 -13 5 C-13.33 5.66 -13.66 6.32 -14 7 C-14 5.02 -14 3.04 -14 1 C-12.23 0.83 -10.46 0.67 -8.69 0.5 C-7.7 0.41 -6.72 0.31 -5.7 0.22 C-3 0 -3 0 0 0 Z " fill="#08032E" transform="translate(807,518)"/>
<path d="M0 0 C4.16 -0.04 7.94 0.02 12 1 C12 1.66 12 2.32 12 3 C8.7 3 5.4 3 2 3 C2 25.44 2 47.88 2 71 C0 69 0 69 -0.24 66.14 C-0.24 64.92 -0.23 63.7 -0.23 62.44 C-0.23 61.77 -0.23 61.09 -0.23 60.4 C-0.23 58.17 -0.21 55.94 -0.2 53.71 C-0.19 52.17 -0.19 50.62 -0.19 49.08 C-0.18 45.01 -0.16 40.94 -0.14 36.88 C-0.12 32.73 -0.11 28.58 -0.1 24.43 C-0.08 16.29 -0.04 8.14 0 0 Z " fill="#0B072B" transform="translate(702,501)"/>
<path d="M0 0 C0.66 0.33 1.32 0.66 2 1 C1.67 1.33 1.34 1.66 1 2 C28.62 4.65 56.28 4.21 84 4 C80.1 6.62 75.98 6.27 71.47 6.23 C70.18 6.23 70.18 6.23 68.87 6.23 C66.03 6.23 63.19 6.21 60.36 6.2 C58.39 6.19 56.42 6.19 54.46 6.19 C49.28 6.18 44.11 6.16 38.93 6.14 C33.65 6.12 28.37 6.11 23.09 6.1 C12.72 6.08 2.36 6.04 -8 6 C-5.54 3.45 -3.17 1.63 0 0 Z " fill="#EFEDF9" transform="translate(652,392)"/>
<path d="M0 0 C19.8 0 39.6 0 60 0 C53.19 5.11 45.77 4.09 37.6 3.88 C36.52 3.86 35.44 3.83 34.33 3.81 C30.91 3.73 27.49 3.65 24.06 3.56 C21.73 3.51 19.4 3.46 17.08 3.4 C11.38 3.28 5.69 3.14 0 3 C0 2.01 0 1.02 0 0 Z " fill="#110A3D" transform="translate(457,580)"/>
<path d="M0 0 C0.33 0 0.66 0 1 0 C1.26 8.63 1.53 17.27 1.78 25.9 C1.9 29.91 2.02 33.92 2.15 37.94 C2.29 42.58 2.43 47.22 2.56 51.86 C2.58 52.61 2.61 53.36 2.63 54.14 C2.91 63.98 3.11 73.81 2.96 83.65 C2.92 87.31 3.06 90.8 3.56 94.42 C4 98 4 98 3 100 C3.21 102.58 3.58 105.12 3.94 107.69 C3.96 108.45 3.98 109.21 4 110 C3.01 110.99 3.01 110.99 2 112 C0.67 101.07 0.65 90.06 0.44 79.06 C0.42 78.01 0.4 76.96 0.37 75.88 C-0.13 50.59 -0.1 25.3 0 0 Z " fill="#1B1449" transform="translate(601,272)"/>
<path d="M0 0 C0.66 0 1.32 0 2 0 C2 0.66 2 1.32 2 2 C2.66 2 3.32 2 4 2 C3.34 3.32 2.68 4.64 2 6 C2.66 6.33 3.32 6.66 4 7 C3.68 7.63 3.35 8.25 3.02 8.89 C1.61 13.19 1.7 17.19 1.75 21.69 C1.75 22.59 1.75 23.49 1.76 24.42 C1.81 28.89 2 33.03 3.12 37.38 C4.64 43.49 3.91 50.05 2 56 C-0.59 58.41 -0.59 58.41 -3 60 C-3.33 59.67 -3.66 59.34 -4 59 C-6.18 58.77 -8.37 58.59 -10.56 58.44 C-12.36 58.31 -12.36 58.31 -14.19 58.18 C-15.58 58.09 -15.58 58.09 -17 58 C-17 57.34 -17 56.68 -17 56 C-11.39 56 -5.78 56 0 56 C0 37.52 0 19.04 0 0 Z " fill="#F8F6F8" transform="translate(555,529)"/>
<path d="M0 0 C25.41 0 50.82 0 77 0 C75 2 75 2 73.16 2.21 C72.42 2.19 71.69 2.18 70.93 2.16 C70.12 2.15 69.3 2.14 68.46 2.13 C67.61 2.11 66.75 2.08 65.88 2.06 C59.78 1.93 54.04 2.18 48 3 C40.4 3.31 32.92 2.93 25.36 2.12 C22.98 1.8 22.98 1.8 21 3 C18.38 2.94 15.8 2.81 13.19 2.62 C12.12 2.56 12.12 2.56 11.03 2.49 C7.28 2.24 3.66 1.85 0 1 C0 0.67 0 0.34 0 0 Z " fill="#FCFAFA" transform="translate(601,438)"/>
<path d="M0 0 C0 3 0 3 -2.5 5.94 C-5.46 8.78 -8.53 10.49 -12.27 12.14 C-14.19 12.98 -14.19 12.98 -16 15 C-18.54 15.82 -21.1 16.46 -23.69 17.12 C-26.33 17.87 -26.33 17.87 -28 21 C-32.29 20.67 -36.58 20.34 -41 20 C-41.33 19.01 -41.66 18.02 -42 17 C-40.98 16.84 -39.97 16.68 -38.92 16.52 C-25.32 14.27 -10.05 10.05 0 0 Z " fill="#F2F0F7" transform="translate(779,420)"/>
<path d="M0 0 C1.98 0 3.96 0 6 0 C5.67 13.2 5.34 26.4 5 40 C2.81 36.71 2.71 35.52 2.59 31.68 C2.55 30.65 2.51 29.62 2.47 28.56 C2.44 27.49 2.41 26.42 2.38 25.31 C2.34 24.23 2.3 23.15 2.26 22.03 C2.16 19.35 2.08 16.68 2 14 C1.01 14.99 0.02 15.98 -1 17 C-1.03 14.73 -1.05 12.46 -1.06 10.19 C-1.08 8.29 -1.08 8.29 -1.1 6.36 C-1 3 -1 3 0 0 Z " fill="#11073A" transform="translate(713,528)"/>
<path d="M0 0 C9.57 0 19.14 0 29 0 C29 0.66 29 1.32 29 2 C29.66 2.66 30.32 3.32 31 4 C28.66 6.34 22.81 5.17 19.7 5.19 C19.02 5.19 18.34 5.19 17.64 5.19 C15.57 5.19 13.51 5.21 11.44 5.22 C10.14 5.23 8.84 5.23 7.5 5.23 C6.31 5.23 5.11 5.24 3.87 5.24 C1 5 1 5 -1 3 C-0.67 2.01 -0.34 1.02 0 0 Z " fill="#0B0437" transform="translate(472,571)"/>
<path d="M0 0 C0.33 0.66 0.66 1.32 1 2 C2.65 1.34 4.3 0.68 6 0 C5.67 6.93 5.34 13.86 5 21 C4.34 21 3.68 21 3 21 C3.33 23.97 3.66 26.94 4 30 C-1.77 24.23 -1.11 15.51 -1.13 7.9 C-1.01 5.16 -0.62 2.67 0 0 Z " fill="#211A47" transform="translate(818,540)"/>
<path d="M0 0 C1.13 0 1.13 0 2.28 0 C4.68 0.01 7.09 0.02 9.49 0.04 C11.12 0.04 12.75 0.04 14.38 0.05 C18.38 0.06 22.37 0.08 26.37 0.1 C25.71 1.42 25.05 2.74 24.37 4.1 C19.78 4.13 15.2 4.14 10.62 4.16 C9.32 4.17 8.01 4.18 6.67 4.19 C4.8 4.19 4.8 4.19 2.88 4.2 C1.15 4.2 1.15 4.2 -0.61 4.21 C-4.63 4.06 -6.76 3.97 -9.63 1.1 C-6.57 -0.44 -3.36 -0.02 0 0 Z " fill="#22165E" transform="translate(691.6328125,431.90234375)"/>
<path d="M0 0 C1.38 1.87 2.68 3.8 3.94 5.75 C6.71 10.09 6.71 10.09 9.82 14.2 C10.21 14.8 10.6 15.39 11 16 C10.67 16.99 10.34 17.98 10 19 C9.01 18.01 8.02 17.02 7 16 C7 16.99 7 17.98 7 19 C6.34 19 5.68 19 5 19 C5 16.67 5 14.33 5 12 C4.67 11.01 4.34 10.02 4 9 C0.49 10.21 0.49 10.21 -3 12 C-4.04 14.07 -4.04 14.07 -4 16 C-4.66 16 -5.32 16 -6 16 C-6.33 14.68 -6.66 13.36 -7 12 C-7.66 12 -8.32 12 -9 12 C-8.73 7.5 -5.14 0 0 0 Z " fill="#150F38" transform="translate(931,550)"/>
<path d="M0 0 C0 0.33 0 0.66 0 1 C1.65 1.33 3.3 1.66 5 2 C5 2.66 5 3.32 5 4 C-41.03 4.5 -41.03 4.5 -88 5 C-88 4.34 -88 3.68 -88 3 C-63.25 2.67 -38.5 2.34 -13 2 C-13 1.67 -13 1.34 -13 1 C-8.59 -0.1 -4.52 -0.08 0 0 Z " fill="#2F256A" transform="translate(730,218)"/>
<path d="M0 0 C5.28 0 10.56 0 16 0 C14.79 8.49 11.61 14.24 4.9 19.71 C-0.17 23.14 -0.17 23.14 -3.24 22.62 C-3.82 22.41 -4.4 22.21 -5 22 C-4.34 22 -3.68 22 -3 22 C-2.67 20.68 -2.34 19.36 -2 18 C-1.34 18 -0.68 18 0 18 C0.33 17.01 0.66 16.02 1 15 C2.99 14.31 4.99 13.64 7 13 C9.57 10.9 10.62 8.92 11.69 5.81 C12.34 3.93 12.34 3.93 13 2 C6.57 2.5 6.57 2.5 0 3 C0 2.01 0 1.02 0 0 Z " fill="#110E30" transform="translate(866,561)"/>
<path d="M0 0 C19.8 0 39.6 0 60 0 C60 0.66 60 1.32 60 2 C51.98 3.09 43.28 4.11 35.3 2.43 C32.85 1.78 32.85 1.78 30 3 C29.05 2.83 28.1 2.67 27.12 2.5 C23.55 1.9 20.29 2.16 16.69 2.5 C10.97 3.02 5.67 2.83 0 2 C0 1.34 0 0.68 0 0 Z " fill="#FCFAFA" transform="translate(678,438)"/>
<path d="M0 0 C2 1 2 1 3.25 4.2 C3.7 5.55 4.13 6.9 4.56 8.25 C4.78 8.92 5 9.59 5.23 10.28 C7.08 15.95 8.13 20.85 8.06 26.81 C8.05 27.79 8.04 28.76 8.04 29.77 C8.02 30.51 8.01 31.24 8 32 C7.01 32 6.02 32 5 32 C0.62 15.57 0.62 15.57 0.27 8.02 C-0.04 5.69 -0.85 4.04 -2 2 C-1.34 1.34 -0.68 0.68 0 0 Z " fill="#292257" transform="translate(799,328)"/>
<path d="M0 0 C2 3 2 3 1.71 5.16 C-1.2 13.17 -6.28 17.05 -13 22 C-13.66 22.66 -14.32 23.32 -15 24 C-14.34 24.66 -13.68 25.32 -13 26 C-16.87 27.27 -20.73 27.11 -24.75 27.06 C-25.45 27.06 -26.14 27.05 -26.86 27.05 C-28.58 27.04 -30.29 27.02 -32 27 C-29.72 24.72 -28.58 24.51 -25.5 23.75 C-16.77 21.23 -8.99 16.76 -4 9 C-2.5 6.06 -1.19 3.08 0 0 Z " fill="#18133C" transform="translate(765,373)"/>
<path d="M0 0 C1.14 0.02 2.28 0.04 3.46 0.06 C5.31 0.1 5.31 0.1 7.2 0.14 C8.47 0.17 9.73 0.19 11.03 0.21 C14.39 0.28 17.74 0.35 21.1 0.42 C24.53 0.49 27.95 0.55 31.38 0.62 C38.1 0.75 44.82 0.88 51.54 1.02 C52.04 2.01 52.04 2.01 52.54 3.02 C32.74 3.02 12.94 3.02 -7.46 3.02 C-7.46 2.36 -7.46 1.7 -7.46 1.02 C-4.83 -0.29 -2.95 -0.06 0 0 Z " fill="#120B3F" transform="translate(649.45947265625,214.978271484375)"/>
<path d="M0 0 C0 0.66 0 1.32 0 2 C-0.91 2.1 -1.82 2.21 -2.75 2.31 C-6.06 3.01 -7.45 3.9 -10 6 C-10.66 6 -11.32 6 -12 6 C-12.33 6.99 -12.66 7.98 -13 9 C-13.62 9.14 -14.24 9.29 -14.88 9.44 C-17.18 9.81 -17.18 9.81 -18.44 12 C-20.48 14.61 -21.78 14.54 -25 15 C-27.72 15.79 -27.72 15.79 -30 17 C-30.33 17.99 -30.66 18.98 -31 20 C-32.32 19.67 -33.64 19.34 -35 19 C-35 18.34 -35 17.68 -35 17 C-31.5 14.52 -27.75 12.41 -24.06 10.23 C-21.86 8.92 -19.7 7.57 -17.53 6.21 C-16.02 5.29 -14.51 4.36 -13 3.44 C-12.28 2.98 -11.57 2.53 -10.83 2.06 C-4.51 -1.75 -4.51 -1.75 0 0 Z " fill="#251C4A" transform="translate(675,338)"/>
<path d="M0 0 C6 0.3 9.74 3.02 14 7 C16.17 9.87 17.19 11.55 16.72 15.17 C16.37 16.72 15.97 18.27 15.55 19.81 C14.86 22.57 14.85 25.16 15 28 C14.34 28.33 13.68 28.66 13 29 C11.85 26.7 11.88 25.42 11.9 22.87 C11.91 22.06 11.91 21.26 11.91 20.43 C11.92 19.58 11.93 18.74 11.94 17.88 C11.94 17.03 11.95 16.18 11.95 15.3 C11.96 13.2 11.98 11.1 12 9 C9.07 8.02 7.04 7.92 4 8 C4 6.35 4 4.7 4 3 C3.01 3 2.02 3 1 3 C0.67 2.01 0.34 1.02 0 0 Z " fill="#120B39" transform="translate(508,496)"/>
<path d="M0 0 C0 0.66 0 1.32 0 2 C1.67 2.04 3.33 2.04 5 2 C5.33 1.67 5.66 1.34 6 1 C8.69 0.76 11.36 0.58 14.06 0.44 C14.82 0.39 15.58 0.35 16.36 0.31 C18.24 0.2 20.12 0.1 22 0 C22.5 0.99 22.5 0.99 23 2 C19.71 3.1 17.26 3.1 13.81 3.06 C12.18 3.05 12.18 3.05 10.52 3.04 C9.69 3.02 8.86 3.01 8 3 C8 5.97 8 8.94 8 12 C6.99 11.07 5.98 10.14 4.94 9.19 C-0.88 4.24 -6.55 2.65 -14 2 C-14 1.67 -14 1.34 -14 1 C-4.59 -1.48 -4.59 -1.48 0 0 Z " fill="#F3F2F6" transform="translate(784,515)"/>
<path d="M0 0 C2.79 2.26 3.9 3.42 4.5 7.02 C4.28 19.44 4.28 19.44 -0.58 24.72 C-2.32 26.38 -3.93 27.77 -6 29 C-8.94 28.88 -8.94 28.88 -11 28 C-10.67 27.01 -10.34 26.02 -10 25 C-9.01 25 -8.02 25 -7 25 C-7.33 24.01 -7.66 23.02 -8 22 C-5.69 22.33 -3.38 22.66 -1 23 C-0.83 20.1 -0.67 17.21 -0.5 14.31 C-0.45 13.5 -0.4 12.68 -0.36 11.84 C-0.13 7.89 0.06 3.96 0 0 Z " fill="#0E0A2F" transform="translate(688,554)"/>
<path d="M0 0 C0.66 0 1.32 0 2 0 C2 0.66 2 1.32 2 2 C2.99 2 3.98 2 5 2 C3.61 5.24 2.06 7.03 -0.66 9.26 C-10.61 17.63 -10.61 17.63 -14.48 29.55 C-14.51 33.08 -14.36 36.49 -14 40 C-14.66 39.67 -15.32 39.34 -16 39 C-16 31.41 -16 23.82 -16 16 C-14.35 16.33 -12.7 16.66 -11 17 C-10.4 15.91 -9.8 14.81 -9.19 13.69 C-7.71 11.11 -6.38 8.84 -4 7 C-3.34 7 -2.68 7 -2 7 C-1.34 4.69 -0.68 2.38 0 0 Z " fill="#0A052C" transform="translate(920,544)"/>
<path d="M0 0 C6.1 3.22 9.36 7.67 12 14 C12 15.65 12 17.3 12 19 C6.72 19 1.44 19 -4 19 C-4.33 17.35 -4.66 15.7 -5 14 C-2.33 12.67 -0.83 13.33 2 14 C2 14.66 2 15.32 2 16 C2.62 15.81 3.24 15.63 3.88 15.44 C6 15 6 15 8 16 C8 14.68 8 13.36 8 12 C8 11.01 8 10.02 8 9 C6.35 9 4.7 9 3 9 C2.88 8.03 2.75 7.06 2.62 6.06 C2.32 4.55 2.32 4.55 2 3 C1.34 2.67 0.68 2.34 0 2 C0 1.34 0 0.68 0 0 Z " fill="#150F35" transform="translate(869,522)"/>
<path d="M0 0 C0.33 0 0.66 0 1 0 C1.33 20.13 1.66 40.26 2 61 C2.66 61.33 3.32 61.66 4 62 C3.81 62.6 3.63 63.2 3.44 63.81 C2.78 66.16 2.78 66.16 4 69 C3.56 71.69 3.56 71.69 3 74 C2.01 74 1.02 74 0 74 C0 49.58 0 25.16 0 0 Z " fill="#0D0A31" transform="translate(601,324)"/>
<path d="M0 0 C0.33 0 0.66 0 1 0 C1.33 11.55 1.66 23.1 2 35 C2.99 35.33 3.98 35.66 5 36 C4.5 36.5 4.5 36.5 4 37 C20.83 37.33 37.66 37.66 55 38 C55 38.33 55 38.66 55 39 C36.85 39 18.7 39 0 39 C0 26.13 0 13.26 0 0 Z " fill="#251956" transform="translate(601,398)"/>
<path d="M0 0 C2.7 0.09 5.37 0.24 8.06 0.44 C9.2 0.52 9.2 0.52 10.36 0.6 C12.24 0.73 14.12 0.86 16 1 C16 1.33 16 1.66 16 2 C8.08 2.5 8.08 2.5 0 3 C0.08 4.23 0.15 5.46 0.23 6.73 C1.13 22.46 0.95 38.11 0.61 53.86 C0.53 57.27 0.47 60.69 0.4 64.1 C0.28 70.73 0.14 77.37 0 84 C-0.33 84 -0.66 84 -1 84 C-1.02 73.2 -1.04 62.39 -1.05 51.59 C-1.06 46.57 -1.06 41.55 -1.08 36.54 C-1.09 31.7 -1.09 26.86 -1.09 22.03 C-1.1 20.18 -1.1 18.33 -1.11 16.48 C-1.11 13.9 -1.11 11.31 -1.11 8.73 C-1.12 7.96 -1.12 7.19 -1.12 6.39 C-1.11 1.11 -1.11 1.11 0 0 Z " fill="#0E073B" transform="translate(457,496)"/>
<path d="M0 0 C4.56 1.91 8.41 4.59 12.44 7.44 C8.5 11.88 4.01 15.25 -1.56 17.44 C-2.55 17.11 -3.54 16.78 -4.56 16.44 C-3.25 14.94 -3.25 14.94 -1.56 13.44 C-0.57 13.44 0.42 13.44 1.44 13.44 C1.59 12.54 1.59 12.54 1.75 11.62 C2.44 9.44 2.44 9.44 5.44 6.44 C2.14 5.45 -1.16 4.46 -4.56 3.44 C-4.56 2.45 -4.56 1.46 -4.56 0.44 C-2.56 -0.56 -2.56 -0.56 0 0 Z " fill="#1D173D" transform="translate(738.5625,277.5625)"/>
<path d="M0 0 C6.93 0.5 6.93 0.5 14 1 C14 4.96 14 8.92 14 13 C11.03 12.67 8.06 12.34 5 12 C6.32 11.67 7.64 11.34 9 11 C8.45 8.46 8.45 8.46 7 6 C3.95 5.1 3.95 5.1 1 5 C0.67 3.35 0.34 1.7 0 0 Z " fill="#0C0534" transform="translate(720,571)"/>
<path d="M0 0 C10.56 0 21.12 0 32 0 C31 4 31 4 30 5 C27.93 5.09 25.85 5.11 23.78 5.1 C22.52 5.09 21.26 5.09 19.96 5.09 C18.62 5.08 17.28 5.07 15.94 5.06 C14.59 5.06 13.25 5.05 11.9 5.05 C8.6 5.04 5.3 5.02 2 5 C2.33 4.34 2.66 3.68 3 3 C10.59 2.67 18.18 2.34 26 2 C13.13 1.5 13.13 1.5 0 1 C0 0.67 0 0.34 0 0 Z " fill="#26204C" transform="translate(471,531)"/>
<path d="M0 0 C1.81 -0.03 3.62 -0.05 5.44 -0.06 C6.45 -0.07 7.46 -0.09 8.5 -0.1 C11 0 11 0 12 1 C14.18 1.23 16.37 1.41 18.56 1.56 C19.76 1.65 20.96 1.73 22.19 1.82 C23.12 1.88 24.05 1.94 25 2 C24.01 3.49 24.01 3.49 23 5 C20.48 5.34 20.48 5.34 17.34 5.29 C16.21 5.28 15.09 5.27 13.94 5.26 C12.76 5.24 11.59 5.21 10.38 5.19 C8.6 5.17 8.6 5.17 6.79 5.15 C3.86 5.11 0.93 5.06 -2 5 C-1.34 3.35 -0.68 1.7 0 0 Z " fill="#F7F6F5" transform="translate(459,488)"/>
<path d="M0 0 C3.96 0 7.92 0 12 0 C12 4.62 12 9.24 12 14 C5.4 14 -1.2 14 -8 14 C-8 13.01 -8 12.02 -8 11 C-7.34 11 -6.68 11 -6 11 C-6 10.34 -6 9.68 -6 9 C-2.7 9 0.6 9 4 9 C4 8.34 4 7.68 4 7 C4.66 7 5.32 7 6 7 C6.33 8.65 6.66 10.3 7 12 C8.32 12.33 9.64 12.66 11 13 C11 9.04 11 5.08 11 1 C7.37 1 3.74 1 0 1 C0 0.67 0 0.34 0 0 Z " fill="#302950" transform="translate(723,571)"/>
<path d="M0 0 C3.85 1.27 7.68 1.07 11.69 1 C17.55 0.94 23.19 1.17 29 2 C29 2.66 29 3.32 29 4 C10.19 4.5 10.19 4.5 -9 5 C-6.64 0.29 -5.24 -1.75 0 0 Z " fill="#FBFBF8" transform="translate(661,390)"/>
<path d="M0 0 C30.36 0 60.72 0 92 0 C92 0.33 92 0.66 92 1 C61.64 1 31.28 1 0 1 C0 0.67 0 0.34 0 0 Z " fill="#2D236B" transform="translate(643,398)"/>
<path d="M0 0 C4.42 -0.03 8.83 -0.05 13.25 -0.06 C15.13 -0.08 15.13 -0.08 17.05 -0.09 C18.86 -0.09 18.86 -0.09 20.7 -0.1 C22.37 -0.11 22.37 -0.11 24.07 -0.11 C28.71 0.07 28.71 0.07 31 1 C31.33 1.99 31.66 2.98 32 4 C21.77 3.67 11.54 3.34 1 3 C0.67 2.01 0.34 1.02 0 0 Z " fill="#06012B" transform="translate(470,504)"/>
<path d="M0 0 C29.7 0 59.4 0 90 0 C90 0.33 90 0.66 90 1 C60.3 1 30.6 1 0 1 C0 0.67 0 0.34 0 0 Z " fill="#130D44" transform="translate(643,399)"/>
<path d="M0 0 C0.33 0 0.66 0 1 0 C1 29.7 1 59.4 1 90 C0.67 90 0.34 90 0 90 C0 60.3 0 30.6 0 0 Z " fill="#271D5F" transform="translate(602,222)"/>
<path d="M0 0 C0.93 0.02 1.86 0.05 2.82 0.07 C5.11 0.13 7.4 0.21 9.69 0.31 C9.69 2.31 9.69 2.31 7.31 4.94 C4.69 7.31 4.69 7.31 2.69 7.31 C2.69 5.99 2.69 4.67 2.69 3.31 C-1.27 3.31 -5.23 3.31 -9.31 3.31 C-9.31 3.97 -9.31 4.63 -9.31 5.31 C-11.29 6.3 -11.29 6.3 -13.31 7.31 C-13.97 6.65 -14.63 5.99 -15.31 5.31 C-10.93 -0.55 -7.01 -0.32 0 0 Z " fill="#282242" transform="translate(942.3125,517.6875)"/>
<path d="M0 0 C-0.12 1.42 -0.24 2.83 -0.38 4.25 C-0.44 5.04 -0.51 5.83 -0.59 6.64 C-1.02 9.11 -1.83 10.8 -3 13 C-3.7 15.32 -4.37 17.66 -5 20 C-5.33 20 -5.66 20 -6 20 C-6 15.05 -6 10.1 -6 5 C-5.34 5 -4.68 5 -4 5 C-4 4.34 -4 3.68 -4 3 C-7.96 2.67 -11.92 2.34 -16 2 C-16 1.67 -16 1.34 -16 1 C-10.63 0.32 -5.41 -0.12 0 0 Z " fill="#1E1746" transform="translate(718,499)"/>
<path d="M0 0 C0.66 0 1.32 0 2 0 C1.46 3.8 -0.16 5.5 -3 8 C-5.83 9.42 -8.28 9.21 -11.44 9.25 C-12.59 9.28 -13.74 9.3 -14.93 9.33 C-18 9 -18 9 -19.91 7.48 C-20.45 6.75 -20.45 6.75 -21 6 C-19.68 6 -18.36 6 -17 6 C-17 5.34 -17 4.68 -17 4 C-16.02 4.05 -15.05 4.09 -14.04 4.14 C-12.13 4.19 -12.13 4.19 -10.19 4.25 C-8.92 4.3 -7.66 4.34 -6.36 4.39 C-2.93 4.37 -2.93 4.37 -1.18 1.98 C-0.79 1.33 -0.4 0.67 0 0 Z " fill="#F6F6F6" transform="translate(786,563)"/>
<path d="M0 0 C0.66 0.33 1.32 0.66 2 1 C0.68 2.32 -0.64 3.64 -2 5 C-1.67 5.99 -1.34 6.98 -1 8 C0.32 7.67 1.64 7.34 3 7 C2.67 9.31 2.34 11.62 2 14 C2.8 14.14 3.61 14.29 4.44 14.44 C7 15 7 15 8 16 C7.91 18.02 7.75 20.05 7.56 22.06 C7.46 23.17 7.36 24.27 7.25 25.41 C7.17 26.26 7.09 27.12 7 28 C5.23 25.34 4.35 23.34 3.31 20.38 C1.42 15.44 -1.23 11.86 -4.71 7.91 C-5.13 7.28 -5.56 6.65 -6 6 C-5 3 -5 3 -2.56 1.25 C-1.72 0.84 -0.87 0.43 0 0 Z " fill="#1A1346" transform="translate(761,328)"/>
<path d="M0 0 C2.34 0.26 4.68 0.59 7 1 C7.33 1.66 7.66 2.32 8 3 C4.95 4.88 1.88 6.72 -1.19 8.56 C-2.05 9.1 -2.92 9.63 -3.81 10.18 C-4.65 10.68 -5.49 11.18 -6.36 11.69 C-7.13 12.16 -7.9 12.62 -8.69 13.1 C-11.53 14.2 -13.12 13.84 -16 13 C-15.36 12.71 -14.72 12.42 -14.06 12.12 C-11.85 11.17 -11.85 11.17 -11 9 C-9.68 9 -8.36 9 -7 9 C-7 8.01 -7 7.02 -7 6 C-6.22 5.94 -5.43 5.88 -4.62 5.81 C-3.76 5.54 -2.89 5.28 -2 5 C-0.63 2.52 -0.63 2.52 0 0 Z " fill="#261D47" transform="translate(728,293)"/>
<path d="M0 0 C2.31 0 4.62 0 7 0 C7 0.66 7 1.32 7 2 C7.61 1.89 8.23 1.79 8.86 1.68 C10.08 1.5 10.08 1.5 11.31 1.31 C12.11 1.18 12.91 1.06 13.74 0.93 C16 1 16 1 19 4 C13.06 4 7.12 4 1 4 C0.34 6.31 -0.32 8.62 -1 11 C-1.66 11 -2.32 11 -3 11 C-3.33 9.35 -3.66 7.7 -4 6 C-3.34 5.67 -2.68 5.34 -2 5 C-1.28 3.36 -0.61 1.69 0 0 Z " fill="#F7F6F6" transform="translate(613,514)"/>
<path d="M0 0 C0.99 0 1.98 0 3 0 C3 0.99 3 1.98 3 3 C6.96 3 10.92 3 15 3 C15.33 3.99 15.66 4.98 16 6 C11.05 6 6.1 6 1 6 C6.28 6.33 11.56 6.66 17 7 C17 7.33 17 7.66 17 8 C10.73 8 4.46 8 -2 8 C-2 6.68 -2 5.36 -2 4 C-1.34 4 -0.68 4 0 4 C0 2.68 0 1.36 0 0 Z " fill="#241F49" transform="translate(589,577)"/>
<path d="M0 0 C3.09 0.61 5.2 1.6 7.75 3.44 C8.36 3.87 8.98 4.3 9.61 4.75 C10.3 5.37 10.3 5.37 11 6 C11 6.66 11 7.32 11 8 C17.93 8 24.86 8 32 8 C32.5 8.99 32.5 8.99 33 10 C25.64 12.45 16.34 12.18 9.38 8.75 C6.02 6.78 2.8 4.71 0 2 C0 1.34 0 0.68 0 0 Z " fill="#1E183F" transform="translate(748,575)"/>
<path d="M0 0 C5.28 0 10.56 0 16 0 C15.01 0.5 15.01 0.5 14 1 C13.67 1.99 13.34 2.98 13 4 C9.37 4 5.74 4 2 4 C2.04 5.44 2.08 6.89 2.12 8.38 C2.2 10.84 2.2 10.84 2 13 C1.34 13.66 0.68 14.32 0 15 C0 10.05 0 5.1 0 0 Z " fill="#FBFBFA" transform="translate(719,532)"/>
<path d="M0 0 C0.33 0.66 0.66 1.32 1 2 C0.67 2.66 0.34 3.32 0 4 C-0.66 4 -1.32 4 -2 4 C-2 4.66 -2 5.32 -2 6 C-2.66 6 -3.32 6 -4 6 C-4 6.66 -4 7.32 -4 8 C-4.99 8.5 -4.99 8.5 -6 9 C-6.33 25.5 -6.66 42 -7 59 C-7.33 59 -7.66 59 -8 59 C-8.2 51.72 -8.34 44.45 -8.44 37.17 C-8.48 34.69 -8.53 32.22 -8.6 29.74 C-8.7 26.18 -8.75 22.62 -8.78 19.06 C-8.82 17.96 -8.86 16.86 -8.91 15.72 C-8.91 8.14 -8.91 8.14 -6.17 4.7 C-4.19 2.95 -2.22 1.43 0 0 Z " fill="#231C4D" transform="translate(609,213)"/>
<path d="M0 0 C0.33 1.32 0.66 2.64 1 4 C5.95 4 10.9 4 16 4 C16 4.33 16 4.66 16 5 C28.87 5.5 28.87 5.5 42 6 C42 6.33 42 6.66 42 7 C28.14 7 14.28 7 0 7 C0 4.69 0 2.38 0 0 Z " fill="#171044" transform="translate(641,214)"/>
<path d="M0 0 C5.28 0 10.56 0 16 0 C16 3.96 16 7.92 16 12 C10.72 12 5.44 12 0 12 C0.33 11.01 0.66 10.02 1 9 C5.62 9 10.24 9 15 9 C15 6.36 15 3.72 15 1 C10.05 1 5.1 1 0 1 C0 0.67 0 0.34 0 0 Z " fill="#040028" transform="translate(718,519)"/>
<path d="M0 0 C0.33 0 0.66 0 1 0 C1.44 23.79 1.44 23.79 -2 32 C-3.49 32.5 -3.49 32.5 -5 33 C-4.88 31.46 -4.76 29.92 -4.62 28.38 C-4.56 27.52 -4.49 26.66 -4.41 25.77 C-4 23 -4 23 -3.03 20.22 C-1.75 16.2 -1.31 12.3 -0.88 8.12 C-0.79 7.34 -0.7 6.56 -0.61 5.75 C-0.4 3.83 -0.2 1.92 0 0 Z " fill="#130B40" transform="translate(768,358)"/>
<path d="M0 0 C8.8 8.31 8.8 8.31 9.25 14.38 C9.17 15.24 9.09 16.11 9 17 C8.34 16.67 7.68 16.34 7 16 C7 15.34 7 14.68 7 14 C6.01 14.33 5.02 14.66 4 15 C3.34 14.67 2.68 14.34 2 14 C0.54 9.05 0 5.18 0 0 Z " fill="#16103B" transform="translate(790,314)"/>
<path d="M0 0 C1.87 0.15 1.87 0.15 3.77 0.31 C5.18 0.43 5.18 0.43 6.62 0.56 C6.62 1.22 6.62 1.88 6.62 2.56 C4.64 2.56 2.66 2.56 0.62 2.56 C0.62 3.22 0.62 3.88 0.62 4.56 C1.28 4.89 1.95 5.22 2.62 5.56 C-3.36 5.22 -8.13 4.74 -13.38 1.56 C-13.38 1.23 -13.38 0.9 -13.38 0.56 C-8.76 -0.4 -4.69 -0.4 0 0 Z " fill="#120C34" transform="translate(658.375,551.4375)"/>
<path d="M0 0 C0.99 0.33 1.98 0.66 3 1 C3 1.99 3 2.98 3 4 C0.42 5.51 -2.16 7.01 -4.75 8.5 C-5.48 8.93 -6.21 9.36 -6.96 9.8 C-7.67 10.21 -8.38 10.61 -9.11 11.03 C-9.76 11.41 -10.41 11.79 -11.08 12.17 C-13 13 -13 13 -17 13 C-17 12.34 -17 11.68 -17 11 C-14.57 9.36 -12.15 7.85 -9.62 6.38 C-8.93 5.95 -8.23 5.53 -7.51 5.1 C-2.27 2 -2.27 2 0 2 C0 1.34 0 0.68 0 0 Z " fill="#E6DDDE" transform="translate(713,307)"/>
<path d="M0 0 C1.65 0 3.3 0 5 0 C1.01 3.36 -3.17 6.08 -7.62 8.75 C-8.63 9.37 -8.63 9.37 -9.65 10 C-14.64 13 -14.64 13 -18 13 C-18 11 -18 11 -16.62 9.56 C-16.09 9.05 -15.55 8.53 -15 8 C-14.34 7.01 -13.68 6.02 -13 5 C-12.01 5.33 -11.02 5.66 -10 6 C-8.22 5.25 -8.22 5.25 -6.5 4.06 C-3.92 2.39 -3.21 2 0 2 C0 1.34 0 0.68 0 0 Z " fill="#1F1844" transform="translate(676,375)"/>
<path d="M0 0 C2.48 0.5 2.48 0.5 5 1 C5 1.99 5 2.98 5 4 C10.45 3.5 10.45 3.5 16 3 C16.66 4.32 17.32 5.64 18 7 C12.72 7 7.44 7 2 7 C0 2 0 2 0 0 Z " fill="#0B052F" transform="translate(932,577)"/>
<path d="M0 0 C5.61 0 11.22 0 17 0 C16 5 16 5 14 8 C13.34 7.67 12.68 7.34 12 7 C11.34 8.32 10.68 9.64 10 11 C10 8.69 10 6.38 10 4 C7.69 4 5.38 4 3 4 C3 3.34 3 2.68 3 2 C2.01 1.34 1.02 0.68 0 0 Z " fill="#272145" transform="translate(614,518)"/>
<path d="M0 0 C0.66 1.32 1.32 2.64 2 4 C-2.37 11.02 -2.37 11.02 -6 13 C-8.75 13.19 -8.75 13.19 -11 13 C-11 11.68 -11 10.36 -11 9 C-7.53 8.5 -7.53 8.5 -4 8 C-4.33 6.35 -4.66 4.7 -5 3 C-4.34 3 -3.68 3 -3 3 C-2.67 2.34 -2.34 1.68 -2 1 C-1.34 1.33 -0.68 1.66 0 2 C0 1.34 0 0.68 0 0 Z " fill="#0E0A35" transform="translate(525,567)"/>
<path d="M0 0 C0.66 0 1.32 0 2 0 C2.73 1.73 2.73 1.73 3 4 C1.49 6.18 1.49 6.18 -0.69 8.31 C-1.39 9.03 -2.1 9.75 -2.82 10.49 C-5 12 -5 12 -7.14 11.67 C-7.76 11.45 -8.37 11.23 -9 11 C-9.99 11.5 -9.99 11.5 -11 12 C-10.81 10.19 -10.81 10.19 -10 8 C-8.36 6.95 -6.69 5.96 -5 5 C-4.11 4.11 -3.23 3.23 -2.31 2.31 C-1.55 1.55 -0.79 0.79 0 0 Z " fill="#F8F7F8" transform="translate(925,549)"/>
<path d="M0 0 C0.89 0.01 1.78 0.03 2.69 0.04 C4.88 0.08 7.06 0.13 9.25 0.19 C9.25 0.85 9.25 1.51 9.25 2.19 C8.04 2.17 6.84 2.15 5.59 2.12 C-3.46 1.95 -3.46 1.95 -11.73 5.04 C-13.63 7 -15.26 8.9 -16.75 11.19 C-17.41 10.53 -18.07 9.87 -18.75 9.19 C-12.75 1.69 -9.74 -0.28 0 0 Z " fill="#FAF9FB" transform="translate(940.75,515.8125)"/>
</svg>
