<?xml version="1.0" encoding="UTF-8"?>
<!-- Generator: visioncortex VTracer 0.6.4 -->
<svg version="1.1" xmlns="http://www.w3.org/2000/svg" width="1024" height="1024">
<path d="M0 0 C337.92 0 675.84 0 1024 0 C1024 337.92 1024 675.84 1024 1024 C686.08 1024 348.16 1024 0 1024 C0 686.08 0 348.16 0 0 Z M394.25 225.98 C393.63 226.98 393.63 226.98 393 228 C392.04 229.05 391.05 230.08 390.02 231.08 C389.54 231.55 389.07 232.02 388.57 232.51 C387.84 233.23 387.84 233.23 387.09 233.97 C386.57 234.49 386.04 235.02 385.49 235.56 C383.27 237.76 381.05 239.96 378.82 242.15 C377.18 243.78 375.54 245.4 373.91 247.03 C373.17 247.75 373.17 247.75 372.43 248.49 C369.83 251.07 367.43 253.7 365.11 256.53 C362.49 259.57 359.71 262.12 356.57 264.62 C345.6 273.33 335.31 282.12 333.43 296.65 C332.67 304.9 332.86 313.18 333.1 321.45 C333.21 326.16 333.17 330.86 333.15 335.57 C333.14 343.7 333.22 351.82 333.36 359.94 C333.56 371.69 333.63 383.43 333.66 395.18 C333.71 414.25 333.88 433.31 334.11 452.38 C334.34 470.88 334.52 489.38 334.63 507.88 C334.63 509.03 334.64 510.17 334.65 511.35 C334.68 517.09 334.71 522.82 334.74 528.56 C335 576.04 335.44 623.52 336 671 C365.98 671.09 395.96 671.16 425.94 671.2 C429.49 671.21 433.04 671.21 436.59 671.22 C437.29 671.22 438 671.22 438.73 671.22 C450.13 671.24 461.53 671.27 472.93 671.31 C484.65 671.35 496.37 671.37 508.09 671.38 C514.66 671.38 521.24 671.39 527.81 671.42 C534.01 671.45 540.21 671.46 546.41 671.45 C548.68 671.45 550.94 671.46 553.2 671.48 C590.03 671.72 621.01 660.54 647.54 634.48 C660.71 621.14 670.36 605.49 677 588 C677.36 587.06 677.36 587.06 677.73 586.1 C690.01 553.18 686.82 517.46 672.8 485.8 C665.43 469.83 654.47 456.3 642 444 C643.42 440.8 645.16 438.6 647.56 436.06 C652.65 430.44 656.86 424.32 661 418 C661.61 417.09 662.22 416.18 662.84 415.24 C681.93 384.83 686.48 344.97 678.59 310.44 C671.72 282.15 654.45 254.49 629.62 238.69 C606.16 225.11 582.08 219.56 555.07 219.53 C553.38 219.52 551.68 219.51 549.99 219.49 C545.45 219.46 540.91 219.44 536.37 219.43 C533.53 219.43 530.69 219.42 527.84 219.4 C517.91 219.36 507.97 219.34 498.04 219.33 C488.8 219.33 479.56 219.28 470.32 219.21 C462.36 219.15 454.39 219.13 446.43 219.13 C441.68 219.12 436.94 219.11 432.2 219.06 C427.75 219.02 423.3 219.02 418.85 219.04 C417.22 219.04 415.59 219.03 413.96 219.01 C402.47 218.71 402.47 218.71 394.25 225.98 Z M139 739 C136.77 745.31 137.36 752.06 137.63 758.64 C137.66 760.51 137.68 762.37 137.69 764.24 C137.75 769.11 137.88 773.97 138.04 778.83 C138.18 783.81 138.25 788.79 138.32 793.78 C138.47 803.52 138.7 813.26 139 823 C146.22 823.1 153.44 823.17 160.67 823.22 C163.12 823.24 165.58 823.27 168.03 823.3 C171.57 823.35 175.11 823.37 178.65 823.39 C179.73 823.41 180.82 823.43 181.94 823.45 C191.37 823.46 199.49 821.24 206.53 814.71 C212.17 808.14 213.35 800.78 213.29 792.37 C212.7 785.43 209.63 780.13 205 775 C206.01 772.98 207.01 770.97 208.04 768.96 C208.54 767.96 208.54 767.96 209.06 766.94 C209.57 765.93 209.57 765.93 210.1 764.9 C213.18 758.41 213.25 749.3 211.25 742.41 C210.3 740.47 209.25 738.76 208 737 C207.46 736.11 206.93 735.23 206.38 734.31 C197.56 725.73 186.21 725.52 174.66 725.21 C172.99 725.15 171.31 725.07 169.64 724.96 C168.83 724.91 168.02 724.86 167.19 724.81 C166.47 724.76 165.76 724.7 165.03 724.65 C153.47 724.84 145.26 728.9 139 739 Z M434 744 C429.31 749.84 429.56 756.17 429.57 763.41 C430.38 770.18 433.49 774.14 438.6 778.34 C446.39 783.73 455.75 785.95 464.86 788.13 C469.23 789.23 472.27 790.15 475 794 C474.94 797.45 474.72 799.89 472.81 802.81 C468.14 805.88 463.49 806.47 458 806 C452.34 804.62 448.89 802.43 445 798 C443.68 796.68 442.36 795.36 441 794 C436.38 796.64 431.76 799.28 427 802 C428.41 809.07 432.42 813.46 438.29 817.62 C448.97 823.8 460.75 824.45 472.71 822.35 C481.2 820.04 487.26 816.41 491.94 808.88 C494.53 801.85 495.45 793.66 493.2 786.43 C489.71 779.35 484.28 775.58 476.98 772.89 C473.67 771.85 470.35 770.91 467 770 C464.66 769.35 462.33 768.68 460 768 C458.97 767.71 457.94 767.42 456.88 767.12 C453.65 765.86 451.5 764.39 449 762 C448.44 759 448.44 759 449 756 C451.35 753.1 453.31 751.19 457.1 750.76 C463.24 750.58 468 751.24 473 755 C475 757.75 475 757.75 476 760 C479.91 759.33 482.87 757.46 486.25 755.44 C487.33 754.8 488.41 754.16 489.52 753.5 C490.34 753 491.16 752.51 492 752 C488.81 743.75 483.85 739.83 476 736 C462.16 731.18 444.07 732.32 434 744 Z M712.64 748.72 C703.38 761.02 701.63 772.9 703 788 C705.14 800.22 711.92 809.39 721.88 816.44 C733.21 823.42 744.92 824.59 757.96 822.53 C767.21 820.08 776.1 814.58 782 807 C782 806.34 782 805.68 782 805 C777.76 801.17 773.01 797.75 768 795 C767.52 795.47 767.03 795.94 766.53 796.43 C760.49 802.04 755.45 805.02 747.12 805.44 C739.59 805.15 733.3 802.83 728.06 797.31 C722.08 789.65 721.07 781.53 722 772 C723.26 765.44 726.96 760.29 732 756 C738.27 752.26 744.78 750.9 752 752 C758.81 753.77 763.03 756.18 767 762 C770.52 760.44 773.27 758.31 776.25 755.88 C777.59 754.79 777.59 754.79 778.95 753.68 C779.63 753.13 780.3 752.57 781 752 C778.72 745.38 774.27 741.78 768.2 738.48 C749.26 729.62 726.74 732.48 712.64 748.72 Z M248 735 C248 763.71 248 792.42 248 822 C267.14 822 286.28 822 306 822 C306 816.39 306 810.78 306 805 C292.8 805 279.6 805 266 805 C266 781.9 266 758.8 266 735 C260.06 735 254.12 735 248 735 Z M321 735 C322.42 741.4 323.94 746.77 326.44 752.69 C329.94 761.22 333.21 769.83 336.38 778.5 C336.6 779.13 336.83 779.76 337.07 780.4 C342.12 794.24 347.07 808.12 352 822 C358.93 822 365.86 822 373 822 C374.03 819.38 375.06 816.76 376.12 814.06 C376.44 813.28 376.75 812.49 377.07 811.68 C379.1 806.5 380.97 801.27 382.8 796.01 C386 786.85 389.51 777.83 393.06 768.81 C400.94 752.29 400.94 752.29 405 735 C398.4 735 391.8 735 385 735 C379.77 748.81 374.65 762.66 369.83 776.62 C368.42 780.67 366.99 784.71 365.56 788.75 C365.3 789.48 365.04 790.22 364.78 790.97 C364.18 792.65 363.59 794.32 363 796 C360.32 789.44 357.82 782.84 355.47 776.15 C354.82 774.31 354.16 772.47 353.51 770.63 C352.5 767.78 351.5 764.93 350.49 762.07 C349.51 759.29 348.52 756.5 347.53 753.71 C347.24 752.87 346.94 752.03 346.64 751.17 C344.68 745.65 342.44 740.33 340 735 C333.73 735 327.46 735 321 735 Z M517 735 C517 740.61 517 746.22 517 752 C525.58 752 534.16 752 543 752 C543 775.1 543 798.2 543 822 C549.27 822 555.54 822 562 822 C562 799.89 562 777.78 562 755 C563.32 754.67 564.64 754.34 566 754 C566 753.67 566 753.34 566 753 C575.9 752.5 575.9 752.5 586 752 C586 746.39 586 740.78 586 735 C563.23 735 540.46 735 517 735 Z M633 735 C631.97 737.48 630.94 739.95 629.88 742.5 C629.56 743.24 629.25 743.98 628.93 744.75 C626.9 749.65 625.01 754.6 623.16 759.58 C620.08 767.84 616.87 776.05 613.62 784.25 C613.06 785.69 612.49 787.13 611.92 788.57 C608.37 797.56 604.81 806.53 601.18 815.48 C599.67 818.65 599.67 818.65 599 822 C605.6 822 612.2 822 619 822 C619.99 819.57 620.98 817.13 622 814.62 C622.31 813.86 622.63 813.1 622.95 812.31 C624.47 808.77 624.47 808.77 625 805 C636.88 805 648.76 805 661 805 C661.99 808.63 662.98 812.26 664 816 C664.99 817.98 665.98 819.96 667 822 C673.27 822 679.54 822 686 822 C685.11 817.54 683.82 813.59 682.18 809.39 C681.9 808.64 681.61 807.89 681.31 807.11 C680.36 804.64 679.4 802.16 678.44 799.69 C677.77 797.96 677.11 796.24 676.44 794.51 C670.75 779.8 664.91 765.14 659.02 750.51 C658.69 749.69 658.36 748.87 658.02 748.03 C657.4 746.5 656.79 744.97 656.17 743.44 C655.04 740.64 653.95 737.86 653 735 C646.4 735 639.8 735 633 735 Z M810 735 C810 763.71 810 792.42 810 822 C815.94 822 821.88 822 828 822 C828.33 810.12 828.66 798.24 829 786 C830.79 788.1 832.59 790.21 834.44 792.38 C838.13 796.7 841.86 800.98 845.69 805.19 C849.71 809.61 853.49 814.2 857.25 818.85 C858.82 820.86 858.82 820.86 860 822 C861.78 822.09 863.56 822.11 865.35 822.1 C866.43 822.09 867.51 822.09 868.62 822.09 C869.76 822.08 870.89 822.07 872.06 822.06 C873.2 822.06 874.34 822.05 875.52 822.05 C878.35 822.04 881.17 822.02 884 822 C881.39 817.9 878.65 814.37 875.31 810.81 C871.97 807.2 868.76 803.54 865.69 799.69 C861.48 794.45 856.94 789.58 852.25 784.77 C851.72 784.21 851.18 783.65 850.62 783.07 C850.14 782.57 849.66 782.08 849.16 781.56 C847.77 779.69 847.26 778.32 847 776 C848.5 773.97 849.92 772.33 851.69 770.56 C852.71 769.49 853.73 768.42 854.76 767.35 C855.29 766.8 855.83 766.25 856.38 765.68 C858.99 762.98 861.52 760.2 864.06 757.44 C865.06 756.36 866.06 755.27 867.06 754.19 C870.71 750.23 874.33 746.24 877.94 742.24 C879.18 740.9 880.45 739.58 881.78 738.32 C883.23 737.06 883.23 737.06 883 735 C869.63 733.12 869.63 733.12 856.91 736.13 C853.38 739.19 850.95 743.03 848.44 746.94 C845.85 750.66 842.65 753.82 839.5 757.06 C838.34 758.28 837.18 759.5 836.03 760.72 C835.54 761.24 835.05 761.75 834.55 762.28 C832.61 764.44 830.82 766.73 829 769 C828.67 757.78 828.34 746.56 828 735 C822.06 735 816.12 735 810 735 Z " fill="#FAF6F4" transform="translate(0,0)"/>
<path d="M0 0 C22.23 -0.07 44.46 -0.12 66.68 -0.16 C77.01 -0.17 87.33 -0.19 97.65 -0.23 C106.66 -0.26 115.66 -0.28 124.67 -0.28 C129.43 -0.29 134.19 -0.3 138.95 -0.32 C143.45 -0.34 147.95 -0.34 152.44 -0.34 C154.08 -0.34 155.71 -0.35 157.35 -0.36 C185.77 -0.55 215.84 6.2 238 25 C238.51 25.43 239.02 25.86 239.55 26.31 C261.28 44.82 274.09 69.25 280 97 C280.23 98.03 280.45 99.06 280.69 100.12 C287.28 135.31 277.32 174.62 257.46 203.95 C252.87 210.4 247.68 216.49 242 222 C243.53 225.68 245.76 227.9 248.62 230.62 C250.12 232.05 251.59 233.5 253 235 C253 235.66 253 236.32 253 237 C248.93 235.64 247.44 233.1 244.82 229.81 C243.12 227.95 243.12 227.95 241.11 226.95 C237.67 227.03 235.91 229.49 233.62 231.81 C224.44 240.69 213.85 247.51 203.21 254.51 C199.2 257.16 195.34 259.91 191.61 262.94 C190 264 190 264 188.21 264.38 C185.45 265.15 183.46 266.44 181.05 268 C179.58 268.95 179.58 268.95 178.08 269.91 C177.02 270.6 175.97 271.29 174.88 272 C173.21 273.07 173.21 273.07 171.52 274.17 C168.01 276.44 164.5 278.72 161 281 C159.91 281.71 158.82 282.42 157.7 283.15 C151.21 287.37 144.74 291.62 138.26 295.86 C135.02 297.99 131.78 300.1 128.53 302.22 C126.37 303.62 124.22 305.03 122.06 306.44 C121.01 307.13 119.95 307.81 118.86 308.52 C113.09 312.29 107.35 316.1 101.64 319.96 C100.42 320.79 99.19 321.62 97.96 322.45 C95.63 324.02 93.3 325.61 90.98 327.2 C84.82 331.36 79.22 334.93 71.85 336.44 C70.93 336.72 70.93 336.72 70 337 C69.67 337.66 69.34 338.32 69 339 C66.44 339.62 66.44 339.62 64 340 C64 340.99 64 341.98 64 343 C62.67 344.26 62.67 344.26 60.82 345.48 C60.16 345.92 59.5 346.36 58.81 346.82 C58.11 347.27 57.41 347.72 56.69 348.19 C56 348.65 55.31 349.11 54.6 349.59 C49.4 353 49.4 353 46 353 C45.67 353.66 45.34 354.32 45 355 C44.07 355.4 44.07 355.4 43.12 355.81 C40.81 356.85 40.81 356.85 39.81 359.29 C37.47 362.8 34.5 364.49 30.94 366.56 C29.5 367.43 28.07 368.29 26.64 369.16 C25.51 369.84 25.51 369.84 24.36 370.54 C20.24 373.09 16.21 375.8 12.19 378.5 C11.42 379.02 10.65 379.53 9.85 380.06 C8.48 380.99 7.11 381.91 5.74 382.83 C1.31 385.81 -0.81 386.22 -6.19 386.12 C-7.46 386.11 -8.73 386.09 -10.04 386.07 C-11.51 386.04 -11.51 386.04 -13 386 C-13 385.67 -13 385.34 -13 385 C-8.71 385 -4.42 385 0 385 C-0.01 382.1 -0.01 382.1 -0.02 379.14 C-0.03 372.74 -0.04 366.34 -0.05 359.94 C-0.06 356.06 -0.06 352.18 -0.08 348.3 C-0.09 344.55 -0.09 340.8 -0.09 337.06 C-0.1 335.63 -0.1 334.2 -0.11 332.78 C-0.11 330.77 -0.11 328.77 -0.11 326.76 C-0.12 325.62 -0.12 324.48 -0.12 323.31 C0.22 314.02 0.22 314.02 2.45 311.11 C3.34 310.44 3.34 310.44 4.25 309.75 C4.89 309.26 5.52 308.77 6.18 308.27 C8.4 306.72 10.64 305.32 13 304 C19.38 300.08 25.69 296.04 32 292 C32.85 291.47 33.69 290.94 34.56 290.39 C35.35 289.89 36.13 289.39 36.94 288.88 C37.63 288.44 38.32 288 39.03 287.55 C41.12 286.05 41.12 286.05 42.65 283.73 C45.59 280.32 48.81 278.19 52.58 275.78 C53.33 275.29 54.08 274.8 54.85 274.29 C57.31 272.69 59.78 271.09 62.25 269.5 C63.97 268.38 65.69 267.26 67.41 266.14 C70.92 263.85 74.42 261.57 77.93 259.29 C84.57 254.99 91.17 250.64 97.78 246.3 C101.04 244.15 104.31 242.01 107.58 239.86 C108.84 239.04 110.09 238.22 111.35 237.39 C111.96 236.99 112.57 236.6 113.19 236.19 C114.96 235.03 116.73 233.87 118.5 232.7 C129.16 225.71 139.83 218.73 150.59 211.89 C174.74 197.43 174.74 197.43 195.92 179.2 C200.25 174.62 205.43 170.93 210.46 167.15 C227.2 154.3 240.46 136.44 248.5 117 C248.77 116.36 249.04 115.73 249.31 115.07 C250.27 112.64 251.01 110.51 250.96 107.88 C242.6 91.62 216.86 80.69 201 74 C199.96 73.56 198.91 73.12 197.84 72.66 C189.45 69.52 180.58 68.56 171.74 67.4 C169.97 67.14 168.19 66.84 166.43 66.5 C158.02 64.9 149.75 64.69 141.23 64.68 C139.68 64.67 138.13 64.66 136.58 64.65 C132.41 64.62 128.25 64.61 124.08 64.6 C119.71 64.58 115.34 64.55 110.98 64.53 C102.72 64.48 94.47 64.44 86.21 64.41 C76.81 64.37 67.4 64.32 58 64.27 C38.66 64.17 19.33 64.08 0 64 C0 42.88 0 21.76 0 0 Z " fill="#0F47DA" transform="translate(400,220)"/>
<path d="M0 0 C2.35 1.15 3.83 2.5 5.64 4.39 C6.24 5.01 6.84 5.63 7.46 6.26 C8.95 7.95 8.95 7.95 9.95 9.95 C10.7 10.36 11.45 10.77 12.21 11.19 C15.56 13.34 17.54 15.98 19.77 19.2 C20.2 19.82 20.63 20.44 21.07 21.07 C41.83 51.43 48.24 87.18 41.54 123.21 C36.2 148.03 23.69 169.17 6.95 187.95 C6.36 188.62 5.76 189.29 5.15 189.98 C-13.25 209.43 -42.34 223.94 -69.25 225.04 C-71.81 225.08 -74.36 225.08 -76.92 225.07 C-78.39 225.07 -78.39 225.07 -79.89 225.08 C-83.15 225.08 -86.42 225.07 -89.69 225.07 C-92.04 225.07 -94.38 225.07 -96.73 225.07 C-103.09 225.07 -109.45 225.06 -115.82 225.05 C-121.79 225.05 -127.77 225.05 -133.75 225.05 C-145.59 225.04 -157.42 225.04 -169.26 225.03 C-180.76 225.02 -192.25 225.01 -203.75 225.01 C-204.81 225.01 -204.81 225.01 -205.9 225.01 C-209.45 225.01 -213.01 225 -216.57 225 C-246.06 224.99 -275.55 224.97 -305.05 224.95 C-305.05 201.52 -305.05 178.09 -305.05 153.95 C-304.39 153.95 -303.73 153.95 -303.05 153.95 C-302.55 156.43 -302.55 156.43 -302.05 158.95 C-296.07 159.7 -290.25 160.1 -284.23 160.08 C-282.97 160.08 -282.97 160.08 -281.68 160.08 C-278.89 160.09 -276.1 160.09 -273.31 160.08 C-271.3 160.08 -269.29 160.09 -267.27 160.09 C-261.83 160.09 -256.38 160.09 -250.93 160.09 C-245.21 160.08 -239.49 160.09 -233.76 160.09 C-224.15 160.09 -214.53 160.09 -204.92 160.08 C-193.84 160.08 -182.76 160.08 -171.68 160.09 C-162.14 160.09 -152.6 160.09 -143.06 160.09 C-137.38 160.09 -131.7 160.09 -126.01 160.09 C-120.65 160.09 -115.3 160.09 -109.94 160.08 C-107.99 160.08 -106.04 160.08 -104.09 160.09 C-94.75 160.1 -85.44 160.01 -76.12 159.51 C-75.02 159.45 -75.02 159.45 -73.91 159.39 C-69.9 159.15 -66.01 158.65 -62.05 157.95 C-60.65 158 -59.25 158.08 -57.86 158.2 C-47.76 158.3 -37.38 151.12 -30.34 144.35 C-28.58 142.56 -26.83 140.76 -25.11 138.93 C-23.05 136.95 -23.05 136.95 -21.05 136.95 C-21.05 138.27 -21.05 139.59 -21.05 140.95 C-21.71 140.95 -22.37 140.95 -23.05 140.95 C-22.96 142.05 -22.88 143.14 -22.8 144.27 C-22.79 149.95 -24.95 154.75 -27.05 159.95 C-27.61 161.45 -28.18 162.95 -28.73 164.45 C-29.17 165.61 -29.6 166.76 -30.05 167.95 C-30.38 168.94 -30.71 169.93 -31.05 170.95 C-31.52 171.41 -32 171.87 -32.49 172.34 C-34.42 174.34 -35.05 176.16 -35.98 178.77 C-37.59 182.97 -39.26 186.42 -42.05 189.95 C-42.71 189.95 -43.37 189.95 -44.05 189.95 C-43.71 190.83 -43.71 190.83 -43.36 191.72 C-43.05 193.95 -43.05 193.95 -44.22 195.78 C-44.81 196.39 -45.4 197 -46.01 197.62 C-46.65 198.29 -47.28 198.95 -47.94 199.64 C-48.61 200.32 -49.29 201 -49.98 201.7 C-50.99 202.75 -50.99 202.75 -52.02 203.82 C-53.69 205.54 -55.36 207.25 -57.05 208.95 C-33.72 190.75 -19.25 164.04 -15.48 134.8 C-12.61 106.7 -16.57 78.85 -34.05 55.95 C-39.17 49.68 -44.75 44.05 -51.05 38.95 C-49.86 35.39 -48.98 34.94 -45.92 32.89 C-44.57 31.97 -44.57 31.97 -43.18 31.03 C-40.96 29.56 -38.73 28.09 -36.5 26.62 C-24.97 19.04 -14.01 11.22 -4.17 1.47 C-2.05 -0.05 -2.05 -0.05 0 0 Z " fill="#104ADC" transform="translate(641.046875,446.046875)"/>
<path d="M0 0 C0.61 31.06 1.09 62.12 1.06 93.19 C1.06 95.42 1.06 97.65 1.06 99.87 C1.04 150.73 0.77 201.59 0.55 252.45 C0.51 262.43 0.47 272.41 0.43 282.39 C0.42 283.46 0.42 283.46 0.42 284.55 C0.4 288.13 0.39 291.7 0.37 295.28 C0.25 324.52 0.13 353.76 0 383 C-2.64 383.33 -5.28 383.66 -8 384 C-8 384.33 -8 384.66 -8 385 C-14.1 385.02 -20.2 385.04 -26.3 385.05 C-28.38 385.06 -30.45 385.07 -32.52 385.08 C-35.51 385.09 -38.5 385.09 -41.5 385.1 C-42.87 385.11 -42.87 385.11 -44.27 385.11 C-49.93 385.11 -55.39 384.72 -61 384 C-62.96 379.1 -63.27 374.68 -63.21 369.47 C-63.21 368.63 -63.21 367.79 -63.21 366.92 C-63.2 364.14 -63.18 361.35 -63.16 358.57 C-63.15 356.6 -63.15 354.63 -63.14 352.66 C-63.13 348.47 -63.12 344.28 -63.09 340.1 C-63.04 329.16 -63.02 318.22 -63 307.28 C-63 306.2 -63 305.12 -63 304.01 C-62.97 287.54 -63.1 271.09 -63.5 254.62 C-64.35 218.76 -64.09 182.87 -64 147 C-63.67 147 -63.34 147 -63 147 C-63 145.98 -63 144.97 -63 143.92 C-62.98 134.34 -62.94 124.76 -62.87 115.18 C-62.83 110.26 -62.81 105.34 -62.8 100.41 C-62.8 95.66 -62.77 90.91 -62.73 86.15 C-62.71 84.34 -62.71 82.53 -62.71 80.71 C-62.72 78.17 -62.69 75.64 -62.66 73.09 C-62.67 72.35 -62.68 71.6 -62.69 70.83 C-62.6 66.79 -62.2 65.23 -59.46 62.18 C-58.65 61.46 -57.84 60.74 -57 60 C-57 59.01 -57 58.02 -57 57 C-55.38 55.13 -53.77 53.45 -52 51.74 C-51.48 51.23 -50.96 50.72 -50.43 50.19 C-48.77 48.56 -47.11 46.94 -45.44 45.31 C-43.27 43.19 -41.1 41.06 -38.93 38.93 C-38.4 38.4 -37.87 37.88 -37.33 37.35 C-34.03 34.08 -30.94 30.7 -27.93 27.16 C-23.77 22.49 -19.28 18.13 -14.85 13.72 C-13.1 11.98 -11.37 10.24 -9.63 8.5 C-8.53 7.39 -7.42 6.29 -6.32 5.19 C-5.54 4.4 -5.54 4.4 -4.75 3.61 C-1.11 0 -1.11 0 0 0 Z " fill="#114EE3" transform="translate(400,222)"/>
<path d="M0 0 C19.52 10.86 30.57 31.2 36.96 51.82 C39.46 61.22 40.36 70.54 40.31 80.25 C40.31 81.87 40.31 81.87 40.31 83.52 C40.2 92.3 39.13 100.49 37 109 C36.01 108.67 35.02 108.34 34 108 C33.89 101.26 34.3 94.7 35 88 C34.55 88.87 34.11 89.74 33.64 90.63 C25.83 105.53 16.29 114.51 0 120 C-10.57 122.97 -20.49 123.42 -31.38 123.34 C-33.08 123.34 -34.77 123.34 -36.47 123.34 C-41.03 123.34 -45.59 123.33 -50.15 123.3 C-54.93 123.29 -59.72 123.28 -64.5 123.28 C-73.54 123.27 -82.58 123.25 -91.61 123.22 C-101.91 123.18 -112.21 123.17 -122.51 123.15 C-143.67 123.12 -164.84 123.07 -186 123 C-183.29 120.19 -180.42 118.19 -177.15 116.06 C-176.55 115.67 -175.96 115.29 -175.35 114.89 C-174.05 114.04 -172.74 113.19 -171.44 112.34 C-168.6 110.5 -165.76 108.64 -162.92 106.79 C-161.39 105.79 -159.85 104.78 -158.32 103.78 C-149.73 98.18 -141.16 92.53 -132.6 86.88 C-120.09 78.63 -107.57 70.4 -95 62.23 C-88.3 57.87 -81.65 53.44 -75.01 48.99 C-66.15 43.06 -57.26 37.2 -48.22 31.55 C-31.94 21.36 -15.94 10.71 0 0 Z " fill="#FAF6F4" transform="translate(587,483)"/>
<path d="M0 0 C20.19 -0.07 40.39 -0.12 60.58 -0.16 C69.96 -0.17 79.34 -0.19 88.72 -0.23 C96.9 -0.26 105.08 -0.28 113.26 -0.28 C117.58 -0.29 121.91 -0.3 126.23 -0.32 C130.32 -0.34 134.4 -0.34 138.49 -0.34 C139.97 -0.34 141.46 -0.35 142.94 -0.36 C155.89 -0.45 169.78 0.3 181.38 6.62 C182.03 6.97 182.69 7.31 183.37 7.67 C189.38 10.95 194.27 15.06 199 20 C199.62 20.59 200.24 21.18 200.88 21.79 C205 25.98 207.66 30.74 210.31 35.94 C210.65 36.59 210.99 37.25 211.34 37.93 C218.92 53.47 217.65 72.47 212.61 88.62 C207.82 102.38 198.31 115.79 187 125 C184.26 126.22 184.26 126.22 182 127 C181.67 126.01 181.34 125.02 181 124 C182.98 122.02 182.98 122.02 185 120 C168.81 109.48 152.52 99.11 136.19 88.81 C129.64 84.68 123.12 80.5 116.62 76.28 C110.77 72.49 104.89 68.74 99 65 C83.85 55.37 68.8 45.57 53.77 35.76 C52.8 35.13 51.83 34.5 50.83 33.85 C49.01 32.66 47.2 31.48 45.38 30.29 C34.74 23.34 24.06 16.47 13.33 9.67 C10.88 8.12 8.44 6.56 6 5 C5.03 4.38 5.03 4.38 4.04 3.75 C2.67 2.86 1.33 1.93 0 1 C0 0.67 0 0.34 0 0 Z " fill="#F8F5F4" transform="translate(400,284)"/>
<path d="M0 0 C1.05 0.62 2.1 1.24 3.19 1.88 C5.24 3.05 7.17 4.07 9.38 4.94 C17.33 8.16 24.49 13.17 31.62 17.88 C33.66 19.21 35.69 20.54 37.72 21.88 C38.76 22.56 39.79 23.24 40.86 23.94 C45.92 27.26 50.99 30.57 56.06 33.88 C57.03 34.51 58 35.14 59 35.79 C70.85 43.51 82.76 51.12 94.7 58.71 C100.31 62.28 105.92 65.87 111.5 69.5 C120.67 75.45 129.89 81.31 139.12 87.17 C143.98 90.26 148.83 93.35 153.69 96.44 C155.42 97.54 157.15 98.64 158.89 99.75 C159.71 100.28 160.54 100.81 161.39 101.35 C163.25 102.53 165.13 103.67 167.02 104.79 C168.01 105.39 169 105.98 170.02 106.6 C170.92 107.13 171.83 107.66 172.76 108.21 C175.34 110.27 176.06 111.88 177 115 C173.39 119.69 173.39 119.69 172 121 C171.01 121 170.02 121 169 121 C169 121.66 169 122.32 169 123 C168.42 123.08 167.85 123.17 167.25 123.25 C164.87 123.85 164.87 123.85 163.22 125.82 C159.97 129.01 156.16 131.08 152.27 133.41 C151.52 133.94 150.77 134.46 150 135 C150 135.66 150 136.32 150 137 C147.8 138.7 147.8 138.7 144.75 140.7 C143.67 141.41 142.58 142.13 141.47 142.86 C140.31 143.62 139.16 144.37 138 145.12 C136.84 145.89 135.69 146.65 134.53 147.41 C131.69 149.28 128.85 151.14 126 153 C120.35 149.94 114.87 146.72 109.5 143.19 C108.01 142.22 106.52 141.24 105.03 140.27 C104.23 139.75 103.43 139.23 102.6 138.69 C97.75 135.54 92.87 132.43 88 129.31 C86.94 128.64 85.88 127.96 84.79 127.26 C82.62 125.87 80.44 124.48 78.27 123.09 C75.05 121.03 71.83 118.97 68.61 116.91 C67.57 116.24 66.53 115.57 65.45 114.89 C63.37 113.55 61.28 112.22 59.2 110.88 C54.1 107.62 49 104.36 43.89 101.13 C42.91 100.51 41.93 99.89 40.92 99.24 C39.09 98.09 37.26 96.93 35.43 95.78 C31.03 92.99 26.68 90.15 22.37 87.22 C21.53 86.65 20.7 86.09 19.83 85.5 C19.23 85.01 18.62 84.51 18 84 C18 83.34 18 82.68 18 82 C17 81.66 17 81.66 15.98 81.32 C12.1 79.6 8.75 77.32 5.25 74.94 C4.22 74.25 4.22 74.25 3.18 73.54 C-1.83 70.17 -1.83 70.17 -3 69 C-3.11 67.14 -3.15 65.28 -3.16 63.41 C-3.17 62.22 -3.18 61.02 -3.19 59.79 C-3.19 58.49 -3.2 57.18 -3.2 55.84 C-3.21 54.49 -3.21 53.15 -3.22 51.8 C-3.23 48.97 -3.24 46.13 -3.24 43.3 C-3.25 39.69 -3.27 36.08 -3.3 32.47 C-3.32 29.68 -3.32 26.89 -3.32 24.1 C-3.33 22.13 -3.35 20.16 -3.37 18.18 C-3.35 11.39 -2.92 6.16 0 0 Z " fill="#0F44D4" transform="translate(404,289)"/>
<path d="M0 0 C3.76 1.5 6.61 2.87 9.96 4.98 C10.92 5.58 11.87 6.18 12.85 6.8 C14.38 7.76 14.38 7.76 15.94 8.75 C17.54 9.76 17.54 9.76 19.17 10.78 C22.45 12.85 25.72 14.92 29 17 C29.95 17.6 30.89 18.2 31.87 18.82 C38.26 22.86 44.63 26.93 51 31 C51.99 31.63 52.97 32.26 53.99 32.91 C60.26 36.92 66.52 40.93 72.79 44.95 C76.04 47.03 79.29 49.11 82.54 51.18 C115.66 72.36 115.66 72.36 130 82 C129.72 85.25 129.43 86.63 126.92 88.81 C126.02 89.37 125.11 89.92 124.17 90.5 C123.14 91.14 122.11 91.78 121.05 92.44 C119.96 93.1 118.87 93.76 117.75 94.44 C115.66 95.72 113.57 97.02 111.48 98.31 C110.92 98.66 110.36 99 109.78 99.36 C102.58 103.83 95.56 108.59 88.52 113.31 C83.18 116.89 77.82 120.43 72.45 123.97 C71.14 124.84 71.14 124.84 69.8 125.72 C67.1 127.5 64.39 129.28 61.69 131.06 C60.75 131.68 59.81 132.3 58.84 132.94 C54.05 136.09 49.26 139.25 44.46 142.4 C40.17 145.23 35.88 148.05 31.59 150.88 C28.64 152.83 25.69 154.77 22.74 156.71 C21.39 157.6 20.04 158.49 18.69 159.38 C16.84 160.6 14.99 161.82 13.14 163.04 C12.11 163.71 11.09 164.38 10.03 165.08 C6.75 167.16 3.37 169.07 0 171 C0 114.57 0 58.14 0 0 Z " fill="#F9F6F4" transform="translate(400,360)"/>
<path d="M0 0 C5.94 0 11.88 0 18 0 C18.33 11.22 18.66 22.44 19 34 C27.37 24.96 27.37 24.96 35.69 15.88 C36.42 15.09 37.16 14.31 37.91 13.5 C40.11 11.02 40.11 11.02 41.71 7.94 C43.92 4.29 45.38 2.32 49 0 C56.89 -1.37 65.06 -0.67 73 0 C73 2 73 2 70.95 4.14 C70.49 4.58 70.04 5.03 69.56 5.48 C66.52 8.44 63.65 11.58 60.75 14.69 C60.09 15.4 59.42 16.11 58.74 16.84 C51.34 24.76 44.11 32.82 37 41 C38.5 46.02 41.5 48.97 45.06 52.62 C49.87 57.67 54.38 62.82 58.73 68.26 C61.8 71.96 65.06 75.46 68.37 78.94 C70.78 81.5 72.52 83.83 74 87 C52.9 88.63 52.9 88.63 46.72 85.16 C44.46 82.57 42.74 79.96 41 77 C39.57 75.19 38.11 73.39 36.62 71.62 C35.89 70.72 35.16 69.82 34.41 68.88 C31.27 65.13 27.97 61.54 24.63 57.97 C22.53 55.72 20.71 53.57 19 51 C18.67 62.88 18.34 74.76 18 87 C12.06 87 6.12 87 0 87 C0 58.29 0 29.58 0 0 Z " fill="#0F48DC" transform="translate(810,735)"/>
<path d="M0 0 C6.6 0 13.2 0 20 0 C20.97 2.52 20.97 2.52 21.96 5.09 C30.89 28.29 40.05 51.41 49.22 74.52 C49.53 75.31 49.84 76.1 50.17 76.91 C50.84 78.6 51.54 80.27 52.25 81.93 C53 84 53 84 53 87 C46.73 87 40.46 87 34 87 C29.12 75.62 29.12 75.62 28 70 C16.12 70 4.24 70 -8 70 C-8.99 72.97 -9.98 75.94 -11 79 C-11.99 81.64 -12.98 84.28 -14 87 C-20.6 87 -27.2 87 -34 87 C-29.43 74.68 -24.66 62.46 -19.81 50.25 C-18.31 46.46 -16.81 42.66 -15.3 38.87 C-14.94 37.94 -14.57 37.01 -14.19 36.05 C-10.92 27.81 -7.68 19.56 -4.44 11.31 C-3.98 10.14 -3.52 8.98 -3.05 7.77 C-2.03 5.18 -1.02 2.59 0 0 Z M9 23 C7.54 27.04 6.08 31.08 4.62 35.12 C4.21 36.27 3.8 37.41 3.38 38.59 C2.98 39.69 2.58 40.8 2.16 41.95 C1.8 42.96 1.43 43.98 1.05 45.02 C-0 48 -1 51 -2 54 C5.92 54 13.84 54 22 54 C20.74 50.37 19.48 46.74 18.19 43 C17.8 41.87 17.41 40.74 17 39.58 C15.08 34.03 13.09 28.5 11 23 C10.34 23 9.68 23 9 23 Z " fill="#0F48DB" transform="translate(633,735)"/>
<path d="M0 0 C4.26 2.97 7.33 5.97 9.7 10.61 C8.35 14.66 6.48 15.21 2.82 17.3 C1.75 17.92 0.68 18.54 -0.42 19.18 C-3.3 20.61 -3.3 20.61 -6.3 20.61 C-7.17 19.22 -7.17 19.22 -8.05 17.8 C-10.67 14.09 -12.98 12.59 -17.3 11.61 C-22.06 11.07 -25.96 11.01 -30.37 12.98 C-32.93 15.14 -33.24 16.15 -33.68 19.48 C-33.62 22.74 -33.62 22.74 -31.16 24.68 C-28.18 26.69 -25.75 27.64 -22.3 28.61 C-21.17 28.94 -20.03 29.27 -18.85 29.62 C-16.53 30.27 -14.21 30.91 -11.88 31.54 C-3.11 34.03 4.61 36.8 9.76 44.73 C13.1 51.61 12.61 59.19 10.57 66.42 C7.9 73.27 3.6 77.64 -2.98 80.79 C-14.36 84.83 -27.69 85.75 -38.95 80.87 C-45.83 77.2 -51.43 72.49 -55.3 65.61 C-55.3 64.62 -55.3 63.63 -55.3 62.61 C-50.68 59.97 -46.06 57.33 -41.3 54.61 C-39.17 56.75 -37.05 58.9 -35.05 61.17 C-30.73 65 -26.51 66.37 -20.8 66.98 C-15.98 66.47 -11.09 65.61 -7.74 61.86 C-7.08 58.45 -7.39 55.96 -8.3 52.61 C-13.44 48.43 -20.65 47.56 -26.94 46.04 C-35.07 43.95 -42.84 41.18 -48.3 34.48 C-48.86 33.82 -49.42 33.16 -49.99 32.48 C-53.89 26.93 -52.78 19.09 -52.3 12.61 C-50.72 6.37 -46.67 2.01 -41.3 -1.39 C-28.62 -8.32 -12.21 -7.37 0 0 Z " fill="#1049DD" transform="translate(482.3046875,739.390625)"/>
<path d="M0 0 C5.67 3.14 9.47 6.56 13.39 11.71 C11.87 15.54 9.59 17.44 6.39 19.96 C5.06 21.02 5.06 21.02 3.7 22.1 C1.39 23.71 1.39 23.71 -0.61 23.71 C-1.27 22.8 -1.93 21.9 -2.61 20.96 C-6.55 16.09 -12.07 14.25 -18.13 13.33 C-25.37 12.99 -32.11 14.74 -37.69 19.48 C-44.22 26.44 -46.25 33.14 -45.95 42.62 C-45.17 49.78 -43.19 55.71 -37.86 60.71 C-31.75 65.41 -25.92 67.33 -18.2 67.06 C-10.14 65.97 -4.38 62.23 1.39 56.71 C5.68 60.01 9.97 63.31 14.39 66.71 C9.93 75.61 1.55 80.48 -7.61 83.71 C-19.06 86.74 -32.66 85.75 -42.86 79.82 C-53.8 72.91 -61 64.61 -64.22 51.8 C-66.86 37.72 -64.76 24.27 -56.75 12.39 C-50.22 4.22 -42.58 -0.46 -32.61 -3.29 C-22.34 -6.71 -9.48 -4.68 0 0 Z " fill="#104ADD" transform="translate(767.61328125,738.2890625)"/>
<path d="M0 0 C6.27 0 12.54 0 19 0 C22.32 7.81 25.38 15.63 28.17 23.64 C28.54 24.68 28.91 25.73 29.29 26.81 C30.44 30.1 31.6 33.39 32.75 36.69 C33.92 40.02 35.08 43.35 36.26 46.69 C36.98 48.75 37.7 50.81 38.42 52.88 C38.75 53.8 39.07 54.72 39.41 55.67 C39.69 56.48 39.97 57.3 40.27 58.14 C40.85 59.98 40.85 59.98 42 61 C42.28 60.22 42.55 59.44 42.84 58.63 C49.75 39.03 56.81 19.5 64 0 C70.6 0 77.2 0 84 0 C82.1 6.5 80.03 12.86 77.64 19.2 C77.17 20.46 77.17 20.46 76.68 21.74 C76.02 23.5 75.36 25.26 74.69 27.02 C73.7 29.66 72.7 32.31 71.71 34.95 C68.8 42.7 65.86 50.42 62.76 58.09 C60.4 63.95 58.22 69.84 56.19 75.81 C55.6 77.53 55.01 79.24 54.42 80.96 C54.17 81.69 53.92 82.42 53.66 83.18 C53 85 53 85 52 87 C45.07 87 38.14 87 31 87 C30.3 84.97 29.59 82.95 28.87 80.86 C22.24 61.85 15.3 42.98 8.13 24.17 C7.86 23.47 7.6 22.77 7.32 22.05 C6.06 18.74 4.78 15.44 3.48 12.15 C3.02 10.98 2.56 9.81 2.09 8.61 C1.68 7.6 1.28 6.58 0.86 5.53 C0 3 0 3 0 0 Z " fill="#0F49DE" transform="translate(321,735)"/>
<path d="M0 0 C22.77 0 45.54 0 69 0 C69 5.61 69 11.22 69 17 C60.75 17 52.5 17 44 17 C44 40.1 44 63.2 44 87 C38.06 87 32.12 87 26 87 C26 63.9 26 40.8 26 17 C17.42 17 8.84 17 0 17 C0 11.39 0 5.78 0 0 Z " fill="#0E47DB" transform="translate(517,735)"/>
<path d="M0 0 C27.61 2.33 51.86 16.27 72.44 34.25 C73.01 34.73 73.59 35.22 74.18 35.71 C75.75 37.14 75.75 37.14 78 40 C78.04 55.49 63.38 73.36 53.33 84.52 C52.09 85.9 50.89 87.31 49.68 88.72 C44.34 94.91 38.43 99.96 32 105 C30.77 106.02 29.54 107.04 28.31 108.06 C27.55 108.7 26.79 109.34 26 110 C25.34 109.67 24.68 109.34 24 109 C24.35 108.58 24.7 108.17 25.07 107.74 C38.64 90.8 42.65 71.24 41 50 C39.21 36.51 31.59 24.32 22 15 C21.47 14.45 20.94 13.9 20.4 13.34 C14.65 7.82 7.03 4.57 0 1 C0 0.67 0 0.34 0 0 Z " fill="#0C39BC" transform="translate(574,287)"/>
<path d="M0 0 C5.94 0 11.88 0 18 0 C18 23.1 18 46.2 18 70 C31.2 70 44.4 70 58 70 C58 75.61 58 81.22 58 87 C38.86 87 19.72 87 0 87 C0 58.29 0 29.58 0 0 Z " fill="#0E48DC" transform="translate(248,735)"/>
<path d="M0 0 C0 0.33 0 0.66 0 1 C-0.71 1.06 -1.42 1.12 -2.15 1.18 C-3.07 1.27 -3.99 1.35 -4.94 1.44 C-5.85 1.52 -6.77 1.6 -7.71 1.68 C-9.96 1.76 -9.96 1.76 -11 3 C-11.25 6.46 -11.25 6.46 -11 10 C-8.5 12.5 -7.33 12.36 -3.88 12.62 C-2.96 12.7 -2.05 12.77 -1.12 12.85 C-0.07 12.93 -0.07 12.93 1 13 C1 13.33 1 13.66 1 14 C-3.62 14.33 -8.24 14.66 -13 15 C-12.98 18.16 -12.98 18.16 -12.97 21.38 C-12.95 33.25 -13.25 45.13 -13.5 57 C-13.55 59.34 -13.6 61.67 -13.64 64.01 C-13.76 69.67 -13.88 75.34 -14 81 C-17.13 82.56 -20.58 82.4 -24 82 C-24.99 81.34 -25.98 80.68 -27 80 C-27.38 77.24 -27.56 74.68 -27.63 71.9 C-27.66 71.06 -27.69 70.22 -27.72 69.36 C-27.79 67.53 -27.85 65.71 -27.9 63.88 C-28 60.97 -28.14 58.06 -28.3 55.15 C-28.56 50.02 -28.72 44.9 -28.84 39.77 C-28.91 37.66 -29 35.55 -29.11 33.44 C-30.09 15.06 -30.09 15.06 -25.09 8.66 C-17.49 0.66 -11.13 -1.98 0 0 Z " fill="#114BD9" transform="translate(167,726)"/>
<path d="M0 0 C2 0 2 0 4.12 1.81 C6.9 6.52 6.73 10.66 6 16 C3.57 23.94 -0.66 30.53 -7.62 35.12 C-8.18 35.49 -8.73 35.86 -9.3 36.23 C-10.52 37.04 -11.74 37.85 -12.97 38.65 C-15.21 40.14 -17.41 41.67 -19.61 43.21 C-21.2 44.31 -22.79 45.4 -24.38 46.5 C-25.12 47.03 -25.87 47.56 -26.64 48.1 C-31.18 51.19 -34.49 52.71 -40 53 C-40 53.66 -40 54.32 -40 55 C-40.76 55.27 -41.53 55.54 -42.31 55.81 C-44.92 56.97 -46.07 57.99 -48 60 C-49.49 60.5 -49.49 60.5 -51 61 C-51.08 59.06 -51.14 57.13 -51.19 55.19 C-51.22 54.11 -51.26 53.03 -51.29 51.92 C-51 49 -51 49 -49.8 47.43 C-49.21 46.96 -48.61 46.48 -48 46 C-47.29 45.23 -46.59 44.46 -45.86 43.67 C-42.28 40.33 -38.39 37.84 -34.25 35.25 C-32.71 34.28 -31.18 33.3 -29.64 32.33 C-28.97 31.9 -28.29 31.48 -27.59 31.04 C-26.03 30.1 -26.03 30.1 -25 29 C-25.8 28.88 -26.61 28.75 -27.44 28.62 C-28.71 28.32 -28.71 28.32 -30 28 C-30.33 27.34 -30.66 26.68 -31 26 C-29.93 26.1 -28.85 26.21 -27.75 26.31 C-23.86 26.4 -23.86 26.4 -21.56 23.5 C-20.79 22.26 -20.79 22.26 -20 21 C-20.66 20.01 -21.32 19.02 -22 18 C-19.08 19.07 -17.22 19.78 -15 22 C-15.99 22.99 -16.98 23.98 -18 25 C-14.12 21.84 -10.46 18.64 -7 15 C-6.28 14.26 -5.56 13.51 -4.81 12.75 C-2.67 9.5 -2.07 6.69 -1.39 2.89 C-1 1 -1 1 0 0 Z " fill="#0F44D3" transform="translate(206,744)"/>
<path d="M0 0 C4.91 5.2 7.68 10.08 8.12 17.25 C6.81 16.59 5.49 15.93 4.12 15.25 C4.12 14.26 4.12 13.27 4.12 12.25 C1.79 13.21 1.79 13.21 0.12 16.25 C-0.56 15.61 -1.24 14.97 -1.94 14.31 C-5.36 11.91 -7.77 11.71 -11.88 11.25 C-12.87 10.59 -13.85 9.93 -14.88 9.25 C-17.19 8.98 -19.52 8.82 -21.84 8.72 C-23.23 8.65 -24.62 8.58 -26.01 8.51 C-28.2 8.41 -30.38 8.31 -32.57 8.22 C-34.68 8.13 -36.79 8.02 -38.91 7.91 C-40.17 7.85 -41.43 7.8 -42.74 7.74 C-45.88 7.25 -45.88 7.25 -47.79 5.93 C-49.61 3.11 -49.17 0.49 -48.88 -2.75 C-39.57 -12.06 -9.81 -5.97 0 0 Z " fill="#1653E3" transform="translate(203.875,731.75)"/>
<path d="M0 0 C5.7 0.65 11.46 0.71 17.19 0.9 C19.16 0.98 19.16 0.98 21.17 1.06 C22.43 1.1 23.69 1.15 24.99 1.19 C26.13 1.23 27.27 1.27 28.45 1.32 C31.02 1.28 33.01 1.05 35.44 0.28 C35.41 1.67 35.34 3.07 35.25 4.47 C35.22 5.24 35.18 6.02 35.15 6.82 C34.07 10.58 32.58 11.91 29.44 14.28 C25.7 14.98 22.03 14.86 18.23 14.77 C16.61 14.76 16.61 14.76 14.96 14.74 C11.52 14.72 8.07 14.65 4.63 14.59 C2.29 14.57 -0.05 14.54 -2.38 14.52 C-8.11 14.47 -13.83 14.38 -19.56 14.28 C-19.56 9.66 -19.56 5.04 -19.56 0.28 C-6.15 -0.88 -6.15 -0.88 0 0 Z " fill="#1047D3" transform="translate(158.55859375,808.721923828125)"/>
<path d="M0 0 C3.23 2.71 5.35 5.41 6.69 9.42 C6.83 11.85 6.91 14.29 6.94 16.73 C6.96 18.02 6.99 19.32 7.01 20.65 C6.67 24.61 5.69 27.02 3.69 30.42 C2.41 27.87 2.88 26.99 3.62 24.29 C3.82 23.57 4.01 22.84 4.21 22.1 C4.37 21.54 4.53 20.99 4.69 20.42 C3.94 21.06 3.2 21.7 2.44 22.35 C-2.26 25.88 -6.64 25.55 -12.36 25.51 C-13.13 25.51 -13.9 25.51 -14.7 25.51 C-17.15 25.5 -19.61 25.49 -22.06 25.48 C-23.73 25.47 -25.4 25.47 -27.07 25.47 C-31.15 25.45 -35.23 25.44 -39.31 25.42 C-35.54 21.39 -31.56 18.31 -26.97 15.26 C-26.27 14.8 -25.58 14.34 -24.86 13.86 C-23.41 12.89 -21.95 11.92 -20.48 10.96 C-18.24 9.47 -16.02 7.97 -13.8 6.46 C-12.38 5.52 -10.95 4.58 -9.53 3.64 C-8.87 3.18 -8.2 2.73 -7.52 2.26 C-2.9 -0.73 -2.9 -0.73 0 0 Z " fill="#F3F3F5" transform="translate(193.314208984375,783.583740234375)"/>
<path d="M0 0 C4.87 -0.1 9.75 -0.17 14.62 -0.22 C16.28 -0.24 17.94 -0.27 19.59 -0.3 C21.98 -0.35 24.37 -0.37 26.76 -0.39 C27.86 -0.42 27.86 -0.42 28.98 -0.45 C34.15 -0.46 37.04 0.73 41 4 C43.6 7.82 44.61 11.25 44.42 15.91 C43.2 22.02 39.01 26.57 34 30 C33.34 29.67 32.68 29.34 32 29 C33.32 28.01 34.64 27.02 36 26 C29.81 21.3 23.5 17 16.88 12.94 C10.99 9.32 5.13 5.66 0 1 C0 0.67 0 0.34 0 0 Z " fill="#F3F3F5" transform="translate(154,740)"/>
<path d="M0 0 C3.86 1.54 6.21 2.68 9.43 5.04 C10.25 5.62 11.06 6.2 11.9 6.8 C13.59 8.02 15.28 9.24 16.96 10.48 C22.86 14.77 22.86 14.77 30 15 C27.48 17.75 24.65 19.69 21.56 21.76 C20.5 22.47 19.44 23.17 18.35 23.9 C17.8 24.27 17.25 24.63 16.68 25.01 C15 26.12 13.33 27.25 11.65 28.37 C10.59 29.08 9.53 29.78 8.44 30.51 C7.47 31.15 6.5 31.8 5.5 32.47 C3 34 3 34 0 35 C0 23.45 0 11.9 0 0 Z " fill="#F3F4F7" transform="translate(153,757)"/>
<path d="M0 0 C2.2 6.6 2.03 14.52 -0.69 20.94 C-4.84 28.8 -9.81 32.76 -18 36 C-21.62 36.81 -21.62 36.81 -24 37 C-20.88 32.71 -17.76 28.76 -14 25 C-12.53 20.58 -12.79 15.97 -12.83 11.34 C-12.68 5.87 -12.68 5.87 -10.73 3.36 C-7.17 0.24 -4.67 -0.56 0 0 Z " fill="#1757E7" transform="translate(212,786)"/>
<path d="M0 0 C0.66 0 1.32 0 2 0 C3.57 4.25 5.14 8.51 6.7 12.76 C7.23 14.21 7.77 15.66 8.3 17.11 C9.07 19.18 9.83 21.26 10.59 23.34 C10.83 23.99 11.07 24.64 11.32 25.31 C13 29.89 13 29.89 13 31 C5.08 31 -2.84 31 -11 31 C-3.3 8.94 -3.3 8.94 0 0 Z " fill="#F0F1F5" transform="translate(642,758)"/>
<path d="M0 0 C4.73 2.53 9.39 5.15 13.94 8 C15.03 8.68 15.03 8.68 16.15 9.38 C18.41 11.36 19.09 13.18 20 16 C17.21 19.49 15.83 20.89 11.31 21.47 C6.24 21.31 2.99 18.93 -1 16 C-1.68 15.52 -2.36 15.05 -3.06 14.55 C-4.72 13.39 -6.36 12.2 -8 11 C-7.21 10.22 -6.42 9.44 -5.61 8.64 C-1.54 4.93 -1.54 4.93 0 0 Z " fill="#1751DD" transform="translate(167,750)"/>
<path d="M0 0 C0.33 0 0.66 0 1 0 C1.77 35.07 2.13 70.14 2.18 105.22 C2.19 108.2 2.2 111.17 2.21 114.14 C2.22 118.85 2.23 123.56 2.23 128.27 C2.23 130.03 2.23 131.78 2.24 133.53 C2.25 135.94 2.25 138.35 2.24 140.75 C2.25 141.47 2.25 142.18 2.26 142.91 C2.23 147.77 2.23 147.77 0 150 C0 100.5 0 51 0 0 Z " fill="#104BDD" transform="translate(336,450)"/>
<path d="M0 0 C3.75 1.34 6.62 2.99 9.75 5.44 C10.53 6.03 11.31 6.63 12.11 7.25 C14 9 14 9 15 12 C12.81 14.53 10.61 16.91 8 19 C4.96 19.14 3.85 18.57 1.37 16.91 C-0.76 13.94 -0.32 10.82 -0.19 7.31 C-0.17 6.61 -0.16 5.91 -0.15 5.19 C-0.11 3.46 -0.06 1.73 0 0 Z " fill="#0D3CBC" transform="translate(153,741)"/>
<path d="M0 0 C0.33 0 0.66 0 1 0 C1.85 33.3 2.09 66.57 2.06 99.88 C2.06 100.85 2.06 101.82 2.06 102.81 C2.05 114.88 2.03 126.94 2 139 C1.67 139 1.34 139 1 139 C0.19 105.33 -0.09 71.68 -0.06 38 C-0.06 37.06 -0.06 36.11 -0.06 35.14 C-0.05 23.43 -0.03 11.71 0 0 Z " fill="#1459EB" transform="translate(336,286)"/>
<path d="M0 0 C2.05 1.67 2.05 1.67 4 4 C3.76 14.94 -3.51 30.41 -10 39 C-10.99 39 -11.98 39 -13 39 C-12.41 35.41 -11.43 32.56 -9.81 29.31 C-7.42 24.19 -5.53 18.99 -3.75 13.62 C-3.49 12.85 -3.23 12.08 -2.97 11.28 C-1.75 7.55 -0.65 3.89 0 0 Z " fill="#E7ECF7" transform="translate(620,588)"/>
<path d="M0 0 C0.66 0.33 1.32 0.66 2 1 C1.85 2.75 1.85 2.75 1 5 C-1.45 6.98 -1.45 6.98 -4.68 9.04 C-5.25 9.41 -5.82 9.77 -6.4 10.15 C-8.22 11.32 -10.05 12.47 -11.88 13.62 C-13.1 14.41 -14.32 15.19 -15.54 15.98 C-17.79 17.42 -20.04 18.85 -22.29 20.28 C-24.21 21.5 -26.11 22.74 -28 24 C-28.99 24 -29.98 24 -31 24 C-31 22.68 -31 21.36 -31 20 C-29.34 18.46 -29.34 18.46 -27.01 17.01 C-26.16 16.47 -25.32 15.93 -24.44 15.38 C-23.53 14.82 -22.62 14.26 -21.69 13.69 C-20.78 13.11 -19.86 12.54 -18.92 11.95 C-17.11 10.81 -15.29 9.68 -13.48 8.55 C-11.39 7.25 -9.34 5.92 -7.29 4.56 C-6.33 3.92 -5.37 3.28 -4.38 2.62 C-3.56 2.08 -2.74 1.54 -1.9 0.98 C-1.27 0.65 -0.65 0.33 0 0 Z " fill="#E5EAF6" transform="translate(580,408)"/>
<path d="M0 0 C51.15 0 102.3 0 155 0 C155 0.33 155 0.66 155 1 C103.85 1 52.7 1 0 1 C0 0.67 0 0.34 0 0 Z " fill="#3560CC" transform="translate(400,606)"/>
<path d="M0 0 C3.77 0.83 6.43 2.34 9.69 4.44 C10.66 5.05 11.63 5.67 12.64 6.31 C15 8 15 8 16 10 C11.89 8.55 8.57 6.49 5 4 C-0.35 13.86 0.89 25.94 0.68 36.88 C0.61 39.7 0.49 42.52 0.33 45.34 C-1.13 60.79 -1.13 60.79 4.04 74.61 C9.36 79.3 15.41 82.44 22 85 C21.67 85.66 21.34 86.32 21 87 C17.69 84.86 14.37 82.71 11.06 80.56 C9.64 79.65 9.64 79.65 8.2 78.71 C6.85 77.83 6.85 77.83 5.47 76.94 C4.64 76.4 3.81 75.86 2.95 75.31 C1 74 1 74 0 73 C-0.09 70.73 -0.12 68.46 -0.11 66.19 C-0.11 65.47 -0.11 64.76 -0.11 64.03 C-0.11 61.66 -0.11 59.3 -0.1 56.93 C-0.1 55.3 -0.09 53.66 -0.09 52.03 C-0.09 47.72 -0.08 43.4 -0.07 39.09 C-0.06 34.69 -0.05 30.3 -0.05 25.9 C-0.04 17.27 -0.02 8.63 0 0 Z " fill="#103AB4" transform="translate(400,286)"/>
<path d="M0 0 C0.33 0 0.66 0 1 0 C0.37 21.4 -5.26 41.08 -15.62 59.81 C-15.98 60.46 -16.34 61.12 -16.72 61.79 C-19.04 65.81 -21.58 68.85 -25 72 C-25 71.01 -25 70.02 -25 69 C-24.34 69 -23.68 69 -23 69 C-22.75 68.32 -22.5 67.64 -22.25 66.94 C-21.04 64.09 -19.58 61.51 -18.02 58.85 C-16.44 55.99 -15.23 53.02 -14 50 C-13.34 50 -12.68 50 -12 50 C-11.9 49.38 -11.8 48.77 -11.7 48.13 C-10.91 43.65 -9.99 39.67 -8 35.56 C-5.6 30.56 -4.78 25.46 -4 20 C-3.34 20 -2.68 20 -2 20 C-2.16 19.5 -2.33 19.01 -2.5 18.5 C-3.91 11.43 -2.78 6.49 0 0 Z " fill="#1333A0" transform="translate(622,567)"/>
<path d="M0 0 C0.33 0 0.66 0 1 0 C1.33 6.27 1.66 12.54 2 19 C4.52 20.26 6.31 20.1 9.12 20.06 C10.04 20.05 10.95 20.04 11.88 20.04 C12.58 20.02 13.28 20.01 14 20 C13.81 18.82 13.63 17.65 13.44 16.44 C12.95 12.42 12.99 8.96 14 5 C16.06 3.06 16.06 3.06 18 2 C18.66 2.33 19.32 2.66 20 3 C19.67 3.99 19.34 4.98 19 6 C18.01 6.5 18.01 6.5 17 7 C17 10.3 17 13.6 17 17 C18.32 16.67 19.64 16.34 21 16 C21.33 15.01 21.66 14.02 22 13 C23.65 12.67 25.3 12.34 27 12 C27 11.34 27 10.68 27 10 C28.65 9.67 30.3 9.34 32 9 C26.38 14.97 18.48 21.85 9.97 22.58 C6.12 22.56 6.12 22.56 0 22 C0 14.74 0 7.48 0 0 Z " fill="#0F34A4" transform="translate(139,787)"/>
<path d="M0 0 C0.66 0.33 1.32 0.66 2 1 C0.5 2.24 -0.99 3.47 -2.49 4.71 C-3.71 5.75 -4.87 6.87 -6 8 C-7.64 8.94 -9.29 9.88 -10.95 10.8 C-13.97 12.57 -16.84 14.54 -19.75 16.5 C-21.81 17.87 -23.89 19.2 -26 20.5 C-33.38 24.75 -33.38 24.75 -40 30 C-40.37 32.33 -40.7 34.66 -41 37 C-41.33 37 -41.66 37 -42 37 C-42.65 33.81 -42.74 31.19 -42 28 C-40.28 26.33 -40.28 26.33 -37.89 24.8 C-36.99 24.21 -36.08 23.61 -35.14 23 C-34.1 22.34 -33.07 21.68 -32 21 C-30.83 20.23 -29.67 19.46 -28.51 18.69 C-24.7 16.17 -20.88 13.68 -17.06 11.19 C-15.74 10.32 -14.41 9.45 -13.08 8.59 C-11.22 7.37 -9.37 6.16 -7.5 4.94 C-5 3.31 -2.49 1.66 0 0 Z " fill="#1A3CAF" transform="translate(442,503)"/>
<path d="M0 0 C0.99 0 1.98 0 3 0 C4.56 2.81 4.56 2.81 6 6 C5.67 6.99 5.34 7.98 5 9 C3.89 9.12 3.89 9.12 2.75 9.25 C-0.59 10.16 -1.85 11.32 -4 14 C-4.79 16.14 -4.79 16.14 -5 18 C-8.57 10.71 -8.57 10.71 -7 6 C-6.22 5.94 -5.43 5.88 -4.62 5.81 C-3.76 5.54 -2.89 5.28 -2 5 C-0.63 2.52 -0.63 2.52 0 0 Z " fill="#0E3EC4" transform="translate(205,778)"/>
<path d="M0 0 C5.61 0.4 8.29 1.93 12 6 C12.4 9.6 11.52 11.32 9.35 14.16 C7.62 16.16 5.85 18.1 4 20 C3.67 19.34 3.34 18.68 3 18 C3.33 17.34 3.66 16.68 4 16 C4.56 9.5 3.32 5.57 0 0 Z " fill="#0B37B9" transform="translate(193,742)"/>
<path d="M0 0 C0.66 1.32 1.32 2.64 2 4 C-7.9 10.44 -7.9 10.44 -18 17 C-18.33 16.01 -18.66 15.02 -19 14 C-15.26 9.97 -11.35 7.08 -6.69 4.19 C-6.04 3.78 -5.4 3.37 -4.73 2.96 C-3.16 1.96 -1.58 0.98 0 0 Z " fill="#E4E9F6" transform="translate(548,429)"/>
<path d="M0 0 C0.33 0 0.66 0 1 0 C1.43 2.94 1.6 5.11 -0.11 7.65 C-1.69 9.39 -3.34 11.01 -5.06 12.62 C-5.62 13.18 -6.19 13.74 -6.76 14.32 C-12.22 19.61 -18.22 22.83 -25.19 25.88 C-26.69 26.55 -26.69 26.55 -28.23 27.24 C-31 28 -31 28 -33.36 27.13 C-33.9 26.76 -34.44 26.39 -35 26 C-34.25 25.78 -33.5 25.56 -32.73 25.34 C-25.07 22.96 -17.09 20.17 -11.35 14.32 C-10 13 -10 13 -8 13 C-7.73 12.44 -7.47 11.88 -7.19 11.3 C-5.91 8.83 -4.47 6.56 -2.94 4.25 C-2.41 3.45 -1.88 2.65 -1.34 1.83 C-0.9 1.22 -0.46 0.62 0 0 Z " fill="#1B3AA5" transform="translate(618,577)"/>
<path d="M0 0 C0.99 0.33 1.98 0.66 3 1 C1.55 5.42 -0.87 8.59 -3.88 12.06 C-4.35 12.62 -4.83 13.18 -5.32 13.75 C-10.57 19.8 -16.25 25.43 -22 31 C-22.66 30.67 -23.32 30.34 -24 30 C-23.07 29.13 -23.07 29.13 -22.13 28.23 C-13.38 19.77 -6.24 10.46 0 0 Z " fill="#D0DFF6" transform="translate(606,626)"/>
<path d="M0 0 C2.48 0.5 2.48 0.5 5 1 C4.67 1.66 4.34 2.32 4 3 C3.01 3 2.02 3 1 3 C1 25.11 1 47.22 1 70 C0.67 70 0.34 70 0 70 C0 46.9 0 23.8 0 0 Z " fill="#EFF7FD" transform="translate(561,752)"/>
<path d="M0 0 C0.66 0.33 1.32 0.66 2 1 C-3.49 4.74 -8.99 8.46 -14.5 12.16 C-16.37 13.43 -18.24 14.7 -20.11 15.97 C-22.79 17.79 -25.48 19.6 -28.18 21.41 C-29.01 21.98 -29.85 22.56 -30.71 23.15 C-31.49 23.67 -32.28 24.19 -33.08 24.73 C-33.77 25.19 -34.45 25.66 -35.16 26.13 C-37 27 -37 27 -40 26 C-39.34 26 -38.68 26 -38 26 C-37.67 25.01 -37.34 24.02 -37 23 C-36.34 23 -35.68 23 -35 23 C-34 22 -33 21 -32 20 C-30.61 19.16 -29.19 18.37 -27.75 17.62 C-24.69 15.98 -21.86 14.25 -19.06 12.19 C-16 10 -16 10 -14 10 C-14 9.01 -14 8.02 -14 7 C-12.68 7 -11.36 7 -10 7 C-9.67 6.34 -9.34 5.68 -9 5 C-7 3.68 -7 3.68 -4.56 2.31 C-3.76 1.85 -2.96 1.4 -2.13 0.93 C-1.08 0.47 -1.08 0.47 0 0 Z " fill="#193DAC" transform="translate(478,553)"/>
<path d="M0 0 C1.65 0.66 3.3 1.32 5 2 C5 2.99 5 3.98 5 5 C2.89 6.65 2.89 6.65 -0.04 8.43 C-1.09 9.08 -2.15 9.73 -3.24 10.4 C-4.36 11.07 -5.47 11.74 -6.62 12.44 C-8.81 13.77 -10.98 15.1 -13.16 16.43 C-14.14 17.02 -15.11 17.61 -16.12 18.22 C-19.13 20.08 -22.06 22.02 -25 24 C-25.66 23.67 -26.32 23.34 -27 23 C-24.88 21.49 -22.75 20 -20.62 18.5 C-20.02 18.07 -19.42 17.64 -18.8 17.2 C-14.23 14 -14.23 14 -12 14 C-11.67 13.01 -11.34 12.02 -11 11 C-9.68 11 -8.36 11 -7 11 C-7 10.34 -7 9.68 -7 9 C-6.22 8.55 -5.43 8.09 -4.62 7.62 C-1.86 5.91 -1.07 5.01 0 2 C0 1.34 0 0.68 0 0 Z " fill="#1539AC" transform="translate(580,401)"/>
<path d="M0 0 C1.2 3.6 0.73 4.29 -0.81 7.62 C-1.17 8.42 -1.53 9.22 -1.89 10.04 C-3 12 -3 12 -5 13 C-4.67 10.69 -4.34 8.38 -4 6 C-4.69 6.33 -5.38 6.66 -6.09 7 C-9.49 8.17 -12.03 8.14 -15.61 7.98 C-17.48 7.9 -17.48 7.9 -19.39 7.82 C-20.69 7.76 -21.98 7.69 -23.31 7.62 C-24.63 7.57 -25.94 7.51 -27.29 7.45 C-30.53 7.31 -33.76 7.16 -37 7 C-37 6.67 -37 6.34 -37 6 C-36.19 5.99 -35.38 5.97 -34.54 5.96 C-30.84 5.88 -27.14 5.78 -23.44 5.69 C-22.16 5.66 -20.88 5.64 -19.57 5.62 C-8.84 5.47 -8.84 5.47 0 0 Z " fill="#0E2D9E" transform="translate(198,803)"/>
<path d="M0 0 C1.8 0.8 1.8 0.8 2.8 2.8 C2.14 2.8 1.48 2.8 0.8 2.8 C0.14 4.45 -0.52 6.1 -1.2 7.8 C-2.19 7.8 -3.18 7.8 -4.2 7.8 C-4.53 8.46 -4.86 9.12 -5.2 9.8 C-6.19 10.46 -7.18 11.12 -8.2 11.8 C-9.19 10.81 -10.18 9.82 -11.2 8.8 C-10.07 5.4 -9.17 4.67 -6.39 2.55 C-5.7 2.01 -5.01 1.46 -4.3 0.91 C-2.2 -0.2 -2.2 -0.2 0 0 Z " fill="#0E35AC" transform="translate(204.19921875,775.203125)"/>
<path d="M0 0 C0.99 0.33 1.98 0.66 3 1 C2.19 1.58 1.38 2.15 0.54 2.74 C-3.59 6.92 -2.73 12.57 -2.71 18.08 C-2.72 19.25 -2.74 20.42 -2.75 21.63 C-2.8 25.35 -2.8 29.08 -2.81 32.81 C-2.84 35.34 -2.86 37.87 -2.89 40.4 C-2.95 46.6 -2.99 52.8 -3 59 C-3.33 59 -3.66 59 -4 59 C-4.1 51.24 -4.17 43.48 -4.22 35.72 C-4.24 33.08 -4.27 30.44 -4.3 27.8 C-4.35 24.01 -4.37 20.22 -4.39 16.42 C-4.42 14.65 -4.42 14.65 -4.45 12.84 C-4.45 11.19 -4.45 11.19 -4.45 9.5 C-4.47 8.05 -4.47 8.05 -4.48 6.57 C-3.87 3.3 -2.51 2.1 0 0 Z " fill="#105CF2" transform="translate(341,281)"/>
</svg>
