<?xml version="1.0" encoding="UTF-8"?>
<!-- Generator: visioncortex VTracer 0.6.4 -->
<svg version="1.1" xmlns="http://www.w3.org/2000/svg" width="1024" height="1024">

<path d="M0 0 C22.96 -0.07 45.92 -0.12 68.88 -0.16 C79.54 -0.17 90.2 -0.19 100.86 -0.23 C110.17 -0.26 119.47 -0.28 128.77 -0.28 C133.69 -0.29 138.61 -0.3 143.52 -0.32 C183.6 -0.49 183.6 -0.49 201 3 C201.73 3.14 202.46 3.29 203.22 3.44 C225.64 7.99 245.72 18.08 263 33 C263.81 33.66 264.61 34.32 265.44 35 C284.75 51.42 298.01 75.6 304 100 C304.25 100.97 304.25 100.97 304.51 101.96 C307.47 113.49 308.66 124.3 308.5 136.19 C308.49 136.99 308.49 137.79 308.48 138.61 C308.17 175.54 296.17 212.12 269.44 238.62 C268.68 239.36 267.92 240.1 267.14 240.86 C265.21 242.79 263.48 244.77 261.75 246.88 C249.28 261.28 231.84 272.16 215.82 282.2 C213.05 283.89 213.05 283.89 210.87 285.74 C209 287 209 287 205 287 C205 287.66 205 288.32 205 289 C203.57 290.12 203.57 290.12 201.55 291.36 C200.79 291.83 200.04 292.3 199.26 292.78 C198.43 293.29 197.6 293.79 196.75 294.31 C194.99 295.41 193.22 296.5 191.46 297.6 C190.55 298.16 189.64 298.73 188.7 299.31 C184.56 301.9 180.47 304.57 176.38 307.25 C168.68 312.28 160.94 317.24 153.19 322.19 C145.89 326.85 138.62 331.53 131.44 336.36 C126.61 339.6 121.75 342.78 116.88 345.94 C107.27 352.17 97.69 358.44 88.12 364.72 C82.26 368.56 76.39 372.4 70.52 376.22 C59.01 383.73 47.54 391.29 36.11 398.93 C33.96 400.36 31.82 401.79 29.67 403.22 C28.98 403.68 28.29 404.14 27.58 404.61 C26.24 405.51 24.89 406.4 23.54 407.3 C19.79 409.8 16.04 412.32 12.3 414.84 C10.78 415.85 9.27 416.87 7.75 417.88 C6.79 418.54 6.79 418.54 5.8 419.21 C2.41 421.44 0.09 422.51 -4 422 C-2.68 421.67 -1.36 421.34 0 421 C-0.06 420.01 -0.12 419.03 -0.18 418.01 C-0.73 408.63 -1.14 399.25 -1.4 389.86 C-1.54 385.03 -1.73 380.21 -2.04 375.39 C-4.04 343.32 -4.04 343.32 2.6 335.5 C8.64 329.55 16.14 325.84 23.82 322.45 C27.98 320.55 31.63 318.16 35.38 315.56 C36.71 314.7 38.04 313.84 39.38 312.99 C49.94 306.18 60.42 299.26 70.92 292.36 C73.05 290.97 75.17 289.57 77.3 288.18 C81.74 285.27 86.18 282.35 90.62 279.44 C91.36 278.95 92.1 278.47 92.87 277.97 C102.71 271.5 112.53 264.99 122.31 258.44 C132.07 251.91 141.92 245.54 151.84 239.27 C159.27 234.57 166.65 229.79 174.01 224.96 C176.22 223.51 178.44 222.06 180.67 220.61 C184.03 218.42 187.38 216.22 190.73 214.01 C192.06 213.14 193.39 212.27 194.72 211.41 C206.9 203.52 206.9 203.52 216.52 192.77 C217.01 192.19 217.5 191.6 218 191 C218.99 191 219.98 191 221 191 C221 190.34 221 189.68 221 189 C222 188.48 223 187.96 224.03 187.43 C228.42 184.92 231.88 181.68 235.5 178.19 C236.13 177.6 236.75 177.01 237.39 176.4 C239.28 174.61 241.14 172.81 243 171 C243.91 170.13 243.91 170.13 244.84 169.24 C248.78 165.4 252.22 161.4 255.44 156.94 C255.91 156.29 256.38 155.64 256.86 154.97 C263.38 145.8 268.68 136.2 273.12 125.88 C273.45 125.15 273.77 124.43 274.09 123.68 C275.72 119.84 275.72 119.84 275.46 115.79 C258.24 94.75 227.56 78.43 201 74 C201.33 75.32 201.66 76.64 202 78 C200.79 77.59 199.59 77.18 198.34 76.76 C196.73 76.21 195.11 75.67 193.5 75.12 C192.71 74.86 191.92 74.59 191.1 74.31 C190.32 74.04 189.53 73.78 188.72 73.51 C188.01 73.27 187.29 73.03 186.56 72.78 C180.32 70.88 174.91 69.75 168.36 69.72 C167.27 69.71 167.27 69.71 166.16 69.7 C163.75 69.69 161.34 69.68 158.94 69.68 C157.2 69.67 155.47 69.66 153.73 69.65 C149.04 69.62 144.34 69.61 139.65 69.6 C134.74 69.58 129.83 69.55 124.92 69.53 C115.62 69.48 106.33 69.44 97.04 69.41 C86.45 69.37 75.87 69.32 65.29 69.27 C43.53 69.17 21.76 69.08 0 69 C0 46.23 0 23.46 0 0 Z " fill="#1551D7" transform="translate(393,245)"/>
<path d="M0 0 C1.11 1.11 2.22 2.22 3.33 3.34 C4.53 4.53 5.75 5.71 6.98 6.88 C33.39 32.3 48.41 68.98 49.28 105.47 C49.64 139.7 39.43 176.38 16.02 202.18 C14.88 203.31 13.73 204.42 12.56 205.5 C10.96 207.03 9.63 208.65 8.25 210.38 C-12.03 234.35 -45.64 247.45 -76 251 C-84.75 251.63 -93.51 251.51 -102.27 251.45 C-104.83 251.45 -107.38 251.45 -109.94 251.46 C-115.39 251.46 -120.84 251.45 -126.29 251.42 C-134.17 251.39 -142.05 251.38 -149.94 251.37 C-162.73 251.37 -175.52 251.34 -188.32 251.3 C-200.73 251.26 -213.14 251.24 -225.55 251.22 C-226.32 251.22 -227.09 251.22 -227.88 251.22 C-231.73 251.21 -235.58 251.21 -239.44 251.2 C-271.29 251.16 -303.15 251.09 -335 251 C-335 225.92 -335 200.84 -335 175 C-334.34 175 -333.68 175 -333 175 C-332.67 175.99 -332.34 176.98 -332 178 C-323.91 178.15 -315.81 178.3 -307.72 178.44 C-303.96 178.51 -300.2 178.58 -296.44 178.65 C-292.81 178.72 -289.18 178.78 -285.55 178.84 C-284.17 178.87 -282.79 178.89 -281.41 178.92 C-279.46 178.96 -277.52 178.99 -275.58 179.02 C-273.92 179.05 -273.92 179.05 -272.23 179.08 C-268.99 179.07 -268.99 179.07 -265.79 178.5 C-261.89 177.99 -258.1 177.87 -254.19 177.91 C-253.43 177.91 -252.67 177.91 -251.9 177.91 C-249.38 177.92 -246.86 177.94 -244.34 177.95 C-242.53 177.96 -240.72 177.96 -238.9 177.97 C-235.01 177.98 -231.11 178 -227.21 178.02 C-221.03 178.04 -214.85 178.06 -208.67 178.08 C-206.55 178.08 -204.42 178.09 -202.3 178.09 C-201.24 178.09 -200.18 178.1 -199.09 178.1 C-184.7 178.14 -170.32 178.18 -155.94 178.25 C-146.23 178.29 -136.52 178.32 -126.81 178.34 C-121.68 178.34 -116.56 178.36 -111.43 178.39 C-106.59 178.42 -101.75 178.44 -96.92 178.43 C-95.16 178.44 -93.4 178.45 -91.64 178.46 C-75.16 178.62 -59.68 176.76 -45.08 168.68 C-42 167 -42 167 -38.34 165.49 C-31.31 162.35 -27.28 156.17 -23 150 C-22.67 150 -22.34 150 -22 150 C-18.74 169.57 -31.2 194.05 -42 210 C-48.55 219.01 -55.84 227.41 -64 235 C-38 213.34 -19.62 184.01 -16.21 149.87 C-13.96 119.18 -17.41 87.86 -37.89 63.46 C-43.11 57.52 -48.71 52.27 -55.04 47.49 C-57 46 -57 46 -59 44 C-58.11 43.75 -57.23 43.5 -56.31 43.25 C-52.81 41.93 -50.89 40.34 -48 38 C-45.82 36.58 -43.64 35.19 -41.44 33.81 C-17.82 19.69 -17.82 19.69 0 0 Z " fill="#1554DA" transform="translate(657,488)"/>
<path d="M0 0 C0.91 48.03 1.09 96.04 0.91 144.08 C0.87 153.68 0.84 163.27 0.82 172.87 C0.76 189.97 0.71 207.07 0.65 224.17 C0.59 240.72 0.53 257.27 0.48 273.83 C0.48 274.86 0.48 275.89 0.47 276.95 C0.46 282.12 0.44 287.29 0.42 292.46 C0.29 334.98 0.15 377.49 0 420 C-4.66 421.39 -8.52 422.24 -13.39 422.14 C-15.23 422.1 -15.23 422.1 -17.09 422.07 C-18.39 422.04 -19.69 422.01 -21.03 421.98 C-22.38 421.95 -23.74 421.93 -25.1 421.9 C-28.65 421.83 -32.21 421.76 -35.76 421.67 C-39.39 421.59 -43.02 421.52 -46.66 421.45 C-53.77 421.31 -60.89 421.16 -68 421 C-70.03 417.62 -70.26 415.03 -70.27 411.11 C-70.28 409.9 -70.29 408.69 -70.3 407.44 C-70.3 406.1 -70.3 404.75 -70.3 403.41 C-70.31 401.98 -70.32 400.55 -70.33 399.12 C-70.35 395.19 -70.36 391.26 -70.36 387.33 C-70.37 383.09 -70.4 378.86 -70.41 374.62 C-70.46 364.39 -70.48 354.15 -70.51 343.92 C-70.51 340.07 -70.52 336.21 -70.53 332.36 C-70.58 315.38 -70.61 298.39 -70.63 281.41 C-70.64 277.25 -70.64 273.09 -70.65 268.94 C-70.65 267.91 -70.65 266.87 -70.65 265.81 C-70.67 249.07 -70.73 232.33 -70.8 215.59 C-70.88 198.41 -70.92 181.22 -70.93 164.04 C-70.93 154.39 -70.95 144.74 -71.01 135.09 C-71.06 126.88 -71.08 118.66 -71.06 110.44 C-71.05 106.25 -71.06 102.06 -71.1 97.87 C-71.14 94.03 -71.14 90.19 -71.1 86.35 C-71.1 84.96 -71.11 83.58 -71.14 82.19 C-71.32 71.88 -71.32 71.88 -68.06 67.25 C-65.81 64.96 -63.52 62.97 -61 61 C-59.67 59.85 -58.34 58.69 -57.02 57.52 C-56.37 56.96 -55.72 56.4 -55.05 55.82 C-51.06 52.28 -47.36 48.46 -43.61 44.67 C-42.74 43.8 -41.88 42.93 -40.98 42.03 C-38.24 39.27 -35.49 36.51 -32.75 33.75 C-29.12 30.1 -25.49 26.45 -21.86 22.8 C-21.03 21.96 -20.2 21.12 -19.35 20.26 C-18.57 19.48 -17.8 18.7 -17 17.9 C-15.98 16.88 -15.98 16.88 -14.95 15.83 C-13 14 -13 14 -10.8 12.4 C-8.81 11.1 -8.81 11.1 -8.12 8.69 C-6.95 5.89 -3.38 0 0 0 Z " fill="#1658DF" transform="translate(393,246)"/>


<path d="M0 0 C5.43 2.65 10.76 5.31 15.85 8.6 C16.86 9.25 17.87 9.9 18.9 10.57 C19.95 11.25 20.99 11.93 22.06 12.62 C23.16 13.33 24.26 14.04 25.39 14.77 C28.6 16.84 31.8 18.92 35 21 C36.6 22.04 38.21 23.07 39.81 24.11 C43.21 26.3 46.61 28.5 50 30.71 C53.5 32.97 57 35.24 60.5 37.5 C64.66 40.19 68.81 42.88 72.97 45.57 C92 57.92 111.14 70.1 130.29 82.27 C133.06 84.04 135.82 85.8 138.59 87.56 C147.16 93.02 155.72 98.46 164.31 103.88 C172 108.72 179.66 113.6 187.31 118.5 C188.38 119.18 189.45 119.87 190.55 120.57 C195.4 123.67 200.23 126.78 205 130 C201.72 132.68 198.39 135.16 194.86 137.5 C193.88 138.16 192.9 138.81 191.89 139.48 C190.85 140.17 189.82 140.86 188.75 141.56 C187.14 142.63 187.14 142.63 185.5 143.72 C178.67 148.25 171.82 152.76 164.91 157.17 C161.49 159.35 158.14 161.59 154.84 163.93 C154.16 164.4 153.48 164.88 152.79 165.36 C151.51 166.26 150.25 167.17 148.99 168.09 C146.2 170.05 144.56 171.04 141.1 170.79 C137.87 169.97 135.81 168.9 133.05 167.04 C132.13 166.43 131.21 165.82 130.26 165.19 C129.29 164.53 128.31 163.87 127.31 163.19 C125.24 161.81 123.17 160.43 121.1 159.05 C120.07 158.37 119.04 157.68 117.98 156.97 C113.77 154.19 109.52 151.49 105.25 148.81 C104.48 148.33 103.72 147.85 102.93 147.35 C101.39 146.38 99.85 145.42 98.31 144.45 C94.37 141.98 90.43 139.49 86.5 137 C84.92 136 83.33 135 81.75 134 C65.92 124 50.08 114 34.25 104 C33.46 103.5 32.68 103.01 31.87 102.5 C30.3 101.51 28.73 100.52 27.16 99.52 C22.98 96.88 18.8 94.25 14.62 91.61 C13.74 91.06 12.86 90.51 11.96 89.94 C10.27 88.87 8.57 87.81 6.88 86.74 C6.12 86.27 5.36 85.79 4.59 85.3 C3.92 84.88 3.25 84.46 2.56 84.02 C1 83 1 83 0 82 C-0.1 79.44 -0.13 76.92 -0.11 74.36 C-0.11 73.56 -0.11 72.76 -0.11 71.94 C-0.11 69.28 -0.11 66.62 -0.1 63.96 C-0.1 62.13 -0.09 60.29 -0.09 58.45 C-0.09 53.61 -0.08 48.76 -0.07 43.92 C-0.06 38.98 -0.05 34.04 -0.05 29.1 C-0.04 19.4 -0.02 9.7 0 0 Z " fill="#144FD2" transform="translate(393,315)"/>

<path d="M0 0 C6.46 0.51 11.95 1.7 18 4 C18.82 4.31 19.64 4.62 20.48 4.93 C41.38 13.05 60.36 25.92 76 42 C73.84 51.36 69.49 59.59 65 68 C64.52 68.91 64.03 69.82 63.53 70.76 C54.21 87.18 39.12 104.91 23 115 C22.01 115 21.02 115 20 115 C20 115.66 20 116.32 20 117 C19.34 116.67 18.68 116.34 18 116 C18.59 115.13 19.18 114.26 19.79 113.36 C32.89 93.75 38.46 72.22 34.61 48.6 C30.83 32.16 20.35 18.43 7.02 8.53 C4.39 6.54 2.18 4.47 0 2 C0 1.34 0 0.68 0 0 Z " fill="#1346C4" transform="translate(594,319)"/>
<path d="M0 0 C2.4 3.59 2.26 6.12 2.2 10.27 C2.2 11.02 2.2 11.76 2.2 12.53 C2.18 15.04 2.16 17.54 2.14 20.05 C2.12 21.84 2.12 23.63 2.11 25.43 C2.08 30.3 2.04 35.18 2 40.06 C1.96 45.15 1.93 50.24 1.9 55.33 C1.84 64.98 1.77 74.63 1.7 84.28 C1.62 95.26 1.54 106.24 1.47 117.22 C1.33 139.81 1.17 162.41 1 185 C0.67 185 0.34 185 0 185 C0 123.95 0 62.9 0 0 Z " fill="#0F58EF" transform="translate(322,327)"/>

<path d="M0 0 C57.75 0 115.5 0 175 0 C175 0.33 175 0.66 175 1 C88.38 1.5 88.38 1.5 0 2 C0 1.34 0 0.68 0 0 Z " fill="#1658DF" transform="translate(394,314)"/>

<path d="M0 0 C0.33 0 0.66 0 1 0 C1 49.83 1 99.66 1 151 C0.67 151 0.34 151 0 151 C0 101.17 0 51.34 0 0 Z " fill="#1555DB" transform="translate(322,512)"/>


<path d="M0 0 C0.5 1.49 0.5 1.49 1 3 C0.34 3.59 -0.32 4.18 -1 4.78 C-13.12 15.72 -24.51 27.42 -36 39 C-36.99 38.67 -37.98 38.34 -39 38 C-35.59 34.56 -32.18 31.13 -28.76 27.7 C-27.6 26.54 -26.44 25.37 -25.28 24.21 C-13.63 12.47 -13.63 12.47 -7.63 7.41 C-4.94 5.09 -2.48 2.55 0 0 Z " fill="#2674F3" transform="translate(384,254)"/>

<path d="M0 0 C0.33 0 0.66 0 1 0 C0.86 2.4 0.71 4.79 0.56 7.19 C0.52 7.86 0.48 8.53 0.44 9.23 C0.21 12.9 -0.17 16.42 -1 20 C-1.66 18.68 -2.32 17.36 -3 16 C-3.41 16.57 -3.83 17.14 -4.25 17.72 C-8.35 23.2 -12.68 27.71 -18 32 C-18 31.01 -18 30.02 -18 29 C-16.48 27.76 -16.48 27.76 -14.94 26.5 C-6.63 19.67 -2.84 10.11 0 0 Z " fill="#1747BF" transform="translate(637,623)"/>
<path d="M0 0 C0.99 0.33 1.98 0.66 3 1 C-10.26 14.45 -10.26 14.45 -16.51 19.73 C-19.38 22.1 -19.38 22.1 -20.41 25.6 C-20.48 26.6 -20.55 27.6 -20.62 28.62 C-20.7 29.63 -20.77 30.63 -20.85 31.66 C-20.9 32.43 -20.95 33.21 -21 34 C-21.33 34 -21.66 34 -22 34 C-22.99 28.33 -23.25 23.85 -19.94 18.95 C-17.16 15.83 -14.09 13.04 -11 10.25 C-9.94 9.25 -8.88 8.24 -7.82 7.23 C-5.24 4.79 -2.63 2.38 0 0 Z " fill="#1C6EF5" transform="translate(344,293)"/>
</svg>
