<svg xmlns="http://www.w3.org/2000/svg" viewBox="0 0 100 100" width="100" height="100">
  <!-- Navy bg with rounded corners so it reads well on light browser themes -->
  <rect width="100" height="100" rx="14" fill="#0A1628"/>
  <!-- Stylized B in electric blue — bold, fills the canvas -->
  <path
    d="M 22 18
       L 22 82
       L 56 82
       C 70 82  78 75  78 64
       C 78 57  74 52  68 50
       C 73 47  76 42  76 36
       C 76 25  68 18  56 18
       Z
       M 35 30
       L 54 30
       C 60 30  63 33  63 38
       C 63 43  60 45  54 45
       L 35 45
       Z
       M 35 56
       L 56 56
       C 63 56  66 59  66 64
       C 66 69  63 70  56 70
       L 35 70
       Z"
    fill="#2563EB"
  />
</svg>
