<svg width="727" height="374" viewBox="0 0 727 374" fill="none" xmlns="http://www.w3.org/2000/svg">
<g clip-path="url(#clip0_3311_3)">
<path d="M0 0H727V374H0V0Z" fill="#0E0E13"/>
<path d="M386.854 173.989C382.08 167.323 375.523 164.024 366.876 164.843C361.317 165.399 356.23 168.043 352.763 172.176C344.996 181.401 346.211 198.44 356.326 205.713C363.716 210.926 375.058 210.982 382.218 205.357C391.298 198.22 388.931 187.986 391.11 178.597C392.229 173.861 394.408 169.405 397.504 165.527C408.483 151.772 431.614 149.696 445.855 160.041C461.265 171.232 463.42 194.536 451.631 208.784C445.596 216.077 437.659 219.616 428.096 220.795C416.538 221.132 409.133 219.439 400.319 211.992C403.677 207.747 405.075 205.072 406.616 199.963C411.089 206.969 418.38 210.396 427.041 209.514C432.391 209.019 437.297 206.498 440.637 202.528C452.139 188.948 444.357 162.106 421.529 164.971C417.869 165.443 414.422 166.864 411.568 169.074C402.775 175.89 404.046 186.203 402.246 195.798C397.734 219.845 366.869 228.364 347.309 213.884C332.061 202.596 330.297 179.215 342.312 165.178C348.419 158.043 356.61 154.643 366.198 153.667C377.483 153.269 384.859 155.297 393.457 162.385C390.418 165.677 388.608 170.004 386.854 173.989Z" fill="#5558DE"/>
<path d="M64.9842 154.554L87.7857 154.497C95.6183 154.482 100.725 154.332 108.498 155.52C124.392 157.95 129.714 178.039 115.516 185.48C125.901 191.851 129.965 199.263 124.656 210.784C117.642 221.734 99.2793 219.947 87.6877 219.946L64.991 219.986C64.756 198.31 64.9821 176.261 64.9842 154.554Z" fill="#F5F4F6"/>
<path d="M79.935 192.065C81.301 192.062 83.7624 191.923 85.0432 192.056C92.7899 192.863 110.451 188.878 111.588 199.641C111.901 202.61 111.078 204.072 109.208 206.225C104.212 209.872 86.5153 208.492 79.9062 208.449L79.935 192.065Z" fill="#0E0E12"/>
<path d="M80.0803 165.753C86.9066 165.697 101.094 164.358 106.542 168.334C109.936 170.81 108.998 176.105 106.082 179.098C100.682 181.978 86.9417 181.014 79.879 180.995C79.8659 178.072 79.6646 168.188 80.0803 165.753Z" fill="#0E0E12"/>
<path d="M266.125 154.532L288.755 154.511C299.062 154.513 314.018 153.447 320.087 163.117C324.925 170.827 322.859 180.967 314.345 185.464C324.749 191.09 328.483 199.608 323.541 210.324C316.757 221.157 301.479 219.839 290.062 219.838L266.098 219.829C265.703 198.912 265.888 175.528 266.125 154.532Z" fill="#F5F4F6"/>
<path d="M279.113 191.523C285.983 191.509 304.547 190.113 309.644 194.192C311.418 195.612 312.222 197.443 312.366 199.603C312.566 202.601 312.011 204.67 309.91 206.947C303.568 210.72 287.146 209.437 279.008 209.427C278.957 205.18 278.616 195.509 279.113 191.523Z" fill="#0E0E12"/>
<path d="M279.025 164.719C286.224 164.899 300.575 163.349 306.628 167.037C310.997 169.699 310.118 175.426 307.048 179.202C301.389 182.809 286.371 181.583 278.956 181.535C278.894 175.93 278.917 170.324 279.025 164.719Z" fill="#0E0E12"/>
<path d="M604.578 154.57C614.422 154.38 633.566 153.62 642.77 155.814C664.129 160.905 667.282 187.848 646.831 198.16C651.865 205.408 656.959 212.616 662.117 219.786L654.052 219.806L647.893 219.805C644.712 214.504 638.34 205.832 634.62 200.515C628.947 200.48 623.271 200.508 617.599 200.599C617.347 206.765 617.592 213.475 617.46 219.783C613.165 219.824 608.866 219.838 604.571 219.826L604.578 154.57Z" fill="#F5F4F6"/>
<path d="M617.57 165.228C624.638 165.257 637.932 163.78 643.409 168.364C648.94 172.994 648.762 181.317 643.867 186.566C637.016 191.482 626.285 190.135 617.577 190.078L617.57 165.228Z" fill="#0E0E12"/>
<path d="M471.836 154.599C476.05 154.503 480.597 154.567 484.832 154.562C484.577 165.274 484.8 176.799 484.807 187.597C488.347 184.281 492.613 179.634 496.032 176.117C503.004 168.98 509.929 161.804 516.809 154.589C521.832 154.541 526.851 154.555 531.874 154.63C524.881 161.494 518.307 168.927 511.367 175.853C508.861 178.35 506.302 181.031 503.976 183.677C508.634 189.845 513.415 195.588 518.342 201.564C523.227 207.604 528.158 213.777 533.131 219.744C528.083 219.847 522.847 219.797 517.785 219.809C511.328 211.206 502.294 200.949 495.258 192.485C492.095 195.972 487.502 200.03 484.786 203.464L484.79 219.785L471.822 219.808L471.836 154.599Z" fill="#F5F4F6"/>
<path d="M541.576 154.533C557.501 154.332 574.309 154.439 590.251 154.581V165.2L554.59 165.222L554.533 181.401C564.941 181.373 575.828 181.245 586.197 181.546L586.144 191.687C576.929 191.802 563.333 191.205 554.565 191.798L554.533 209.286C566.755 208.998 579.41 209.189 591.653 209.243L591.572 219.777L541.626 219.83L541.576 154.533Z" fill="#F5F4F6"/>
<path d="M183.228 154.593L199.821 154.505C206.253 169.849 214.02 186.643 220.947 201.897C225.506 191.286 230.206 180.728 235.045 170.227C237.317 165.162 239.978 159.654 241.964 154.561L257.563 154.573C255.658 158.979 253.703 163.365 251.699 167.732C244.058 184.77 235.383 202.968 228.271 220.068C223.173 219.952 218.073 219.932 212.974 220.01C210.418 213.393 205.711 204.173 202.613 197.359L183.228 154.593Z" fill="#F5F4F6"/>
<path d="M138.505 154.566L153.791 154.572L153.746 207.714L188.466 207.764L188.376 219.86L138.521 219.977L138.505 154.566Z" fill="#F5F4F6"/>
</g>
<defs>
<clipPath id="clip0_3311_3">
<rect width="727" height="374" fill="white"/>
</clipPath>
</defs>
</svg>
