<svg width="100%" viewBox="322 114 150 150" fill="none" xmlns="http://www.w3.org/2000/svg">
<rect x="322" y="114" width="150" height="150" rx="34" fill="#0E0E13"/>
<path d="M386.854 173.989C382.08 167.323 375.523 164.024 366.876 164.843C361.317 165.399 356.23 168.043 352.763 172.176C344.996 181.401 346.211 198.44 356.326 205.713C363.716 210.926 375.058 210.982 382.218 205.357C391.298 198.22 388.931 187.986 391.11 178.597C392.229 173.861 394.408 169.405 397.504 165.527C408.483 151.772 431.614 149.696 445.855 160.041C461.265 171.232 463.42 194.536 451.631 208.784C445.596 216.077 437.659 219.616 428.096 220.795C416.538 221.132 409.133 219.439 400.319 211.992C403.677 207.747 405.075 205.072 406.616 199.963C411.089 206.969 418.38 210.396 427.041 209.514C432.391 209.019 437.297 206.498 440.637 202.528C452.139 188.948 444.357 162.106 421.529 164.971C417.869 165.443 414.422 166.864 411.568 169.074C402.775 175.89 404.046 186.203 402.246 195.798C397.734 219.845 366.869 228.364 347.309 213.884C332.061 202.596 330.297 179.215 342.312 165.178C348.419 158.043 356.61 154.643 366.198 153.667C377.483 153.269 384.859 155.297 393.457 162.385C390.418 165.677 388.608 170.004 386.854 173.989Z" fill="#5558DE"/>
</svg>
